<?xml version="1.0" encoding="UTF-8" standalone="no"?>
<svg
   xmlns:ns0="http://www.iki.fi/pav/software/textext/"
   xmlns:dc="http://purl.org/dc/elements/1.1/"
   xmlns:cc="http://creativecommons.org/ns#"
   xmlns:rdf="http://www.w3.org/1999/02/22-rdf-syntax-ns#"
   xmlns:svg="http://www.w3.org/2000/svg"
   xmlns="http://www.w3.org/2000/svg"
   version="1.1"
   id="svg2"
   viewBox="0 0 558.74999 287.93701"
   height="307.13281"
   width="596">
  <defs
     id="defs4">
    <marker
       orient="auto"
       refY="0"
       refX="0"
       id="TriangleOutS"
       style="overflow:visible">
      <path
         id="path6817"
         d="M 5.77,0 -2.88,5 V -5 Z"
         style="fill:#000000;fill-opacity:1;fill-rule:evenodd;stroke:#000000;stroke-width:1.00000003pt;stroke-opacity:1"
         transform="scale(0.2)" />
    </marker>
    <marker
       orient="auto"
       refY="0"
       refX="0"
       id="TriangleOutS-5"
       style="overflow:visible">
      <path
         id="path6817-3"
         d="M 5.77,0 -2.88,5 V -5 Z"
         style="fill:#000000;fill-opacity:1;fill-rule:evenodd;stroke:#000000;stroke-width:1.00000003pt;stroke-opacity:1"
         transform="scale(0.2)" />
    </marker>
    <marker
       orient="auto"
       refY="0"
       refX="0"
       id="TriangleOutS-5-0"
       style="overflow:visible">
      <path
         id="path6817-3-3"
         d="M 5.77,0 -2.88,5 V -5 Z"
         style="fill:#000000;fill-opacity:1;fill-rule:evenodd;stroke:#000000;stroke-width:1.00000003pt;stroke-opacity:1"
         transform="scale(0.2)" />
    </marker>
  </defs>
  <metadata
     id="metadata7">
    <rdf:RDF>
      <cc:Work
         rdf:about="">
        <dc:format>image/svg+xml</dc:format>
        <dc:type
           rdf:resource="http://purl.org/dc/dcmitype/StillImage" />
        <dc:title></dc:title>
      </cc:Work>
    </rdf:RDF>
  </metadata>
  <g
     id="layer1"
     transform="translate(-27.37994,46.641639)">
    <g
       style="font-style:normal;font-variant:normal;font-weight:normal;font-stretch:normal;letter-spacing:normal;word-spacing:normal;text-anchor:start;fill:#000000;fill-opacity:1;fill-rule:evenodd;stroke:#000000;stroke-linecap:butt;stroke-linejoin:miter;stroke-miterlimit:10.43299961;stroke-dasharray:none;stroke-dashoffset:0;stroke-opacity:1"
       id="content"
       transform="matrix(2.0846201,0,0,-2.0846201,-416.5457,1414.4628)"
       xml:space="preserve"
       stroke-miterlimit="10.433"
       font-style="normal"
       font-variant="normal"
       font-weight="normal"
       font-stretch="normal"
       font-size-adjust="none"
       letter-spacing="normal"
       word-spacing="normal"
       ns0:text="\\begin{subequations}\n\\label{eq:tp-1}\n\\begin{align}\n\\min_u \\quad &amp; \\frac{1}{2} \\int_{0}^{1} u^2 dt \\\\\n\\text{subject to:} \\quad &amp; \\begin{bmatrix} \\dot{\\xi}_1 \\\\ \\dot{\\xi}_2 \\end{bmatrix} = \\begin{bmatrix}0 &amp; 1 \\\\ 0 &amp; 0 \\end{bmatrix} \\begin{bmatrix} {\\xi}_1 \\\\ {\\xi}_2 \\end{bmatrix} + \\begin{bmatrix}0 \\\\ 1\\end{bmatrix} u \\\\\n&amp; \\xi_1(0) = 0 \\\\\n&amp; \\xi_2(0) = 1 \\\\\n&amp; \\xi_1(1) = 0 \\\\\n&amp; \\xi_2(1) = -1 \\\\\n&amp; \\xi_1(t) \\leq \\ell\n\\end{align}\n\\end{subequations}"
       ns0:preamble="C:\\Users\\Daniel\\AppData\\Roaming\\inkscape\\extensions\\default_packages.tex"><path
         style="fill:#000000;stroke-width:0"
         d="m 247.88,684.1 v -2.66 c 0,-0.45 -0.11,-0.45 -0.77,-0.45 v -0.31 c 0.35,0.02 0.85,0.04 1.12,0.04 0.26,0 0.78,-0.02 1.12,-0.04 v 0.31 c -0.67,0 -0.78,0 -0.78,0.45 v 1.83 c 0,1.03 0.71,1.59 1.35,1.59 0.63,0 0.74,-0.54 0.74,-1.1 v -2.32 c 0,-0.45 -0.11,-0.45 -0.78,-0.45 v -0.31 c 0.35,0.02 0.86,0.04 1.13,0.04 0.26,0 0.77,-0.02 1.11,-0.04 v 0.31 c -0.66,0 -0.77,0 -0.77,0.45 v 1.83 c 0,1.03 0.7,1.59 1.34,1.59 0.63,0 0.74,-0.54 0.74,-1.1 v -2.32 c 0,-0.45 -0.11,-0.45 -0.78,-0.45 v -0.31 c 0.35,0.02 0.86,0.04 1.13,0.04 0.26,0 0.78,-0.02 1.12,-0.04 v 0.31 c -0.52,0 -0.77,0 -0.78,0.3 v 1.9 c 0,0.85 0,1.16 -0.31,1.52 -0.14,0.17 -0.47,0.37 -1.05,0.37 -0.84,0 -1.27,-0.6 -1.44,-0.98 -0.14,0.87 -0.88,0.98 -1.33,0.98 -0.73,0 -1.2,-0.43 -1.48,-1.05 v 1.05 l -1.4,-0.11 v -0.31 c 0.69,0 0.77,-0.07 0.77,-0.56 z"
         id="path4538" /><path
         style="fill:#000000;stroke-width:0"
         d="m 256.86,685.08 -1.4,-0.11 v -0.31 c 0.65,0 0.74,-0.06 0.74,-0.55 v -2.67 c 0,-0.45 -0.11,-0.45 -0.78,-0.45 v -0.31 c 0.32,0.02 0.86,0.04 1.1,0.04 0.34,0 0.69,-0.02 1.03,-0.04 v 0.31 c -0.66,0 -0.69,0.05 -0.69,0.44 z"
         id="path4540" /><path
         style="fill:#000000;stroke-width:0"
         d="m 256.89,686.8 v 0.03 0.03 0.03 l -0.01,0.03 v 0.02 l -0.01,0.03 -0.01,0.03 -0.01,0.02 -0.01,0.02 -0.01,0.03 -0.01,0.02 -0.02,0.02 -0.01,0.02 -0.02,0.02 -0.02,0.02 -0.01,0.02 -0.02,0.01 -0.02,0.02 -0.02,0.01 -0.02,0.02 -0.03,0.01 -0.02,0.01 -0.02,0.01 -0.02,0.01 -0.03,0.01 -0.02,0.01 -0.03,0.01 h -0.02 l -0.03,0.01 h -0.02 -0.03 -0.02 c -0.31,0 -0.53,-0.27 -0.53,-0.53 0,-0.26 0.22,-0.52 0.53,-0.52 0.28,0 0.52,0.21 0.52,0.52 z"
         id="path4542" /><path
         style="fill:#000000;stroke-width:0"
         d="m 258.95,684.1 v -2.66 c 0,-0.45 -0.1,-0.45 -0.77,-0.45 v -0.31 c 0.35,0.02 0.85,0.04 1.12,0.04 0.26,0 0.78,-0.02 1.12,-0.04 v 0.31 c -0.67,0 -0.78,0 -0.78,0.45 v 1.83 c 0,1.03 0.71,1.59 1.35,1.59 0.63,0 0.74,-0.54 0.74,-1.1 v -2.32 c 0,-0.45 -0.11,-0.45 -0.78,-0.45 v -0.31 c 0.35,0.02 0.86,0.04 1.13,0.04 0.25,0 0.77,-0.02 1.11,-0.04 v 0.31 c -0.52,0 -0.77,0 -0.77,0.3 v 1.9 c 0,0.85 0,1.16 -0.31,1.52 -0.14,0.17 -0.47,0.37 -1.05,0.37 -0.73,0 -1.2,-0.43 -1.48,-1.05 v 1.05 l -1.4,-0.11 v -0.31 c 0.7,0 0.77,-0.07 0.77,-0.56 z"
         id="path4544" /><path
         style="fill:#000000;stroke-width:0"
         d="m 255.69,675.83 v -0.01 -0.01 l -0.01,-0.02 v -0.01 l -0.01,-0.02 v -0.02 -0.01 l -0.01,-0.02 -0.01,-0.03 v -0.04 l -0.01,-0.03 -0.01,-0.02 v -0.01 -0.02 l -0.01,-0.01 v -0.02 l -0.01,-0.01 v -0.01 -0.02 l -0.01,-0.01 v -0.01 -0.01 l -0.01,-0.01 v -0.01 0 -0.01 0 0 h -0.01 v 0 -0.01 0 0 c -0.13,-0.21 -0.41,-0.59 -0.84,-0.59 -0.49,0 -0.49,0.45 -0.49,0.58 0,0.41 0.2,0.9 0.39,1.41 0.06,0.14 0.1,0.24 0.1,0.36 0,0.36 -0.31,0.59 -0.66,0.59 -0.7,0 -1.02,-0.95 -1.02,-1.06 0,-0.09 0.1,-0.09 0.12,-0.09 0.1,0 0.11,0.03 0.13,0.11 0.17,0.57 0.47,0.85 0.75,0.85 0.12,0 0.17,-0.08 0.17,-0.24 0,-0.16 -0.05,-0.31 -0.13,-0.47 -0.37,-0.96 -0.37,-1.16 -0.37,-1.35 0,-0.12 0,-0.44 0.26,-0.66 0.2,-0.17 0.47,-0.22 0.72,-0.22 0.44,0 0.67,0.23 0.91,0.46 0.15,-0.45 0.62,-0.46 0.7,-0.46 0.24,0 0.42,0.14 0.55,0.37 0.16,0.27 0.26,0.67 0.26,0.69 0,0.09 -0.1,0.09 -0.12,0.09 -0.1,0 -0.11,-0.03 -0.16,-0.21 -0.08,-0.33 -0.21,-0.75 -0.51,-0.75 -0.18,0 -0.23,0.16 -0.23,0.34 0,0.12 0.06,0.37 0.11,0.55 0.05,0.19 0.12,0.48 0.15,0.63 l 0.16,0.62 c 0.04,0.17 0.12,0.48 0.12,0.51 0,0.14 -0.11,0.22 -0.23,0.22 -0.26,0 -0.31,-0.2 -0.36,-0.42 z"
         id="path4546" /><path
         style="fill:#000000;stroke-width:0"
         d="m 277.48,693.78 v 0.01 0.01 0.02 0.01 0 0.01 0.01 0.01 0.01 0.01 0.01 0.01 0 0.01 0.01 0 0.01 0.01 l -0.01,0.01 v 0.01 0.01 0.01 l -0.01,0.01 v 0 l -0.01,0.01 v 0.01 h -0.01 l -0.01,0.01 v 0 l -0.01,0.01 h -0.01 v 0 h -0.01 v 0 h -0.01 -0.01 v 0.01 h -0.01 v 0 h -0.01 -0.01 -0.01 v 0 h -0.01 -0.01 -0.01 -0.01 -0.01 -0.01 -0.01 -0.01 -0.01 c -0.62,-0.63 -1.49,-0.63 -1.81,-0.63 v -0.31 c 0.2,0 0.79,0 1.3,0.25 v -5.14 c 0,-0.36 -0.03,-0.48 -0.92,-0.48 h -0.32 v -0.31 c 0.35,0.04 1.21,0.04 1.61,0.04 0.4,0 1.27,0 1.62,-0.04 v 0.31 h -0.32 c -0.9,0 -0.93,0.11 -0.93,0.48 z"
         id="path4548" /><line
         style="fill:#000000;stroke-width:0.398"
         x1="274.54999"
         y1="683.16998"
         x2="279.53"
         y2="683.16998"
         id="line4550" /><path
         style="fill:#000000;stroke-width:0"
         d="m 275.82,674.62 1.05,1.02 c 1.56,1.37 2.16,1.91 2.16,2.9 0,1.13 -0.9,1.93 -2.12,1.93 -1.12,0 -1.86,-0.92 -1.86,-1.8 0,-0.56 0.5,-0.56 0.53,-0.56 0.17,0 0.52,0.12 0.52,0.53 0,0.26 -0.18,0.52 -0.53,0.52 -0.08,0 -0.1,0 -0.13,-0.01 0.23,0.64 0.76,1.01 1.34,1.01 0.91,0 1.34,-0.81 1.34,-1.62 0,-0.8 -0.5,-1.58 -1.05,-2.2 l -1.91,-2.12 c -0.11,-0.11 -0.11,-0.13 -0.11,-0.37 h 3.7 l 0.28,1.73 h -0.25 c -0.05,-0.3 -0.12,-0.74 -0.22,-0.88 -0.07,-0.08 -0.73,-0.08 -0.95,-0.08 z"
         id="path4552" /><path
         style="fill:#000000;stroke-width:0"
         d="m 283.42,672.62 h 0.03 l 0.03,0.01 h 0.03 l 0.03,0.01 h 0.02 l 0.03,0.01 0.02,0.01 0.03,0.01 0.02,0.01 0.02,0.01 0.02,0.01 0.02,0.02 0.02,0.01 0.02,0.01 0.01,0.02 0.02,0.02 0.01,0.01 0.02,0.02 0.01,0.02 0.01,0.02 0.01,0.02 0.01,0.02 0.01,0.02 0.01,0.02 0.01,0.02 0.01,0.02 v 0.02 l 0.01,0.02 v 0.03 0.02 0.02 0.03 c 0,0.32 -0.25,0.48 -0.48,0.48 -0.23,0 -0.48,-0.15 -0.48,-0.49 0,-0.51 0.5,-0.93 1.1,-0.93 1.52,0 2.09,2.33 2.8,5.21 0.76,3.14 1.41,6.3 1.95,9.49 0.37,2.12 0.74,4.11 1.08,5.39 0.12,0.48 0.46,1.77 0.85,1.77 0.3,0 0.55,-0.19 0.59,-0.23 -0.33,-0.02 -0.5,-0.24 -0.5,-0.49 0,-0.33 0.25,-0.49 0.48,-0.49 0.24,0 0.49,0.15 0.49,0.5 0,0.54 -0.54,0.92 -1.09,0.92 -0.75,0 -1.31,-1.08 -1.86,-3.1 -0.03,-0.11 -1.39,-5.1 -2.48,-11.6 -0.26,-1.52 -0.55,-3.18 -0.88,-4.56 -0.18,-0.72 -0.64,-2.59 -1.45,-2.59 -0.36,0 -0.6,0.23 -0.61,0.23 z"
         id="path4554" /><path
         style="fill:#000000;stroke-width:0"
         d="m 294.69,696.21 v 0 0.01 0.01 0.01 0.01 0 0.01 0.01 0 0.01 0.01 0 0.01 0 0.01 0 0.01 h -0.01 v 0.01 0.01 0.01 l -0.01,0.01 v 0 0.01 h -0.01 v 0.01 h -0.01 -0.01 l -0.01,0.01 v 0 h -0.01 -0.01 -0.01 v 0 l -0.01,0.01 v 0 h -0.01 -0.01 v 0 h -0.01 -0.01 v 0 h -0.01 -0.01 v 0 h -0.01 -0.01 -0.01 -0.01 -0.01 c -0.44,-0.44 -1.08,-0.45 -1.37,-0.45 v -0.25 c 0.17,0 0.63,0 1.02,0.2 v -3.55 c 0,-0.23 0,-0.32 -0.7,-0.32 h -0.27 v -0.25 c 0.13,0.01 0.99,0.03 1.25,0.03 0.21,0 1.09,-0.02 1.25,-0.03 v 0.25 h -0.27 c -0.7,0 -0.7,0.09 -0.7,0.32 z"
         id="path4556" /><path
         style="fill:#000000;stroke-width:0"
         d="m 291.53,673.83 v 0.14 0.13 l -0.01,0.13 -0.01,0.13 -0.01,0.12 -0.02,0.12 -0.01,0.12 -0.03,0.11 -0.02,0.11 -0.03,0.11 -0.03,0.1 -0.04,0.1 -0.05,0.1 -0.04,0.09 -0.06,0.1 -0.02,0.04 -0.03,0.05 c -0.22,0.32 -0.65,0.59 -1.21,0.59 v -0.19 c 0.38,0 0.74,-0.23 0.86,-0.63 0.12,-0.38 0.12,-0.88 0.12,-1.48 0,-0.52 0,-1.03 -0.09,-1.47 -0.14,-0.63 -0.61,-0.79 -0.89,-0.79 v 0 c -0.32,0 -0.75,0.19 -0.89,0.76 -0.1,0.41 -0.1,0.98 -0.1,1.5 0,0.5 0,1.03 0.11,1.42 0.14,0.55 0.59,0.69 0.88,0.69 v 0.19 c -1.62,0 -1.62,-1.89 -1.62,-2.39 0,-0.5 0,-2.36 1.62,-2.36 1.62,0 1.62,1.86 1.62,2.36 z"
         id="path4558" /><path
         style="fill:#000000;stroke-width:0"
         d="m 301.97,681.24 0.01,-0.04 0.01,-0.03 0.02,-0.04 0.01,-0.03 0.02,-0.04 0.02,-0.03 0.01,-0.03 0.02,-0.03 0.03,-0.03 0.02,-0.03 0.02,-0.03 0.03,-0.03 0.02,-0.02 0.03,-0.03 0.03,-0.02 0.02,-0.02 0.03,-0.03 0.03,-0.01 0.04,-0.02 0.03,-0.02 0.03,-0.02 0.03,-0.01 0.04,-0.02 0.03,-0.01 0.04,-0.01 0.04,-0.01 0.03,-0.01 h 0.04 l 0.04,-0.01 h 0.04 0.04 0.04 c 0.35,0 0.58,0.22 0.74,0.54 0.17,0.36 0.29,0.97 0.29,0.99 0,0.1 -0.09,0.1 -0.12,0.1 -0.09,0 -0.1,-0.05 -0.13,-0.18 -0.14,-0.56 -0.33,-1.24 -0.75,-1.24 -0.21,0 -0.31,0.13 -0.31,0.46 0,0.22 0.12,0.69 0.2,1.03 l 0.28,1.08 c 0.03,0.15 0.13,0.52 0.17,0.67 0.05,0.23 0.15,0.61 0.15,0.67 0,0.18 -0.14,0.27 -0.29,0.27 -0.05,0 -0.31,-0.01 -0.39,-0.35 -0.19,-0.73 -0.63,-2.46 -0.75,-2.99 -0.01,-0.04 -0.41,-0.84 -1.14,-0.84 -0.51,0 -0.61,0.45 -0.61,0.82 0,0.55 0.27,1.34 0.53,2.03 0.12,0.29 0.17,0.43 0.17,0.62 0,0.45 -0.32,0.82 -0.82,0.82 -0.94,0 -1.31,-1.44 -1.31,-1.53 0,-0.1 0.1,-0.1 0.12,-0.1 0.1,0 0.11,0.02 0.16,0.18 0.25,0.86 0.63,1.23 1.01,1.23 0.08,0 0.24,-0.01 0.24,-0.33 0,-0.24 -0.1,-0.53 -0.16,-0.68 -0.37,-0.98 -0.58,-1.59 -0.58,-2.08 0,-0.95 0.68,-1.19 1.22,-1.19 0.66,0 1.02,0.44 1.19,0.66 z"
         id="path4560" /><path
         style="fill:#000000;stroke-width:0"
         d="m 307.71,686.06 h -0.23 c -0.03,-0.15 -0.09,-0.56 -0.19,-0.63 -0.05,-0.04 -0.59,-0.04 -0.69,-0.04 h -1.28 c 0.73,0.65 0.98,0.84 1.39,1.17 0.52,0.41 1,0.84 1,1.5 0,0.84 -0.74,1.35 -1.63,1.35 -0.87,0 -1.46,-0.6 -1.46,-1.24 0,-0.35 0.3,-0.39 0.37,-0.39 0.17,0 0.37,0.12 0.37,0.37 0,0.13 -0.04,0.37 -0.41,0.37 0.22,0.49 0.69,0.64 1.02,0.64 0.7,0 1.07,-0.54 1.07,-1.1 0,-0.61 -0.44,-1.09 -0.66,-1.34 l -1.69,-1.65 c -0.07,-0.06 -0.07,-0.08 -0.07,-0.27 h 2.88 z"
         id="path4562" /><path
         style="fill:#000000;stroke-width:0"
         d="m 313.8,687.47 v 0 0 0 0 0.01 0 0 0.01 0 0.01 0 h -0.01 v 0.01 0 0.01 0 l -0.01,0.01 v 0 0.01 h -0.01 v 0.01 h -0.01 v 0 0 0.01 h -0.01 v 0 0 h -0.01 v 0.01 0 h -0.01 v 0 0 h -0.01 v 0 h -0.01 v 0.01 h -0.01 v 0 h -0.01 v 0 h -0.01 v 0 h -0.01 c -0.15,0 -1.1,-0.09 -1.27,-0.11 -0.08,-0.01 -0.14,-0.06 -0.14,-0.19 0,-0.12 0.09,-0.12 0.24,-0.12 0.48,0 0.5,-0.07 0.5,-0.17 l -0.03,-0.2 -0.6,-2.35 c -0.18,0.37 -0.47,0.64 -0.92,0.64 -1.16,0 -2.4,-1.47 -2.4,-2.92 0,-0.93 0.55,-1.58 1.33,-1.58 l 0.02,0.21 c -0.5,0 -0.64,0.55 -0.64,0.94 0,0.49 0.32,1.72 0.55,2.17 0.31,0.59 0.76,0.96 1.15,0.96 0.65,0 0.79,-0.82 0.79,-0.88 0,-0.06 -0.02,-0.12 -0.03,-0.17 l -0.5,-1.94 c -0.05,-0.18 -0.05,-0.2 -0.2,-0.37 -0.43,-0.55 -0.84,-0.71 -1.12,-0.71 l -0.02,-0.21 c 0.2,0 0.7,0.03 1.29,0.74 0.08,-0.42 0.43,-0.74 0.91,-0.74 0.35,0 0.58,0.22 0.74,0.54 0.17,0.36 0.3,0.97 0.3,0.99 0,0.1 -0.09,0.1 -0.12,0.1 -0.1,0 -0.11,-0.05 -0.14,-0.18 -0.17,-0.65 -0.35,-1.24 -0.76,-1.24 -0.27,0 -0.3,0.26 -0.3,0.46 0,0.24 0.02,0.31 0.06,0.48 z"
         id="path4564" /><path
         style="fill:#000000;stroke-width:0"
         d="m 315.89,684.66 h 0.94 c 0.2,0 0.3,0 0.3,0.2 0,0.11 -0.1,0.11 -0.28,0.11 h -0.88 c 0.36,1.41 0.41,1.61 0.41,1.67 0,0.16 -0.12,0.26 -0.29,0.26 -0.03,0 -0.31,-0.01 -0.4,-0.35 l -0.39,-1.58 h -0.93 c -0.2,0 -0.3,0 -0.3,-0.19 0,-0.12 0.08,-0.12 0.28,-0.12 h 0.88 c -0.72,-2.82 -0.76,-2.99 -0.76,-3.17 0,-0.54 0.38,-0.91 0.91,-0.91 1.02,0 1.59,1.45 1.59,1.53 0,0.1 -0.08,0.1 -0.12,0.1 -0.09,0 -0.1,-0.04 -0.15,-0.14 -0.43,-1.04 -0.96,-1.28 -1.3,-1.28 -0.2,0 -0.3,0.13 -0.3,0.46 0,0.24 0.01,0.31 0.05,0.48 z"
         id="path4566" /><path
         style="fill:#000000;stroke-width:0"
         d="m 463.07,678.3 v 0.01 0 0 0.01 0 0 0.01 h -0.01 v 0 0.01 0 l -0.01,0.01 v 0 0.01 h -0.01 v 0.01 l -0.01,0.01 v 0 l -0.01,0.01 v 0 0.01 h -0.01 v 0 0.01 H 463 v 0.01 h -0.01 v 0.01 h -0.01 v 0.01 h -0.01 v 0.01 l -0.01,0.01 v 0 l -0.01,0.01 -0.01,0.01 v 0 l -0.01,0.01 -0.01,0.01 h -0.01 v 0.01 l -0.01,0.01 c -1.25,1.25 -1.57,3.13 -1.57,4.65 0,1.73 0.38,3.46 1.61,4.7 0.13,0.12 0.13,0.14 0.13,0.17 0,0.07 -0.04,0.1 -0.1,0.1 -0.1,0 -1,-0.68 -1.59,-1.94 -0.5,-1.09 -0.62,-2.2 -0.62,-3.03 0,-0.78 0.1,-1.98 0.65,-3.1 0.6,-1.22 1.46,-1.87 1.56,-1.87 0.06,0 0.1,0.03 0.1,0.1 z"
         id="path4568" /><path
         style="fill:#000000;stroke-width:0"
         d="m 466.57,687.04 v 0.01 0.01 0.02 0.01 0 0.01 0.01 0.01 0.01 0.01 0.01 0.01 0 0.01 0.01 0 0.01 0.01 0.01 l -0.01,0.01 v 0.01 0.01 l -0.01,0.01 v 0 0.01 l -0.01,0.01 h -0.01 v 0.01 h -0.01 l -0.01,0.01 h -0.01 v 0 h -0.01 v 0 h -0.01 v 0 l -0.01,0.01 h -0.01 v 0 h -0.01 -0.01 v 0 h -0.01 -0.01 -0.01 -0.01 -0.01 v 0 h -0.01 -0.01 -0.01 -0.01 c -0.62,-0.64 -1.5,-0.64 -1.82,-0.64 v -0.3 c 0.2,0 0.79,0 1.31,0.25 v -5.14 c 0,-0.36 -0.03,-0.48 -0.93,-0.48 h -0.32 v -0.31 c 0.35,0.04 1.22,0.04 1.61,0.04 0.4,0 1.27,0 1.62,-0.04 v 0.31 h -0.32 c -0.9,0 -0.93,0.11 -0.93,0.48 z"
         id="path4570" /><path
         style="fill:#000000;stroke-width:0"
         d="m 471.94,681.44 0.01,-0.04 v -0.03 l 0.01,-0.04 0.01,-0.04 0.01,-0.04 0.01,-0.03 0.01,-0.04 0.02,-0.03 0.01,-0.04 0.02,-0.03 0.02,-0.04 0.01,-0.03 0.02,-0.03 0.03,-0.04 0.02,-0.03 0.02,-0.03 0.03,-0.02 0.02,-0.03 0.03,-0.03 0.03,-0.02 0.03,-0.02 0.03,-0.03 0.03,-0.02 0.04,-0.01 0.03,-0.02 0.04,-0.01 0.04,-0.02 0.04,-0.01 h 0.04 l 0.04,-0.01 h 0.04 0.04 c 0.21,0 0.82,0.13 0.82,0.94 v 0.56 h -0.25 v -0.56 c 0,-0.58 -0.25,-0.64 -0.36,-0.64 -0.33,0 -0.37,0.45 -0.37,0.5 v 1.99 c 0,0.41 0,0.8 -0.36,1.17 -0.38,0.39 -0.88,0.55 -1.36,0.55 -0.82,0 -1.51,-0.47 -1.51,-1.13 0,-0.29 0.2,-0.46 0.46,-0.46 0.28,0 0.46,0.19 0.46,0.45 0,0.12 -0.05,0.45 -0.51,0.46 0.27,0.35 0.76,0.46 1.08,0.46 0.49,0 1.06,-0.39 1.06,-1.27 v -0.37 -0.21 -0.99 c 0,-0.95 -0.72,-1.29 -1.17,-1.29 -0.49,0 -0.9,0.35 -0.9,0.85 0,0.54 0.42,1.37 2.07,1.43 v 0 0.21 c -0.51,-0.03 -1.21,-0.06 -1.84,-0.36 -0.75,-0.34 -1,-0.85 -1,-1.29 0,-0.81 0.97,-1.05 1.6,-1.05 0.66,0 1.12,0.39 1.3,0.86 z"
         id="path4572" /><path
         style="fill:#000000;stroke-width:0"
         d="m 476.49,683.17 v 0.07 0.08 l -0.01,0.08 v 0.08 l -0.01,0.17 -0.01,0.17 -0.02,0.18 -0.02,0.19 -0.02,0.2 -0.04,0.2 -0.04,0.2 -0.04,0.21 -0.06,0.21 -0.06,0.21 -0.07,0.21 -0.08,0.21 -0.04,0.11 -0.04,0.11 -0.05,0.1 -0.05,0.11 c -0.6,1.22 -1.46,1.87 -1.56,1.87 -0.06,0 -0.1,-0.04 -0.1,-0.1 0,-0.03 0,-0.05 0.19,-0.23 0.98,-0.99 1.55,-2.57 1.55,-4.64 0,-1.7 -0.37,-3.45 -1.61,-4.7 -0.13,-0.12 -0.13,-0.14 -0.13,-0.17 0,-0.06 0.04,-0.1 0.1,-0.1 0.1,0 1,0.68 1.59,1.94 0.51,1.09 0.63,2.19 0.63,3.03 z"
         id="path4574" /><path
         style="fill:#000000;stroke-width:0"
         d="m 219.2,654.19 h 0.02 l 0.02,-0.01 h 0.03 l 0.03,-0.01 0.04,-0.01 0.03,-0.01 0.04,-0.01 0.04,-0.01 0.04,-0.01 0.04,-0.02 0.05,-0.01 0.04,-0.02 0.04,-0.02 0.05,-0.02 0.04,-0.02 0.05,-0.02 0.04,-0.03 0.04,-0.03 0.04,-0.03 0.04,-0.03 0.04,-0.04 0.04,-0.03 0.03,-0.04 0.03,-0.04 0.03,-0.05 0.01,-0.02 0.02,-0.03 0.01,-0.02 0.01,-0.03 0.01,-0.02 0.01,-0.03 v -0.03 l 0.01,-0.03 0.01,-0.03 v -0.03 l 0.01,-0.03 v -0.03 -0.03 -0.03 c 0,-0.51 -0.35,-0.91 -1.13,-0.91 -0.83,0 -1.19,0.57 -1.38,1.41 -0.03,0.13 -0.04,0.17 -0.14,0.17 -0.13,0 -0.13,-0.07 -0.13,-0.25 v -1.31 c 0,-0.17 0,-0.24 0.11,-0.24 0.05,0 0.06,0.01 0.25,0.2 0.02,0.02 0.02,0.04 0.2,0.23 0.44,-0.42 0.89,-0.43 1.09,-0.43 1.15,0 1.61,0.67 1.61,1.38 0,0.53 -0.3,0.83 -0.42,0.95 -0.33,0.32 -0.72,0.4 -1.14,0.48 -0.55,0.1 -1.22,0.23 -1.22,0.81 0,0.35 0.26,0.76 1.12,0.76 1.09,0 1.14,-0.9 1.16,-1.21 0.01,-0.09 0.1,-0.09 0.12,-0.09 0.13,0 0.13,0.05 0.13,0.24 v 1 c 0,0.17 0,0.24 -0.11,0.24 -0.05,0 -0.07,0 -0.2,-0.12 -0.03,-0.04 -0.13,-0.12 -0.17,-0.16 -0.38,0.28 -0.78,0.28 -0.93,0.28 -1.22,0 -1.6,-0.66 -1.6,-1.22 0,-0.35 0.16,-0.62 0.43,-0.84 0.32,-0.26 0.6,-0.32 1.32,-0.46 z"
         id="path4576" /><path
         style="fill:#000000;stroke-width:0"
         d="m 224.95,653.05 v -0.9 l 1.43,0.11 v 0.31 c -0.69,0 -0.77,0.07 -0.77,0.56 v 3.52 l -1.47,-0.11 v -0.3 c 0.7,0 0.78,-0.07 0.78,-0.56 v -1.77 c 0,-0.86 -0.48,-1.54 -1.21,-1.54 -0.83,0 -0.87,0.47 -0.87,0.99 v 3.29 l -1.47,-0.11 v -0.3 c 0.78,0 0.78,-0.03 0.78,-0.92 v -1.49 c 0,-0.77 0,-1.68 1.51,-1.68 0.56,0 1,0.28 1.29,0.9 z"
         id="path4578" /><path
         style="fill:#000000;stroke-width:0"
         d="m 228.3,656.01 v 3.15 l -1.43,-0.11 v -0.31 c 0.69,0 0.77,-0.07 0.77,-0.56 v -5.92 h 0.25 c 0.01,0.01 0.09,0.15 0.36,0.62 0.15,-0.23 0.57,-0.73 1.31,-0.73 l -0.04,0.22 c -0.45,0 -0.81,0.24 -1.05,0.61 -0.14,0.21 -0.14,0.24 -0.14,0.42 v 0 2.04 c 0,0.19 0,0.2 0.11,0.36 0.39,0.56 0.94,0.63 1.18,0.63 0.45,0 0.81,-0.25 1.04,-0.63 0.26,-0.41 0.29,-0.97 0.29,-1.38 0,-0.37 -0.02,-0.96 -0.31,-1.41 -0.21,-0.31 -0.58,-0.64 -1.12,-0.64 l 0.04,-0.22 c 1.18,0 2.22,0.98 2.22,2.26 0,1.26 -0.98,2.24 -2.11,2.24 -0.78,0 -1.21,-0.46 -1.37,-0.64 z"
         id="path4580" /><path
         style="fill:#000000;stroke-width:0"
         d="m 234.77,656.65 -1.51,-0.11 v -0.3 c 0.76,0 0.86,-0.07 0.86,-0.56 v -3.93 c 0,-0.45 -0.1,-1.3 -0.73,-1.3 -0.05,0 -0.28,0 -0.54,0.12 0.15,0.04 0.35,0.18 0.35,0.45 0,0.26 -0.18,0.46 -0.46,0.46 -0.28,0 -0.46,-0.2 -0.46,-0.46 0,-0.51 0.56,-0.79 1.13,-0.79 0.74,0 1.36,0.63 1.36,1.54 z"
         id="path4582" /><path
         style="fill:#000000;stroke-width:0"
         d="m 234.77,658.38 v 0.03 0.03 0.02 l -0.01,0.03 v 0.02 l -0.01,0.03 -0.01,0.02 -0.01,0.03 -0.01,0.02 -0.01,0.02 -0.01,0.02 -0.02,0.03 -0.01,0.02 -0.02,0.02 -0.02,0.02 -0.01,0.01 -0.02,0.02 -0.02,0.02 -0.02,0.01 -0.02,0.02 -0.02,0.01 -0.03,0.01 -0.02,0.02 -0.02,0.01 -0.03,0.01 -0.02,0.01 h -0.02 l -0.03,0.01 h -0.03 l -0.02,0.01 h -0.03 -0.03 c -0.28,0 -0.52,-0.24 -0.52,-0.53 0,-0.29 0.24,-0.52 0.52,-0.52 0.29,0 0.53,0.23 0.53,0.52 z"
         id="path4584" /><path
         style="fill:#000000;stroke-width:0"
         d="m 236.82,654.56 0.01,0.21 c 0.06,1.48 0.9,1.72 1.24,1.72 1.02,0 1.12,-1.34 1.12,-1.72 h -2.36 l -0.01,-0.21 h 2.78 c 0.22,0 0.25,0 0.25,0.21 0,0.98 -0.54,1.94 -1.78,1.94 -1.16,0 -2.08,-1.02 -2.08,-2.26 0,-1.33 1.05,-2.3 2.2,-2.3 1.21,0 1.66,1.11 1.66,1.3 0,0.09 -0.08,0.11 -0.13,0.11 -0.09,0 -0.11,-0.05 -0.13,-0.14 -0.35,-1.02 -1.24,-1.02 -1.34,-1.02 -0.5,0 -0.9,0.3 -1.13,0.67 -0.3,0.47 -0.3,1.13 -0.3,1.49 z"
         id="path4586" /><path
         style="fill:#000000;stroke-width:0"
         d="m 241.32,654.43 v 0.07 0.08 0.07 l 0.01,0.07 v 0.07 l 0.01,0.06 v 0.07 l 0.01,0.06 0.01,0.06 0.01,0.06 0.01,0.06 0.02,0.06 0.02,0.11 0.03,0.1 0.04,0.1 0.03,0.09 0.04,0.08 0.04,0.08 0.05,0.08 0.04,0.07 0.05,0.06 0.05,0.06 0.05,0.06 0.06,0.05 0.05,0.05 0.06,0.04 0.05,0.04 0.06,0.03 0.05,0.03 0.06,0.02 0.06,0.03 0.05,0.02 0.06,0.01 0.05,0.01 0.06,0.01 0.05,0.01 h 0.05 l 0.05,0.01 c 0.09,0 0.72,-0.01 1.07,-0.37 -0.41,-0.03 -0.47,-0.33 -0.47,-0.46 0,-0.26 0.18,-0.46 0.46,-0.46 0.26,0 0.46,0.17 0.46,0.47 0,0.68 -0.76,1.06 -1.53,1.06 -1.24,0 -2.16,-1.07 -2.16,-2.3 0,-1.27 0.99,-2.26 2.14,-2.26 1.34,0 1.66,1.2 1.66,1.3 0,0.09 -0.1,0.09 -0.13,0.09 -0.09,0 -0.11,-0.03 -0.13,-0.09 -0.29,-0.93 -0.94,-1.05 -1.31,-1.05 -0.52,0 -1.4,0.43 -1.4,2.03 z"
         id="path4588" /><path
         style="fill:#000000;stroke-width:0"
         d="m 246.3,656.24 h 1.43 v 0.3 h -1.43 v 1.83 h -0.25 c -0.01,-0.81 -0.31,-1.88 -1.28,-1.91 v -0.22 h 0.85 v -2.75 c 0,-1.22 0.92,-1.34 1.28,-1.34 0.71,0 0.99,0.71 0.99,1.34 v 0.57 h -0.25 v -0.54 c 0,-0.74 -0.3,-1.12 -0.67,-1.12 -0.67,0 -0.67,0.91 -0.67,1.07 z"
         id="path4590" /><path
         style="fill:#000000;stroke-width:0"
         d="m 253.49,656.24 h 1.43 v 0.3 h -1.43 v 1.83 h -0.24 c -0.01,-0.81 -0.31,-1.88 -1.29,-1.91 v -0.22 h 0.85 v -2.75 c 0,-1.22 0.92,-1.34 1.28,-1.34 0.71,0 0.99,0.71 0.99,1.34 v 0.57 h -0.25 v -0.54 c 0,-0.74 -0.3,-1.12 -0.67,-1.12 -0.67,0 -0.67,0.91 -0.67,1.07 z"
         id="path4592" /><path
         style="fill:#000000;stroke-width:0"
         d="m 260.34,654.39 v 0.12 l -0.01,0.11 -0.01,0.12 -0.02,0.11 -0.03,0.12 -0.03,0.11 -0.03,0.1 -0.04,0.11 -0.05,0.1 -0.05,0.1 -0.05,0.1 -0.06,0.09 -0.06,0.09 -0.07,0.09 -0.07,0.09 -0.07,0.08 -0.08,0.07 -0.08,0.08 -0.08,0.07 -0.09,0.06 -0.08,0.06 -0.1,0.06 -0.09,0.05 -0.1,0.05 -0.1,0.04 -0.1,0.04 -0.11,0.03 -0.1,0.03 -0.11,0.02 -0.11,0.01 -0.11,0.01 h -0.11 l -0.01,-0.22 c 0.44,0 0.86,-0.21 1.12,-0.64 0.26,-0.43 0.26,-1 0.26,-1.38 0,-0.36 0,-0.9 -0.22,-1.33 -0.21,-0.45 -0.65,-0.74 -1.15,-0.74 v 0 c -0.43,0 -0.87,0.21 -1.14,0.67 -0.25,0.44 -0.25,1.04 -0.25,1.4 0,0.39 0,0.92 0.24,1.36 0.27,0.46 0.74,0.66 1.14,0.66 l 0.01,0.22 c -1.25,0 -2.22,-1.08 -2.22,-2.32 0,-1.28 1.04,-2.24 2.21,-2.24 1.2,0 2.21,0.98 2.21,2.24 z"
         id="path4594" /><path
         style="fill:#000000;stroke-width:0"
         d="m 262.54,656.02 v 0.02 0.03 l -0.01,0.03 v 0.02 l -0.01,0.03 v 0.02 l -0.01,0.03 -0.01,0.02 -0.01,0.02 -0.01,0.03 -0.02,0.02 -0.01,0.02 -0.02,0.02 -0.01,0.02 -0.02,0.02 -0.02,0.02 -0.01,0.02 -0.02,0.01 -0.02,0.02 -0.02,0.01 -0.03,0.02 -0.02,0.01 -0.02,0.01 -0.02,0.01 -0.03,0.01 -0.02,0.01 -0.03,0.01 h -0.02 l -0.03,0.01 h -0.02 -0.03 -0.03 c -0.29,0 -0.53,-0.23 -0.53,-0.52 0,-0.29 0.24,-0.53 0.53,-0.53 0.29,0 0.53,0.24 0.53,0.53 z"
         id="path4596" /><path
         style="fill:#000000;stroke-width:0"
         d="m 262.54,652.79 v 0.03 0.02 l -0.01,0.03 v 0.02 l -0.01,0.03 v 0.02 l -0.01,0.03 -0.01,0.02 -0.01,0.03 -0.01,0.02 -0.02,0.02 -0.01,0.02 -0.02,0.02 -0.01,0.02 -0.02,0.02 -0.02,0.02 -0.01,0.02 -0.02,0.01 -0.02,0.02 -0.02,0.02 -0.03,0.01 -0.02,0.01 -0.02,0.01 -0.02,0.01 -0.03,0.01 -0.02,0.01 -0.03,0.01 -0.02,0.01 h -0.03 -0.02 l -0.03,0.01 h -0.03 c -0.29,0 -0.53,-0.24 -0.53,-0.53 0,-0.29 0.24,-0.53 0.53,-0.53 0.29,0 0.53,0.24 0.53,0.53 z"
         id="path4598" /><polygon
         style="fill:#000000;stroke-width:0"
         points="280.13,642.88 280.13,643.42 278.06,643.42 278.06,666.16 280.13,666.16 280.13,666.71 277.51,666.71 277.51,642.88 "
         id="polygon4600" /><path
         style="fill:#000000;stroke-width:0"
         d="m 284.32,667.09 v 0.02 0.03 l -0.01,0.02 v 0.03 l -0.01,0.02 v 0.03 l -0.01,0.02 -0.01,0.02 -0.01,0.03 -0.01,0.02 -0.01,0.02 -0.02,0.02 -0.01,0.02 -0.02,0.02 -0.02,0.02 -0.01,0.02 -0.02,0.02 -0.02,0.02 -0.02,0.01 -0.02,0.02 -0.02,0.01 -0.02,0.02 -0.03,0.01 -0.02,0.01 -0.02,0.01 -0.03,0.01 -0.02,0.01 h -0.03 l -0.03,0.01 h -0.02 -0.03 -0.03 c -0.34,0 -0.54,-0.27 -0.54,-0.52 0,-0.27 0.23,-0.53 0.53,-0.53 0.34,0 0.54,0.28 0.54,0.53 z"
         id="path4602" /><path
         style="fill:#000000;stroke-width:0"
         d="m 281.81,661.38 -0.1,-0.07 -0.09,-0.07 -0.09,-0.07 -0.09,-0.07 -0.08,-0.07 -0.08,-0.07 -0.07,-0.07 -0.06,-0.08 -0.07,-0.07 -0.06,-0.07 -0.05,-0.07 -0.05,-0.08 -0.05,-0.07 -0.04,-0.07 -0.04,-0.07 -0.04,-0.07 -0.04,-0.07 -0.03,-0.06 -0.03,-0.07 -0.02,-0.06 -0.02,-0.07 -0.02,-0.06 -0.02,-0.06 -0.02,-0.05 -0.01,-0.06 -0.01,-0.05 -0.01,-0.05 -0.01,-0.05 v -0.04 l -0.01,-0.04 v -0.04 -0.04 c 0,-0.47 0.27,-0.75 0.29,-0.78 0.32,-0.33 0.41,-0.37 1.16,-0.65 l 1.2,-0.46 c 0.15,-0.07 0.35,-0.14 0.35,-0.43 0,-0.23 -0.18,-0.53 -0.48,-0.53 -0.44,0 -0.77,0.24 -0.88,0.32 -0.06,0.04 -0.07,0.05 -0.11,0.05 -0.08,0 -0.1,-0.07 -0.1,-0.11 0,-0.12 0.53,-0.48 1.09,-0.48 0.61,0 1.03,0.58 1.03,1.07 0,0.47 -0.37,0.65 -0.48,0.7 -0.14,0.05 -0.47,0.18 -0.6,0.23 -0.2,0.08 -0.4,0.16 -0.61,0.23 l -0.6,0.24 c -0.45,0.18 -0.75,0.46 -0.75,0.88 0,0.41 0.39,1.27 1.23,1.69 0.37,-0.13 0.67,-0.13 0.87,-0.13 0.3,0 0.93,0 0.93,0.31 0,0.25 -0.43,0.27 -0.81,0.27 l -0.02,-0.22 c 0.35,0 0.39,-0.01 0.57,-0.06 -0.08,-0.04 -0.18,-0.08 -0.64,-0.08 -0.22,0 -0.31,0 -0.49,0.08 v 0 c 0.23,0.06 0.45,0.06 0.56,0.06 l 0.02,0.22 c -0.18,0 -0.47,0 -0.84,-0.12 -0.26,0.26 -0.3,0.58 -0.3,0.77 0,0.56 0.36,1.32 1.11,1.69 0.17,-0.22 0.4,-0.22 0.63,-0.22 l 0.01,0.22 c -0.19,0 -0.31,0 -0.42,0.09 v 0 c 0.16,0.05 0.37,0.05 0.48,0.05 0.34,0 0.38,-0.01 0.56,-0.06 -0.08,-0.03 -0.18,-0.08 -0.62,-0.08 l -0.01,-0.22 c 0.25,0 0.89,0 0.89,0.31 0,0.26 -0.44,0.27 -0.83,0.27 -0.13,0 -0.37,0 -0.62,-0.05 -0.04,0.09 -0.06,0.16 -0.06,0.33 0,0.14 0.06,0.34 0.06,0.37 0,0.07 -0.06,0.12 -0.13,0.12 -0.17,0 -0.17,-0.45 -0.17,-0.48 0,-0.2 0.05,-0.35 0.07,-0.39 -1.07,-0.3 -1.75,-1.09 -1.75,-1.86 0,-0.37 0.18,-0.78 0.65,-1.05 z"
         id="path4604" /><path
         style="fill:#000000;stroke-width:0"
         d="m 286.97,661.27 v 0.01 0.01 0 0.01 0.01 0.01 0 0.01 0.01 0 0.01 0.01 0 0.01 0 0.01 0 0.01 l -0.01,0.01 v 0 0.01 0.01 l -0.01,0.01 v 0 l -0.01,0.01 v 0 h -0.01 l -0.01,0.01 v 0 h -0.01 l -0.01,0.01 h -0.01 v 0 h -0.01 -0.01 v 0 h -0.01 v 0 h -0.01 -0.01 v 0 h -0.01 -0.01 v 0 h -0.01 -0.01 -0.01 -0.01 -0.01 v 0 c -0.45,-0.43 -1.09,-0.44 -1.38,-0.44 v -0.25 c 0.17,0 0.63,0 1.02,0.19 v -3.54 c 0,-0.23 0,-0.32 -0.7,-0.32 h -0.27 v -0.25 c 0.13,0 0.99,0.02 1.25,0.02 0.21,0 1.1,-0.02 1.25,-0.02 v 0.25 h -0.27 c -0.7,0 -0.7,0.09 -0.7,0.32 z"
         id="path4606" /><path
         style="fill:#000000;stroke-width:0"
         d="m 284.32,654.22 v 0.02 0.03 l -0.01,0.02 v 0.03 l -0.01,0.02 v 0.03 l -0.01,0.02 -0.01,0.02 -0.01,0.03 -0.01,0.02 -0.01,0.02 -0.02,0.02 -0.01,0.02 -0.02,0.02 -0.02,0.02 -0.01,0.02 -0.02,0.02 -0.02,0.02 -0.02,0.01 -0.02,0.02 -0.02,0.01 -0.02,0.02 -0.03,0.01 -0.02,0.01 -0.02,0.01 -0.03,0.01 -0.02,0.01 h -0.03 l -0.03,0.01 h -0.02 l -0.03,0.01 h -0.03 c -0.34,0 -0.54,-0.28 -0.54,-0.53 0,-0.27 0.23,-0.53 0.53,-0.53 0.34,0 0.54,0.28 0.54,0.53 z"
         id="path4608" /><path
         style="fill:#000000;stroke-width:0"
         d="m 281.81,648.51 -0.1,-0.07 -0.09,-0.07 -0.09,-0.07 -0.09,-0.07 -0.08,-0.07 -0.08,-0.07 -0.07,-0.07 -0.06,-0.07 -0.07,-0.08 -0.06,-0.07 -0.05,-0.07 -0.05,-0.07 -0.05,-0.08 -0.04,-0.07 -0.04,-0.07 -0.04,-0.07 -0.04,-0.07 -0.03,-0.06 -0.03,-0.07 -0.02,-0.06 -0.02,-0.07 -0.02,-0.06 -0.02,-0.06 -0.02,-0.05 -0.01,-0.06 -0.01,-0.05 -0.01,-0.05 -0.01,-0.05 v -0.04 l -0.01,-0.04 v -0.04 -0.04 c 0,-0.47 0.27,-0.75 0.29,-0.78 0.32,-0.33 0.41,-0.37 1.16,-0.65 l 1.2,-0.46 c 0.15,-0.07 0.35,-0.14 0.35,-0.43 0,-0.23 -0.17,-0.53 -0.48,-0.53 -0.44,0 -0.77,0.24 -0.88,0.32 -0.06,0.04 -0.07,0.05 -0.11,0.05 -0.08,0 -0.1,-0.07 -0.1,-0.11 0,-0.12 0.53,-0.48 1.09,-0.48 0.61,0 1.03,0.58 1.03,1.07 0,0.47 -0.37,0.65 -0.48,0.7 -0.14,0.05 -0.47,0.18 -0.6,0.23 -0.2,0.08 -0.4,0.16 -0.61,0.23 l -0.6,0.24 c -0.45,0.18 -0.75,0.46 -0.75,0.88 0,0.41 0.39,1.27 1.23,1.69 0.37,-0.13 0.67,-0.13 0.87,-0.13 0.3,0 0.93,0 0.93,0.31 0,0.25 -0.43,0.27 -0.81,0.27 l -0.02,-0.22 c 0.35,0 0.39,-0.01 0.57,-0.06 -0.08,-0.04 -0.18,-0.08 -0.64,-0.08 -0.22,0 -0.31,0 -0.49,0.08 v 0 c 0.23,0.06 0.45,0.06 0.56,0.06 l 0.02,0.22 c -0.18,0 -0.47,0 -0.84,-0.12 -0.26,0.26 -0.3,0.59 -0.3,0.77 0,0.56 0.36,1.33 1.11,1.69 0.17,-0.22 0.4,-0.22 0.63,-0.22 l 0.01,0.22 c -0.19,0 -0.31,0 -0.42,0.09 v 0 c 0.16,0.05 0.37,0.05 0.48,0.05 0.34,0 0.38,-0.01 0.56,-0.06 -0.08,-0.03 -0.18,-0.08 -0.62,-0.08 l -0.01,-0.22 c 0.25,0 0.89,0 0.89,0.31 0,0.26 -0.44,0.27 -0.83,0.27 -0.13,0 -0.37,0 -0.62,-0.05 -0.04,0.09 -0.06,0.16 -0.06,0.33 0,0.14 0.06,0.35 0.06,0.37 0,0.07 -0.06,0.13 -0.13,0.13 -0.17,0 -0.17,-0.46 -0.17,-0.49 0,-0.2 0.05,-0.35 0.07,-0.39 -1.07,-0.3 -1.75,-1.09 -1.75,-1.86 0,-0.37 0.18,-0.78 0.65,-1.05 z"
         id="path4610" /><path
         style="fill:#000000;stroke-width:0"
         d="m 288.16,645.24 h -0.24 c -0.02,-0.15 -0.09,-0.56 -0.18,-0.63 -0.05,-0.04 -0.59,-0.04 -0.69,-0.04 h -1.28 c 0.73,0.64 0.97,0.84 1.39,1.16 0.52,0.42 1,0.85 1,1.51 0,0.84 -0.74,1.35 -1.63,1.35 -0.87,0 -1.46,-0.6 -1.46,-1.24 0,-0.36 0.3,-0.39 0.37,-0.39 0.17,0 0.37,0.12 0.37,0.37 0,0.12 -0.04,0.37 -0.41,0.37 0.22,0.49 0.69,0.64 1.02,0.64 0.7,0 1.06,-0.54 1.06,-1.1 0,-0.61 -0.43,-1.09 -0.65,-1.34 l -1.69,-1.65 c -0.07,-0.07 -0.07,-0.08 -0.07,-0.27 h 2.88 z"
         id="path4612" /><polygon
         style="fill:#000000;stroke-width:0"
         points="289.24,643.42 289.24,642.88 291.86,642.88 291.86,666.71 289.24,666.71 289.24,666.16 291.32,666.16 291.32,643.42 "
         id="polygon4614" /><path
         style="fill:#000000;stroke-width:0"
         d="m 303.98,655.51 h 0.03 0.03 0.02 0.02 0.01 l 0.02,0.01 h 0.01 0.02 0.01 0.01 l 0.02,0.01 h 0.01 l 0.01,0.01 h 0.02 l 0.01,0.01 h 0.01 l 0.01,0.01 0.01,0.01 0.01,0.01 h 0.01 l 0.01,0.01 v 0.01 0.01 h 0.01 v 0.01 0 0.01 l 0.01,0.01 v 0 0.01 0.01 0.01 0 l 0.01,0.01 v 0.01 0.01 0.01 c 0,0.2 -0.19,0.2 -0.33,0.2 h -5.97 c -0.14,0 -0.34,0 -0.34,-0.2 0,-0.2 0.2,-0.2 0.34,-0.2 z"
         id="path4616" /><path
         style="fill:#000000;stroke-width:0"
         d="m 303.99,653.58 h 0.02 0.03 l 0.03,0.01 h 0.01 0.02 0.01 0.02 0.01 0.01 l 0.02,0.01 h 0.01 0.01 l 0.01,0.01 h 0.02 l 0.01,0.01 0.01,0.01 h 0.01 l 0.01,0.01 0.01,0.01 0.01,0.01 v 0 l 0.01,0.01 v 0 0.01 h 0.01 v 0.01 0.01 0 l 0.01,0.01 v 0.01 0 0.01 0.01 0.01 l 0.01,0.01 v 0 0.01 0.01 c 0,0.2 -0.19,0.2 -0.34,0.2 h -5.96 c -0.14,0 -0.34,0 -0.34,-0.2 0,-0.2 0.2,-0.2 0.34,-0.2 z"
         id="path4618" /><polygon
         style="fill:#000000;stroke-width:0"
         points="312.76,642.88 312.76,643.42 310.68,643.42 310.68,666.16 312.76,666.16 312.76,666.71 310.14,666.71 310.14,642.88 "
         id="polygon4620" /><path
         style="fill:#000000;stroke-width:0"
         d="m 317.49,661.52 v 0.15 0.15 l -0.01,0.15 -0.01,0.14 v 0.15 l -0.02,0.15 -0.01,0.15 -0.02,0.14 -0.02,0.15 -0.03,0.14 -0.03,0.15 -0.04,0.14 -0.04,0.14 -0.05,0.14 -0.06,0.14 -0.03,0.07 -0.03,0.07 c -0.46,0.96 -1.28,1.12 -1.7,1.12 -0.59,0 -1.32,-0.26 -1.73,-1.19 -0.32,-0.68 -0.37,-1.46 -0.37,-2.25 0,-0.75 0.04,-1.64 0.45,-2.39 0.43,-0.81 1.15,-1.01 1.64,-1.01 v 0.22 c -0.39,0 -0.97,0.25 -1.15,1.2 -0.11,0.6 -0.11,1.51 -0.11,2.1 0,0.63 0,1.29 0.08,1.83 0.19,1.18 0.94,1.27 1.18,1.27 0.33,0 0.99,-0.18 1.18,-1.16 0.1,-0.56 0.1,-1.32 0.1,-1.94 0,-0.75 0,-1.42 -0.11,-2.06 -0.15,-0.94 -0.72,-1.24 -1.17,-1.24 v 0 -0.22 c 0.54,0 1.3,0.21 1.74,1.15 0.32,0.69 0.37,1.46 0.37,2.25 z"
         id="path4622" /><path
         style="fill:#000000;stroke-width:0"
         d="m 330.78,664.7 v 0.01 0.01 0.01 0.01 0.01 0.01 0.01 0.01 0.01 0 0.01 0.01 0.01 h -0.01 v 0.01 0.01 0.01 0 0.01 0.01 l -0.01,0.01 v 0.01 0.01 l -0.01,0.01 v 0.01 h -0.01 v 0.01 h -0.01 l -0.01,0.01 h -0.01 v 0 h -0.01 v 0.01 h -0.01 v 0 h -0.01 -0.01 v 0 h -0.01 -0.01 v 0 h -0.01 -0.01 -0.01 l -0.01,0.01 v 0 h -0.01 -0.01 -0.01 -0.01 -0.01 -0.01 c -0.62,-0.64 -1.5,-0.64 -1.82,-0.64 v -0.31 c 0.2,0 0.79,0 1.31,0.26 v -5.14 c 0,-0.36 -0.03,-0.48 -0.93,-0.48 h -0.32 v -0.31 c 0.35,0.03 1.22,0.03 1.62,0.03 0.4,0 1.26,0 1.61,-0.03 v 0.31 h -0.32 c -0.89,0 -0.92,0.11 -0.92,0.48 z"
         id="path4624" /><path
         style="fill:#000000;stroke-width:0"
         d="m 317.49,649.56 v 0.15 0.15 l -0.01,0.15 -0.01,0.15 v 0.15 l -0.02,0.14 -0.01,0.15 -0.02,0.15 -0.02,0.14 -0.03,0.15 -0.03,0.14 -0.04,0.15 -0.04,0.14 -0.05,0.14 -0.06,0.14 -0.03,0.07 -0.03,0.07 c -0.46,0.95 -1.28,1.11 -1.7,1.11 -0.59,0 -1.32,-0.26 -1.73,-1.18 -0.32,-0.69 -0.37,-1.46 -0.37,-2.26 0,-0.74 0.04,-1.64 0.45,-2.39 0.43,-0.81 1.15,-1 1.64,-1 v 0.22 c -0.39,0 -0.97,0.24 -1.15,1.2 -0.11,0.59 -0.11,1.51 -0.11,2.09 0,0.64 0,1.29 0.08,1.83 0.19,1.18 0.94,1.27 1.18,1.27 0.33,0 0.99,-0.18 1.18,-1.16 0.1,-0.56 0.1,-1.31 0.1,-1.94 0,-0.74 0,-1.42 -0.11,-2.05 -0.15,-0.95 -0.72,-1.24 -1.17,-1.24 v 0 -0.22 c 0.54,0 1.3,0.21 1.74,1.15 0.32,0.68 0.37,1.46 0.37,2.24 z"
         id="path4626" /><path
         style="fill:#000000;stroke-width:0"
         d="m 332.43,649.56 v 0.15 0.15 0.15 l -0.01,0.15 -0.01,0.15 -0.01,0.14 -0.02,0.15 -0.02,0.15 -0.02,0.14 -0.03,0.15 -0.03,0.14 -0.04,0.15 -0.04,0.14 -0.05,0.14 -0.06,0.14 -0.03,0.07 -0.03,0.07 c -0.45,0.95 -1.27,1.11 -1.69,1.11 -0.6,0 -1.33,-0.26 -1.74,-1.18 -0.32,-0.69 -0.37,-1.46 -0.37,-2.26 0,-0.74 0.04,-1.64 0.45,-2.39 0.43,-0.81 1.16,-1 1.65,-1 v 0.22 c -0.39,0 -0.98,0.24 -1.16,1.2 -0.11,0.59 -0.11,1.51 -0.11,2.09 0,0.64 0,1.29 0.08,1.83 0.19,1.18 0.94,1.27 1.19,1.27 0.33,0 0.99,-0.18 1.18,-1.16 0.09,-0.56 0.09,-1.31 0.09,-1.94 0,-0.74 0,-1.42 -0.11,-2.05 -0.14,-0.95 -0.71,-1.24 -1.16,-1.24 v 0 -0.22 c 0.54,0 1.29,0.21 1.73,1.15 0.32,0.68 0.37,1.46 0.37,2.24 z"
         id="path4628" /><polygon
         style="fill:#000000;stroke-width:0"
         points="332.97,643.42 332.97,642.88 335.59,642.88 335.59,666.71 332.97,666.71 332.97,666.16 335.04,666.16 335.04,643.42 "
         id="polygon4630" /><polygon
         style="fill:#000000;stroke-width:0"
         points="344.86,642.88 344.86,643.42 342.79,643.42 342.79,666.16 344.86,666.16 344.86,666.71 342.24,666.71 342.24,642.88 "
         id="polygon4632" /><path
         style="fill:#000000;stroke-width:0"
         d="m 346.54,661.38 -0.1,-0.07 -0.09,-0.07 -0.09,-0.07 -0.09,-0.07 -0.08,-0.07 -0.08,-0.07 -0.07,-0.07 -0.06,-0.08 -0.07,-0.07 -0.06,-0.07 -0.05,-0.07 -0.05,-0.08 -0.05,-0.07 -0.04,-0.07 -0.04,-0.07 -0.04,-0.07 -0.04,-0.07 -0.03,-0.06 -0.03,-0.07 -0.02,-0.06 -0.02,-0.07 -0.02,-0.06 -0.02,-0.06 -0.02,-0.05 -0.01,-0.06 -0.01,-0.05 -0.01,-0.05 -0.01,-0.05 v -0.04 l -0.01,-0.04 v -0.04 -0.04 c 0,-0.47 0.27,-0.75 0.29,-0.78 0.32,-0.33 0.41,-0.37 1.16,-0.65 l 1.21,-0.46 c 0.15,-0.07 0.34,-0.14 0.34,-0.43 0,-0.23 -0.18,-0.53 -0.49,-0.53 -0.43,0 -0.76,0.24 -0.87,0.32 -0.06,0.04 -0.07,0.05 -0.11,0.05 -0.08,0 -0.1,-0.07 -0.1,-0.11 0,-0.12 0.53,-0.48 1.08,-0.48 0.62,0 1.04,0.58 1.04,1.07 0,0.47 -0.37,0.65 -0.48,0.7 -0.14,0.05 -0.47,0.18 -0.6,0.23 -0.2,0.08 -0.4,0.16 -0.61,0.23 l -0.6,0.24 c -0.45,0.18 -0.75,0.46 -0.75,0.88 0,0.41 0.39,1.27 1.23,1.69 0.37,-0.13 0.67,-0.13 0.88,-0.13 0.29,0 0.92,0 0.92,0.31 0,0.25 -0.43,0.27 -0.82,0.27 v -0.22 c 0.34,0 0.38,-0.01 0.56,-0.06 -0.08,-0.04 -0.18,-0.08 -0.63,-0.08 -0.23,0 -0.32,0 -0.5,0.08 v 0 c 0.23,0.06 0.45,0.06 0.57,0.06 v 0.22 c -0.18,0 -0.46,0 -0.83,-0.12 -0.26,0.26 -0.3,0.58 -0.3,0.77 0,0.56 0.36,1.32 1.1,1.69 0.18,-0.22 0.41,-0.22 0.64,-0.22 l 0.01,0.22 c -0.19,0 -0.31,0 -0.42,0.09 v 0 c 0.16,0.05 0.37,0.05 0.48,0.05 0.34,0 0.38,-0.01 0.56,-0.06 -0.08,-0.03 -0.18,-0.08 -0.62,-0.08 l -0.01,-0.22 c 0.25,0 0.89,0 0.89,0.31 0,0.26 -0.44,0.27 -0.83,0.27 -0.13,0 -0.37,0 -0.63,-0.05 -0.03,0.09 -0.04,0.16 -0.04,0.33 0,0.14 0.04,0.34 0.04,0.37 0,0.07 -0.04,0.12 -0.11,0.12 -0.18,0 -0.18,-0.45 -0.18,-0.48 0,-0.2 0.06,-0.35 0.07,-0.39 -1.07,-0.3 -1.75,-1.09 -1.75,-1.86 0,-0.37 0.18,-0.78 0.65,-1.05 z"
         id="path4634" /><path
         style="fill:#000000;stroke-width:0"
         d="m 351.7,661.27 v 0.01 0.01 0 0.01 0.01 0.01 0 0.01 0.01 0 0.01 0.01 0 0.01 0 0.01 0 0.01 l -0.01,0.01 v 0 0.01 l -0.01,0.01 v 0.01 0 l -0.01,0.01 v 0 h -0.01 l -0.01,0.01 v 0 h -0.01 l -0.01,0.01 h -0.01 -0.01 v 0 h -0.01 v 0 h -0.01 v 0 h -0.01 -0.01 v 0 h -0.01 -0.01 -0.01 v 0 h -0.01 -0.01 -0.01 -0.01 -0.01 c -0.44,-0.43 -1.08,-0.44 -1.37,-0.44 v -0.25 c 0.17,0 0.63,0 1.02,0.19 v -3.54 c 0,-0.23 0,-0.32 -0.7,-0.32 h -0.27 v -0.25 c 0.13,0 0.99,0.02 1.25,0.02 0.21,0 1.09,-0.02 1.25,-0.02 v 0.25 h -0.27 c -0.7,0 -0.7,0.09 -0.7,0.32 z"
         id="path4636" /><path
         style="fill:#000000;stroke-width:0"
         d="m 346.54,649.42 -0.1,-0.06 -0.09,-0.07 -0.09,-0.07 -0.09,-0.07 -0.08,-0.07 -0.08,-0.08 -0.07,-0.07 -0.06,-0.07 -0.07,-0.07 -0.06,-0.08 -0.05,-0.07 -0.05,-0.07 -0.05,-0.07 -0.04,-0.07 -0.04,-0.07 -0.04,-0.07 -0.04,-0.07 -0.03,-0.07 -0.03,-0.06 -0.02,-0.07 -0.02,-0.06 -0.02,-0.06 -0.02,-0.06 -0.02,-0.06 -0.01,-0.05 -0.01,-0.06 -0.01,-0.05 -0.01,-0.04 v -0.05 l -0.01,-0.04 v -0.04 -0.03 c 0,-0.48 0.27,-0.76 0.29,-0.79 0.32,-0.33 0.41,-0.36 1.16,-0.64 l 1.21,-0.47 c 0.15,-0.07 0.34,-0.14 0.34,-0.43 0,-0.23 -0.18,-0.52 -0.49,-0.52 -0.43,0 -0.76,0.23 -0.87,0.32 -0.06,0.03 -0.07,0.04 -0.11,0.04 -0.08,0 -0.1,-0.07 -0.1,-0.1 0,-0.12 0.53,-0.48 1.08,-0.48 0.62,0 1.04,0.57 1.04,1.06 0,0.48 -0.37,0.66 -0.48,0.71 -0.14,0.05 -0.47,0.18 -0.6,0.22 -0.2,0.08 -0.4,0.16 -0.61,0.23 l -0.6,0.24 c -0.45,0.18 -0.75,0.47 -0.75,0.89 0,0.4 0.39,1.27 1.23,1.69 0.37,-0.13 0.67,-0.13 0.88,-0.13 0.29,0 0.92,0 0.92,0.3 0,0.25 -0.43,0.27 -0.82,0.27 v -0.22 c 0.34,0 0.38,-0.01 0.56,-0.06 -0.08,-0.04 -0.18,-0.08 -0.63,-0.08 -0.23,0 -0.32,0 -0.5,0.08 v 0 c 0.23,0.06 0.45,0.06 0.57,0.06 v 0.22 c -0.18,0 -0.46,0 -0.83,-0.12 -0.26,0.26 -0.3,0.59 -0.3,0.78 0,0.55 0.36,1.32 1.1,1.69 0.18,-0.22 0.41,-0.22 0.64,-0.22 l 0.01,0.22 c -0.19,0 -0.31,0 -0.42,0.09 v 0 c 0.16,0.05 0.37,0.05 0.48,0.05 0.34,0 0.38,-0.02 0.56,-0.06 -0.08,-0.03 -0.18,-0.08 -0.62,-0.08 l -0.01,-0.22 c 0.25,0 0.89,0 0.89,0.31 0,0.25 -0.44,0.26 -0.83,0.26 -0.13,0 -0.37,0 -0.63,-0.05 -0.03,0.09 -0.04,0.16 -0.04,0.33 0,0.14 0.04,0.35 0.04,0.37 0,0.08 -0.04,0.13 -0.11,0.13 -0.18,0 -0.18,-0.46 -0.18,-0.49 0,-0.2 0.06,-0.35 0.07,-0.39 -1.07,-0.29 -1.75,-1.09 -1.75,-1.85 0,-0.37 0.18,-0.79 0.65,-1.06 z"
         id="path4638" /><path
         style="fill:#000000;stroke-width:0"
         d="m 352.89,646.16 h -0.24 c -0.02,-0.16 -0.09,-0.57 -0.18,-0.64 -0.05,-0.04 -0.59,-0.04 -0.69,-0.04 h -1.29 c 0.74,0.65 0.98,0.84 1.4,1.17 0.52,0.41 1,0.84 1,1.5 0,0.84 -0.74,1.36 -1.63,1.36 -0.87,0 -1.46,-0.61 -1.46,-1.25 0,-0.35 0.3,-0.39 0.37,-0.39 0.17,0 0.37,0.12 0.37,0.37 0,0.13 -0.05,0.37 -0.41,0.37 0.22,0.49 0.69,0.65 1.02,0.65 0.7,0 1.06,-0.55 1.06,-1.11 0,-0.6 -0.43,-1.08 -0.65,-1.33 l -1.69,-1.66 c -0.07,-0.06 -0.07,-0.07 -0.07,-0.27 h 2.88 z"
         id="path4640" /><polygon
         style="fill:#000000;stroke-width:0"
         points="353.97,643.42 353.97,642.88 356.59,642.88 356.59,666.71 353.97,666.71 353.97,666.16 356.05,666.16 356.05,643.42 "
         id="polygon4642" /><path
         style="fill:#000000;stroke-width:0"
         d="m 365.38,654.55 h 2.78 c 0.14,0 0.33,0 0.33,0.2 0,0.2 -0.19,0.2 -0.33,0.2 h -2.78 v 2.78 c 0,0.14 0,0.32 -0.2,0.32 -0.2,0 -0.2,-0.18 -0.2,-0.32 v -2.78 h -2.79 c -0.14,0 -0.33,0 -0.33,-0.2 0,-0.2 0.19,-0.2 0.33,-0.2 h 2.79 v -2.78 c 0,-0.14 0,-0.33 0.2,-0.33 0.2,0 0.2,0.19 0.2,0.33 z"
         id="path4644" /><polygon
         style="fill:#000000;stroke-width:0"
         points="376.38,642.88 376.38,643.42 374.31,643.42 374.31,666.16 376.38,666.16 376.38,666.71 373.76,666.71 373.76,642.88 "
         id="polygon4646" /><path
         style="fill:#000000;stroke-width:0"
         d="m 381.11,661.52 v 0.15 0.15 l -0.01,0.15 v 0.14 l -0.01,0.15 -0.01,0.15 -0.02,0.15 -0.02,0.14 -0.02,0.15 -0.03,0.14 -0.03,0.15 -0.04,0.14 -0.04,0.14 -0.05,0.14 -0.06,0.14 -0.03,0.07 -0.03,0.07 c -0.46,0.96 -1.27,1.12 -1.69,1.12 -0.6,0 -1.33,-0.26 -1.74,-1.19 -0.32,-0.68 -0.37,-1.46 -0.37,-2.25 0,-0.75 0.04,-1.64 0.45,-2.39 0.43,-0.81 1.16,-1.01 1.65,-1.01 v 0.22 c -0.39,0 -0.98,0.25 -1.16,1.2 -0.11,0.6 -0.11,1.51 -0.11,2.1 0,0.63 0,1.29 0.08,1.83 0.19,1.18 0.94,1.27 1.19,1.27 0.33,0 0.98,-0.18 1.17,-1.16 0.1,-0.56 0.1,-1.32 0.1,-1.94 0,-0.75 0,-1.42 -0.11,-2.06 -0.15,-0.94 -0.71,-1.24 -1.16,-1.24 v 0 -0.22 c 0.54,0 1.29,0.21 1.73,1.15 0.32,0.69 0.37,1.46 0.37,2.25 z"
         id="path4648" /><path
         style="fill:#000000;stroke-width:0"
         d="m 379.46,652.74 v 0.01 0.01 0.02 0.01 0 0.01 0.01 0.01 0.01 0.01 l -0.01,0.01 v 0.01 0 0.01 0.01 0 0.01 0.01 0.01 0.01 l -0.01,0.01 v 0.01 0.01 h -0.01 v 0.01 l -0.01,0.01 v 0 l -0.01,0.01 h -0.01 l -0.01,0.01 v 0 h -0.01 v 0 h -0.01 v 0 h -0.01 l -0.01,0.01 v 0 h -0.01 -0.01 v 0 h -0.01 -0.01 -0.01 -0.01 v 0 h -0.01 -0.01 -0.01 -0.01 -0.01 -0.01 c -0.62,-0.64 -1.5,-0.64 -1.82,-0.64 v -0.3 c 0.2,0 0.79,0 1.31,0.26 v -5.15 c 0,-0.36 -0.03,-0.48 -0.93,-0.48 h -0.32 v -0.3 c 0.35,0.02 1.22,0.02 1.62,0.02 0.4,0 1.26,0 1.61,-0.02 v 0.3 h -0.32 c -0.89,0 -0.92,0.11 -0.92,0.48 z"
         id="path4650" /><polygon
         style="fill:#000000;stroke-width:0"
         points="381.64,643.42 381.64,642.88 384.27,642.88 384.27,666.71 381.64,666.71 381.64,666.16 383.72,666.16 383.72,643.42 "
         id="polygon4652" /><path
         style="fill:#000000;stroke-width:0"
         d="m 391.91,652.82 0.01,-0.04 0.02,-0.04 0.01,-0.03 0.02,-0.04 0.01,-0.03 0.02,-0.03 0.02,-0.04 0.02,-0.03 0.02,-0.03 0.02,-0.03 0.02,-0.02 0.03,-0.03 0.02,-0.03 0.03,-0.02 0.03,-0.02 0.03,-0.03 0.03,-0.02 0.03,-0.02 0.03,-0.02 0.03,-0.01 0.03,-0.02 0.04,-0.01 0.03,-0.02 0.04,-0.01 0.03,-0.01 0.04,-0.01 0.04,-0.01 h 0.03 l 0.04,-0.01 h 0.04 l 0.04,-0.01 h 0.04 c 0.35,0 0.58,0.23 0.74,0.55 0.17,0.36 0.3,0.96 0.3,0.98 0,0.1 -0.09,0.1 -0.12,0.1 -0.1,0 -0.11,-0.04 -0.14,-0.18 -0.14,-0.55 -0.33,-1.23 -0.75,-1.23 -0.21,0 -0.31,0.13 -0.31,0.46 0,0.22 0.12,0.69 0.2,1.03 l 0.28,1.07 c 0.03,0.15 0.13,0.53 0.17,0.68 0.05,0.23 0.15,0.61 0.15,0.67 0,0.18 -0.14,0.26 -0.29,0.26 -0.05,0 -0.31,-0.01 -0.39,-0.34 -0.19,-0.73 -0.63,-2.47 -0.75,-2.99 -0.01,-0.04 -0.41,-0.84 -1.13,-0.84 -0.52,0 -0.62,0.45 -0.62,0.82 0,0.55 0.28,1.34 0.54,2.02 0.12,0.3 0.17,0.44 0.17,0.63 0,0.45 -0.32,0.81 -0.82,0.81 -0.95,0 -1.32,-1.44 -1.32,-1.53 0,-0.09 0.1,-0.09 0.12,-0.09 0.1,0 0.11,0.01 0.16,0.17 0.25,0.87 0.63,1.23 1.01,1.23 0.09,0 0.25,-0.01 0.25,-0.32 0,-0.24 -0.11,-0.53 -0.17,-0.68 -0.37,-0.98 -0.58,-1.6 -0.58,-2.08 0,-0.95 0.69,-1.2 1.23,-1.2 0.66,0 1.01,0.45 1.18,0.67 z"
         id="path4654" /><path
         style="fill:#000000;stroke-width:0"
         d="m 462.52,649.88 v 0 0.01 0 l -0.01,0.01 v 0 0 0.01 0 0 0.01 h -0.01 v 0.01 0 l -0.01,0.01 v 0 0.01 h -0.01 l -0.01,0.01 v 0.01 0 h -0.01 v 0.01 0 l -0.01,0.01 v 0 l -0.01,0.01 v 0 l -0.01,0.01 v 0 l -0.01,0.01 v 0 l -0.01,0.01 v 0 l -0.01,0.01 v 0.01 h -0.01 l -0.01,0.01 v 0.01 h -0.01 l -0.01,0.01 -0.01,0.01 v 0.01 c -1.25,1.25 -1.57,3.13 -1.57,4.65 0,1.72 0.38,3.45 1.61,4.7 0.13,0.11 0.13,0.13 0.13,0.16 0,0.07 -0.04,0.1 -0.1,0.1 -0.1,0 -1,-0.67 -1.59,-1.93 -0.51,-1.1 -0.63,-2.2 -0.63,-3.03 0,-0.78 0.11,-1.98 0.66,-3.1 0.6,-1.23 1.46,-1.87 1.56,-1.87 0.06,0 0.1,0.03 0.1,0.1 z"
         id="path4656" /><path
         style="fill:#000000;stroke-width:0"
         d="m 466.02,658.62 v 0.01 0.01 0.01 0.01 0.01 0.01 0.01 0.01 0.01 0.01 0.01 0 0.01 0.01 0 0.01 0.01 0 l -0.01,0.02 v 0.01 0.01 0.01 H 466 v 0.01 l -0.01,0.01 v 0.01 h -0.01 l -0.01,0.01 v 0 h -0.01 l -0.01,0.01 v 0 h -0.01 v 0 h -0.01 -0.01 v 0 h -0.01 v 0 l -0.01,0.01 h -0.01 -0.01 v 0 h -0.01 -0.01 -0.01 -0.01 -0.01 -0.01 -0.01 -0.01 -0.01 c -0.62,-0.64 -1.49,-0.64 -1.81,-0.64 v -0.31 c 0.2,0 0.79,0 1.3,0.26 v -5.14 c 0,-0.36 -0.03,-0.48 -0.92,-0.48 h -0.32 v -0.31 c 0.35,0.03 1.21,0.03 1.61,0.03 0.4,0 1.27,0 1.62,-0.03 v 0.31 h -0.32 c -0.9,0 -0.93,0.11 -0.93,0.48 z"
         id="path4658" /><path
         style="fill:#000000;stroke-width:0"
         d="m 469.79,656.01 v 3.15 l -1.44,-0.11 v -0.31 c 0.7,0 0.78,-0.07 0.78,-0.56 v -5.92 h 0.25 c 0.01,0.01 0.09,0.15 0.36,0.62 0.15,-0.23 0.56,-0.73 1.3,-0.73 l -0.04,0.22 c -0.45,0 -0.8,0.24 -1.04,0.61 -0.14,0.21 -0.14,0.24 -0.14,0.42 v 0 2.04 c 0,0.19 0,0.2 0.11,0.36 0.38,0.56 0.93,0.63 1.17,0.63 0.45,0 0.81,-0.25 1.05,-0.63 0.26,-0.41 0.29,-0.97 0.29,-1.38 0,-0.37 -0.02,-0.96 -0.31,-1.41 -0.21,-0.31 -0.59,-0.64 -1.13,-0.64 l 0.04,-0.22 c 1.19,0 2.23,0.98 2.23,2.26 0,1.26 -0.98,2.24 -2.12,2.24 -0.78,0 -1.2,-0.46 -1.36,-0.64 z"
         id="path4660" /><path
         style="fill:#000000;stroke-width:0"
         d="m 476.49,654.75 v 0.07 0.08 l -0.01,0.07 v 0.09 l -0.01,0.16 -0.01,0.18 -0.01,0.18 -0.03,0.19 -0.02,0.2 -0.04,0.2 -0.03,0.2 -0.05,0.21 -0.05,0.21 -0.07,0.21 -0.07,0.21 -0.07,0.21 -0.05,0.11 -0.04,0.1 -0.05,0.11 -0.05,0.11 c -0.6,1.22 -1.46,1.86 -1.56,1.86 -0.06,0 -0.1,-0.04 -0.1,-0.1 0,-0.03 0,-0.05 0.19,-0.22 0.98,-0.99 1.55,-2.57 1.55,-4.64 0,-1.7 -0.37,-3.45 -1.61,-4.7 -0.13,-0.12 -0.13,-0.14 -0.13,-0.17 0,-0.06 0.04,-0.1 0.1,-0.1 0.1,0 1,0.68 1.59,1.94 0.51,1.09 0.63,2.19 0.63,3.03 z"
         id="path4662" /><path
         style="fill:#000000;stroke-width:0"
         d="m 274.89,632.57 -0.1,-0.07 -0.09,-0.07 -0.09,-0.07 -0.09,-0.07 -0.08,-0.07 -0.07,-0.07 -0.07,-0.07 -0.07,-0.08 -0.06,-0.07 -0.06,-0.07 -0.06,-0.07 -0.05,-0.08 -0.05,-0.07 -0.04,-0.07 -0.04,-0.07 -0.04,-0.07 -0.03,-0.07 -0.04,-0.06 -0.02,-0.07 -0.03,-0.06 -0.02,-0.07 -0.02,-0.06 -0.02,-0.06 -0.01,-0.05 -0.02,-0.06 -0.01,-0.05 -0.01,-0.05 v -0.05 l -0.01,-0.04 v -0.04 l -0.01,-0.04 v -0.04 c 0,-0.47 0.27,-0.75 0.29,-0.78 0.32,-0.33 0.41,-0.37 1.16,-0.65 l 1.21,-0.46 c 0.15,-0.07 0.35,-0.14 0.35,-0.43 0,-0.23 -0.18,-0.53 -0.49,-0.53 -0.44,0 -0.77,0.24 -0.88,0.32 -0.06,0.04 -0.07,0.05 -0.11,0.05 -0.08,0 -0.1,-0.07 -0.1,-0.11 0,-0.12 0.53,-0.48 1.09,-0.48 0.62,0 1.03,0.58 1.03,1.07 0,0.47 -0.36,0.65 -0.47,0.7 -0.14,0.05 -0.48,0.18 -0.61,0.23 -0.2,0.08 -0.4,0.16 -0.61,0.23 l -0.6,0.24 c -0.45,0.18 -0.75,0.46 -0.75,0.88 0,0.41 0.39,1.27 1.23,1.69 0.37,-0.13 0.67,-0.13 0.88,-0.13 0.3,0 0.92,0 0.92,0.31 0,0.25 -0.42,0.27 -0.81,0.27 l -0.01,-0.22 c 0.35,0 0.39,-0.01 0.56,-0.06 -0.07,-0.04 -0.17,-0.08 -0.63,-0.08 -0.23,0 -0.32,0 -0.5,0.08 v 0 c 0.23,0.06 0.45,0.06 0.57,0.06 l 0.01,0.22 c -0.18,0 -0.47,0 -0.84,-0.12 -0.26,0.26 -0.3,0.58 -0.3,0.77 0,0.56 0.36,1.32 1.11,1.69 0.18,-0.22 0.41,-0.22 0.64,-0.22 v 0.22 c -0.18,0 -0.3,0 -0.41,0.09 v 0 c 0.16,0.05 0.37,0.05 0.47,0.05 0.34,0 0.38,-0.01 0.56,-0.06 -0.08,-0.03 -0.18,-0.08 -0.62,-0.08 v -0.22 c 0.24,0 0.88,0 0.88,0.31 0,0.26 -0.44,0.27 -0.82,0.27 -0.13,0 -0.37,0 -0.63,-0.05 -0.03,0.09 -0.05,0.16 -0.05,0.33 0,0.14 0.05,0.34 0.05,0.37 0,0.07 -0.05,0.12 -0.12,0.12 -0.18,0 -0.18,-0.45 -0.18,-0.48 0,-0.2 0.06,-0.35 0.07,-0.39 -1.07,-0.3 -1.75,-1.09 -1.75,-1.86 0,-0.37 0.18,-0.78 0.65,-1.05 z"
         id="path4664" /><path
         style="fill:#000000;stroke-width:0"
         d="m 280.06,632.46 v 0.01 0.01 0 0.01 0.01 0.01 0 0.01 l -0.01,0.01 v 0 0.01 0.01 0 0.01 0 0.01 0 0.01 0.01 h -0.01 v 0.01 0.01 l -0.01,0.01 v 0 l -0.01,0.01 v 0 h -0.01 v 0.01 H 280 279.99 l -0.01,0.01 h -0.01 v 0 h -0.01 v 0 h -0.01 -0.01 v 0 h -0.01 v 0 h -0.01 -0.01 -0.01 v 0 h -0.01 -0.01 -0.01 -0.01 v 0 h -0.01 c -0.45,-0.43 -1.09,-0.44 -1.37,-0.44 v -0.25 c 0.16,0 0.63,0 1.01,0.19 v -3.54 c 0,-0.23 0,-0.32 -0.7,-0.32 h -0.27 v -0.25 c 0.13,0 0.99,0.02 1.25,0.02 0.22,0 1.1,-0.02 1.25,-0.02 v 0.25 h -0.26 c -0.7,0 -0.7,0.09 -0.7,0.32 z"
         id="path4666" /><path
         style="fill:#000000;stroke-width:0"
         d="m 285.48,627.15 v 0 0.01 0 0 0.01 0 0 0.01 0 0 l -0.01,0.01 v 0 0.01 h -0.01 v 0.01 h -0.01 v 0.01 l -0.01,0.01 v 0 0.01 h -0.01 v 0 l -0.01,0.01 v 0 0.01 h -0.01 v 0.01 h -0.01 v 0.01 h -0.01 v 0.01 l -0.01,0.01 v 0 l -0.01,0.01 h -0.01 v 0.01 l -0.01,0.01 h -0.01 v 0.01 l -0.01,0.01 -0.01,0.01 h -0.01 c -1.24,1.26 -1.56,3.13 -1.56,4.65 0,1.73 0.38,3.46 1.6,4.7 0.13,0.12 0.13,0.14 0.13,0.17 0,0.07 -0.04,0.1 -0.1,0.1 -0.1,0 -0.99,-0.68 -1.58,-1.94 -0.51,-1.09 -0.63,-2.19 -0.63,-3.03 0,-0.77 0.11,-1.97 0.66,-3.1 0.6,-1.22 1.45,-1.86 1.55,-1.86 0.06,0 0.1,0.03 0.1,0.1 z"
         id="path4668" /><path
         style="fill:#000000;stroke-width:0"
         d="m 290.64,632.71 v 0.15 0.15 0.15 l -0.01,0.14 -0.01,0.15 -0.01,0.15 -0.01,0.15 -0.02,0.14 -0.03,0.15 -0.02,0.14 -0.04,0.15 -0.03,0.14 -0.05,0.14 -0.05,0.14 -0.05,0.14 -0.03,0.07 -0.03,0.07 c -0.46,0.96 -1.28,1.12 -1.7,1.12 -0.6,0 -1.33,-0.26 -1.73,-1.19 -0.32,-0.68 -0.37,-1.46 -0.37,-2.25 0,-0.75 0.04,-1.64 0.44,-2.39 0.43,-0.81 1.16,-1.01 1.65,-1.01 v 0.22 c -0.39,0 -0.98,0.25 -1.16,1.2 -0.11,0.6 -0.11,1.51 -0.11,2.1 0,0.63 0,1.29 0.08,1.83 0.19,1.18 0.94,1.27 1.19,1.27 0.33,0 0.99,-0.18 1.18,-1.16 0.1,-0.56 0.1,-1.32 0.1,-1.94 0,-0.75 0,-1.42 -0.11,-2.06 -0.15,-0.94 -0.72,-1.24 -1.17,-1.24 v 0 -0.22 c 0.54,0 1.3,0.21 1.74,1.15 0.32,0.69 0.36,1.46 0.36,2.25 z"
         id="path4670" /><path
         style="fill:#000000;stroke-width:0"
         d="m 293.92,632.01 v 0.08 0.07 0.08 0.08 l -0.01,0.17 -0.01,0.18 -0.02,0.18 -0.02,0.19 -0.03,0.19 -0.03,0.2 -0.04,0.21 -0.05,0.2 -0.05,0.21 -0.06,0.21 -0.07,0.22 -0.08,0.21 -0.04,0.11 -0.05,0.1 -0.05,0.11 -0.05,0.1 c -0.6,1.23 -1.45,1.87 -1.55,1.87 -0.06,0 -0.1,-0.04 -0.1,-0.1 0,-0.03 0,-0.05 0.19,-0.23 0.97,-0.98 1.54,-2.56 1.54,-4.64 0,-1.69 -0.37,-3.44 -1.6,-4.69 -0.13,-0.12 -0.13,-0.14 -0.13,-0.17 0,-0.06 0.04,-0.1 0.1,-0.1 0.1,0 0.99,0.67 1.58,1.93 0.51,1.1 0.63,2.2 0.63,3.03 z"
         id="path4672" /><path
         style="fill:#000000;stroke-width:0"
         d="m 304.53,632.78 h 0.03 0.03 0.03 0.02 0.01 0.01 0.02 l 0.01,0.01 h 0.02 0.01 0.01 l 0.02,0.01 h 0.01 l 0.01,0.01 h 0.01 l 0.01,0.01 0.02,0.01 h 0.01 v 0.01 l 0.01,0.01 0.01,0.01 v 0.01 h 0.01 v 0.01 0 l 0.01,0.01 v 0.01 0 0.01 l 0.01,0.01 v 0.01 0 0.01 0.01 0.01 0.01 0.01 c 0,0.2 -0.19,0.2 -0.33,0.2 h -5.97 c -0.14,0 -0.33,0 -0.33,-0.2 0,-0.2 0.19,-0.2 0.34,-0.2 z"
         id="path4674" /><path
         style="fill:#000000;stroke-width:0"
         d="m 304.54,630.85 h 0.02 0.01 0.03 0.03 0.01 0.01 l 0.02,0.01 h 0.01 0.02 0.01 0.01 l 0.02,0.01 h 0.01 l 0.01,0.01 h 0.01 l 0.01,0.01 h 0.02 l 0.01,0.01 0.01,0.01 v 0.01 h 0.01 l 0.01,0.01 v 0 0.01 l 0.01,0.01 v 0 0.01 h 0.01 v 0.01 0.01 0 l 0.01,0.01 v 0.01 0.01 0 0.01 0.01 0.01 0.01 c 0,0.2 -0.19,0.2 -0.34,0.2 h -5.95 c -0.15,0 -0.34,0 -0.34,-0.2 0,-0.2 0.19,-0.2 0.33,-0.2 z"
         id="path4676" /><path
         style="fill:#000000;stroke-width:0"
         d="m 312.79,632.71 v 0.15 0.15 l -0.01,0.15 v 0.14 l -0.01,0.15 -0.02,0.15 -0.01,0.15 -0.02,0.14 -0.02,0.15 -0.03,0.14 -0.03,0.15 -0.04,0.14 -0.04,0.14 -0.05,0.14 -0.06,0.14 -0.03,0.07 -0.03,0.07 c -0.46,0.96 -1.28,1.12 -1.7,1.12 -0.59,0 -1.32,-0.26 -1.73,-1.19 -0.32,-0.68 -0.37,-1.46 -0.37,-2.25 0,-0.75 0.04,-1.64 0.45,-2.39 0.43,-0.81 1.16,-1.01 1.64,-1.01 v 0.22 c -0.38,0 -0.97,0.25 -1.15,1.2 -0.11,0.6 -0.11,1.51 -0.11,2.1 0,0.63 0,1.29 0.08,1.83 0.19,1.18 0.93,1.27 1.18,1.27 0.33,0 0.99,-0.18 1.18,-1.16 0.1,-0.56 0.1,-1.32 0.1,-1.94 0,-0.75 0,-1.42 -0.11,-2.06 -0.15,-0.94 -0.72,-1.24 -1.17,-1.24 v 0 -0.22 c 0.54,0 1.3,0.21 1.74,1.15 0.32,0.69 0.37,1.46 0.37,2.25 z"
         id="path4678" /><path
         style="fill:#000000;stroke-width:0"
         d="m 463.62,627.15 v 0 0.01 0 0 0.01 0 0 0.01 h -0.01 v 0 0.01 0 l -0.01,0.01 v 0 0.01 h -0.01 v 0.01 l -0.01,0.01 v 0 l -0.01,0.01 v 0 0 l -0.01,0.01 v 0 l -0.01,0.01 v 0 0.01 h -0.01 v 0.01 h -0.01 v 0.01 l -0.01,0.01 h -0.01 v 0.01 h -0.01 v 0.01 l -0.01,0.01 h -0.01 l -0.01,0.01 v 0.01 l -0.01,0.01 h -0.01 c -1.25,1.26 -1.56,3.13 -1.56,4.65 0,1.73 0.38,3.46 1.6,4.7 0.13,0.12 0.13,0.14 0.13,0.17 0,0.07 -0.04,0.1 -0.1,0.1 -0.1,0 -1,-0.68 -1.58,-1.94 -0.51,-1.09 -0.63,-2.19 -0.63,-3.03 0,-0.77 0.11,-1.97 0.66,-3.1 0.59,-1.22 1.45,-1.86 1.55,-1.86 0.06,0 0.1,0.03 0.1,0.1 z"
         id="path4680" /><path
         style="fill:#000000;stroke-width:0"
         d="m 467.13,635.89 v 0.01 0.01 0.01 0.01 0.01 0.01 0.01 0.01 0.01 0 0.01 0.01 0.01 h -0.01 v 0.01 0.01 0.01 0 0.01 0.01 l -0.01,0.01 v 0.01 0.01 l -0.01,0.01 v 0.01 h -0.01 v 0.01 h -0.01 l -0.01,0.01 h -0.01 v 0 h -0.01 v 0.01 h -0.01 v 0 h -0.01 -0.01 v 0 H 467.01 467 v 0 h -0.01 -0.01 -0.01 l -0.01,0.01 v 0 h -0.01 -0.01 -0.01 -0.01 -0.01 -0.01 c -0.62,-0.64 -1.5,-0.64 -1.82,-0.64 v -0.31 c 0.2,0 0.79,0 1.31,0.26 v -5.14 c 0,-0.36 -0.03,-0.48 -0.93,-0.48 h -0.32 v -0.31 c 0.35,0.03 1.22,0.03 1.62,0.03 0.4,0 1.26,0 1.61,-0.03 v 0.31 h -0.32 c -0.89,0 -0.92,0.11 -0.92,0.48 z"
         id="path4682" /><path
         style="fill:#000000;stroke-width:0"
         d="m 470.34,631.7 v 0.07 l 0.01,0.07 v 0.08 0.07 l 0.01,0.06 v 0.07 l 0.01,0.07 0.01,0.06 0.01,0.06 0.01,0.06 0.01,0.06 0.01,0.06 0.03,0.1 0.03,0.11 0.03,0.09 0.04,0.1 0.04,0.08 0.04,0.08 0.04,0.08 0.05,0.07 0.05,0.06 0.05,0.06 0.05,0.06 0.05,0.05 0.06,0.04 0.05,0.04 0.06,0.04 0.05,0.04 0.06,0.03 0.06,0.02 0.05,0.02 0.06,0.02 0.05,0.02 0.06,0.01 0.05,0.01 0.06,0.01 h 0.05 0.05 c 0.09,0 0.72,-0.01 1.07,-0.37 -0.41,-0.02 -0.47,-0.32 -0.47,-0.45 0,-0.26 0.18,-0.46 0.46,-0.46 0.26,0 0.45,0.17 0.45,0.47 0,0.67 -0.75,1.06 -1.52,1.06 -1.25,0 -2.16,-1.07 -2.16,-2.3 0,-1.28 0.98,-2.26 2.14,-2.26 1.33,0 1.65,1.19 1.65,1.29 0,0.1 -0.1,0.1 -0.13,0.1 -0.08,0 -0.1,-0.04 -0.13,-0.1 -0.28,-0.92 -0.93,-1.04 -1.3,-1.04 -0.53,0 -1.41,0.43 -1.41,2.03 z"
         id="path4684" /><path
         style="fill:#000000;stroke-width:0"
         d="m 476.48,632.01 v 0.08 0.07 0.08 0.08 l -0.01,0.17 -0.01,0.18 -0.02,0.18 -0.02,0.19 -0.03,0.19 -0.03,0.2 -0.04,0.21 -0.04,0.2 -0.06,0.21 -0.06,0.21 -0.07,0.22 -0.08,0.21 -0.04,0.11 -0.05,0.1 -0.04,0.11 -0.05,0.1 c -0.6,1.23 -1.46,1.87 -1.56,1.87 -0.06,0 -0.1,-0.04 -0.1,-0.1 0,-0.03 0,-0.05 0.19,-0.23 0.98,-0.98 1.55,-2.56 1.55,-4.64 0,-1.69 -0.37,-3.44 -1.61,-4.69 -0.13,-0.12 -0.13,-0.14 -0.13,-0.17 0,-0.06 0.04,-0.1 0.1,-0.1 0.1,0 1,0.67 1.59,1.93 0.51,1.1 0.62,2.2 0.62,3.03 z"
         id="path4686" /><path
         style="fill:#000000;stroke-width:0"
         d="m 274.89,617.63 -0.1,-0.07 -0.09,-0.07 -0.09,-0.07 -0.09,-0.07 -0.08,-0.07 -0.07,-0.07 -0.07,-0.08 -0.07,-0.07 -0.06,-0.07 -0.06,-0.07 -0.06,-0.08 -0.05,-0.07 -0.05,-0.07 -0.04,-0.07 -0.04,-0.07 -0.04,-0.07 -0.03,-0.07 -0.04,-0.07 -0.02,-0.06 -0.03,-0.07 -0.02,-0.06 -0.02,-0.06 -0.02,-0.06 -0.01,-0.06 -0.02,-0.05 -0.01,-0.05 -0.01,-0.05 v -0.05 l -0.01,-0.05 v -0.04 l -0.01,-0.04 v -0.03 c 0,-0.48 0.27,-0.76 0.29,-0.79 0.32,-0.32 0.41,-0.36 1.16,-0.64 l 1.21,-0.47 c 0.15,-0.07 0.35,-0.14 0.35,-0.43 0,-0.22 -0.18,-0.52 -0.49,-0.52 -0.44,0 -0.77,0.24 -0.88,0.32 -0.06,0.04 -0.07,0.05 -0.11,0.05 -0.08,0 -0.1,-0.07 -0.1,-0.11 0,-0.12 0.53,-0.48 1.09,-0.48 0.62,0 1.03,0.58 1.03,1.06 0,0.48 -0.36,0.66 -0.47,0.71 -0.14,0.05 -0.48,0.18 -0.61,0.23 -0.2,0.08 -0.4,0.16 -0.61,0.23 l -0.6,0.23 c -0.45,0.18 -0.75,0.47 -0.75,0.89 0,0.4 0.39,1.27 1.23,1.69 0.37,-0.13 0.67,-0.13 0.88,-0.13 0.3,0 0.92,0 0.92,0.31 0,0.24 -0.42,0.26 -0.81,0.26 l -0.01,-0.22 c 0.35,0 0.39,-0.01 0.56,-0.05 -0.07,-0.04 -0.17,-0.09 -0.63,-0.09 -0.23,0 -0.32,0 -0.5,0.09 v 0 c 0.23,0.05 0.45,0.05 0.57,0.05 l 0.01,0.22 c -0.18,0 -0.47,0 -0.84,-0.12 -0.26,0.26 -0.3,0.59 -0.3,0.78 0,0.55 0.36,1.32 1.11,1.69 0.18,-0.22 0.41,-0.22 0.64,-0.22 v 0.22 c -0.18,0 -0.3,0 -0.41,0.09 v 0 c 0.16,0.05 0.37,0.05 0.47,0.05 0.34,0 0.38,-0.01 0.56,-0.06 -0.08,-0.03 -0.18,-0.08 -0.62,-0.08 v -0.22 c 0.24,0 0.88,0 0.88,0.31 0,0.25 -0.44,0.26 -0.82,0.26 -0.13,0 -0.37,0 -0.63,-0.05 -0.03,0.1 -0.05,0.16 -0.05,0.33 0,0.14 0.05,0.35 0.05,0.37 0,0.08 -0.05,0.13 -0.12,0.13 -0.18,0 -0.18,-0.46 -0.18,-0.49 0,-0.2 0.06,-0.35 0.07,-0.38 -1.07,-0.3 -1.75,-1.1 -1.75,-1.86 0,-0.37 0.18,-0.79 0.65,-1.06 z"
         id="path4688" /><path
         style="fill:#000000;stroke-width:0"
         d="m 281.24,614.36 h -0.23 c -0.02,-0.16 -0.09,-0.57 -0.18,-0.64 -0.06,-0.04 -0.6,-0.04 -0.7,-0.04 h -1.28 c 0.73,0.65 0.98,0.84 1.39,1.17 0.52,0.41 1,0.84 1,1.5 0,0.85 -0.74,1.36 -1.63,1.36 -0.87,0 -1.46,-0.61 -1.46,-1.25 0,-0.35 0.3,-0.38 0.37,-0.38 0.17,0 0.38,0.11 0.38,0.36 0,0.13 -0.05,0.37 -0.42,0.37 0.22,0.5 0.69,0.65 1.02,0.65 0.7,0 1.07,-0.54 1.07,-1.11 0,-0.6 -0.44,-1.08 -0.66,-1.33 l -1.69,-1.66 c -0.07,-0.06 -0.07,-0.07 -0.07,-0.27 h 2.89 z"
         id="path4690" /><path
         style="fill:#000000;stroke-width:0"
         d="m 285.48,612.2 v 0.01 0 0.01 0 0 0 0.01 0 0.01 0 h -0.01 v 0.01 0 l -0.01,0.01 v 0 l -0.01,0.01 v 0.01 h -0.01 v 0.01 0 l -0.01,0.01 v 0 h -0.01 v 0.01 0 l -0.01,0.01 v 0 l -0.01,0.01 v 0 l -0.01,0.01 v 0.01 h -0.01 v 0.01 h -0.01 l -0.01,0.01 v 0.01 h -0.01 l -0.01,0.01 v 0.01 h -0.01 l -0.01,0.01 -0.01,0.01 c -1.24,1.25 -1.56,3.13 -1.56,4.65 0,1.73 0.38,3.46 1.6,4.7 0.13,0.12 0.13,0.14 0.13,0.17 0,0.07 -0.04,0.1 -0.1,0.1 -0.1,0 -0.99,-0.68 -1.58,-1.94 -0.51,-1.09 -0.63,-2.2 -0.63,-3.03 0,-0.78 0.11,-1.98 0.66,-3.1 0.6,-1.22 1.45,-1.87 1.55,-1.87 0.06,0 0.1,0.03 0.1,0.1 z"
         id="path4692" /><path
         style="fill:#000000;stroke-width:0"
         d="m 290.64,617.77 v 0.14 0.15 0.15 l -0.01,0.15 -0.01,0.15 -0.01,0.15 -0.01,0.14 -0.02,0.15 -0.03,0.15 -0.02,0.14 -0.04,0.14 -0.03,0.15 -0.05,0.14 -0.05,0.14 -0.05,0.14 -0.03,0.07 -0.03,0.07 c -0.46,0.95 -1.28,1.11 -1.7,1.11 -0.6,0 -1.33,-0.26 -1.73,-1.18 -0.32,-0.69 -0.37,-1.46 -0.37,-2.25 0,-0.75 0.04,-1.64 0.44,-2.4 0.43,-0.8 1.16,-1 1.65,-1 v 0.22 c -0.39,0 -0.98,0.24 -1.16,1.2 -0.11,0.59 -0.11,1.51 -0.11,2.09 0,0.64 0,1.29 0.08,1.83 0.19,1.18 0.94,1.27 1.19,1.27 0.33,0 0.99,-0.18 1.18,-1.16 0.1,-0.55 0.1,-1.31 0.1,-1.94 0,-0.74 0,-1.42 -0.11,-2.05 -0.15,-0.95 -0.72,-1.24 -1.17,-1.24 v 0 -0.22 c 0.54,0 1.3,0.21 1.74,1.15 0.32,0.69 0.36,1.46 0.36,2.25 z"
         id="path4694" /><path
         style="fill:#000000;stroke-width:0"
         d="m 293.92,617.07 v 0.07 0.08 0.08 0.08 l -0.01,0.17 -0.01,0.17 -0.02,0.19 -0.02,0.18 -0.03,0.2 -0.03,0.2 -0.04,0.2 -0.05,0.21 -0.05,0.21 -0.06,0.21 -0.07,0.21 -0.08,0.22 -0.04,0.1 -0.05,0.11 -0.05,0.1 -0.05,0.11 c -0.6,1.22 -1.45,1.87 -1.55,1.87 -0.06,0 -0.1,-0.04 -0.1,-0.1 0,-0.03 0,-0.05 0.19,-0.23 0.97,-0.99 1.54,-2.56 1.54,-4.64 0,-1.7 -0.37,-3.45 -1.6,-4.7 -0.13,-0.12 -0.13,-0.14 -0.13,-0.17 0,-0.06 0.04,-0.1 0.1,-0.1 0.1,0 0.99,0.68 1.58,1.94 0.51,1.09 0.63,2.19 0.63,3.03 z"
         id="path4696" /><path
         style="fill:#000000;stroke-width:0"
         d="m 304.53,617.83 h 0.03 0.03 l 0.03,0.01 h 0.02 0.01 0.01 0.02 0.01 0.02 l 0.01,0.01 h 0.01 0.02 l 0.01,0.01 h 0.01 l 0.01,0.01 0.01,0.01 h 0.02 l 0.01,0.01 v 0.01 l 0.01,0.01 0.01,0.01 v 0 l 0.01,0.01 v 0 0.01 l 0.01,0.01 v 0 0.01 0.01 h 0.01 v 0.01 0.01 0.01 0.01 0 0.01 0.01 c 0,0.2 -0.19,0.2 -0.33,0.2 h -5.97 c -0.14,0 -0.33,0 -0.33,-0.2 0,-0.2 0.19,-0.2 0.34,-0.2 z"
         id="path4698" /><path
         style="fill:#000000;stroke-width:0"
         d="m 304.54,615.91 h 0.02 0.01 0.03 0.03 0.01 0.01 0.02 0.01 l 0.02,0.01 h 0.01 0.01 0.02 l 0.01,0.01 h 0.01 l 0.01,0.01 h 0.01 l 0.02,0.01 0.01,0.01 h 0.01 v 0.01 l 0.01,0.01 0.01,0.01 v 0 0.01 h 0.01 v 0.01 0 l 0.01,0.01 v 0.01 0 0.01 l 0.01,0.01 v 0.01 0 0.01 0.01 0.01 0.01 0.01 c 0,0.19 -0.19,0.19 -0.34,0.19 h -5.95 c -0.15,0 -0.34,0 -0.34,-0.19 0,-0.2 0.19,-0.2 0.33,-0.2 z"
         id="path4700" /><path
         style="fill:#000000;stroke-width:0"
         d="m 311.13,620.94 v 0.01 0.02 0.01 0.01 0.01 0.01 0 0.01 0.01 0.01 0.01 0.01 0 0.01 0.01 0 0.01 0.01 0.01 l -0.01,0.01 v 0.01 0.01 l -0.01,0.01 v 0.01 h -0.01 v 0.01 h -0.01 v 0.01 h -0.01 l -0.01,0.01 h -0.01 v 0 h -0.01 v 0 h -0.01 v 0.01 h -0.01 -0.01 v 0 H 311.01 311 v 0 h -0.01 -0.01 -0.01 -0.01 -0.01 -0.01 -0.01 -0.01 -0.01 -0.01 c -0.61,-0.63 -1.49,-0.63 -1.81,-0.63 v -0.31 c 0.2,0 0.79,0 1.3,0.26 v -5.15 c 0,-0.36 -0.03,-0.48 -0.92,-0.48 h -0.32 v -0.3 c 0.35,0.03 1.21,0.03 1.61,0.03 0.4,0 1.27,0 1.62,-0.03 v 0.3 h -0.32 c -0.9,0 -0.93,0.11 -0.93,0.48 z"
         id="path4702" /><path
         style="fill:#000000;stroke-width:0"
         d="m 462.52,612.2 -0.01,0.01 v 0 0.01 0 0 0 0.01 0 0.01 0 h -0.01 v 0.01 0 l -0.01,0.01 v 0 l -0.01,0.01 v 0.01 h -0.01 v 0.01 0 l -0.01,0.01 v 0 0 l -0.01,0.01 v 0 l -0.01,0.01 v 0 l -0.01,0.01 v 0 l -0.01,0.01 v 0.01 h -0.01 v 0.01 h -0.01 v 0.01 l -0.01,0.01 h -0.01 v 0.01 l -0.01,0.01 h -0.01 l -0.01,0.01 v 0.01 c -1.25,1.25 -1.57,3.13 -1.57,4.65 0,1.73 0.38,3.46 1.61,4.7 0.13,0.12 0.13,0.14 0.13,0.17 0,0.07 -0.04,0.1 -0.1,0.1 -0.1,0 -1,-0.68 -1.59,-1.94 -0.51,-1.09 -0.63,-2.2 -0.63,-3.03 0,-0.78 0.11,-1.98 0.66,-3.1 0.6,-1.22 1.46,-1.87 1.56,-1.87 0.06,0 0.1,0.03 0.1,0.1 z"
         id="path4704" /><path
         style="fill:#000000;stroke-width:0"
         d="m 466.02,620.94 v 0.01 0.02 0.01 0.01 0.01 0.01 0 0.01 0.01 0.01 0.01 0.01 0 0.01 0.01 0 0.01 0.01 l -0.01,0.01 v 0.01 0.01 0.01 l -0.01,0.01 v 0.01 h -0.01 v 0.01 h -0.01 l -0.01,0.01 h -0.01 v 0.01 h -0.01 v 0 h -0.01 v 0 h -0.01 l -0.01,0.01 v 0 h -0.01 -0.01 v 0 h -0.01 -0.01 v 0 h -0.01 -0.01 -0.01 -0.01 -0.01 -0.01 -0.01 -0.01 -0.01 c -0.62,-0.63 -1.49,-0.63 -1.81,-0.63 v -0.31 c 0.2,0 0.78,0 1.3,0.26 v -5.15 c 0,-0.36 -0.03,-0.48 -0.92,-0.48 h -0.32 v -0.3 c 0.35,0.03 1.21,0.03 1.61,0.03 0.4,0 1.27,0 1.62,-0.03 v 0.3 h -0.32 c -0.9,0 -0.93,0.11 -0.93,0.48 z"
         id="path4706" /><path
         style="fill:#000000;stroke-width:0"
         d="m 471.86,615.13 v -0.65 l 1.47,0.11 v 0.3 c -0.7,0 -0.78,0.07 -0.78,0.56 v 6.03 l -1.44,-0.11 v -0.31 c 0.7,0 0.78,-0.07 0.78,-0.55 v -2.15 c -0.29,0.36 -0.72,0.62 -1.26,0.62 l 0.04,-0.22 c 0.35,0 0.77,-0.15 1.08,-0.6 0.11,-0.17 0.11,-0.19 0.11,-0.37 v 0 -2.03 c 0,-0.18 0,-0.2 -0.11,-0.37 -0.3,-0.48 -0.75,-0.69 -1.18,-0.69 -0.45,0 -0.8,0.25 -1.04,0.63 -0.26,0.41 -0.29,0.97 -0.29,1.38 0,0.37 0.02,0.96 0.31,1.41 0.21,0.31 0.58,0.64 1.12,0.64 l -0.04,0.22 c -1.17,0 -2.22,-0.98 -2.22,-2.26 0,-1.26 0.98,-2.24 2.11,-2.24 0.64,0 1.09,0.33 1.34,0.65 z"
         id="path4708" /><path
         style="fill:#000000;stroke-width:0"
         d="m 476.49,617.07 v 0.07 0.08 l -0.01,0.08 v 0.08 l -0.01,0.17 -0.01,0.17 -0.02,0.19 -0.02,0.18 -0.02,0.2 -0.04,0.2 -0.04,0.2 -0.04,0.21 -0.06,0.21 -0.06,0.21 -0.07,0.21 -0.08,0.22 -0.04,0.1 -0.04,0.11 -0.05,0.1 -0.05,0.11 c -0.6,1.22 -1.46,1.87 -1.56,1.87 -0.06,0 -0.1,-0.04 -0.1,-0.1 0,-0.03 0,-0.05 0.19,-0.23 0.98,-0.99 1.55,-2.56 1.55,-4.64 0,-1.7 -0.37,-3.45 -1.61,-4.7 -0.13,-0.12 -0.13,-0.14 -0.13,-0.17 0,-0.06 0.04,-0.1 0.1,-0.1 0.1,0 1,0.68 1.59,1.94 0.51,1.09 0.63,2.19 0.63,3.03 z"
         id="path4710" /><path
         style="fill:#000000;stroke-width:0"
         d="m 274.89,602.68 -0.1,-0.07 -0.09,-0.06 -0.09,-0.07 -0.09,-0.08 -0.08,-0.07 -0.07,-0.07 -0.07,-0.07 -0.07,-0.07 -0.06,-0.08 -0.06,-0.07 -0.06,-0.07 -0.05,-0.07 -0.05,-0.07 -0.04,-0.08 -0.04,-0.07 -0.04,-0.07 -0.03,-0.06 -0.04,-0.07 -0.02,-0.07 -0.03,-0.06 -0.02,-0.06 -0.02,-0.07 -0.02,-0.05 -0.01,-0.06 -0.02,-0.06 -0.01,-0.05 -0.01,-0.05 v -0.05 l -0.01,-0.04 v -0.04 l -0.01,-0.04 v -0.04 c 0,-0.47 0.27,-0.75 0.29,-0.78 0.32,-0.33 0.41,-0.37 1.16,-0.65 l 1.21,-0.46 c 0.15,-0.07 0.35,-0.14 0.35,-0.43 0,-0.23 -0.18,-0.53 -0.49,-0.53 -0.44,0 -0.77,0.24 -0.88,0.32 -0.06,0.04 -0.07,0.05 -0.11,0.05 -0.08,0 -0.1,-0.07 -0.1,-0.11 0,-0.12 0.53,-0.48 1.09,-0.48 0.62,0 1.03,0.58 1.03,1.07 0,0.48 -0.36,0.65 -0.47,0.7 -0.14,0.05 -0.48,0.18 -0.61,0.23 -0.2,0.08 -0.4,0.16 -0.61,0.23 l -0.6,0.24 c -0.45,0.18 -0.75,0.47 -0.75,0.88 0,0.41 0.39,1.27 1.23,1.69 0.37,-0.13 0.67,-0.13 0.88,-0.13 0.3,0 0.92,0 0.92,0.31 0,0.25 -0.42,0.27 -0.81,0.27 l -0.01,-0.22 c 0.35,0 0.39,-0.01 0.56,-0.06 -0.07,-0.04 -0.17,-0.08 -0.63,-0.08 -0.23,0 -0.32,0 -0.5,0.08 v 0 c 0.23,0.06 0.45,0.06 0.57,0.06 l 0.01,0.22 c -0.18,0 -0.47,0 -0.84,-0.12 -0.26,0.26 -0.3,0.59 -0.3,0.77 0,0.56 0.36,1.33 1.11,1.69 0.18,-0.21 0.41,-0.21 0.64,-0.21 v 0.21 c -0.18,0 -0.3,0 -0.41,0.09 v 0 c 0.16,0.05 0.37,0.05 0.47,0.05 0.34,0 0.38,-0.01 0.56,-0.06 -0.08,-0.03 -0.18,-0.08 -0.62,-0.08 v -0.21 c 0.24,0 0.88,0 0.88,0.3 0,0.26 -0.44,0.27 -0.82,0.27 -0.13,0 -0.37,0 -0.63,-0.05 -0.03,0.09 -0.05,0.16 -0.05,0.33 0,0.14 0.05,0.35 0.05,0.37 0,0.08 -0.05,0.13 -0.12,0.13 -0.18,0 -0.18,-0.46 -0.18,-0.49 0,-0.2 0.06,-0.35 0.07,-0.39 -1.07,-0.3 -1.75,-1.09 -1.75,-1.86 0,-0.36 0.18,-0.78 0.65,-1.05 z"
         id="path4712" /><path
         style="fill:#000000;stroke-width:0"
         d="m 280.06,602.57 v 0.01 0.01 0.01 0 0.01 0.01 0.01 0 l -0.01,0.01 v 0.01 0 0.01 0 0.01 0 0.01 0 0.01 0.01 l -0.01,0.01 v 0 0.01 l -0.01,0.01 v 0 l -0.01,0.01 v 0 l -0.01,0.01 v 0 H 280 l -0.01,0.01 h -0.01 -0.01 v 0 h -0.01 v 0 h -0.01 -0.01 v 0 h -0.01 v 0 h -0.01 -0.01 -0.01 v 0 h -0.01 -0.01 -0.01 -0.01 v 0.01 h -0.01 c -0.45,-0.44 -1.09,-0.45 -1.37,-0.45 v -0.25 c 0.16,0 0.63,0 1.01,0.19 v -3.54 c 0,-0.23 0,-0.32 -0.7,-0.32 h -0.27 v -0.25 c 0.13,0.01 0.99,0.03 1.25,0.03 0.22,0 1.1,-0.02 1.25,-0.03 v 0.25 h -0.26 c -0.7,0 -0.7,0.09 -0.7,0.32 z"
         id="path4714" /><path
         style="fill:#000000;stroke-width:0"
         d="m 285.48,597.26 v 0 0.01 0 0 0.01 0 0 0.01 0 0.01 h -0.01 v 0 0.01 h -0.01 v 0.01 l -0.01,0.01 v 0 l -0.01,0.01 v 0 0.01 h -0.01 v 0.01 h -0.01 v 0.01 0 h -0.01 v 0.01 h -0.01 v 0.01 l -0.01,0.01 v 0 l -0.01,0.01 v 0 l -0.01,0.01 -0.01,0.01 v 0 l -0.01,0.01 -0.01,0.01 v 0 l -0.01,0.01 -0.01,0.01 -0.01,0.01 c -1.24,1.25 -1.56,3.13 -1.56,4.65 0,1.72 0.38,3.45 1.6,4.69 0.13,0.12 0.13,0.14 0.13,0.17 0,0.07 -0.04,0.1 -0.1,0.1 -0.1,0 -0.99,-0.67 -1.58,-1.93 -0.51,-1.1 -0.63,-2.2 -0.63,-3.03 0,-0.78 0.11,-1.98 0.66,-3.1 0.6,-1.23 1.45,-1.87 1.55,-1.87 0.06,0 0.1,0.03 0.1,0.1 z"
         id="path4716" /><path
         style="fill:#000000;stroke-width:0"
         d="m 288.99,606 v 0.01 0.01 0.01 0.01 0.01 0.01 0.01 0.01 0.01 0.01 0 0.01 0.01 0.01 0 0.01 l -0.01,0.01 v 0 0.02 0.01 0.01 l -0.01,0.01 v 0 0.01 l -0.01,0.01 h -0.01 v 0.01 h -0.01 l -0.01,0.01 h -0.01 v 0 l -0.01,0.01 v 0 h -0.01 v 0 h -0.01 v 0 h -0.01 -0.01 v 0 l -0.01,0.01 h -0.01 -0.01 v 0 h -0.01 -0.01 -0.01 -0.01 -0.01 -0.01 -0.01 -0.01 c -0.62,-0.64 -1.5,-0.64 -1.81,-0.64 v -0.31 c 0.19,0 0.78,0 1.3,0.26 v -5.14 c 0,-0.36 -0.03,-0.48 -0.93,-0.48 h -0.31 v -0.31 c 0.34,0.03 1.21,0.03 1.61,0.03 0.4,0 1.27,0 1.62,-0.03 v 0.31 h -0.32 c -0.9,0 -0.93,0.11 -0.93,0.48 z"
         id="path4718" /><path
         style="fill:#000000;stroke-width:0"
         d="m 293.92,602.13 v 0.07 0.08 0.07 0.08 l -0.01,0.17 -0.01,0.18 -0.02,0.18 -0.02,0.19 -0.03,0.2 -0.03,0.19 -0.04,0.21 -0.05,0.2 -0.05,0.21 -0.06,0.22 -0.07,0.21 -0.08,0.21 -0.04,0.11 -0.05,0.1 -0.05,0.11 -0.05,0.1 c -0.6,1.23 -1.45,1.87 -1.55,1.87 -0.06,0 -0.1,-0.04 -0.1,-0.1 0,-0.03 0,-0.05 0.19,-0.23 0.97,-0.98 1.54,-2.56 1.54,-4.63 0,-1.7 -0.37,-3.45 -1.6,-4.7 -0.13,-0.12 -0.13,-0.14 -0.13,-0.17 0,-0.06 0.04,-0.1 0.1,-0.1 0.1,0 0.99,0.67 1.58,1.94 0.51,1.09 0.63,2.19 0.63,3.03 z"
         id="path4720" /><path
         style="fill:#000000;stroke-width:0"
         d="m 304.53,602.89 h 0.03 0.03 0.03 0.02 0.01 0.01 l 0.02,0.01 h 0.01 0.02 0.01 l 0.01,0.01 h 0.02 0.01 l 0.01,0.01 0.01,0.01 h 0.01 l 0.02,0.01 0.01,0.01 v 0 l 0.01,0.01 0.01,0.01 v 0.01 h 0.01 v 0.01 0.01 h 0.01 v 0.01 0.01 0 l 0.01,0.01 v 0.01 0.01 0 0.01 0.01 0.01 0.01 c 0,0.2 -0.19,0.2 -0.33,0.2 h -5.97 c -0.14,0 -0.33,0 -0.33,-0.2 0,-0.2 0.19,-0.2 0.34,-0.2 z"
         id="path4722" /><path
         style="fill:#000000;stroke-width:0"
         d="m 304.54,600.96 h 0.02 0.01 0.03 0.03 l 0.01,0.01 h 0.01 0.02 0.01 0.02 0.01 l 0.01,0.01 h 0.02 0.01 l 0.01,0.01 h 0.01 l 0.01,0.01 h 0.02 l 0.01,0.01 0.01,0.01 v 0.01 l 0.01,0.01 h 0.01 v 0.01 0 l 0.01,0.01 v 0 0.01 l 0.01,0.01 v 0 0.01 0.01 h 0.01 v 0.01 0.01 0.01 0.01 0 0.01 0.01 c 0,0.2 -0.19,0.2 -0.34,0.2 h -5.95 c -0.15,0 -0.34,0 -0.34,-0.2 0,-0.2 0.19,-0.2 0.33,-0.2 z"
         id="path4724" /><path
         style="fill:#000000;stroke-width:0"
         d="m 312.79,602.82 v 0.15 0.15 l -0.01,0.15 v 0.15 l -0.01,0.14 -0.02,0.15 -0.01,0.15 -0.02,0.15 -0.02,0.14 -0.03,0.15 -0.03,0.14 -0.04,0.14 -0.04,0.15 -0.05,0.14 -0.06,0.14 -0.03,0.07 -0.03,0.07 c -0.46,0.95 -1.28,1.11 -1.7,1.11 -0.59,0 -1.32,-0.26 -1.73,-1.18 -0.32,-0.69 -0.37,-1.46 -0.37,-2.26 0,-0.74 0.04,-1.64 0.45,-2.39 0.43,-0.81 1.16,-1.01 1.64,-1.01 v 0.22 c -0.38,0 -0.97,0.25 -1.15,1.2 -0.11,0.6 -0.11,1.51 -0.11,2.1 0,0.64 0,1.29 0.08,1.83 0.19,1.18 0.93,1.27 1.18,1.27 0.33,0 0.99,-0.18 1.18,-1.16 0.1,-0.56 0.1,-1.31 0.1,-1.94 0,-0.74 0,-1.42 -0.11,-2.06 -0.15,-0.94 -0.72,-1.24 -1.17,-1.24 v 0 -0.22 c 0.54,0 1.3,0.21 1.74,1.16 0.32,0.68 0.37,1.46 0.37,2.24 z"
         id="path4726" /><path
         style="fill:#000000;stroke-width:0"
         d="m 463.62,597.26 v 0 0.01 0 0 0.01 0 0 0.01 h -0.01 v 0.01 0 0 l -0.01,0.01 v 0 0.01 l -0.01,0.01 v 0 l -0.01,0.01 v 0 l -0.01,0.01 v 0 0.01 h -0.01 v 0.01 h -0.01 v 0 0.01 h -0.01 v 0.01 l -0.01,0.01 v 0 l -0.01,0.01 h -0.01 v 0.01 l -0.01,0.01 v 0 l -0.01,0.01 -0.01,0.01 h -0.01 v 0.01 l -0.01,0.01 -0.01,0.01 c -1.25,1.25 -1.56,3.13 -1.56,4.65 0,1.72 0.38,3.45 1.6,4.69 0.13,0.12 0.13,0.14 0.13,0.17 0,0.07 -0.04,0.1 -0.1,0.1 -0.1,0 -1,-0.67 -1.58,-1.93 -0.51,-1.1 -0.63,-2.2 -0.63,-3.03 0,-0.78 0.11,-1.98 0.66,-3.1 0.59,-1.23 1.45,-1.87 1.55,-1.87 0.06,0 0.1,0.03 0.1,0.1 z"
         id="path4728" /><path
         style="fill:#000000;stroke-width:0"
         d="m 467.13,606 v 0.01 0.01 0.01 0.01 0.01 0.01 0.01 0.01 0.01 0.01 0 0.01 0.01 l -0.01,0.01 v 0 0.01 0.01 0 0.02 0.01 l -0.01,0.01 v 0.01 0 l -0.01,0.01 v 0.01 h -0.01 v 0.01 h -0.01 l -0.01,0.01 h -0.01 v 0 l -0.01,0.01 v 0 h -0.01 v 0 h -0.01 -0.01 v 0 H 467.01 467 v 0.01 h -0.01 -0.01 -0.01 -0.01 v 0 h -0.01 -0.01 -0.01 -0.01 -0.01 -0.01 c -0.62,-0.64 -1.5,-0.64 -1.82,-0.64 v -0.31 c 0.2,0 0.79,0 1.31,0.26 v -5.14 c 0,-0.36 -0.03,-0.48 -0.93,-0.48 h -0.32 v -0.31 c 0.35,0.03 1.22,0.03 1.62,0.03 0.4,0 1.26,0 1.61,-0.03 v 0.31 h -0.32 c -0.89,0 -0.92,0.11 -0.92,0.48 z"
         id="path4730" /><path
         style="fill:#000000;stroke-width:0"
         d="m 470.28,601.94 0.01,0.21 c 0.06,1.48 0.9,1.72 1.24,1.72 1.03,0 1.13,-1.34 1.13,-1.72 h -2.37 l -0.01,-0.21 h 2.79 c 0.22,0 0.24,0 0.24,0.21 0,0.98 -0.53,1.94 -1.78,1.94 -1.16,0 -2.08,-1.02 -2.08,-2.26 0,-1.33 1.05,-2.3 2.2,-2.3 1.22,0 1.66,1.11 1.66,1.29 0,0.1 -0.08,0.12 -0.13,0.12 -0.08,0 -0.1,-0.06 -0.13,-0.14 -0.34,-1.02 -1.24,-1.02 -1.34,-1.02 -0.5,0 -0.9,0.3 -1.13,0.67 -0.3,0.47 -0.3,1.13 -0.3,1.49 z"
         id="path4732" /><path
         style="fill:#000000;stroke-width:0"
         d="m 476.48,602.13 v 0.07 0.08 0.07 0.08 l -0.01,0.17 -0.01,0.18 -0.02,0.18 -0.02,0.19 -0.03,0.2 -0.03,0.19 -0.04,0.21 -0.04,0.2 -0.06,0.21 -0.06,0.22 -0.07,0.21 -0.08,0.21 -0.04,0.11 -0.05,0.1 -0.04,0.11 -0.05,0.1 c -0.6,1.23 -1.46,1.87 -1.56,1.87 -0.06,0 -0.1,-0.04 -0.1,-0.1 0,-0.03 0,-0.05 0.19,-0.23 0.98,-0.98 1.55,-2.56 1.55,-4.63 0,-1.7 -0.37,-3.45 -1.61,-4.7 -0.13,-0.12 -0.13,-0.14 -0.13,-0.17 0,-0.06 0.04,-0.1 0.1,-0.1 0.1,0 1,0.67 1.59,1.94 0.51,1.09 0.62,2.19 0.62,3.03 z"
         id="path4734" /><path
         style="fill:#000000;stroke-width:0"
         d="m 274.89,587.74 -0.1,-0.07 -0.09,-0.07 -0.09,-0.07 -0.09,-0.07 -0.08,-0.07 -0.07,-0.07 -0.07,-0.07 -0.07,-0.08 -0.06,-0.07 -0.06,-0.07 -0.06,-0.07 -0.05,-0.08 -0.05,-0.07 -0.04,-0.07 -0.04,-0.07 -0.04,-0.07 -0.03,-0.07 -0.04,-0.06 -0.02,-0.07 -0.03,-0.07 -0.02,-0.06 -0.02,-0.06 -0.02,-0.06 -0.01,-0.05 -0.02,-0.06 -0.01,-0.05 -0.01,-0.05 v -0.05 l -0.01,-0.04 v -0.05 l -0.01,-0.03 v -0.04 c 0,-0.48 0.27,-0.75 0.29,-0.78 0.32,-0.33 0.41,-0.37 1.16,-0.65 l 1.21,-0.47 c 0.15,-0.07 0.35,-0.13 0.35,-0.42 0,-0.23 -0.18,-0.53 -0.49,-0.53 -0.44,0 -0.77,0.24 -0.88,0.32 -0.06,0.04 -0.07,0.05 -0.11,0.05 -0.08,0 -0.1,-0.07 -0.1,-0.11 0,-0.12 0.53,-0.48 1.09,-0.48 0.62,0 1.03,0.58 1.03,1.06 0,0.48 -0.36,0.66 -0.47,0.71 -0.14,0.05 -0.48,0.18 -0.61,0.23 -0.2,0.08 -0.4,0.16 -0.61,0.23 l -0.6,0.24 c -0.45,0.17 -0.75,0.46 -0.75,0.88 0,0.41 0.39,1.27 1.23,1.69 0.37,-0.13 0.67,-0.13 0.88,-0.13 0.3,0 0.92,0 0.92,0.31 0,0.25 -0.42,0.27 -0.81,0.27 l -0.01,-0.22 c 0.35,0 0.39,-0.01 0.56,-0.06 -0.07,-0.04 -0.17,-0.08 -0.63,-0.08 -0.23,0 -0.32,0 -0.5,0.08 v 0 c 0.23,0.06 0.45,0.06 0.57,0.06 l 0.01,0.22 c -0.18,0 -0.47,0 -0.84,-0.12 -0.26,0.25 -0.3,0.58 -0.3,0.77 0,0.56 0.36,1.32 1.11,1.69 0.18,-0.22 0.41,-0.22 0.64,-0.22 v 0.22 c -0.18,0 -0.3,0 -0.41,0.09 v 0 c 0.16,0.05 0.37,0.05 0.47,0.05 0.34,0 0.38,-0.01 0.56,-0.06 -0.08,-0.03 -0.18,-0.08 -0.62,-0.08 v -0.22 c 0.24,0 0.88,0 0.88,0.31 0,0.26 -0.44,0.27 -0.82,0.27 -0.13,0 -0.37,0 -0.63,-0.05 -0.03,0.09 -0.05,0.16 -0.05,0.33 0,0.13 0.05,0.34 0.05,0.36 0,0.08 -0.05,0.13 -0.12,0.13 -0.18,0 -0.18,-0.46 -0.18,-0.48 0,-0.2 0.06,-0.35 0.07,-0.39 -1.07,-0.3 -1.75,-1.09 -1.75,-1.86 0,-0.37 0.18,-0.79 0.65,-1.05 z"
         id="path4736" /><path
         style="fill:#000000;stroke-width:0"
         d="m 281.24,584.47 h -0.23 c -0.02,-0.15 -0.09,-0.56 -0.18,-0.63 -0.06,-0.05 -0.6,-0.05 -0.7,-0.05 h -1.28 c 0.73,0.65 0.98,0.85 1.39,1.17 0.52,0.41 1,0.84 1,1.51 0,0.84 -0.74,1.35 -1.63,1.35 -0.87,0 -1.46,-0.6 -1.46,-1.24 0,-0.36 0.3,-0.39 0.37,-0.39 0.17,0 0.38,0.11 0.38,0.37 0,0.12 -0.05,0.36 -0.42,0.36 0.22,0.5 0.69,0.65 1.02,0.65 0.7,0 1.07,-0.54 1.07,-1.1 0,-0.61 -0.44,-1.09 -0.66,-1.34 l -1.69,-1.66 c -0.07,-0.06 -0.07,-0.07 -0.07,-0.27 h 2.89 z"
         id="path4738" /><path
         style="fill:#000000;stroke-width:0"
         d="m 285.48,582.31 v 0.01 0.01 0 0 0 0.01 0 0 0.01 0 l -0.01,0.01 v 0 0.01 h -0.01 v 0.01 h -0.01 v 0.01 l -0.01,0.01 v 0 0 l -0.01,0.01 v 0 l -0.01,0.01 v 0 0.01 h -0.01 v 0.01 h -0.01 v 0.01 h -0.01 v 0.01 h -0.01 v 0.01 l -0.01,0.01 h -0.01 v 0.01 l -0.01,0.01 h -0.01 v 0.01 l -0.01,0.01 h -0.01 l -0.01,0.01 c -1.24,1.25 -1.56,3.13 -1.56,4.65 0,1.73 0.38,3.46 1.6,4.7 0.13,0.12 0.13,0.14 0.13,0.17 0,0.07 -0.04,0.1 -0.1,0.1 -0.1,0 -0.99,-0.68 -1.58,-1.94 -0.51,-1.09 -0.63,-2.19 -0.63,-3.03 0,-0.77 0.11,-1.97 0.66,-3.1 0.6,-1.22 1.45,-1.86 1.55,-1.86 0.06,0 0.1,0.02 0.1,0.09 z"
         id="path4740" /><path
         style="fill:#000000;stroke-width:0"
         d="m 288.99,591.06 v 0.01 0.01 0.01 0.01 0.01 0.01 0.01 0.01 0 0.01 0.01 0.01 0.01 0 0.01 0.01 h -0.01 v 0.01 0.01 0.01 0.01 l -0.01,0.01 v 0.01 0.01 h -0.01 l -0.01,0.01 v 0.01 h -0.01 l -0.01,0.01 h -0.01 v 0 h -0.01 v 0 h -0.01 v 0.01 h -0.01 v 0 h -0.01 -0.01 v 0 h -0.01 -0.01 -0.01 v 0 h -0.01 -0.01 -0.01 -0.01 -0.01 -0.01 -0.01 -0.01 c -0.62,-0.63 -1.5,-0.63 -1.81,-0.63 v -0.31 c 0.19,0 0.78,0 1.3,0.26 v -5.15 c 0,-0.35 -0.03,-0.47 -0.93,-0.47 h -0.31 v -0.31 c 0.34,0.03 1.21,0.03 1.61,0.03 0.4,0 1.27,0 1.62,-0.03 v 0.31 h -0.32 c -0.9,0 -0.93,0.1 -0.93,0.47 z"
         id="path4742" /><path
         style="fill:#000000;stroke-width:0"
         d="m 293.92,587.18 v 0.07 0.08 0.08 0.08 l -0.01,0.17 -0.01,0.17 -0.02,0.19 -0.02,0.19 -0.03,0.19 -0.03,0.2 -0.04,0.2 -0.05,0.21 -0.05,0.21 -0.06,0.21 -0.07,0.21 -0.08,0.22 -0.04,0.1 -0.05,0.11 -0.05,0.11 -0.05,0.1 c -0.6,1.22 -1.45,1.87 -1.55,1.87 -0.06,0 -0.1,-0.04 -0.1,-0.1 0,-0.03 0,-0.05 0.19,-0.23 0.97,-0.98 1.54,-2.56 1.54,-4.64 0,-1.7 -0.37,-3.45 -1.6,-4.7 -0.13,-0.12 -0.13,-0.14 -0.13,-0.17 0,-0.06 0.04,-0.09 0.1,-0.09 0.1,0 0.99,0.67 1.58,1.93 0.51,1.09 0.63,2.2 0.63,3.03 z"
         id="path4744" /><path
         style="fill:#000000;stroke-width:0"
         d="m 304.53,587.95 h 0.03 0.03 0.03 0.02 0.01 0.01 0.02 0.01 l 0.02,0.01 h 0.01 0.01 l 0.02,0.01 h 0.01 l 0.01,0.01 h 0.01 l 0.01,0.01 h 0.02 l 0.01,0.01 v 0.01 l 0.01,0.01 0.01,0.01 v 0.01 h 0.01 v 0.01 0 l 0.01,0.01 v 0.01 0 0.01 l 0.01,0.01 v 0 0.01 0.01 0.01 0.01 0.01 0.01 c 0,0.19 -0.19,0.19 -0.33,0.19 h -5.97 c -0.14,0 -0.33,0 -0.33,-0.19 0,-0.2 0.19,-0.2 0.34,-0.2 z"
         id="path4746" /><path
         style="fill:#000000;stroke-width:0"
         d="m 304.54,586.02 h 0.02 0.01 0.03 0.03 0.01 0.01 0.02 l 0.01,0.01 h 0.02 0.01 0.01 l 0.02,0.01 h 0.01 0.01 l 0.01,0.01 h 0.01 l 0.02,0.01 0.01,0.01 0.01,0.01 v 0 l 0.01,0.01 0.01,0.01 v 0 0.01 h 0.01 v 0.01 0.01 h 0.01 v 0.01 0.01 0 l 0.01,0.01 v 0.01 0 0.01 0.01 0.01 0.01 0.01 c 0,0.2 -0.19,0.2 -0.34,0.2 h -5.95 c -0.15,0 -0.34,0 -0.34,-0.2 0,-0.2 0.19,-0.2 0.33,-0.2 z"
         id="path4748" /><path
         style="fill:#000000;stroke-width:0"
         d="m 314.77,586.98 h 0.03 0.03 0.03 l 0.02,0.01 h 0.01 0.02 0.01 0.02 0.01 l 0.02,0.01 h 0.01 0.01 l 0.02,0.01 h 0.01 l 0.01,0.01 h 0.01 l 0.01,0.01 0.01,0.01 0.01,0.01 0.01,0.01 0.01,0.01 v 0 0.01 h 0.01 v 0.01 0.01 0 l 0.01,0.01 v 0.01 0 0.01 0.01 0.01 h 0.01 v 0.01 0.01 0.01 c 0,0.2 -0.18,0.2 -0.35,0.2 h -5.4 c -0.17,0 -0.35,0 -0.35,-0.2 0,-0.2 0.18,-0.2 0.35,-0.2 z"
         id="path4750" /><path
         style="fill:#000000;stroke-width:0"
         d="m 318.88,591.06 v 0.01 0.01 0.01 0.01 0.01 0.01 0.01 0.01 0 0.01 0.01 0.01 0.01 h -0.01 v 0.01 0.01 0 0.01 0.01 0.01 l -0.01,0.01 v 0.01 0.01 l -0.01,0.01 v 0 l -0.01,0.01 v 0.01 h -0.01 l -0.01,0.01 h -0.01 v 0 h -0.01 v 0 h -0.01 v 0.01 h -0.01 -0.01 v 0 h -0.01 -0.01 v 0 h -0.01 -0.01 -0.01 -0.01 v 0 h -0.01 -0.01 -0.01 -0.01 -0.01 -0.01 c -0.62,-0.63 -1.5,-0.63 -1.82,-0.63 v -0.31 c 0.2,0 0.79,0 1.31,0.26 v -5.15 c 0,-0.35 -0.03,-0.47 -0.93,-0.47 h -0.32 v -0.31 c 0.35,0.03 1.22,0.03 1.62,0.03 0.4,0 1.26,0 1.61,-0.03 v 0.31 h -0.32 c -0.89,0 -0.92,0.1 -0.92,0.47 z"
         id="path4752" /><path
         style="fill:#000000;stroke-width:0"
         d="m 464.23,582.31 v 0.01 0.01 0 0 0 0.01 0 0 l -0.01,0.01 v 0 0.01 0 l -0.01,0.01 v 0 0.01 h -0.01 v 0.01 l -0.01,0.01 v 0 h -0.01 v 0.01 0 l -0.01,0.01 v 0 l -0.01,0.01 v 0 0.01 h -0.01 v 0.01 h -0.01 v 0.01 h -0.01 l -0.01,0.01 v 0.01 h -0.01 v 0.01 l -0.01,0.01 h -0.01 l -0.01,0.01 v 0.01 h -0.01 l -0.01,0.01 c -1.24,1.25 -1.56,3.13 -1.56,4.65 0,1.73 0.38,3.46 1.6,4.7 0.13,0.12 0.13,0.14 0.13,0.17 0,0.07 -0.04,0.1 -0.1,0.1 -0.1,0 -0.99,-0.68 -1.58,-1.94 -0.51,-1.09 -0.63,-2.19 -0.63,-3.03 0,-0.77 0.11,-1.97 0.66,-3.1 0.59,-1.22 1.45,-1.86 1.55,-1.86 0.06,0 0.1,0.02 0.1,0.09 z"
         id="path4754" /><path
         style="fill:#000000;stroke-width:0"
         d="m 467.74,591.06 v 0.01 0.01 0.01 0.01 0.01 0.01 0.01 0.01 0 0.01 0.01 0.01 0.01 h -0.01 v 0.01 0.01 0 0.01 0.01 0.01 l -0.01,0.01 v 0.01 0.01 l -0.01,0.01 v 0 l -0.01,0.01 v 0.01 h -0.01 l -0.01,0.01 h -0.01 v 0 h -0.01 v 0 h -0.01 v 0.01 h -0.01 -0.01 v 0 h -0.01 -0.01 v 0 h -0.01 -0.01 -0.01 v 0 h -0.01 -0.01 -0.01 -0.01 -0.01 -0.01 -0.01 c -0.62,-0.63 -1.5,-0.63 -1.82,-0.63 v -0.31 c 0.2,0 0.79,0 1.31,0.26 v -5.15 c 0,-0.35 -0.03,-0.47 -0.93,-0.47 h -0.32 v -0.31 c 0.35,0.03 1.22,0.03 1.62,0.03 0.4,0 1.26,0 1.61,-0.03 v 0.31 h -0.32 c -0.89,0 -0.92,0.1 -0.92,0.47 z"
         id="path4756" /><path
         style="fill:#000000;stroke-width:0"
         d="m 471.53,588.98 v 1.15 c 0,0.88 0.48,1.35 0.92,1.35 0.03,0 0.18,0 0.33,-0.07 -0.12,-0.04 -0.3,-0.17 -0.3,-0.41 0,-0.23 0.16,-0.43 0.43,-0.43 0.29,0 0.44,0.2 0.44,0.44 0,0.36 -0.37,0.69 -0.9,0.69 -0.7,0 -1.55,-0.53 -1.55,-1.58 v -1.14 h -0.78 v -0.31 h 0.78 v -3.22 c 0,-0.44 -0.11,-0.44 -0.77,-0.44 v -0.31 c 0.38,0.01 0.85,0.03 1.13,0.03 0.4,0 0.87,0 1.27,-0.03 v 0.31 h -0.21 c -0.74,0 -0.76,0.1 -0.76,0.46 v 3.2 h 1.14 v 0.31 z"
         id="path4758" /><path
         style="fill:#000000;stroke-width:0"
         d="m 476.49,587.18 v 0.07 0.08 0.08 l -0.01,0.08 v 0.17 l -0.02,0.17 -0.01,0.19 -0.02,0.19 -0.03,0.19 -0.03,0.2 -0.04,0.2 -0.05,0.21 -0.05,0.21 -0.06,0.21 -0.07,0.21 -0.08,0.22 -0.05,0.1 -0.04,0.11 -0.05,0.11 -0.05,0.1 c -0.6,1.22 -1.45,1.87 -1.55,1.87 -0.06,0 -0.1,-0.04 -0.1,-0.1 0,-0.03 0,-0.05 0.19,-0.23 0.97,-0.98 1.54,-2.56 1.54,-4.64 0,-1.7 -0.37,-3.45 -1.6,-4.7 -0.13,-0.12 -0.13,-0.14 -0.13,-0.17 0,-0.06 0.04,-0.09 0.1,-0.09 0.1,0 0.99,0.67 1.58,1.93 0.51,1.09 0.63,2.2 0.63,3.03 z"
         id="path4760" /><path
         style="fill:#000000;stroke-width:0"
         d="m 274.89,572.79 -0.1,-0.06 -0.09,-0.07 -0.09,-0.07 -0.09,-0.07 -0.08,-0.07 -0.07,-0.08 -0.07,-0.07 -0.07,-0.07 -0.06,-0.07 -0.06,-0.08 -0.06,-0.07 -0.05,-0.07 -0.05,-0.07 -0.04,-0.07 -0.04,-0.07 -0.04,-0.07 -0.03,-0.07 -0.04,-0.07 -0.02,-0.06 -0.03,-0.07 -0.02,-0.06 -0.02,-0.06 -0.02,-0.06 -0.01,-0.06 -0.02,-0.05 -0.01,-0.06 -0.01,-0.05 v -0.04 l -0.01,-0.05 v -0.04 l -0.01,-0.04 v -0.03 c 0,-0.48 0.27,-0.76 0.29,-0.79 0.32,-0.33 0.41,-0.36 1.16,-0.64 l 1.21,-0.47 c 0.15,-0.07 0.35,-0.14 0.35,-0.43 0,-0.23 -0.18,-0.52 -0.49,-0.52 -0.44,0 -0.77,0.23 -0.88,0.31 -0.06,0.04 -0.07,0.05 -0.11,0.05 -0.08,0 -0.1,-0.07 -0.1,-0.11 0,-0.11 0.53,-0.47 1.09,-0.47 0.62,0 1.03,0.57 1.03,1.06 0,0.48 -0.36,0.66 -0.47,0.71 -0.14,0.04 -0.48,0.17 -0.61,0.22 -0.2,0.08 -0.4,0.16 -0.61,0.23 l -0.6,0.24 c -0.45,0.18 -0.75,0.47 -0.75,0.89 0,0.4 0.39,1.27 1.23,1.68 0.37,-0.12 0.67,-0.12 0.88,-0.12 0.3,0 0.92,0 0.92,0.3 0,0.25 -0.42,0.27 -0.81,0.27 l -0.01,-0.22 c 0.35,0 0.39,-0.01 0.56,-0.06 -0.07,-0.04 -0.17,-0.08 -0.63,-0.08 -0.23,0 -0.32,0 -0.5,0.08 v 0 c 0.23,0.06 0.45,0.06 0.57,0.06 l 0.01,0.22 c -0.18,0 -0.47,0 -0.84,-0.12 -0.26,0.26 -0.3,0.59 -0.3,0.78 0,0.55 0.36,1.32 1.11,1.68 0.18,-0.21 0.41,-0.21 0.64,-0.21 v 0.21 c -0.18,0 -0.3,0 -0.41,0.1 v 0 c 0.16,0.04 0.37,0.04 0.47,0.04 0.34,0 0.38,-0.01 0.56,-0.05 -0.08,-0.04 -0.18,-0.09 -0.62,-0.09 v -0.21 c 0.24,0 0.88,0 0.88,0.31 0,0.25 -0.44,0.26 -0.82,0.26 -0.13,0 -0.37,0 -0.63,-0.05 -0.03,0.09 -0.05,0.16 -0.05,0.33 0,0.14 0.05,0.35 0.05,0.37 0,0.08 -0.05,0.13 -0.12,0.13 -0.18,0 -0.18,-0.46 -0.18,-0.49 0,-0.2 0.06,-0.35 0.07,-0.39 -1.07,-0.29 -1.75,-1.09 -1.75,-1.85 0,-0.37 0.18,-0.79 0.65,-1.06 z"
         id="path4762" /><path
         style="fill:#000000;stroke-width:0"
         d="m 280.06,572.68 v 0.01 0.01 0.01 0.01 0 0.01 0.01 0.01 h -0.01 v 0.01 0 0.01 0.01 0 0.01 0 0.01 0 0.01 l -0.01,0.01 v 0.01 0 l -0.01,0.01 v 0.01 h -0.01 v 0 l -0.01,0.01 v 0 H 280 l -0.01,0.01 h -0.01 -0.01 v 0 h -0.01 v 0 h -0.01 -0.01 v 0.01 h -0.01 v 0 h -0.01 -0.01 -0.01 v 0 h -0.01 -0.01 -0.01 -0.01 v 0 h -0.01 c -0.45,-0.44 -1.09,-0.45 -1.37,-0.45 v -0.25 c 0.16,0 0.63,0 1.01,0.2 v -3.55 c 0,-0.23 0,-0.32 -0.7,-0.32 h -0.27 v -0.25 c 0.13,0.01 0.99,0.03 1.25,0.03 0.22,0 1.1,-0.02 1.25,-0.03 v 0.25 h -0.26 c -0.7,0 -0.7,0.09 -0.7,0.32 z"
         id="path4764" /><path
         style="fill:#000000;stroke-width:0"
         d="m 285.48,567.37 v 0.01 0 0 0.01 0 0 0.01 0 0 0.01 h -0.01 v 0.01 0 l -0.01,0.01 v 0 l -0.01,0.01 v 0.01 h -0.01 v 0.01 0 h -0.01 v 0.01 h -0.01 v 0.01 0 l -0.01,0.01 v 0 l -0.01,0.01 v 0 l -0.01,0.01 v 0 l -0.01,0.01 v 0.01 h -0.01 l -0.01,0.01 v 0 l -0.01,0.01 -0.01,0.01 v 0.01 h -0.01 l -0.01,0.01 -0.01,0.01 c -1.24,1.25 -1.56,3.13 -1.56,4.65 0,1.73 0.38,3.45 1.6,4.7 0.13,0.11 0.13,0.14 0.13,0.16 0,0.07 -0.04,0.1 -0.1,0.1 -0.1,0 -0.99,-0.67 -1.58,-1.93 -0.51,-1.1 -0.63,-2.2 -0.63,-3.03 0,-0.78 0.11,-1.98 0.66,-3.1 0.6,-1.22 1.45,-1.87 1.55,-1.87 0.06,0 0.1,0.03 0.1,0.1 z"
         id="path4766" /><path
         style="fill:#000000;stroke-width:0"
         d="m 288.11,573.73 h 0.94 c 0.2,0 0.3,0 0.3,0.2 0,0.1 -0.1,0.1 -0.28,0.1 h -0.88 c 0.36,1.42 0.41,1.62 0.41,1.67 0,0.17 -0.12,0.27 -0.29,0.27 -0.03,0 -0.31,-0.01 -0.4,-0.36 l -0.39,-1.58 h -0.93 c -0.2,0 -0.3,0 -0.3,-0.18 0,-0.12 0.08,-0.12 0.28,-0.12 h 0.87 c -0.71,-2.82 -0.76,-2.99 -0.76,-3.17 0,-0.54 0.38,-0.91 0.92,-0.91 1.02,0 1.59,1.44 1.59,1.52 0,0.1 -0.08,0.1 -0.12,0.1 -0.09,0 -0.1,-0.03 -0.15,-0.13 -0.43,-1.04 -0.96,-1.28 -1.3,-1.28 -0.21,0 -0.31,0.13 -0.31,0.46 0,0.24 0.02,0.31 0.06,0.48 z"
         id="path4768" /><path
         style="fill:#000000;stroke-width:0"
         d="m 292.54,572.24 v 0.07 0.08 l -0.01,0.08 v 0.08 l -0.01,0.16 -0.01,0.18 -0.02,0.18 -0.02,0.19 -0.02,0.2 -0.04,0.2 -0.04,0.2 -0.04,0.21 -0.06,0.21 -0.06,0.21 -0.07,0.21 -0.08,0.21 -0.04,0.11 -0.04,0.11 -0.05,0.1 -0.05,0.11 c -0.6,1.22 -1.46,1.86 -1.56,1.86 -0.06,0 -0.1,-0.04 -0.1,-0.1 0,-0.02 0,-0.05 0.19,-0.22 0.98,-0.99 1.55,-2.57 1.55,-4.64 0,-1.7 -0.37,-3.45 -1.61,-4.7 -0.13,-0.12 -0.13,-0.14 -0.13,-0.17 0,-0.06 0.04,-0.1 0.1,-0.1 0.1,0 1,0.68 1.59,1.94 0.51,1.09 0.63,2.19 0.63,3.03 z"
         id="path4770" /><path
         style="fill:#000000;stroke-width:0"
         d="m 303.03,575.66 h 0.02 l 0.01,0.01 h 0.01 l 0.01,0.01 h 0.01 l 0.01,0.01 v 0 l 0.01,0.01 h 0.01 l 0.01,0.01 h 0.01 v 0.01 l 0.01,0.01 h 0.01 v 0.01 h 0.01 l 0.01,0.01 v 0.01 h 0.01 v 0.01 l 0.01,0.01 v 0.01 0.01 h 0.01 v 0.01 0.01 0.01 l 0.01,0.01 v 0.01 0.01 0.01 c 0,0.11 -0.08,0.2 -0.2,0.2 -0.05,0 -0.14,-0.04 -0.18,-0.06 l -5.52,-2.59 c -0.17,-0.08 -0.19,-0.15 -0.19,-0.23 0,-0.09 0.05,-0.16 0.19,-0.22 l 5.52,-2.58 c 0.13,-0.07 0.15,-0.07 0.18,-0.07 0.11,0 0.2,0.09 0.2,0.2 0,0.09 -0.04,0.15 -0.21,0.23 l -5.22,2.44 z"
         id="path4772" /><path
         style="fill:#000000;stroke-width:0"
         d="m 302.87,568.39 h 0.03 0.03 0.03 l 0.02,0.01 h 0.01 0.02 0.01 0.02 0.01 l 0.02,0.01 h 0.01 0.01 l 0.02,0.01 h 0.01 l 0.01,0.01 h 0.01 l 0.01,0.01 0.01,0.01 0.01,0.01 0.01,0.01 0.01,0.01 v 0 0.01 h 0.01 v 0.01 0.01 h 0.01 v 0.01 0.01 0 0.01 0.01 l 0.01,0.01 v 0.01 0 0.01 0.01 c 0,0.2 -0.21,0.2 -0.36,0.2 h -5.38 c -0.15,0 -0.35,0 -0.35,-0.2 0,-0.2 0.17,-0.2 0.34,-0.2 z"
         id="path4774" /><path
         style="fill:#000000;stroke-width:0"
         d="m 306.97,570.74 v -0.01 0 l -0.01,-0.01 v -0.01 h -0.01 v -0.01 h -0.01 v -0.01 0 -0.01 h -0.01 v 0 -0.01 0 0 -0.01 0 0 l -0.01,-0.01 v 0 0 -0.01 0 c 0,-0.05 0.06,-0.13 0.12,-0.13 0.05,0 0.08,0.03 0.36,0.31 0.08,0.07 0.28,0.26 0.36,0.34 0.1,-0.79 0.39,-1.52 1.12,-1.52 0.4,0 0.75,0.22 0.95,0.37 0.14,0.1 0.61,0.49 0.61,0.59 0,0.03 -0.03,0.12 -0.12,0.12 -0.03,0 -0.04,-0.01 -0.13,-0.09 -0.64,-0.63 -1,-0.78 -1.29,-0.78 -0.45,0 -0.61,0.52 -0.61,1.3 0,0.05 0.02,0.51 0.05,0.56 0.02,0.03 0.02,0.05 0.22,0.25 0.81,0.8 2.22,2.48 2.22,4.02 0,0.17 0,0.78 -0.59,0.78 l 0.01,-0.22 c 0.34,0 0.34,-0.36 0.34,-0.52 0,-1.66 -1.67,-3.39 -2.15,-3.89 v 0 c 0.02,0.11 0.45,2.31 1.02,3.47 0.26,0.54 0.47,0.94 0.79,0.94 l -0.01,0.22 c -0.82,0 -1.56,-1.64 -1.66,-1.87 -0.48,-1.08 -0.79,-2.24 -0.79,-3.43 z"
         id="path4776" /><path
         style="fill:#000000;stroke-width:0"
         d="m 462.93,567.37 v 0.01 0 0 0.01 0 0 0.01 0 h -0.01 v 0.01 0 0.01 h -0.01 v 0.01 0 l -0.01,0.01 v 0.01 h -0.01 v 0.01 h -0.01 v 0 0.01 h -0.01 v 0.01 h -0.01 v 0.01 h -0.01 v 0.01 h -0.01 v 0.01 h -0.01 v 0.01 l -0.01,0.01 v 0 l -0.01,0.01 h -0.01 v 0.01 l -0.01,0.01 -0.01,0.01 v 0 l -0.01,0.01 -0.01,0.01 c -1.24,1.25 -1.56,3.13 -1.56,4.65 0,1.73 0.38,3.45 1.6,4.7 0.13,0.11 0.13,0.14 0.13,0.16 0,0.07 -0.04,0.1 -0.1,0.1 -0.1,0 -1,-0.67 -1.59,-1.93 -0.5,-1.1 -0.62,-2.2 -0.62,-3.03 0,-0.78 0.11,-1.98 0.65,-3.1 0.6,-1.22 1.46,-1.87 1.56,-1.87 0.06,0 0.1,0.03 0.1,0.1 z"
         id="path4778" /><path
         style="fill:#000000;stroke-width:0"
         d="m 466.44,576.11 v 0.01 0.01 0.01 0.01 0.01 0.01 0.01 0.01 0.01 0.01 l -0.01,0.01 v 0 0.01 0.01 0.01 0 0.01 0.01 0.01 0.01 l -0.01,0.01 v 0.01 0.01 h -0.01 v 0.01 l -0.01,0.01 v 0 l -0.01,0.01 h -0.01 -0.01 v 0.01 h -0.01 v 0 h -0.01 v 0 h -0.01 -0.01 v 0.01 h -0.01 -0.01 v 0 h -0.01 -0.01 -0.01 -0.01 v 0 h -0.01 -0.01 -0.01 -0.01 -0.01 -0.01 c -0.62,-0.64 -1.5,-0.64 -1.82,-0.64 v -0.3 c 0.2,0 0.79,0 1.31,0.25 v -5.14 c 0,-0.36 -0.03,-0.48 -0.93,-0.48 h -0.32 v -0.31 c 0.35,0.03 1.22,0.03 1.62,0.03 0.4,0 1.26,0 1.61,-0.03 v 0.31 h -0.32 c -0.89,0 -0.92,0.11 -0.92,0.48 z"
         id="path4780" /><path
         style="fill:#000000;stroke-width:0"
         d="m 469.54,571.08 v 0 0 0.01 0.01 0.01 0.01 0.01 l 0.01,0.01 v 0.01 0.01 0.01 0.02 0.01 l 0.01,0.02 v 0.01 0.02 l 0.01,0.02 v 0.01 l 0.01,0.02 v 0.02 l 0.01,0.02 0.01,0.01 0.01,0.02 v 0.02 l 0.01,0.02 0.01,0.02 0.01,0.02 0.02,0.02 0.01,0.02 0.01,0.01 0.02,0.02 0.01,0.02 c 0.39,-0.28 0.8,-0.31 0.99,-0.31 v 0.23 c -0.87,0 -0.87,1 -0.87,1.22 0,0.27 0.01,0.59 0.16,0.84 0.08,0.12 0.31,0.4 0.71,0.4 0.87,0 0.87,-1 0.87,-1.23 0,-0.26 -0.01,-0.58 -0.16,-0.83 -0.08,-0.12 -0.31,-0.4 -0.71,-0.4 v 0 -0.23 c 0.93,0 1.62,0.69 1.62,1.45 0,0.37 -0.17,0.74 -0.41,0.97 0.36,0.34 0.71,0.38 0.89,0.38 0.02,0 0.07,0 0.1,0 -0.11,-0.04 -0.16,-0.15 -0.16,-0.27 0,-0.17 0.13,-0.29 0.29,-0.29 0.1,0 0.29,0.07 0.29,0.3 0,0.17 -0.12,0.48 -0.51,0.48 -0.2,0 -0.64,-0.06 -1.05,-0.46 -0.42,0.32 -0.84,0.36 -1.06,0.36 -0.93,0 -1.62,-0.69 -1.62,-1.46 0,-0.43 0.22,-0.81 0.47,-1.02 -0.13,-0.15 -0.31,-0.48 -0.31,-0.82 0,-0.31 0.13,-0.69 0.44,-0.89 -0.6,-0.17 -0.91,-0.59 -0.91,-0.99 0,-0.72 0.98,-1.26 2.2,-1.26 l 0.01,0.23 c -1.01,0 -1.7,0.5 -1.7,1.03 0,0.46 0.38,0.82 0.82,0.85 h 0.59 c 0.86,0 1.97,0 1.97,-0.85 0,-0.54 -0.7,-1.03 -1.68,-1.03 v 0 l -0.01,-0.23 c 1.18,0 2.21,0.5 2.21,1.28 0,0.35 -0.14,0.85 -0.65,1.13 -0.52,0.28 -1.1,0.28 -1.71,0.28 -0.25,0 -0.68,0 -0.75,0.01 -0.32,0.04 -0.53,0.35 -0.53,0.67 z"
         id="path4782" /><path
         style="fill:#000000;stroke-width:0"
         d="m 476.49,572.24 v 0.07 0.08 l -0.01,0.08 v 0.08 l -0.01,0.16 -0.01,0.18 -0.01,0.18 -0.03,0.19 -0.02,0.2 -0.04,0.2 -0.03,0.2 -0.05,0.21 -0.05,0.21 -0.07,0.21 -0.07,0.21 -0.07,0.21 -0.05,0.11 -0.04,0.11 -0.05,0.1 -0.05,0.11 c -0.6,1.22 -1.46,1.86 -1.56,1.86 -0.06,0 -0.1,-0.04 -0.1,-0.1 0,-0.02 0,-0.05 0.19,-0.22 0.98,-0.99 1.55,-2.57 1.55,-4.64 0,-1.7 -0.37,-3.45 -1.61,-4.7 -0.13,-0.12 -0.13,-0.14 -0.13,-0.17 0,-0.06 0.04,-0.1 0.1,-0.1 0.1,0 1,0.68 1.59,1.94 0.51,1.09 0.63,2.19 0.63,3.03 z"
         id="path4784" /></g>  </g>
</svg>
