<?xml version="1.0" encoding="UTF-8" standalone="no"?>
<svg
   xmlns:ns0="http://www.iki.fi/pav/software/textext/"
   xmlns:dc="http://purl.org/dc/elements/1.1/"
   xmlns:cc="http://creativecommons.org/ns#"
   xmlns:rdf="http://www.w3.org/1999/02/22-rdf-syntax-ns#"
   xmlns:svg="http://www.w3.org/2000/svg"
   xmlns="http://www.w3.org/2000/svg"
   version="1.1"
   id="svg2"
   viewBox="0 0 423.74999 108.33091"
   height="115.55297"
   width="452">
  <defs
     id="defs4" />
  <metadata
     id="metadata7">
    <rdf:RDF>
      <cc:Work
         rdf:about="">
        <dc:format>image/svg+xml</dc:format>
        <dc:type
           rdf:resource="http://purl.org/dc/dcmitype/StillImage" />
        <dc:title></dc:title>
      </cc:Work>
    </rdf:RDF>
  </metadata>
  <g
     id="layer1"
     transform="translate(-88.788808,-25.816022)">
    <g
       id="content"
       transform="matrix(2.1430839,0,0,-2.1430839,-353.14823,1526.0702)"
       xml:space="preserve"
       stroke-miterlimit="10.433"
       font-style="normal"
       font-variant="normal"
       font-weight="normal"
       font-stretch="normal"
       font-size-adjust="none"
       letter-spacing="normal"
       word-spacing="normal"
       ns0:text="\\begin{align*}\nu^*(t) = \\begin{cases}\n-\\frac{2}{3\\ell}\\left(1 - \\frac{t}{3\\ell} \\right) &amp; \\text{if } 0 \\leq t \\leq 3\\ell \\\\\n0 &amp; \\text{if } 3\\ell \\leq t \\leq 1 - 3\\ell  \\\\\n-\\frac{2}{3\\ell}\\left(1 - \\frac{1-t}{3\\ell} \\right) &amp; \\text{if } 1-3\\ell \\leq t \\leq 1\n\\end{cases}\n\\end{align*} "
       ns0:preamble="C:\\Users\\Daniel\\AppData\\Roaming\\inkscape\\extensions\\default_packages.tex"
       style="font-style:normal;font-variant:normal;font-weight:normal;font-stretch:normal;letter-spacing:normal;word-spacing:normal;text-anchor:start;fill:#000000;fill-opacity:1;fill-rule:evenodd;stroke:#000000;stroke-linecap:butt;stroke-linejoin:miter;stroke-miterlimit:10.43299961;stroke-dasharray:none;stroke-dashoffset:0;stroke-opacity:1"><path
         d="m 213.79,672.82 0.01,-0.03 0.02,-0.04 0.01,-0.04 0.02,-0.03 0.01,-0.04 0.02,-0.03 0.02,-0.03 0.02,-0.03 0.02,-0.03 0.02,-0.03 0.02,-0.03 0.03,-0.03 0.02,-0.02 0.03,-0.03 0.03,-0.02 0.03,-0.02 0.03,-0.02 0.03,-0.02 0.03,-0.02 0.03,-0.02 0.03,-0.01 0.04,-0.02 0.03,-0.01 0.04,-0.02 0.03,-0.01 0.04,-0.01 h 0.04 l 0.03,-0.01 0.04,-0.01 h 0.04 0.04 0.04 c 0.35,0 0.58,0.23 0.74,0.54 0.17,0.36 0.3,0.97 0.3,0.99 0,0.1 -0.09,0.1 -0.12,0.1 -0.1,0 -0.11,-0.04 -0.14,-0.18 -0.14,-0.56 -0.33,-1.23 -0.75,-1.23 -0.21,0 -0.31,0.13 -0.31,0.45 0,0.22 0.12,0.69 0.2,1.04 l 0.28,1.07 c 0.03,0.15 0.13,0.53 0.17,0.67 0.05,0.23 0.15,0.61 0.15,0.67 0,0.18 -0.14,0.27 -0.29,0.27 -0.05,0 -0.31,-0.01 -0.39,-0.35 -0.19,-0.72 -0.63,-2.46 -0.75,-2.99 -0.01,-0.04 -0.41,-0.83 -1.13,-0.83 -0.52,0 -0.62,0.44 -0.62,0.81 0,0.56 0.28,1.34 0.54,2.03 0.12,0.3 0.17,0.43 0.17,0.62 0,0.45 -0.32,0.82 -0.82,0.82 -0.95,0 -1.32,-1.44 -1.32,-1.53 0,-0.1 0.1,-0.1 0.12,-0.1 0.1,0 0.11,0.02 0.16,0.18 0.25,0.86 0.63,1.23 1.01,1.23 0.09,0 0.25,-0.01 0.25,-0.33 0,-0.24 -0.11,-0.52 -0.17,-0.67 -0.37,-0.99 -0.58,-1.6 -0.58,-2.09 0,-0.94 0.69,-1.19 1.23,-1.19 0.65,0 1.01,0.44 1.18,0.66 z"
         font-size-adjust="none"
         font-stretch="normal"
         font-style="normal"
         font-variant="normal"
         font-weight="normal"
         letter-spacing="normal"
         stroke-miterlimit="10.433"
         word-spacing="normal"
         style="font-style:normal;font-variant:normal;font-weight:normal;font-stretch:normal;letter-spacing:normal;word-spacing:normal;text-anchor:start;fill:#000000;fill-opacity:1;fill-rule:evenodd;stroke:#000000;stroke-width:0;stroke-linecap:butt;stroke-linejoin:miter;stroke-miterlimit:10.43299961;stroke-dasharray:none;stroke-dashoffset:0;stroke-opacity:1"
         id="path5156" /><path
         d="m 218.26,678.11 0.06,0.02 0.05,0.03 0.05,0.02 0.04,0.02 0.05,0.02 0.05,0.02 0.04,0.02 0.04,0.01 0.04,0.02 0.04,0.02 0.03,0.01 0.04,0.02 0.03,0.01 0.04,0.01 0.03,0.02 0.03,0.01 0.03,0.01 0.02,0.01 0.03,0.01 0.03,0.02 0.02,0.01 0.03,0.01 0.02,0.01 0.02,0.01 h 0.02 l 0.02,0.01 0.04,0.02 0.04,0.02 0.03,0.01 c 0.13,0.06 0.2,0.09 0.2,0.22 0,0.12 -0.09,0.22 -0.22,0.22 -0.05,0 -0.06,0 -0.15,-0.06 l -0.95,-0.64 0.11,1.04 c 0.01,0.12 0,0.29 -0.21,0.29 -0.09,0 -0.22,-0.05 -0.22,-0.2 0,-0.07 0.03,-0.28 0.04,-0.35 0.01,-0.11 0.06,-0.61 0.07,-0.78 l -0.94,0.64 c -0.07,0.04 -0.09,0.06 -0.15,0.06 -0.13,0 -0.22,-0.1 -0.22,-0.22 0,-0.14 0.08,-0.18 0.14,-0.2 l 1.06,-0.44 c -0.57,-0.25 -0.83,-0.35 -1.01,-0.43 -0.13,-0.06 -0.19,-0.09 -0.19,-0.22 0,-0.12 0.09,-0.22 0.22,-0.22 0.04,0 0.06,0 0.14,0.06 l 0.95,0.64 -0.11,-1.12 c 0,-0.16 0.13,-0.21 0.22,-0.21 0.08,0 0.21,0.05 0.21,0.21 0,0.06 -0.02,0.27 -0.03,0.34 -0.02,0.11 -0.06,0.61 -0.08,0.78 l 0.84,-0.56 c 0.18,-0.14 0.2,-0.14 0.26,-0.14 0.13,0 0.22,0.1 0.22,0.22 0,0.14 -0.09,0.18 -0.15,0.2 z"
         font-size-adjust="none"
         font-stretch="normal"
         font-style="normal"
         font-variant="normal"
         font-weight="normal"
         letter-spacing="normal"
         stroke-miterlimit="10.433"
         word-spacing="normal"
         style="font-style:normal;font-variant:normal;font-weight:normal;font-stretch:normal;letter-spacing:normal;word-spacing:normal;text-anchor:start;fill:#000000;fill-opacity:1;fill-rule:evenodd;stroke:#000000;stroke-width:0;stroke-linecap:butt;stroke-linejoin:miter;stroke-miterlimit:10.43299961;stroke-dasharray:none;stroke-dashoffset:0;stroke-opacity:1"
         id="path5158" /><path
         d="m 223.89,669.88 v 0.01 0 0.01 0 0 l -0.01,0.01 v 0 0 0.01 0 0 l -0.01,0.01 v 0 0.01 l -0.01,0.01 v 0 l -0.01,0.01 v 0.01 h -0.01 v 0 0.01 h -0.01 v 0.01 h -0.01 v 0.01 0 h -0.01 v 0.01 l -0.01,0.01 v 0 l -0.01,0.01 h -0.01 v 0.01 h -0.01 v 0.01 l -0.01,0.01 h -0.01 v 0.01 l -0.01,0.01 -0.01,0.01 h -0.01 v 0.01 c -1.25,1.25 -1.57,3.13 -1.57,4.65 0,1.73 0.38,3.46 1.61,4.7 0.13,0.12 0.13,0.14 0.13,0.17 0,0.07 -0.04,0.1 -0.1,0.1 -0.1,0 -1,-0.68 -1.59,-1.94 -0.51,-1.09 -0.63,-2.19 -0.63,-3.03 0,-0.77 0.11,-1.98 0.66,-3.1 0.6,-1.22 1.46,-1.87 1.56,-1.87 0.06,0 0.1,0.03 0.1,0.1 z"
         font-size-adjust="none"
         font-stretch="normal"
         font-style="normal"
         font-variant="normal"
         font-weight="normal"
         letter-spacing="normal"
         stroke-miterlimit="10.433"
         word-spacing="normal"
         style="font-style:normal;font-variant:normal;font-weight:normal;font-stretch:normal;letter-spacing:normal;word-spacing:normal;text-anchor:start;fill:#000000;fill-opacity:1;fill-rule:evenodd;stroke:#000000;stroke-width:0;stroke-linecap:butt;stroke-linejoin:miter;stroke-miterlimit:10.43299961;stroke-dasharray:none;stroke-dashoffset:0;stroke-opacity:1"
         id="path5160" /><path
         d="m 226.51,676.24 h 0.94 c 0.2,0 0.3,0 0.3,0.2 0,0.11 -0.1,0.11 -0.28,0.11 h -0.87 c 0.35,1.41 0.4,1.61 0.4,1.67 0,0.17 -0.12,0.27 -0.29,0.27 -0.03,0 -0.3,-0.01 -0.39,-0.36 l -0.39,-1.58 h -0.94 c -0.2,0 -0.3,0 -0.3,-0.19 0,-0.12 0.08,-0.12 0.28,-0.12 h 0.88 c -0.72,-2.82 -0.76,-2.99 -0.76,-3.17 0,-0.54 0.38,-0.91 0.92,-0.91 1.01,0 1.58,1.45 1.58,1.53 0,0.1 -0.08,0.1 -0.12,0.1 -0.09,0 -0.1,-0.03 -0.15,-0.14 -0.43,-1.04 -0.95,-1.27 -1.29,-1.27 -0.21,0 -0.31,0.13 -0.31,0.45 0,0.24 0.02,0.31 0.06,0.48 z"
         font-size-adjust="none"
         font-stretch="normal"
         font-style="normal"
         font-variant="normal"
         font-weight="normal"
         letter-spacing="normal"
         stroke-miterlimit="10.433"
         word-spacing="normal"
         style="font-style:normal;font-variant:normal;font-weight:normal;font-stretch:normal;letter-spacing:normal;word-spacing:normal;text-anchor:start;fill:#000000;fill-opacity:1;fill-rule:evenodd;stroke:#000000;stroke-width:0;stroke-linecap:butt;stroke-linejoin:miter;stroke-miterlimit:10.43299961;stroke-dasharray:none;stroke-dashoffset:0;stroke-opacity:1"
         id="path5162" /><path
         d="m 230.94,674.75 v 0.07 0.08 0.08 l -0.01,0.08 v 0.17 l -0.02,0.17 -0.01,0.19 -0.02,0.19 -0.03,0.19 -0.03,0.2 -0.04,0.2 -0.05,0.21 -0.05,0.21 -0.06,0.21 -0.07,0.21 -0.08,0.22 -0.05,0.1 -0.04,0.11 -0.05,0.1 -0.05,0.11 c -0.6,1.22 -1.45,1.87 -1.55,1.87 -0.06,0 -0.1,-0.04 -0.1,-0.1 0,-0.03 0,-0.05 0.19,-0.23 0.97,-0.98 1.54,-2.56 1.54,-4.64 0,-1.7 -0.37,-3.45 -1.6,-4.7 -0.13,-0.12 -0.13,-0.14 -0.13,-0.17 0,-0.06 0.04,-0.1 0.1,-0.1 0.1,0 0.99,0.68 1.58,1.94 0.51,1.09 0.63,2.2 0.63,3.03 z"
         font-size-adjust="none"
         font-stretch="normal"
         font-style="normal"
         font-variant="normal"
         font-weight="normal"
         letter-spacing="normal"
         stroke-miterlimit="10.433"
         word-spacing="normal"
         style="font-style:normal;font-variant:normal;font-weight:normal;font-stretch:normal;letter-spacing:normal;word-spacing:normal;text-anchor:start;fill:#000000;fill-opacity:1;fill-rule:evenodd;stroke:#000000;stroke-width:0;stroke-linecap:butt;stroke-linejoin:miter;stroke-miterlimit:10.43299961;stroke-dasharray:none;stroke-dashoffset:0;stroke-opacity:1"
         id="path5164" /><path
         d="m 241.55,675.52 h 0.03 0.03 0.03 0.01 0.02 0.01 0.02 0.01 l 0.02,0.01 h 0.01 0.01 l 0.02,0.01 h 0.01 0.01 l 0.01,0.01 0.01,0.01 h 0.01 l 0.01,0.01 0.01,0.01 0.01,0.01 0.01,0.01 v 0 l 0.01,0.01 v 0.01 0 l 0.01,0.01 v 0 0.01 0.01 l 0.01,0.01 v 0 0.01 0.01 0.01 0.01 0 0.01 c 0,0.2 -0.19,0.2 -0.33,0.2 h -5.97 c -0.14,0 -0.33,0 -0.33,-0.2 0,-0.19 0.19,-0.19 0.34,-0.19 z"
         font-size-adjust="none"
         font-stretch="normal"
         font-style="normal"
         font-variant="normal"
         font-weight="normal"
         letter-spacing="normal"
         stroke-miterlimit="10.433"
         word-spacing="normal"
         style="font-style:normal;font-variant:normal;font-weight:normal;font-stretch:normal;letter-spacing:normal;word-spacing:normal;text-anchor:start;fill:#000000;fill-opacity:1;fill-rule:evenodd;stroke:#000000;stroke-width:0;stroke-linecap:butt;stroke-linejoin:miter;stroke-miterlimit:10.43299961;stroke-dasharray:none;stroke-dashoffset:0;stroke-opacity:1"
         id="path5166" /><path
         d="m 241.56,673.59 h 0.03 0.03 0.03 0.01 0.01 0.02 0.01 l 0.02,0.01 h 0.01 0.01 0.01 l 0.02,0.01 h 0.01 l 0.01,0.01 h 0.01 l 0.01,0.01 0.01,0.01 h 0.01 l 0.01,0.01 0.01,0.01 0.01,0.01 v 0 0.01 h 0.01 v 0.01 0 l 0.01,0.01 v 0.01 0 0.01 l 0.01,0.01 v 0.01 0 0.01 0.01 0.01 0.01 0.01 c 0,0.2 -0.19,0.2 -0.34,0.2 h -5.95 c -0.15,0 -0.34,0 -0.34,-0.2 0,-0.2 0.19,-0.2 0.33,-0.2 z"
         font-size-adjust="none"
         font-stretch="normal"
         font-style="normal"
         font-variant="normal"
         font-weight="normal"
         letter-spacing="normal"
         stroke-miterlimit="10.433"
         word-spacing="normal"
         style="font-style:normal;font-variant:normal;font-weight:normal;font-stretch:normal;letter-spacing:normal;word-spacing:normal;text-anchor:start;fill:#000000;fill-opacity:1;fill-rule:evenodd;stroke:#000000;stroke-width:0;stroke-linecap:butt;stroke-linejoin:miter;stroke-miterlimit:10.43299961;stroke-dasharray:none;stroke-dashoffset:0;stroke-opacity:1"
         id="path5168" /><path
         d="m 250.24,691.18 v 0.08 0.08 l 0.01,0.1 v 0.09 l 0.01,0.1 0.01,0.11 0.02,0.11 0.01,0.12 0.02,0.12 0.03,0.12 0.02,0.12 0.03,0.13 0.04,0.13 0.04,0.14 0.04,0.13 0.05,0.14 0.06,0.14 0.06,0.13 0.06,0.14 0.08,0.14 0.07,0.14 0.09,0.14 0.09,0.14 0.1,0.14 0.1,0.14 0.11,0.13 0.12,0.14 0.13,0.13 0.14,0.13 0.14,0.12 0.15,0.12 0.17,0.12 c 0.13,0.1 0.14,0.11 0.14,0.29 0,0.23 -0.01,0.24 -0.26,0.24 h -0.16 c -2.15,-1.15 -2.92,-3.03 -2.92,-4.49 v -4.27 c 0,-0.26 0.01,-0.27 0.28,-0.27 h 0.64 c 0.27,0 0.28,0.01 0.28,0.27 z"
         font-size-adjust="none"
         font-stretch="normal"
         font-style="normal"
         font-variant="normal"
         font-weight="normal"
         letter-spacing="normal"
         stroke-miterlimit="10.433"
         word-spacing="normal"
         style="font-style:normal;font-variant:normal;font-weight:normal;font-stretch:normal;letter-spacing:normal;word-spacing:normal;text-anchor:start;fill:#000000;fill-opacity:1;fill-rule:evenodd;stroke:#000000;stroke-width:0;stroke-linecap:butt;stroke-linejoin:miter;stroke-miterlimit:10.43299961;stroke-dasharray:none;stroke-dashoffset:0;stroke-opacity:1"
         id="path5170" /><path
         d="m 250.24,686.54 v 0.02 0.01 0.01 0.01 0.01 0.01 0.01 0.01 0.01 0.01 0.01 0 0.01 0.01 0.01 0 0.01 l -0.01,0.01 v 0.01 0.01 l -0.01,0.01 v 0.01 0.01 l -0.01,0.01 h -0.01 v 0.01 l -0.01,0.01 h -0.01 l -0.01,0.01 h -0.01 -0.01 v 0 h -0.01 -0.01 v 0.01 h -0.01 -0.01 -0.01 v 0 h -0.01 -0.01 -0.01 -0.01 -0.01 -0.01 -0.01 -0.01 -0.01 -0.01 -0.01 -0.01 -0.02 -0.64 c -0.27,0 -0.28,-0.01 -0.28,-0.27 v -2.64 c 0,-0.26 0.01,-0.27 0.28,-0.27 h 0.64 c 0.27,0 0.28,0.01 0.28,0.27 z"
         font-size-adjust="none"
         font-stretch="normal"
         font-style="normal"
         font-variant="normal"
         font-weight="normal"
         letter-spacing="normal"
         stroke-miterlimit="10.433"
         word-spacing="normal"
         style="font-style:normal;font-variant:normal;font-weight:normal;font-stretch:normal;letter-spacing:normal;word-spacing:normal;text-anchor:start;fill:#000000;fill-opacity:1;fill-rule:evenodd;stroke:#000000;stroke-width:0;stroke-linecap:butt;stroke-linejoin:miter;stroke-miterlimit:10.43299961;stroke-dasharray:none;stroke-dashoffset:0;stroke-opacity:1"
         id="path5172" /><path
         d="m 249.04,666.01 0.01,-0.01 v -0.01 -0.01 -0.01 -0.01 -0.01 -0.01 -0.01 -0.01 -0.01 -0.01 -0.01 -0.01 0 -0.01 -0.01 -0.01 0 l 0.01,-0.01 v -0.02 -0.01 l 0.01,-0.01 v 0 l 0.01,-0.01 v -0.01 h 0.01 l 0.01,-0.01 0.01,-0.01 h 0.01 0.01 v 0 l 0.01,-0.01 h 0.01 v 0 h 0.01 0.01 v 0 h 0.01 0.01 0.01 0.01 0.01 0.01 l 0.01,-0.01 h 0.01 0.01 0.01 0.01 0.01 0.01 0.01 0.01 0.64 c 0.27,0 0.28,0.01 0.28,0.27 v 4.19 c 0,1.21 -0.51,3.23 -2.74,4.58 2.25,1.36 2.74,3.41 2.74,4.58 v 4.19 c 0,0.26 -0.01,0.27 -0.28,0.27 h -0.64 c -0.27,0 -0.28,-0.01 -0.28,-0.27 v -4.2 c 0,-0.83 -0.17,-2.9 -2.01,-4.29 -0.11,-0.09 -0.12,-0.1 -0.12,-0.28 0,-0.18 0.01,-0.19 0.12,-0.27 0.26,-0.2 0.95,-0.73 1.43,-1.73 0.39,-0.8 0.58,-1.68 0.58,-2.57 z"
         font-size-adjust="none"
         font-stretch="normal"
         font-style="normal"
         font-variant="normal"
         font-weight="normal"
         letter-spacing="normal"
         stroke-miterlimit="10.433"
         word-spacing="normal"
         style="font-style:normal;font-variant:normal;font-weight:normal;font-stretch:normal;letter-spacing:normal;word-spacing:normal;text-anchor:start;fill:#000000;fill-opacity:1;fill-rule:evenodd;stroke:#000000;stroke-width:0;stroke-linecap:butt;stroke-linejoin:miter;stroke-miterlimit:10.43299961;stroke-dasharray:none;stroke-dashoffset:0;stroke-opacity:1"
         id="path5174" /><path
         d="m 250.24,665.62 v 0.01 0.02 0.01 0.01 0.01 0.01 0.01 0.01 0.01 0.01 0 0.01 0.01 0.01 0.01 0 0.01 l -0.01,0.01 v 0.01 0.01 l -0.01,0.01 v 0.01 0.01 l -0.01,0.01 h -0.01 v 0.01 h -0.01 l -0.01,0.01 h -0.01 l -0.01,0.01 h -0.01 v 0 h -0.01 -0.01 v 0 h -0.01 l -0.01,0.01 h -0.01 v 0 h -0.01 -0.01 -0.01 -0.01 -0.01 -0.01 -0.01 -0.01 -0.01 -0.01 -0.01 -0.01 -0.02 -0.64 c -0.27,0 -0.28,-0.01 -0.28,-0.27 v -2.64 c 0,-0.26 0.01,-0.27 0.28,-0.27 h 0.64 c 0.27,0 0.28,0.01 0.28,0.27 z"
         font-size-adjust="none"
         font-stretch="normal"
         font-style="normal"
         font-variant="normal"
         font-weight="normal"
         letter-spacing="normal"
         stroke-miterlimit="10.433"
         word-spacing="normal"
         style="font-style:normal;font-variant:normal;font-weight:normal;font-stretch:normal;letter-spacing:normal;word-spacing:normal;text-anchor:start;fill:#000000;fill-opacity:1;fill-rule:evenodd;stroke:#000000;stroke-width:0;stroke-linecap:butt;stroke-linejoin:miter;stroke-miterlimit:10.43299961;stroke-dasharray:none;stroke-dashoffset:0;stroke-opacity:1"
         id="path5176" /><path
         d="m 252.12,653.87 h 0.01 0.01 0.01 0.01 0.01 0.01 0.01 0.01 0.01 0.01 0.01 v 0 h 0.01 l 0.01,0.01 h 0.01 v 0 h 0.01 0.01 v 0 h 0.01 v 0 h 0.01 l 0.01,0.01 h 0.01 0.01 v 0.01 l 0.01,0.01 h 0.01 v 0.01 l 0.01,0.01 v 0 0.01 l 0.01,0.01 v 0.01 0.01 0.01 0 0.01 0.01 0 0.01 0.01 0.01 h 0.01 v 0.01 0.01 0.01 0.01 0.01 0.01 0.01 0.01 c 0,0.18 -0.01,0.19 -0.05,0.22 -0.31,0.23 -1.03,0.73 -1.5,1.65 -0.39,0.75 -0.59,1.52 -0.59,2.38 v 4.27 c 0,0.26 -0.01,0.27 -0.28,0.27 h -0.64 c -0.27,0 -0.28,-0.01 -0.28,-0.27 v -4.27 c 0,-1.47 0.77,-3.35 2.92,-4.49 z"
         font-size-adjust="none"
         font-stretch="normal"
         font-style="normal"
         font-variant="normal"
         font-weight="normal"
         letter-spacing="normal"
         stroke-miterlimit="10.433"
         word-spacing="normal"
         style="font-style:normal;font-variant:normal;font-weight:normal;font-stretch:normal;letter-spacing:normal;word-spacing:normal;text-anchor:start;fill:#000000;fill-opacity:1;fill-rule:evenodd;stroke:#000000;stroke-width:0;stroke-linecap:butt;stroke-linejoin:miter;stroke-miterlimit:10.43299961;stroke-dasharray:none;stroke-dashoffset:0;stroke-opacity:1"
         id="path5178" /><path
         d="m 260.64,688.52 h 0.04 0.03 0.03 0.01 0.02 0.01 l 0.02,0.01 h 0.01 0.02 0.01 l 0.02,0.01 h 0.01 0.01 l 0.01,0.01 h 0.02 l 0.01,0.01 0.01,0.01 h 0.01 l 0.01,0.01 v 0.01 l 0.01,0.01 0.01,0.01 v 0 0.01 l 0.01,0.01 v 0 0.01 0 0.01 l 0.01,0.01 v 0.01 0 0.01 0.01 0.01 0.01 0.01 c 0,0.2 -0.18,0.2 -0.35,0.2 h -5.39 c -0.17,0 -0.35,0 -0.35,-0.2 0,-0.2 0.18,-0.2 0.35,-0.2 z"
         font-size-adjust="none"
         font-stretch="normal"
         font-style="normal"
         font-variant="normal"
         font-weight="normal"
         letter-spacing="normal"
         stroke-miterlimit="10.433"
         word-spacing="normal"
         style="font-style:normal;font-variant:normal;font-weight:normal;font-stretch:normal;letter-spacing:normal;word-spacing:normal;text-anchor:start;fill:#000000;fill-opacity:1;fill-rule:evenodd;stroke:#000000;stroke-width:0;stroke-linecap:butt;stroke-linejoin:miter;stroke-miterlimit:10.43299961;stroke-dasharray:none;stroke-dashoffset:0;stroke-opacity:1"
         id="path5180" /><path
         d="m 268.21,691.42 h -0.23 c -0.02,-0.15 -0.09,-0.56 -0.18,-0.63 -0.06,-0.04 -0.6,-0.04 -0.7,-0.04 h -1.28 c 0.73,0.65 0.98,0.84 1.39,1.17 0.52,0.41 1,0.84 1,1.5 0,0.84 -0.74,1.35 -1.63,1.35 -0.87,0 -1.45,-0.6 -1.45,-1.24 0,-0.36 0.29,-0.39 0.36,-0.39 0.17,0 0.38,0.12 0.38,0.37 0,0.12 -0.05,0.37 -0.42,0.37 0.22,0.49 0.69,0.64 1.02,0.64 0.7,0 1.07,-0.54 1.07,-1.1 0,-0.61 -0.44,-1.09 -0.66,-1.34 l -1.69,-1.65 c -0.06,-0.06 -0.06,-0.08 -0.06,-0.27 h 2.88 z"
         font-size-adjust="none"
         font-stretch="normal"
         font-style="normal"
         font-variant="normal"
         font-weight="normal"
         letter-spacing="normal"
         stroke-miterlimit="10.433"
         word-spacing="normal"
         style="font-style:normal;font-variant:normal;font-weight:normal;font-stretch:normal;letter-spacing:normal;word-spacing:normal;text-anchor:start;fill:#000000;fill-opacity:1;fill-rule:evenodd;stroke:#000000;stroke-width:0;stroke-linecap:butt;stroke-linejoin:miter;stroke-miterlimit:10.43299961;stroke-dasharray:none;stroke-dashoffset:0;stroke-opacity:1"
         id="path5182" /><line
         x1="263.01999"
         y1="688.71997"
         x2="270.32001"
         y2="688.71997"
         font-size-adjust="none"
         font-stretch="normal"
         font-style="normal"
         font-variant="normal"
         font-weight="normal"
         letter-spacing="normal"
         stroke-miterlimit="10.433"
         word-spacing="normal"
         style="font-style:normal;font-variant:normal;font-weight:normal;font-stretch:normal;letter-spacing:normal;word-spacing:normal;text-anchor:start;fill:#000000;fill-opacity:1;fill-rule:evenodd;stroke:#000000;stroke-width:0.398;stroke-linecap:butt;stroke-linejoin:miter;stroke-miterlimit:10.43299961;stroke-dasharray:none;stroke-dashoffset:0;stroke-opacity:1"
         id="line5184" /><path
         d="m 264.92,685.12 h 0.06 0.05 l 0.04,-0.01 0.05,-0.01 0.05,-0.01 0.04,-0.01 0.05,-0.01 0.04,-0.02 0.04,-0.02 0.04,-0.02 0.04,-0.02 0.04,-0.03 0.04,-0.02 0.03,-0.03 0.04,-0.04 0.03,-0.03 0.03,-0.04 0.03,-0.03 0.02,-0.04 0.03,-0.05 0.02,-0.04 0.02,-0.05 0.02,-0.05 0.02,-0.05 0.02,-0.05 0.01,-0.06 0.01,-0.06 0.01,-0.06 0.01,-0.06 0.01,-0.06 V 684.07 684 c 0,-0.86 -0.5,-1.12 -0.91,-1.12 -0.28,0 -0.89,0.08 -1.19,0.49 0.33,0.01 0.41,0.24 0.41,0.39 0,0.22 -0.17,0.38 -0.38,0.38 -0.2,0 -0.4,-0.12 -0.4,-0.4 0,-0.66 0.73,-1.08 1.58,-1.08 0.97,0 1.64,0.65 1.64,1.34 0,0.54 -0.45,1.09 -1.22,1.25 0.74,0.26 1,0.78 1,1.21 0,0.55 -0.63,0.96 -1.41,0.96 -0.78,0 -1.37,-0.38 -1.37,-0.94 0,-0.23 0.15,-0.36 0.36,-0.36 0.22,0 0.36,0.16 0.36,0.35 0,0.2 -0.14,0.35 -0.36,0.36 0.25,0.31 0.73,0.39 0.99,0.39 0.31,0 0.75,-0.16 0.75,-0.76 0,-0.3 -0.09,-0.62 -0.28,-0.83 -0.23,-0.27 -0.42,-0.28 -0.77,-0.3 -0.18,-0.01 -0.19,-0.01 -0.23,-0.02 -0.01,0 -0.07,-0.02 -0.07,-0.09 0,-0.1 0.07,-0.1 0.19,-0.1 z"
         font-size-adjust="none"
         font-stretch="normal"
         font-style="normal"
         font-variant="normal"
         font-weight="normal"
         letter-spacing="normal"
         stroke-miterlimit="10.433"
         word-spacing="normal"
         style="font-style:normal;font-variant:normal;font-weight:normal;font-stretch:normal;letter-spacing:normal;word-spacing:normal;text-anchor:start;fill:#000000;fill-opacity:1;fill-rule:evenodd;stroke:#000000;stroke-width:0;stroke-linecap:butt;stroke-linejoin:miter;stroke-miterlimit:10.43299961;stroke-dasharray:none;stroke-dashoffset:0;stroke-opacity:1"
         id="path5186" /><path
         d="m 267.82,683.75 0.01,-0.04 v -0.04 l 0.01,-0.05 0.01,-0.04 0.01,-0.05 0.02,-0.04 0.01,-0.05 0.01,-0.04 0.02,-0.04 0.02,-0.05 0.02,-0.04 0.02,-0.04 0.02,-0.05 0.02,-0.04 0.02,-0.04 0.03,-0.04 0.03,-0.03 0.03,-0.04 0.03,-0.03 0.03,-0.04 0.03,-0.03 0.04,-0.02 0.03,-0.03 0.04,-0.03 0.04,-0.02 0.05,-0.02 0.04,-0.01 0.05,-0.02 0.05,-0.01 0.05,-0.01 h 0.05 0.05 c 0.23,0 0.48,0.09 0.73,0.25 0.12,0.06 0.48,0.32 0.48,0.41 0,0.04 -0.04,0.13 -0.11,0.13 -0.03,0 -0.05,0 -0.15,-0.11 -0.3,-0.26 -0.62,-0.49 -0.94,-0.49 -0.47,0 -0.47,0.81 -0.47,0.95 0,0.09 0,0.1 0.01,0.23 0.01,0.07 0.01,0.09 0.09,0.16 0.38,0.36 1.71,1.63 1.71,2.84 0,0.1 0,0.6 -0.46,0.6 l -0.01,-0.19 c 0.16,0 0.24,-0.11 0.24,-0.36 0,-0.09 0,-0.7 -0.6,-1.56 -0.35,-0.5 -0.74,-0.88 -0.91,-1.04 v 0 c 0.13,0.71 0.68,2.96 1.27,2.96 l 0.01,0.19 c -0.58,0 -1.05,-0.89 -1.17,-1.1 -0.3,-0.59 -0.46,-1.16 -0.54,-1.51 -0.11,-0.47 -0.11,-0.71 -0.11,-1.05 -0.05,-0.05 -0.44,-0.4 -0.51,-0.46 -0.12,-0.1 -0.12,-0.1 -0.12,-0.15 0,-0.04 0.06,-0.12 0.12,-0.12 0.05,0 0.23,0.17 0.28,0.22 z"
         font-size-adjust="none"
         font-stretch="normal"
         font-style="normal"
         font-variant="normal"
         font-weight="normal"
         letter-spacing="normal"
         stroke-miterlimit="10.433"
         word-spacing="normal"
         style="font-style:normal;font-variant:normal;font-weight:normal;font-stretch:normal;letter-spacing:normal;word-spacing:normal;text-anchor:start;fill:#000000;fill-opacity:1;fill-rule:evenodd;stroke:#000000;stroke-width:0;stroke-linecap:butt;stroke-linejoin:miter;stroke-miterlimit:10.43299961;stroke-dasharray:none;stroke-dashoffset:0;stroke-opacity:1"
         id="path5188" /><path
         d="m 277.3,682.89 v 0 0.01 0 0 l -0.01,0.01 v 0 0 0.01 0 0 0.01 0 0 0 0.01 h -0.01 v 0 0.01 h -0.01 v 0.01 0 l -0.01,0.01 v 0 0.01 c -0.46,0.49 -1.14,1.29 -1.56,2.91 -0.23,0.9 -0.32,1.93 -0.32,2.85 0,2.61 0.63,4.44 1.83,5.73 0.09,0.09 0.09,0.11 0.09,0.13 0,0.1 -0.08,0.1 -0.12,0.1 -0.15,0 -0.69,-0.6 -0.82,-0.74 -1.02,-1.21 -1.67,-2.99 -1.67,-5.21 0,-1.41 0.25,-3.41 1.56,-5.09 0.1,-0.11 0.75,-0.87 0.93,-0.87 0.04,0 0.12,0 0.12,0.1 z"
         font-size-adjust="none"
         font-stretch="normal"
         font-style="normal"
         font-variant="normal"
         font-weight="normal"
         letter-spacing="normal"
         stroke-miterlimit="10.433"
         word-spacing="normal"
         style="font-style:normal;font-variant:normal;font-weight:normal;font-stretch:normal;letter-spacing:normal;word-spacing:normal;text-anchor:start;fill:#000000;fill-opacity:1;fill-rule:evenodd;stroke:#000000;stroke-width:0;stroke-linecap:butt;stroke-linejoin:miter;stroke-miterlimit:10.43299961;stroke-dasharray:none;stroke-dashoffset:0;stroke-opacity:1"
         id="path5190" /><path
         d="m 280.68,692.59 v 0.01 0.01 0.01 0.01 0.01 0.01 0.01 0.01 0.01 0.01 l -0.01,0.01 v 0 0.01 0.01 0.01 0 0.01 0.01 0.01 0.01 l -0.01,0.01 v 0.01 0.01 h -0.01 v 0.01 l -0.01,0.01 v 0 l -0.01,0.01 h -0.01 -0.01 v 0.01 h -0.01 v 0 h -0.01 -0.01 v 0 h -0.01 v 0.01 h -0.01 -0.01 v 0 h -0.01 -0.01 -0.01 -0.01 -0.01 v 0 h -0.01 -0.01 -0.01 -0.01 -0.01 c -0.62,-0.64 -1.5,-0.64 -1.82,-0.64 v -0.3 c 0.2,0 0.79,0 1.31,0.25 v -5.14 c 0,-0.36 -0.03,-0.48 -0.93,-0.48 h -0.32 v -0.31 c 0.35,0.03 1.22,0.03 1.62,0.03 0.4,0 1.26,0 1.61,-0.03 v 0.31 h -0.32 c -0.89,0 -0.92,0.11 -0.92,0.48 z"
         font-size-adjust="none"
         font-stretch="normal"
         font-style="normal"
         font-variant="normal"
         font-weight="normal"
         letter-spacing="normal"
         stroke-miterlimit="10.433"
         word-spacing="normal"
         style="font-style:normal;font-variant:normal;font-weight:normal;font-stretch:normal;letter-spacing:normal;word-spacing:normal;text-anchor:start;fill:#000000;fill-opacity:1;fill-rule:evenodd;stroke:#000000;stroke-width:0;stroke-linecap:butt;stroke-linejoin:miter;stroke-miterlimit:10.43299961;stroke-dasharray:none;stroke-dashoffset:0;stroke-opacity:1"
         id="path5192" /><path
         d="m 291.51,688.52 h 0.03 0.03 0.04 0.01 0.02 0.01 l 0.02,0.01 h 0.01 0.02 0.01 l 0.01,0.01 h 0.02 0.01 l 0.01,0.01 h 0.01 l 0.01,0.01 0.01,0.01 h 0.01 l 0.01,0.01 0.01,0.01 0.01,0.01 v 0.01 h 0.01 v 0.01 0.01 h 0.01 v 0.01 0 0.01 0.01 l 0.01,0.01 v 0 0.01 0.01 0.01 0.01 0.01 c 0,0.2 -0.18,0.2 -0.35,0.2 h -5.39 c -0.17,0 -0.35,0 -0.35,-0.2 0,-0.2 0.18,-0.2 0.35,-0.2 z"
         font-size-adjust="none"
         font-stretch="normal"
         font-style="normal"
         font-variant="normal"
         font-weight="normal"
         letter-spacing="normal"
         stroke-miterlimit="10.433"
         word-spacing="normal"
         style="font-style:normal;font-variant:normal;font-weight:normal;font-stretch:normal;letter-spacing:normal;word-spacing:normal;text-anchor:start;fill:#000000;fill-opacity:1;fill-rule:evenodd;stroke:#000000;stroke-width:0;stroke-linecap:butt;stroke-linejoin:miter;stroke-miterlimit:10.43299961;stroke-dasharray:none;stroke-dashoffset:0;stroke-opacity:1"
         id="path5194" /><path
         d="m 299.97,692.9 h 0.71 c 0.13,0 0.22,0 0.22,0.16 0,0.09 -0.09,0.09 -0.21,0.09 h -0.66 l 0.26,1.03 c 0.01,0.04 0.02,0.07 0.02,0.1 0,0.13 -0.1,0.22 -0.24,0.22 -0.17,0 -0.28,-0.11 -0.33,-0.3 -0.05,-0.17 0.04,0.16 -0.26,-1.05 h -0.72 c -0.13,0 -0.22,0 -0.22,-0.15 0,-0.1 0.08,-0.1 0.21,-0.1 h 0.66 L 299,691.26 c -0.04,-0.17 -0.1,-0.42 -0.1,-0.51 0,-0.41 0.35,-0.66 0.74,-0.66 0.78,0 1.22,0.97 1.22,1.06 0,0.09 -0.09,0.09 -0.11,0.09 -0.08,0 -0.09,-0.01 -0.15,-0.13 -0.19,-0.44 -0.55,-0.83 -0.93,-0.83 -0.15,0 -0.25,0.09 -0.25,0.34 0,0.07 0.03,0.22 0.04,0.29 z"
         font-size-adjust="none"
         font-stretch="normal"
         font-style="normal"
         font-variant="normal"
         font-weight="normal"
         letter-spacing="normal"
         stroke-miterlimit="10.433"
         word-spacing="normal"
         style="font-style:normal;font-variant:normal;font-weight:normal;font-stretch:normal;letter-spacing:normal;word-spacing:normal;text-anchor:start;fill:#000000;fill-opacity:1;fill-rule:evenodd;stroke:#000000;stroke-width:0;stroke-linecap:butt;stroke-linejoin:miter;stroke-miterlimit:10.43299961;stroke-dasharray:none;stroke-dashoffset:0;stroke-opacity:1"
         id="path5196" /><line
         x1="296.10001"
         y1="688.71997"
         x2="303.39999"
         y2="688.71997"
         font-size-adjust="none"
         font-stretch="normal"
         font-style="normal"
         font-variant="normal"
         font-weight="normal"
         letter-spacing="normal"
         stroke-miterlimit="10.433"
         word-spacing="normal"
         style="font-style:normal;font-variant:normal;font-weight:normal;font-stretch:normal;letter-spacing:normal;word-spacing:normal;text-anchor:start;fill:#000000;fill-opacity:1;fill-rule:evenodd;stroke:#000000;stroke-width:0.398;stroke-linecap:butt;stroke-linejoin:miter;stroke-miterlimit:10.43299961;stroke-dasharray:none;stroke-dashoffset:0;stroke-opacity:1"
         id="line5198" /><path
         d="m 298.01,685.12 h 0.05 0.05 l 0.05,-0.01 0.04,-0.01 0.05,-0.01 0.05,-0.01 0.04,-0.01 0.04,-0.02 0.05,-0.02 0.04,-0.02 0.04,-0.02 0.03,-0.03 0.04,-0.02 0.03,-0.03 0.04,-0.04 0.03,-0.03 0.03,-0.04 0.03,-0.03 0.03,-0.04 0.02,-0.05 0.02,-0.04 0.03,-0.05 0.02,-0.05 0.01,-0.05 0.02,-0.05 0.01,-0.06 0.02,-0.06 0.01,-0.06 v -0.06 l 0.01,-0.06 V 684.07 684 c 0,-0.86 -0.5,-1.12 -0.9,-1.12 -0.28,0 -0.9,0.08 -1.19,0.49 0.32,0.01 0.4,0.24 0.4,0.39 0,0.22 -0.17,0.38 -0.38,0.38 -0.2,0 -0.39,-0.12 -0.39,-0.4 0,-0.66 0.72,-1.08 1.57,-1.08 0.97,0 1.64,0.65 1.64,1.34 0,0.54 -0.45,1.09 -1.21,1.25 0.73,0.26 1,0.78 1,1.21 0,0.55 -0.64,0.96 -1.42,0.96 -0.77,0 -1.37,-0.38 -1.37,-0.94 0,-0.23 0.16,-0.36 0.37,-0.36 0.21,0 0.35,0.16 0.35,0.35 0,0.2 -0.14,0.35 -0.35,0.36 0.24,0.31 0.72,0.39 0.98,0.39 0.32,0 0.76,-0.16 0.76,-0.76 0,-0.3 -0.1,-0.62 -0.28,-0.83 -0.23,-0.27 -0.43,-0.28 -0.78,-0.3 -0.17,-0.01 -0.19,-0.01 -0.22,-0.02 -0.02,0 -0.07,-0.02 -0.07,-0.09 0,-0.1 0.06,-0.1 0.18,-0.1 z"
         font-size-adjust="none"
         font-stretch="normal"
         font-style="normal"
         font-variant="normal"
         font-weight="normal"
         letter-spacing="normal"
         stroke-miterlimit="10.433"
         word-spacing="normal"
         style="font-style:normal;font-variant:normal;font-weight:normal;font-stretch:normal;letter-spacing:normal;word-spacing:normal;text-anchor:start;fill:#000000;fill-opacity:1;fill-rule:evenodd;stroke:#000000;stroke-width:0;stroke-linecap:butt;stroke-linejoin:miter;stroke-miterlimit:10.43299961;stroke-dasharray:none;stroke-dashoffset:0;stroke-opacity:1"
         id="path5200" /><path
         d="m 300.9,683.75 0.01,-0.04 0.01,-0.04 0.01,-0.05 0.01,-0.04 0.01,-0.05 0.01,-0.04 0.01,-0.05 0.02,-0.04 0.01,-0.04 0.02,-0.05 0.02,-0.04 0.02,-0.04 0.02,-0.05 0.02,-0.04 0.03,-0.04 0.02,-0.04 0.03,-0.03 0.03,-0.04 0.03,-0.03 0.03,-0.04 0.03,-0.03 0.04,-0.02 0.04,-0.03 0.04,-0.03 0.04,-0.02 0.04,-0.02 0.04,-0.01 0.05,-0.02 0.05,-0.01 0.05,-0.01 h 0.05 0.06 c 0.22,0 0.47,0.09 0.72,0.25 0.12,0.06 0.49,0.32 0.49,0.41 0,0.04 -0.05,0.13 -0.12,0.13 -0.03,0 -0.04,0 -0.15,-0.11 -0.3,-0.26 -0.62,-0.49 -0.94,-0.49 -0.47,0 -0.47,0.81 -0.47,0.95 0,0.09 0,0.1 0.01,0.23 0.01,0.07 0.01,0.09 0.09,0.16 0.39,0.36 1.71,1.63 1.71,2.84 0,0.1 0,0.6 -0.46,0.6 l -0.01,-0.19 c 0.16,0 0.25,-0.11 0.25,-0.36 0,-0.09 0,-0.7 -0.61,-1.56 -0.35,-0.5 -0.74,-0.88 -0.91,-1.04 v 0 c 0.13,0.71 0.68,2.96 1.27,2.96 l 0.01,0.19 c -0.58,0 -1.05,-0.89 -1.16,-1.1 -0.31,-0.59 -0.47,-1.16 -0.55,-1.51 -0.1,-0.47 -0.1,-0.71 -0.1,-1.05 -0.05,-0.05 -0.45,-0.4 -0.52,-0.46 -0.11,-0.1 -0.12,-0.1 -0.12,-0.15 0,-0.04 0.06,-0.12 0.12,-0.12 0.05,0 0.24,0.17 0.29,0.22 z"
         font-size-adjust="none"
         font-stretch="normal"
         font-style="normal"
         font-variant="normal"
         font-weight="normal"
         letter-spacing="normal"
         stroke-miterlimit="10.433"
         word-spacing="normal"
         style="font-style:normal;font-variant:normal;font-weight:normal;font-stretch:normal;letter-spacing:normal;word-spacing:normal;text-anchor:start;fill:#000000;fill-opacity:1;fill-rule:evenodd;stroke:#000000;stroke-width:0;stroke-linecap:butt;stroke-linejoin:miter;stroke-miterlimit:10.43299961;stroke-dasharray:none;stroke-dashoffset:0;stroke-opacity:1"
         id="path5202" /><path
         d="m 307.64,688.74 v 0.27 l -0.01,0.29 -0.02,0.29 -0.03,0.3 -0.04,0.32 -0.05,0.32 -0.06,0.32 -0.08,0.33 -0.04,0.17 -0.05,0.17 -0.05,0.16 -0.06,0.17 -0.06,0.17 -0.07,0.17 -0.07,0.17 -0.07,0.16 -0.08,0.17 -0.09,0.17 -0.09,0.16 -0.09,0.16 -0.1,0.17 -0.11,0.16 -0.12,0.16 -0.12,0.16 c -0.1,0.12 -0.74,0.87 -0.92,0.87 -0.05,0 -0.12,-0.02 -0.12,-0.1 0,-0.04 0.02,-0.07 0.06,-0.1 0.48,-0.51 1.12,-1.32 1.53,-2.9 0.23,-0.9 0.32,-1.93 0.32,-2.85 0,-1 -0.09,-2.02 -0.35,-2.99 -0.38,-1.39 -0.96,-2.18 -1.47,-2.74 -0.09,-0.09 -0.09,-0.11 -0.09,-0.13 0,-0.08 0.07,-0.1 0.12,-0.1 0.15,0 0.7,0.61 0.82,0.75 1.01,1.2 1.66,2.99 1.66,5.2 z"
         font-size-adjust="none"
         font-stretch="normal"
         font-style="normal"
         font-variant="normal"
         font-weight="normal"
         letter-spacing="normal"
         stroke-miterlimit="10.433"
         word-spacing="normal"
         style="font-style:normal;font-variant:normal;font-weight:normal;font-stretch:normal;letter-spacing:normal;word-spacing:normal;text-anchor:start;fill:#000000;fill-opacity:1;fill-rule:evenodd;stroke:#000000;stroke-width:0;stroke-linecap:butt;stroke-linejoin:miter;stroke-miterlimit:10.43299961;stroke-dasharray:none;stroke-dashoffset:0;stroke-opacity:1"
         id="path5204" /><path
         d="m 326.79,690.63 -1.39,-0.11 v -0.31 c 0.65,0 0.74,-0.06 0.74,-0.55 v -2.67 c 0,-0.45 -0.11,-0.45 -0.78,-0.45 v -0.31 c 0.32,0.01 0.86,0.03 1.09,0.03 0.35,0 0.7,-0.02 1.04,-0.03 v 0.31 c -0.66,0 -0.7,0.05 -0.7,0.44 z"
         font-size-adjust="none"
         font-stretch="normal"
         font-style="normal"
         font-variant="normal"
         font-weight="normal"
         letter-spacing="normal"
         stroke-miterlimit="10.433"
         word-spacing="normal"
         style="font-style:normal;font-variant:normal;font-weight:normal;font-stretch:normal;letter-spacing:normal;word-spacing:normal;text-anchor:start;fill:#000000;fill-opacity:1;fill-rule:evenodd;stroke:#000000;stroke-width:0;stroke-linecap:butt;stroke-linejoin:miter;stroke-miterlimit:10.43299961;stroke-dasharray:none;stroke-dashoffset:0;stroke-opacity:1"
         id="path5206" /><path
         d="m 326.83,692.35 v 0.03 0.03 0.03 l -0.01,0.03 v 0.02 l -0.01,0.03 -0.01,0.03 -0.01,0.02 -0.01,0.02 -0.01,0.03 -0.02,0.02 -0.01,0.02 -0.01,0.02 -0.02,0.02 -0.02,0.02 -0.02,0.02 -0.01,0.01 -0.02,0.02 -0.02,0.01 -0.02,0.02 -0.03,0.01 -0.02,0.01 -0.02,0.01 -0.02,0.01 -0.03,0.01 -0.02,0.01 -0.03,0.01 h -0.02 -0.03 l -0.02,0.01 h -0.03 -0.03 c -0.3,0 -0.52,-0.27 -0.52,-0.53 0,-0.26 0.22,-0.52 0.52,-0.52 0.28,0 0.53,0.2 0.53,0.52 z"
         font-size-adjust="none"
         font-stretch="normal"
         font-style="normal"
         font-variant="normal"
         font-weight="normal"
         letter-spacing="normal"
         stroke-miterlimit="10.433"
         word-spacing="normal"
         style="font-style:normal;font-variant:normal;font-weight:normal;font-stretch:normal;letter-spacing:normal;word-spacing:normal;text-anchor:start;fill:#000000;fill-opacity:1;fill-rule:evenodd;stroke:#000000;stroke-width:0;stroke-linecap:butt;stroke-linejoin:miter;stroke-miterlimit:10.43299961;stroke-dasharray:none;stroke-dashoffset:0;stroke-opacity:1"
         id="path5208" /><path
         d="m 329.54,690.52 v 1.15 c 0,0.87 0.48,1.35 0.92,1.35 0.03,0 0.18,0 0.33,-0.07 -0.12,-0.04 -0.3,-0.17 -0.3,-0.42 0,-0.23 0.16,-0.43 0.43,-0.43 0.29,0 0.44,0.2 0.44,0.44 0,0.37 -0.37,0.7 -0.9,0.7 -0.7,0 -1.55,-0.53 -1.55,-1.58 v -1.14 h -0.78 v -0.31 h 0.78 v -3.22 c 0,-0.45 -0.11,-0.45 -0.77,-0.45 v -0.31 c 0.38,0.01 0.85,0.03 1.13,0.03 0.4,0 0.87,0 1.27,-0.03 v 0.31 h -0.21 c -0.74,0 -0.76,0.11 -0.76,0.47 v 3.2 h 1.14 v 0.31 z"
         font-size-adjust="none"
         font-stretch="normal"
         font-style="normal"
         font-variant="normal"
         font-weight="normal"
         letter-spacing="normal"
         stroke-miterlimit="10.433"
         word-spacing="normal"
         style="font-style:normal;font-variant:normal;font-weight:normal;font-stretch:normal;letter-spacing:normal;word-spacing:normal;text-anchor:start;fill:#000000;fill-opacity:1;fill-rule:evenodd;stroke:#000000;stroke-width:0;stroke-linecap:butt;stroke-linejoin:miter;stroke-miterlimit:10.43299961;stroke-dasharray:none;stroke-dashoffset:0;stroke-opacity:1"
         id="path5210" /><path
         d="m 338.75,689.41 v 0.15 l -0.01,0.15 v 0.15 l -0.01,0.15 -0.01,0.15 -0.01,0.14 -0.01,0.15 -0.02,0.15 -0.03,0.14 -0.02,0.15 -0.04,0.14 -0.03,0.15 -0.05,0.14 -0.05,0.14 -0.05,0.14 -0.03,0.07 -0.03,0.07 c -0.46,0.95 -1.28,1.11 -1.7,1.11 -0.6,0 -1.32,-0.26 -1.73,-1.18 -0.32,-0.69 -0.37,-1.46 -0.37,-2.26 0,-0.74 0.04,-1.64 0.45,-2.39 0.42,-0.81 1.15,-1 1.64,-1 v 0.21 c -0.39,0 -0.98,0.25 -1.16,1.21 -0.1,0.59 -0.1,1.51 -0.1,2.09 0,0.64 0,1.29 0.07,1.83 0.19,1.18 0.94,1.27 1.19,1.27 0.33,0 0.99,-0.18 1.18,-1.16 0.1,-0.56 0.1,-1.31 0.1,-1.94 0,-0.74 0,-1.42 -0.11,-2.05 -0.15,-0.95 -0.72,-1.25 -1.17,-1.25 v 0 -0.21 c 0.54,0 1.3,0.2 1.74,1.15 0.32,0.68 0.37,1.46 0.37,2.24 z"
         font-size-adjust="none"
         font-stretch="normal"
         font-style="normal"
         font-variant="normal"
         font-weight="normal"
         letter-spacing="normal"
         stroke-miterlimit="10.433"
         word-spacing="normal"
         style="font-style:normal;font-variant:normal;font-weight:normal;font-stretch:normal;letter-spacing:normal;word-spacing:normal;text-anchor:start;fill:#000000;fill-opacity:1;fill-rule:evenodd;stroke:#000000;stroke-width:0;stroke-linecap:butt;stroke-linejoin:miter;stroke-miterlimit:10.43299961;stroke-dasharray:none;stroke-dashoffset:0;stroke-opacity:1"
         id="path5212" /><path
         d="m 348.64,692.14 h 0.02 l 0.01,0.01 h 0.01 l 0.01,0.01 h 0.01 l 0.01,0.01 h 0.01 l 0.01,0.01 v 0 l 0.01,0.01 h 0.01 l 0.01,0.01 v 0.01 h 0.01 l 0.01,0.01 v 0 l 0.01,0.01 0.01,0.01 v 0 l 0.01,0.01 v 0.01 0.01 l 0.01,0.01 v 0 0.01 l 0.01,0.01 v 0.01 0.01 0.01 0.01 0.01 c 0,0.11 -0.08,0.2 -0.2,0.2 -0.05,0 -0.14,-0.04 -0.18,-0.06 l -5.51,-2.59 c -0.17,-0.08 -0.2,-0.15 -0.2,-0.23 0,-0.09 0.06,-0.16 0.2,-0.22 l 5.51,-2.58 c 0.13,-0.07 0.15,-0.07 0.18,-0.07 0.11,0 0.2,0.09 0.2,0.2 0,0.09 -0.04,0.15 -0.21,0.23 l -5.21,2.44 z"
         font-size-adjust="none"
         font-stretch="normal"
         font-style="normal"
         font-variant="normal"
         font-weight="normal"
         letter-spacing="normal"
         stroke-miterlimit="10.433"
         word-spacing="normal"
         style="font-style:normal;font-variant:normal;font-weight:normal;font-stretch:normal;letter-spacing:normal;word-spacing:normal;text-anchor:start;fill:#000000;fill-opacity:1;fill-rule:evenodd;stroke:#000000;stroke-width:0;stroke-linecap:butt;stroke-linejoin:miter;stroke-miterlimit:10.43299961;stroke-dasharray:none;stroke-dashoffset:0;stroke-opacity:1"
         id="path5214" /><path
         d="m 348.48,684.87 h 0.03 0.04 0.03 l 0.01,0.01 h 0.02 0.01 0.02 0.01 0.02 l 0.01,0.01 h 0.02 0.01 l 0.01,0.01 h 0.01 l 0.01,0.01 h 0.02 l 0.01,0.01 0.01,0.01 0.01,0.01 v 0.01 l 0.01,0.01 v 0 l 0.01,0.01 v 0 0.01 l 0.01,0.01 v 0 0.01 0.01 h 0.01 v 0.01 0.01 0.01 0.01 0 0.01 0.01 c 0,0.2 -0.21,0.2 -0.36,0.2 h -5.37 c -0.15,0 -0.36,0 -0.36,-0.2 0,-0.2 0.18,-0.2 0.35,-0.2 z"
         font-size-adjust="none"
         font-stretch="normal"
         font-style="normal"
         font-variant="normal"
         font-weight="normal"
         letter-spacing="normal"
         stroke-miterlimit="10.433"
         word-spacing="normal"
         style="font-style:normal;font-variant:normal;font-weight:normal;font-stretch:normal;letter-spacing:normal;word-spacing:normal;text-anchor:start;fill:#000000;fill-opacity:1;fill-rule:evenodd;stroke:#000000;stroke-width:0;stroke-linecap:butt;stroke-linejoin:miter;stroke-miterlimit:10.43299961;stroke-dasharray:none;stroke-dashoffset:0;stroke-opacity:1"
         id="path5216" /><path
         d="m 354.48,690.21 h 0.94 c 0.2,0 0.3,0 0.3,0.2 0,0.11 -0.1,0.11 -0.28,0.11 h -0.88 c 0.36,1.41 0.41,1.61 0.41,1.66 0,0.17 -0.12,0.27 -0.29,0.27 -0.03,0 -0.31,-0.01 -0.4,-0.36 l -0.39,-1.57 h -0.93 c -0.2,0 -0.3,0 -0.3,-0.19 0,-0.12 0.08,-0.12 0.28,-0.12 h 0.87 c -0.71,-2.82 -0.76,-2.99 -0.76,-3.17 0,-0.54 0.38,-0.91 0.92,-0.91 1.02,0 1.59,1.45 1.59,1.53 0,0.09 -0.08,0.09 -0.12,0.09 -0.09,0 -0.1,-0.03 -0.15,-0.14 -0.43,-1.03 -0.96,-1.27 -1.3,-1.27 -0.21,0 -0.31,0.13 -0.31,0.46 0,0.24 0.02,0.31 0.06,0.48 z"
         font-size-adjust="none"
         font-stretch="normal"
         font-style="normal"
         font-variant="normal"
         font-weight="normal"
         letter-spacing="normal"
         stroke-miterlimit="10.433"
         word-spacing="normal"
         style="font-style:normal;font-variant:normal;font-weight:normal;font-stretch:normal;letter-spacing:normal;word-spacing:normal;text-anchor:start;fill:#000000;fill-opacity:1;fill-rule:evenodd;stroke:#000000;stroke-width:0;stroke-linecap:butt;stroke-linejoin:miter;stroke-miterlimit:10.43299961;stroke-dasharray:none;stroke-dashoffset:0;stroke-opacity:1"
         id="path5218" /><path
         d="m 365.52,692.14 h 0.02 l 0.01,0.01 h 0.01 l 0.01,0.01 h 0.01 l 0.01,0.01 h 0.01 l 0.01,0.01 h 0.01 v 0.01 h 0.01 l 0.01,0.01 0.01,0.01 v 0 l 0.01,0.01 h 0.01 v 0.01 l 0.01,0.01 v 0 l 0.01,0.01 v 0.01 l 0.01,0.01 v 0.01 0 0.01 l 0.01,0.01 v 0.01 0.01 0.01 0.01 0.01 c 0,0.11 -0.08,0.2 -0.2,0.2 -0.05,0 -0.14,-0.04 -0.18,-0.06 l -5.51,-2.59 c -0.17,-0.08 -0.2,-0.15 -0.2,-0.23 0,-0.09 0.06,-0.16 0.2,-0.22 l 5.51,-2.58 c 0.13,-0.07 0.15,-0.07 0.18,-0.07 0.11,0 0.2,0.09 0.2,0.2 0,0.09 -0.04,0.15 -0.21,0.23 l -5.21,2.44 z"
         font-size-adjust="none"
         font-stretch="normal"
         font-style="normal"
         font-variant="normal"
         font-weight="normal"
         letter-spacing="normal"
         stroke-miterlimit="10.433"
         word-spacing="normal"
         style="font-style:normal;font-variant:normal;font-weight:normal;font-stretch:normal;letter-spacing:normal;word-spacing:normal;text-anchor:start;fill:#000000;fill-opacity:1;fill-rule:evenodd;stroke:#000000;stroke-width:0;stroke-linecap:butt;stroke-linejoin:miter;stroke-miterlimit:10.43299961;stroke-dasharray:none;stroke-dashoffset:0;stroke-opacity:1"
         id="path5220" /><path
         d="m 365.36,684.87 h 0.04 0.03 0.03 l 0.01,0.01 h 0.02 0.01 0.02 0.01 0.02 l 0.01,0.01 h 0.02 0.01 l 0.01,0.01 h 0.01 l 0.02,0.01 h 0.01 l 0.01,0.01 0.01,0.01 0.01,0.01 v 0.01 l 0.01,0.01 h 0.01 v 0.01 0 l 0.01,0.01 v 0.01 0 0.01 0.01 h 0.01 v 0.01 0.01 0.01 0.01 0 0.01 0.01 c 0,0.2 -0.21,0.2 -0.36,0.2 h -5.37 c -0.15,0 -0.36,0 -0.36,-0.2 0,-0.2 0.18,-0.2 0.35,-0.2 z"
         font-size-adjust="none"
         font-stretch="normal"
         font-style="normal"
         font-variant="normal"
         font-weight="normal"
         letter-spacing="normal"
         stroke-miterlimit="10.433"
         word-spacing="normal"
         style="font-style:normal;font-variant:normal;font-weight:normal;font-stretch:normal;letter-spacing:normal;word-spacing:normal;text-anchor:start;fill:#000000;fill-opacity:1;fill-rule:evenodd;stroke:#000000;stroke-width:0;stroke-linecap:butt;stroke-linejoin:miter;stroke-miterlimit:10.43299961;stroke-dasharray:none;stroke-dashoffset:0;stroke-opacity:1"
         id="path5222" /><path
         d="m 372.2,689.73 0.08,0.03 0.07,0.03 0.07,0.03 0.07,0.03 0.07,0.04 0.07,0.03 0.07,0.04 0.06,0.05 0.07,0.04 0.06,0.05 0.05,0.05 0.06,0.04 0.06,0.06 0.05,0.05 0.05,0.05 0.04,0.06 0.05,0.06 0.04,0.06 0.04,0.06 0.04,0.06 0.03,0.07 0.04,0.06 0.03,0.07 0.02,0.06 0.03,0.07 0.02,0.07 0.01,0.07 0.02,0.07 0.01,0.07 0.01,0.07 v 0.08 l 0.01,0.07 c 0,0.81 -0.88,1.37 -1.84,1.37 -1.01,0 -1.76,-0.6 -1.76,-1.35 0,-0.33 0.21,-0.52 0.51,-0.52 0.3,0 0.5,0.22 0.5,0.51 0,0.5 -0.46,0.5 -0.62,0.5 0.31,0.48 0.97,0.61 1.33,0.61 0.41,0 0.96,-0.22 0.96,-1.11 0,-0.12 -0.02,-0.7 -0.28,-1.13 -0.3,-0.48 -0.64,-0.51 -0.89,-0.52 -0.08,-0.01 -0.32,-0.03 -0.39,-0.03 -0.08,-0.01 -0.15,-0.02 -0.15,-0.12 0,-0.11 0.07,-0.11 0.24,-0.11 h 0.44 c 0.82,0 1.19,-0.67 1.19,-1.65 0,-1.35 -0.69,-1.64 -1.13,-1.64 -0.43,0 -1.17,0.17 -1.53,0.76 0.36,-0.05 0.66,0.17 0.66,0.54 0,0.36 -0.27,0.56 -0.55,0.56 -0.24,0 -0.56,-0.14 -0.56,-0.57 0,-0.91 0.92,-1.56 2.01,-1.56 1.22,0 2.12,0.9 2.12,1.91 0,0.82 -0.62,1.59 -1.66,1.8 z"
         font-size-adjust="none"
         font-stretch="normal"
         font-style="normal"
         font-variant="normal"
         font-weight="normal"
         letter-spacing="normal"
         stroke-miterlimit="10.433"
         word-spacing="normal"
         style="font-style:normal;font-variant:normal;font-weight:normal;font-stretch:normal;letter-spacing:normal;word-spacing:normal;text-anchor:start;fill:#000000;fill-opacity:1;fill-rule:evenodd;stroke:#000000;stroke-width:0;stroke-linecap:butt;stroke-linejoin:miter;stroke-miterlimit:10.43299961;stroke-dasharray:none;stroke-dashoffset:0;stroke-opacity:1"
         id="path5224" /><path
         d="m 374.45,687.22 v -0.01 h -0.01 v -0.01 l -0.01,-0.01 v 0 l -0.01,-0.01 v 0 -0.01 h -0.01 v -0.01 0 0 -0.01 0 h -0.01 v -0.01 0 0 -0.01 0 0 -0.01 0 c 0,-0.05 0.06,-0.13 0.12,-0.13 0.05,0 0.08,0.03 0.36,0.31 0.08,0.07 0.28,0.25 0.36,0.34 0.1,-0.79 0.39,-1.53 1.11,-1.53 0.4,0 0.75,0.23 0.96,0.38 0.14,0.1 0.61,0.49 0.61,0.59 0,0.03 -0.03,0.12 -0.12,0.12 -0.03,0 -0.04,-0.01 -0.13,-0.09 -0.64,-0.63 -1.01,-0.78 -1.3,-0.78 -0.45,0 -0.6,0.52 -0.6,1.3 0,0.05 0.02,0.51 0.05,0.56 0.01,0.03 0.01,0.05 0.21,0.25 0.81,0.8 2.23,2.48 2.23,4.02 0,0.17 0,0.78 -0.59,0.78 l 0.01,-0.22 c 0.34,0 0.34,-0.36 0.34,-0.52 0,-1.66 -1.68,-3.4 -2.16,-3.89 v 0 c 0.02,0.11 0.45,2.31 1.02,3.48 0.27,0.53 0.48,0.93 0.8,0.93 l -0.01,0.22 c -0.83,0 -1.57,-1.64 -1.67,-1.87 -0.47,-1.08 -0.78,-2.24 -0.78,-3.43 z"
         font-size-adjust="none"
         font-stretch="normal"
         font-style="normal"
         font-variant="normal"
         font-weight="normal"
         letter-spacing="normal"
         stroke-miterlimit="10.433"
         word-spacing="normal"
         style="font-style:normal;font-variant:normal;font-weight:normal;font-stretch:normal;letter-spacing:normal;word-spacing:normal;text-anchor:start;fill:#000000;fill-opacity:1;fill-rule:evenodd;stroke:#000000;stroke-width:0;stroke-linecap:butt;stroke-linejoin:miter;stroke-miterlimit:10.43299961;stroke-dasharray:none;stroke-dashoffset:0;stroke-opacity:1"
         id="path5226" /><path
         d="m 258.66,675.07 v 0.15 0.14 l -0.01,0.15 v 0.15 l -0.01,0.15 -0.02,0.15 -0.01,0.15 -0.02,0.14 -0.02,0.15 -0.03,0.14 -0.03,0.15 -0.04,0.14 -0.04,0.14 -0.05,0.14 -0.06,0.14 -0.03,0.07 -0.03,0.07 c -0.46,0.95 -1.28,1.11 -1.69,1.11 -0.6,0 -1.33,-0.25 -1.74,-1.18 -0.32,-0.68 -0.37,-1.46 -0.37,-2.25 0,-0.75 0.04,-1.64 0.45,-2.4 0.43,-0.8 1.16,-1 1.64,-1 v 0.22 c -0.38,0 -0.97,0.25 -1.15,1.2 -0.11,0.6 -0.11,1.51 -0.11,2.1 0,0.63 0,1.29 0.08,1.82 0.19,1.19 0.94,1.27 1.18,1.27 0.33,0 0.99,-0.17 1.18,-1.16 0.1,-0.55 0.1,-1.31 0.1,-1.93 0,-0.75 0,-1.42 -0.11,-2.06 -0.15,-0.94 -0.72,-1.24 -1.17,-1.24 v 0 -0.22 c 0.54,0 1.3,0.21 1.74,1.15 0.32,0.69 0.37,1.46 0.37,2.25 z"
         font-size-adjust="none"
         font-stretch="normal"
         font-style="normal"
         font-variant="normal"
         font-weight="normal"
         letter-spacing="normal"
         stroke-miterlimit="10.433"
         word-spacing="normal"
         style="font-style:normal;font-variant:normal;font-weight:normal;font-stretch:normal;letter-spacing:normal;word-spacing:normal;text-anchor:start;fill:#000000;fill-opacity:1;fill-rule:evenodd;stroke:#000000;stroke-width:0;stroke-linecap:butt;stroke-linejoin:miter;stroke-miterlimit:10.43299961;stroke-dasharray:none;stroke-dashoffset:0;stroke-opacity:1"
         id="path5228" /><path
         d="m 326.79,676.28 -1.4,-0.11 v -0.31 c 0.65,0 0.74,-0.06 0.74,-0.54 v -2.68 c 0,-0.44 -0.11,-0.44 -0.77,-0.44 v -0.31 c 0.31,0.01 0.85,0.03 1.09,0.03 0.35,0 0.7,-0.02 1.04,-0.03 v 0.31 c -0.66,0 -0.7,0.05 -0.7,0.43 z"
         font-size-adjust="none"
         font-stretch="normal"
         font-style="normal"
         font-variant="normal"
         font-weight="normal"
         letter-spacing="normal"
         stroke-miterlimit="10.433"
         word-spacing="normal"
         style="font-style:normal;font-variant:normal;font-weight:normal;font-stretch:normal;letter-spacing:normal;word-spacing:normal;text-anchor:start;fill:#000000;fill-opacity:1;fill-rule:evenodd;stroke:#000000;stroke-width:0;stroke-linecap:butt;stroke-linejoin:miter;stroke-miterlimit:10.43299961;stroke-dasharray:none;stroke-dashoffset:0;stroke-opacity:1"
         id="path5230" /><path
         d="m 326.83,678.01 v 0.03 0.03 l -0.01,0.02 v 0.03 l -0.01,0.03 v 0.02 l -0.01,0.03 -0.01,0.02 -0.01,0.03 -0.02,0.02 -0.01,0.02 -0.01,0.02 -0.02,0.02 -0.01,0.02 -0.02,0.02 -0.02,0.02 -0.02,0.02 -0.02,0.01 -0.02,0.02 -0.02,0.01 -0.02,0.01 -0.02,0.02 -0.02,0.01 -0.03,0.01 -0.02,0.01 h -0.03 l -0.02,0.01 h -0.03 l -0.02,0.01 h -0.03 -0.02 -0.03 c -0.31,0 -0.53,-0.26 -0.53,-0.52 0,-0.27 0.22,-0.53 0.53,-0.53 0.28,0 0.53,0.21 0.53,0.53 z"
         font-size-adjust="none"
         font-stretch="normal"
         font-style="normal"
         font-variant="normal"
         font-weight="normal"
         letter-spacing="normal"
         stroke-miterlimit="10.433"
         word-spacing="normal"
         style="font-style:normal;font-variant:normal;font-weight:normal;font-stretch:normal;letter-spacing:normal;word-spacing:normal;text-anchor:start;fill:#000000;fill-opacity:1;fill-rule:evenodd;stroke:#000000;stroke-width:0;stroke-linecap:butt;stroke-linejoin:miter;stroke-miterlimit:10.43299961;stroke-dasharray:none;stroke-dashoffset:0;stroke-opacity:1"
         id="path5232" /><path
         d="m 329.54,676.17 v 1.15 c 0,0.88 0.48,1.35 0.92,1.35 0.03,0 0.18,0 0.33,-0.07 -0.12,-0.04 -0.3,-0.17 -0.3,-0.41 0,-0.23 0.15,-0.43 0.42,-0.43 0.29,0 0.44,0.2 0.44,0.44 0,0.36 -0.37,0.69 -0.89,0.69 -0.7,0 -1.55,-0.53 -1.55,-1.58 v -1.14 h -0.79 v -0.31 h 0.79 v -3.22 c 0,-0.44 -0.11,-0.44 -0.78,-0.44 v -0.31 c 0.39,0.01 0.86,0.03 1.14,0.03 0.4,0 0.87,0 1.27,-0.03 v 0.31 h -0.21 c -0.74,0 -0.76,0.1 -0.76,0.46 v 3.2 h 1.13 v 0.31 z"
         font-size-adjust="none"
         font-stretch="normal"
         font-style="normal"
         font-variant="normal"
         font-weight="normal"
         letter-spacing="normal"
         stroke-miterlimit="10.433"
         word-spacing="normal"
         style="font-style:normal;font-variant:normal;font-weight:normal;font-stretch:normal;letter-spacing:normal;word-spacing:normal;text-anchor:start;fill:#000000;fill-opacity:1;fill-rule:evenodd;stroke:#000000;stroke-width:0;stroke-linecap:butt;stroke-linejoin:miter;stroke-miterlimit:10.43299961;stroke-dasharray:none;stroke-dashoffset:0;stroke-opacity:1"
         id="path5234" /><path
         d="m 337.06,675.39 0.07,0.02 0.08,0.03 0.07,0.03 0.07,0.03 0.07,0.04 0.07,0.04 0.07,0.04 0.06,0.04 0.06,0.04 0.06,0.05 0.06,0.05 0.06,0.05 0.05,0.05 0.05,0.05 0.05,0.06 0.05,0.06 0.05,0.05 0.04,0.06 0.04,0.06 0.04,0.07 0.03,0.06 0.03,0.06 0.03,0.07 0.03,0.07 0.02,0.06 0.02,0.07 0.02,0.07 0.02,0.07 0.01,0.07 0.01,0.08 v 0.07 0.07 c 0,0.82 -0.87,1.37 -1.83,1.37 -1.01,0 -1.77,-0.59 -1.77,-1.35 0,-0.32 0.22,-0.51 0.51,-0.51 0.31,0 0.51,0.21 0.51,0.5 0,0.5 -0.47,0.5 -0.62,0.5 0.31,0.49 0.97,0.62 1.33,0.62 0.41,0 0.96,-0.22 0.96,-1.12 0,-0.12 -0.02,-0.69 -0.28,-1.13 -0.3,-0.48 -0.64,-0.51 -0.89,-0.52 -0.08,-0.01 -0.32,-0.03 -0.39,-0.03 -0.08,-0.01 -0.15,-0.02 -0.15,-0.12 0,-0.1 0.07,-0.1 0.24,-0.1 h 0.44 c 0.82,0 1.19,-0.68 1.19,-1.65 0,-1.35 -0.69,-1.64 -1.13,-1.64 -0.43,0 -1.18,0.17 -1.53,0.75 0.35,-0.05 0.66,0.17 0.66,0.55 0,0.36 -0.27,0.55 -0.56,0.55 -0.24,0 -0.56,-0.13 -0.56,-0.57 0,-0.9 0.93,-1.56 2.02,-1.56 1.22,0 2.12,0.9 2.12,1.92 0,0.81 -0.63,1.59 -1.66,1.8 z"
         font-size-adjust="none"
         font-stretch="normal"
         font-style="normal"
         font-variant="normal"
         font-weight="normal"
         letter-spacing="normal"
         stroke-miterlimit="10.433"
         word-spacing="normal"
         style="font-style:normal;font-variant:normal;font-weight:normal;font-stretch:normal;letter-spacing:normal;word-spacing:normal;text-anchor:start;fill:#000000;fill-opacity:1;fill-rule:evenodd;stroke:#000000;stroke-width:0;stroke-linecap:butt;stroke-linejoin:miter;stroke-miterlimit:10.43299961;stroke-dasharray:none;stroke-dashoffset:0;stroke-opacity:1"
         id="path5236" /><path
         d="m 339.3,672.87 v 0 -0.01 l -0.01,-0.01 v 0 l -0.01,-0.01 v 0 l -0.01,-0.01 v 0 -0.01 0 l -0.01,-0.01 v 0 0 -0.01 0 0 -0.01 0 h -0.01 v -0.01 0 0 -0.01 c 0,-0.05 0.06,-0.13 0.12,-0.13 0.05,0 0.08,0.03 0.36,0.31 0.08,0.07 0.28,0.26 0.36,0.34 0.1,-0.79 0.39,-1.52 1.12,-1.52 0.4,0 0.74,0.23 0.96,0.38 0.13,0.1 0.6,0.48 0.6,0.58 0,0.03 -0.03,0.12 -0.12,0.12 -0.03,0 -0.04,-0.01 -0.13,-0.09 -0.63,-0.62 -1,-0.77 -1.29,-0.77 -0.45,0 -0.61,0.51 -0.61,1.29 0,0.06 0.02,0.51 0.05,0.56 0.02,0.04 0.02,0.06 0.22,0.25 0.81,0.81 2.22,2.49 2.22,4.03 0,0.16 0,0.77 -0.59,0.77 l 0.01,-0.22 c 0.34,0 0.34,-0.35 0.34,-0.51 0,-1.66 -1.67,-3.4 -2.15,-3.9 v 0 c 0.02,0.11 0.45,2.32 1.02,3.48 0.27,0.54 0.47,0.93 0.79,0.93 l -0.01,0.22 c -0.82,0 -1.56,-1.64 -1.66,-1.87 -0.48,-1.08 -0.79,-2.24 -0.79,-3.42 z"
         font-size-adjust="none"
         font-stretch="normal"
         font-style="normal"
         font-variant="normal"
         font-weight="normal"
         letter-spacing="normal"
         stroke-miterlimit="10.433"
         word-spacing="normal"
         style="font-style:normal;font-variant:normal;font-weight:normal;font-stretch:normal;letter-spacing:normal;word-spacing:normal;text-anchor:start;fill:#000000;fill-opacity:1;fill-rule:evenodd;stroke:#000000;stroke-width:0;stroke-linecap:butt;stroke-linejoin:miter;stroke-miterlimit:10.43299961;stroke-dasharray:none;stroke-dashoffset:0;stroke-opacity:1"
         id="path5238" /><path
         d="m 352.79,677.79 0.02,0.01 h 0.01 l 0.01,0.01 h 0.01 l 0.01,0.01 h 0.01 l 0.01,0.01 h 0.01 l 0.01,0.01 v 0 l 0.01,0.01 h 0.01 l 0.01,0.01 v 0.01 h 0.01 l 0.01,0.01 v 0 l 0.01,0.01 v 0.01 l 0.01,0.01 v 0 l 0.01,0.01 v 0.01 0.01 0.01 l 0.01,0.01 v 0.01 0.01 0.01 0.01 0.01 c 0,0.11 -0.08,0.2 -0.2,0.2 -0.05,0 -0.14,-0.04 -0.18,-0.06 l -5.51,-2.6 c -0.17,-0.08 -0.2,-0.14 -0.2,-0.22 0,-0.09 0.06,-0.16 0.2,-0.22 l 5.51,-2.59 c 0.13,-0.07 0.15,-0.07 0.18,-0.07 0.11,0 0.2,0.09 0.2,0.2 0,0.09 -0.04,0.15 -0.21,0.23 l -5.21,2.45 z"
         font-size-adjust="none"
         font-stretch="normal"
         font-style="normal"
         font-variant="normal"
         font-weight="normal"
         letter-spacing="normal"
         stroke-miterlimit="10.433"
         word-spacing="normal"
         style="font-style:normal;font-variant:normal;font-weight:normal;font-stretch:normal;letter-spacing:normal;word-spacing:normal;text-anchor:start;fill:#000000;fill-opacity:1;fill-rule:evenodd;stroke:#000000;stroke-width:0;stroke-linecap:butt;stroke-linejoin:miter;stroke-miterlimit:10.43299961;stroke-dasharray:none;stroke-dashoffset:0;stroke-opacity:1"
         id="path5240" /><path
         d="m 352.63,670.53 h 0.04 0.03 0.03 0.01 0.02 0.01 0.02 l 0.01,0.01 h 0.02 0.01 0.02 l 0.01,0.01 h 0.01 l 0.01,0.01 h 0.02 l 0.01,0.01 0.01,0.01 h 0.01 l 0.01,0.01 v 0.01 l 0.01,0.01 0.01,0.01 v 0 0.01 h 0.01 v 0.01 0.01 0 0.01 l 0.01,0.01 v 0.01 0 0.01 0.01 0.01 0.01 0.01 c 0,0.19 -0.21,0.19 -0.36,0.19 h -5.37 c -0.15,0 -0.36,0 -0.36,-0.19 0,-0.2 0.18,-0.2 0.35,-0.2 z"
         font-size-adjust="none"
         font-stretch="normal"
         font-style="normal"
         font-variant="normal"
         font-weight="normal"
         letter-spacing="normal"
         stroke-miterlimit="10.433"
         word-spacing="normal"
         style="font-style:normal;font-variant:normal;font-weight:normal;font-stretch:normal;letter-spacing:normal;word-spacing:normal;text-anchor:start;fill:#000000;fill-opacity:1;fill-rule:evenodd;stroke:#000000;stroke-width:0;stroke-linecap:butt;stroke-linejoin:miter;stroke-miterlimit:10.43299961;stroke-dasharray:none;stroke-dashoffset:0;stroke-opacity:1"
         id="path5242" /><path
         d="m 358.63,675.86 h 0.94 c 0.2,0 0.3,0 0.3,0.2 0,0.11 -0.1,0.11 -0.28,0.11 h -0.88 c 0.36,1.41 0.41,1.61 0.41,1.67 0,0.17 -0.12,0.27 -0.29,0.27 -0.03,0 -0.31,-0.01 -0.4,-0.36 l -0.39,-1.58 h -0.93 c -0.2,0 -0.3,0 -0.3,-0.19 0,-0.12 0.08,-0.12 0.28,-0.12 h 0.87 c -0.71,-2.82 -0.75,-2.99 -0.75,-3.17 0,-0.53 0.37,-0.91 0.91,-0.91 1.02,0 1.59,1.45 1.59,1.53 0,0.1 -0.08,0.1 -0.12,0.1 -0.09,0 -0.1,-0.03 -0.15,-0.14 -0.43,-1.03 -0.96,-1.27 -1.3,-1.27 -0.21,0 -0.31,0.13 -0.31,0.45 0,0.24 0.02,0.31 0.06,0.48 z"
         font-size-adjust="none"
         font-stretch="normal"
         font-style="normal"
         font-variant="normal"
         font-weight="normal"
         letter-spacing="normal"
         stroke-miterlimit="10.433"
         word-spacing="normal"
         style="font-style:normal;font-variant:normal;font-weight:normal;font-stretch:normal;letter-spacing:normal;word-spacing:normal;text-anchor:start;fill:#000000;fill-opacity:1;fill-rule:evenodd;stroke:#000000;stroke-width:0;stroke-linecap:butt;stroke-linejoin:miter;stroke-miterlimit:10.43299961;stroke-dasharray:none;stroke-dashoffset:0;stroke-opacity:1"
         id="path5244" /><path
         d="m 369.67,677.79 0.02,0.01 h 0.01 l 0.01,0.01 h 0.01 l 0.01,0.01 h 0.01 l 0.01,0.01 h 0.01 l 0.01,0.01 v 0 l 0.01,0.01 h 0.01 l 0.01,0.01 v 0.01 h 0.01 l 0.01,0.01 v 0 l 0.01,0.01 v 0.01 l 0.01,0.01 v 0 l 0.01,0.01 v 0.01 0.01 l 0.01,0.01 v 0.01 0.01 0.01 0.01 0.01 0.01 c 0,0.11 -0.08,0.2 -0.2,0.2 -0.05,0 -0.14,-0.04 -0.18,-0.06 l -5.51,-2.6 c -0.17,-0.08 -0.2,-0.14 -0.2,-0.22 0,-0.09 0.06,-0.16 0.2,-0.22 l 5.51,-2.59 c 0.13,-0.07 0.15,-0.07 0.18,-0.07 0.11,0 0.2,0.09 0.2,0.2 0,0.09 -0.04,0.15 -0.21,0.23 l -5.21,2.45 z"
         font-size-adjust="none"
         font-stretch="normal"
         font-style="normal"
         font-variant="normal"
         font-weight="normal"
         letter-spacing="normal"
         stroke-miterlimit="10.433"
         word-spacing="normal"
         style="font-style:normal;font-variant:normal;font-weight:normal;font-stretch:normal;letter-spacing:normal;word-spacing:normal;text-anchor:start;fill:#000000;fill-opacity:1;fill-rule:evenodd;stroke:#000000;stroke-width:0;stroke-linecap:butt;stroke-linejoin:miter;stroke-miterlimit:10.43299961;stroke-dasharray:none;stroke-dashoffset:0;stroke-opacity:1"
         id="path5246" /><path
         d="m 369.52,670.53 h 0.03 0.03 0.03 0.02 0.01 0.02 0.01 l 0.02,0.01 h 0.01 0.01 0.02 l 0.01,0.01 h 0.01 l 0.02,0.01 h 0.01 l 0.01,0.01 0.01,0.01 h 0.01 l 0.01,0.01 0.01,0.01 v 0.01 l 0.01,0.01 v 0 0.01 h 0.01 v 0.01 0.01 0 l 0.01,0.01 v 0.01 0.01 0 0.01 0.01 0.01 0.01 0.01 c 0,0.19 -0.21,0.19 -0.35,0.19 h -5.38 c -0.15,0 -0.36,0 -0.36,-0.19 0,-0.2 0.18,-0.2 0.35,-0.2 z"
         font-size-adjust="none"
         font-stretch="normal"
         font-style="normal"
         font-variant="normal"
         font-weight="normal"
         letter-spacing="normal"
         stroke-miterlimit="10.433"
         word-spacing="normal"
         style="font-style:normal;font-variant:normal;font-weight:normal;font-stretch:normal;letter-spacing:normal;word-spacing:normal;text-anchor:start;fill:#000000;fill-opacity:1;fill-rule:evenodd;stroke:#000000;stroke-width:0;stroke-linecap:butt;stroke-linejoin:miter;stroke-miterlimit:10.43299961;stroke-dasharray:none;stroke-dashoffset:0;stroke-opacity:1"
         id="path5248" /><path
         d="m 376.39,678.25 v 0.01 0.01 0.01 0.01 0.01 0.01 0.01 0.01 0 0.01 0.01 0.01 0.01 0 0.01 0.01 0 0.01 l -0.01,0.01 v 0.01 0.01 0.01 l -0.01,0.01 v 0.01 h -0.01 v 0.01 l -0.01,0.01 h -0.01 l -0.01,0.01 v 0 h -0.01 v 0 h -0.01 v 0 l -0.01,0.01 h -0.01 v 0 h -0.01 -0.01 v 0 h -0.01 -0.01 v 0 h -0.01 -0.01 -0.01 -0.01 -0.01 -0.01 -0.01 -0.01 -0.01 c -0.62,-0.63 -1.49,-0.63 -1.81,-0.63 v -0.31 c 0.2,0 0.78,0 1.3,0.26 v -5.15 c 0,-0.35 -0.03,-0.47 -0.92,-0.47 h -0.32 v -0.31 c 0.35,0.03 1.21,0.03 1.61,0.03 0.4,0 1.27,0 1.62,-0.03 v 0.31 h -0.32 c -0.9,0 -0.93,0.1 -0.93,0.47 z"
         font-size-adjust="none"
         font-stretch="normal"
         font-style="normal"
         font-variant="normal"
         font-weight="normal"
         letter-spacing="normal"
         stroke-miterlimit="10.433"
         word-spacing="normal"
         style="font-style:normal;font-variant:normal;font-weight:normal;font-stretch:normal;letter-spacing:normal;word-spacing:normal;text-anchor:start;fill:#000000;fill-opacity:1;fill-rule:evenodd;stroke:#000000;stroke-width:0;stroke-linecap:butt;stroke-linejoin:miter;stroke-miterlimit:10.43299961;stroke-dasharray:none;stroke-dashoffset:0;stroke-opacity:1"
         id="path5250" /><path
         d="m 387.23,674.17 h 0.03 0.03 0.03 l 0.02,0.01 h 0.01 0.02 0.01 0.02 0.01 l 0.01,0.01 h 0.02 0.01 l 0.01,0.01 h 0.02 l 0.01,0.01 h 0.01 l 0.01,0.01 0.01,0.01 0.01,0.01 0.01,0.01 v 0.01 h 0.01 v 0.01 0 l 0.01,0.01 v 0.01 0 0.01 l 0.01,0.01 v 0 0.01 0.01 0.01 0 0.01 0.01 l 0.01,0.01 c 0,0.2 -0.19,0.2 -0.35,0.2 h -5.4 c -0.17,0 -0.35,0 -0.35,-0.2 0,-0.2 0.18,-0.2 0.35,-0.2 z"
         font-size-adjust="none"
         font-stretch="normal"
         font-style="normal"
         font-variant="normal"
         font-weight="normal"
         letter-spacing="normal"
         stroke-miterlimit="10.433"
         word-spacing="normal"
         style="font-style:normal;font-variant:normal;font-weight:normal;font-stretch:normal;letter-spacing:normal;word-spacing:normal;text-anchor:start;fill:#000000;fill-opacity:1;fill-rule:evenodd;stroke:#000000;stroke-width:0;stroke-linecap:butt;stroke-linejoin:miter;stroke-miterlimit:10.43299961;stroke-dasharray:none;stroke-dashoffset:0;stroke-opacity:1"
         id="path5252" /><path
         d="m 393.51,675.39 0.07,0.02 0.08,0.03 0.07,0.03 0.07,0.03 0.07,0.04 0.07,0.04 0.07,0.04 0.06,0.04 0.06,0.04 0.07,0.05 0.05,0.05 0.06,0.05 0.05,0.05 0.06,0.05 0.05,0.06 0.04,0.06 0.05,0.05 0.04,0.06 0.04,0.06 0.04,0.07 0.03,0.06 0.04,0.06 0.03,0.07 0.02,0.07 0.03,0.06 0.02,0.07 0.01,0.07 0.02,0.07 0.01,0.07 0.01,0.08 v 0.07 0.07 c 0,0.82 -0.87,1.37 -1.83,1.37 -1.01,0 -1.77,-0.59 -1.77,-1.35 0,-0.32 0.22,-0.51 0.51,-0.51 0.31,0 0.51,0.21 0.51,0.5 0,0.5 -0.47,0.5 -0.62,0.5 0.31,0.49 0.97,0.62 1.33,0.62 0.41,0 0.96,-0.22 0.96,-1.12 0,-0.12 -0.02,-0.69 -0.28,-1.13 -0.3,-0.48 -0.64,-0.51 -0.89,-0.52 -0.08,-0.01 -0.32,-0.03 -0.39,-0.03 -0.08,-0.01 -0.15,-0.02 -0.15,-0.12 0,-0.1 0.07,-0.1 0.24,-0.1 h 0.44 c 0.82,0 1.19,-0.68 1.19,-1.65 0,-1.35 -0.69,-1.64 -1.13,-1.64 -0.43,0 -1.18,0.17 -1.53,0.75 0.35,-0.05 0.66,0.17 0.66,0.55 0,0.36 -0.27,0.55 -0.56,0.55 -0.23,0 -0.55,-0.13 -0.55,-0.57 0,-0.9 0.92,-1.56 2.01,-1.56 1.22,0 2.12,0.9 2.12,1.92 0,0.81 -0.62,1.59 -1.66,1.8 z"
         font-size-adjust="none"
         font-stretch="normal"
         font-style="normal"
         font-variant="normal"
         font-weight="normal"
         letter-spacing="normal"
         stroke-miterlimit="10.433"
         word-spacing="normal"
         style="font-style:normal;font-variant:normal;font-weight:normal;font-stretch:normal;letter-spacing:normal;word-spacing:normal;text-anchor:start;fill:#000000;fill-opacity:1;fill-rule:evenodd;stroke:#000000;stroke-width:0;stroke-linecap:butt;stroke-linejoin:miter;stroke-miterlimit:10.43299961;stroke-dasharray:none;stroke-dashoffset:0;stroke-opacity:1"
         id="path5254" /><path
         d="m 395.76,672.87 h -0.01 v -0.01 -0.01 h -0.01 v -0.01 h -0.01 v -0.01 0 l -0.01,-0.01 v 0 -0.01 0 0 l -0.01,-0.01 v 0 0 -0.01 0 0 -0.01 0 0 -0.01 c 0,-0.05 0.06,-0.13 0.12,-0.13 0.05,0 0.08,0.03 0.36,0.31 0.08,0.07 0.27,0.26 0.36,0.34 0.09,-0.79 0.38,-1.52 1.11,-1.52 0.4,0 0.75,0.23 0.96,0.38 0.14,0.1 0.61,0.48 0.61,0.58 0,0.03 -0.03,0.12 -0.12,0.12 -0.03,0 -0.04,-0.01 -0.13,-0.09 -0.64,-0.62 -1.01,-0.77 -1.3,-0.77 -0.45,0 -0.61,0.51 -0.61,1.29 0,0.06 0.02,0.51 0.05,0.56 0.02,0.04 0.02,0.06 0.22,0.25 0.81,0.81 2.23,2.49 2.23,4.03 0,0.16 0,0.77 -0.59,0.77 l 0.01,-0.22 c 0.34,0 0.34,-0.35 0.34,-0.51 0,-1.66 -1.68,-3.4 -2.16,-3.9 v 0 c 0.02,0.11 0.45,2.32 1.02,3.48 0.27,0.54 0.48,0.93 0.8,0.93 l -0.01,0.22 c -0.83,0 -1.57,-1.64 -1.67,-1.87 -0.48,-1.08 -0.79,-2.24 -0.79,-3.42 z"
         font-size-adjust="none"
         font-stretch="normal"
         font-style="normal"
         font-variant="normal"
         font-weight="normal"
         letter-spacing="normal"
         stroke-miterlimit="10.433"
         word-spacing="normal"
         style="font-style:normal;font-variant:normal;font-weight:normal;font-stretch:normal;letter-spacing:normal;word-spacing:normal;text-anchor:start;fill:#000000;fill-opacity:1;fill-rule:evenodd;stroke:#000000;stroke-width:0;stroke-linecap:butt;stroke-linejoin:miter;stroke-miterlimit:10.43299961;stroke-dasharray:none;stroke-dashoffset:0;stroke-opacity:1"
         id="path5256" /><path
         d="m 260.64,659.83 h 0.04 0.03 0.03 0.01 0.02 0.01 0.02 l 0.01,0.01 h 0.02 0.01 0.02 l 0.01,0.01 h 0.01 l 0.01,0.01 h 0.02 l 0.01,0.01 0.01,0.01 h 0.01 l 0.01,0.01 v 0.01 l 0.01,0.01 0.01,0.01 v 0 0.01 h 0.01 v 0.01 0.01 0 0.01 l 0.01,0.01 v 0 0.01 0.01 0.01 0.01 0.01 0.01 c 0,0.19 -0.18,0.19 -0.35,0.19 h -5.39 c -0.17,0 -0.35,0 -0.35,-0.19 0,-0.2 0.18,-0.2 0.35,-0.2 z"
         font-size-adjust="none"
         font-stretch="normal"
         font-style="normal"
         font-variant="normal"
         font-weight="normal"
         letter-spacing="normal"
         stroke-miterlimit="10.433"
         word-spacing="normal"
         style="font-style:normal;font-variant:normal;font-weight:normal;font-stretch:normal;letter-spacing:normal;word-spacing:normal;text-anchor:start;fill:#000000;fill-opacity:1;fill-rule:evenodd;stroke:#000000;stroke-width:0;stroke-linecap:butt;stroke-linejoin:miter;stroke-miterlimit:10.43299961;stroke-dasharray:none;stroke-dashoffset:0;stroke-opacity:1"
         id="path5258" /><path
         d="m 268.21,662.73 h -0.23 c -0.02,-0.15 -0.09,-0.56 -0.18,-0.63 -0.06,-0.04 -0.6,-0.04 -0.7,-0.04 h -1.28 c 0.73,0.64 0.98,0.84 1.39,1.16 0.52,0.42 1,0.85 1,1.51 0,0.84 -0.74,1.35 -1.63,1.35 -0.87,0 -1.46,-0.6 -1.46,-1.24 0,-0.36 0.3,-0.39 0.37,-0.39 0.17,0 0.38,0.12 0.38,0.37 0,0.12 -0.05,0.36 -0.42,0.36 0.22,0.5 0.69,0.65 1.02,0.65 0.7,0 1.07,-0.54 1.07,-1.1 0,-0.61 -0.44,-1.09 -0.66,-1.34 l -1.69,-1.65 c -0.07,-0.07 -0.07,-0.08 -0.07,-0.27 h 2.89 z"
         font-size-adjust="none"
         font-stretch="normal"
         font-style="normal"
         font-variant="normal"
         font-weight="normal"
         letter-spacing="normal"
         stroke-miterlimit="10.433"
         word-spacing="normal"
         style="font-style:normal;font-variant:normal;font-weight:normal;font-stretch:normal;letter-spacing:normal;word-spacing:normal;text-anchor:start;fill:#000000;fill-opacity:1;fill-rule:evenodd;stroke:#000000;stroke-width:0;stroke-linecap:butt;stroke-linejoin:miter;stroke-miterlimit:10.43299961;stroke-dasharray:none;stroke-dashoffset:0;stroke-opacity:1"
         id="path5260" /><line
         x1="263.01999"
         y1="660.03003"
         x2="270.32001"
         y2="660.03003"
         font-size-adjust="none"
         font-stretch="normal"
         font-style="normal"
         font-variant="normal"
         font-weight="normal"
         letter-spacing="normal"
         stroke-miterlimit="10.433"
         word-spacing="normal"
         style="font-style:normal;font-variant:normal;font-weight:normal;font-stretch:normal;letter-spacing:normal;word-spacing:normal;text-anchor:start;fill:#000000;fill-opacity:1;fill-rule:evenodd;stroke:#000000;stroke-width:0.398;stroke-linecap:butt;stroke-linejoin:miter;stroke-miterlimit:10.43299961;stroke-dasharray:none;stroke-dashoffset:0;stroke-opacity:1"
         id="line5262" /><path
         d="m 264.92,656.43 h 0.06 l 0.05,-0.01 h 0.04 l 0.05,-0.01 0.05,-0.01 0.04,-0.01 0.05,-0.01 0.04,-0.02 0.04,-0.02 0.04,-0.02 0.04,-0.02 0.04,-0.03 0.04,-0.03 0.03,-0.03 0.04,-0.03 0.03,-0.03 0.03,-0.04 0.03,-0.04 0.02,-0.04 0.03,-0.04 0.02,-0.04 0.02,-0.05 0.02,-0.05 0.02,-0.05 0.02,-0.06 0.01,-0.05 0.01,-0.06 0.01,-0.06 0.01,-0.06 0.01,-0.07 v -0.06 -0.07 c 0,-0.86 -0.5,-1.12 -0.91,-1.12 -0.28,0 -0.89,0.08 -1.19,0.49 0.33,0.01 0.41,0.24 0.41,0.39 0,0.22 -0.17,0.38 -0.38,0.38 -0.2,0 -0.4,-0.12 -0.4,-0.41 0,-0.65 0.73,-1.07 1.58,-1.07 0.97,0 1.64,0.64 1.64,1.34 0,0.54 -0.45,1.08 -1.22,1.24 0.74,0.27 1,0.79 1,1.21 0,0.55 -0.63,0.96 -1.41,0.96 -0.78,0 -1.37,-0.37 -1.37,-0.93 0,-0.24 0.15,-0.37 0.36,-0.37 0.22,0 0.36,0.16 0.36,0.36 0,0.2 -0.14,0.35 -0.36,0.36 0.25,0.31 0.73,0.38 0.99,0.38 0.31,0 0.75,-0.15 0.75,-0.76 0,-0.29 -0.09,-0.61 -0.28,-0.82 -0.23,-0.27 -0.42,-0.28 -0.77,-0.3 -0.18,-0.02 -0.19,-0.02 -0.23,-0.02 -0.01,0 -0.07,-0.02 -0.07,-0.09 0,-0.1 0.07,-0.1 0.19,-0.1 z"
         font-size-adjust="none"
         font-stretch="normal"
         font-style="normal"
         font-variant="normal"
         font-weight="normal"
         letter-spacing="normal"
         stroke-miterlimit="10.433"
         word-spacing="normal"
         style="font-style:normal;font-variant:normal;font-weight:normal;font-stretch:normal;letter-spacing:normal;word-spacing:normal;text-anchor:start;fill:#000000;fill-opacity:1;fill-rule:evenodd;stroke:#000000;stroke-width:0;stroke-linecap:butt;stroke-linejoin:miter;stroke-miterlimit:10.43299961;stroke-dasharray:none;stroke-dashoffset:0;stroke-opacity:1"
         id="path5264" /><path
         d="m 267.82,655.06 0.01,-0.04 v -0.05 l 0.01,-0.04 0.01,-0.05 0.01,-0.04 0.02,-0.04 0.01,-0.05 0.01,-0.04 0.02,-0.05 0.02,-0.04 0.02,-0.04 0.02,-0.05 0.02,-0.04 0.02,-0.04 0.02,-0.04 0.03,-0.04 0.03,-0.04 0.03,-0.03 0.03,-0.04 0.03,-0.03 0.03,-0.03 0.04,-0.03 0.03,-0.02 0.04,-0.03 0.04,-0.02 0.05,-0.02 0.04,-0.02 0.05,-0.01 0.05,-0.01 0.05,-0.01 0.05,-0.01 h 0.05 c 0.23,0 0.48,0.09 0.73,0.25 0.12,0.07 0.48,0.33 0.48,0.41 0,0.04 -0.04,0.14 -0.11,0.14 -0.03,0 -0.05,0 -0.15,-0.11 -0.3,-0.26 -0.62,-0.49 -0.94,-0.49 -0.47,0 -0.47,0.81 -0.47,0.94 0,0.09 0,0.11 0.01,0.24 0.01,0.07 0.01,0.08 0.09,0.16 0.38,0.36 1.71,1.63 1.71,2.84 0,0.1 0,0.6 -0.46,0.6 l -0.01,-0.19 c 0.16,0 0.24,-0.11 0.24,-0.36 0,-0.09 0,-0.71 -0.6,-1.56 -0.35,-0.5 -0.74,-0.88 -0.91,-1.04 v 0 c 0.13,0.71 0.68,2.96 1.27,2.96 l 0.01,0.19 c -0.58,0 -1.05,-0.9 -1.17,-1.1 -0.3,-0.6 -0.46,-1.17 -0.54,-1.51 -0.11,-0.47 -0.11,-0.71 -0.11,-1.05 -0.05,-0.05 -0.44,-0.41 -0.51,-0.46 -0.12,-0.1 -0.12,-0.11 -0.12,-0.15 0,-0.05 0.06,-0.12 0.12,-0.12 0.05,0 0.23,0.17 0.28,0.22 z"
         font-size-adjust="none"
         font-stretch="normal"
         font-style="normal"
         font-variant="normal"
         font-weight="normal"
         letter-spacing="normal"
         stroke-miterlimit="10.433"
         word-spacing="normal"
         style="font-style:normal;font-variant:normal;font-weight:normal;font-stretch:normal;letter-spacing:normal;word-spacing:normal;text-anchor:start;fill:#000000;fill-opacity:1;fill-rule:evenodd;stroke:#000000;stroke-width:0;stroke-linecap:butt;stroke-linejoin:miter;stroke-miterlimit:10.43299961;stroke-dasharray:none;stroke-dashoffset:0;stroke-opacity:1"
         id="path5266" /><path
         d="m 277.3,654.2 v 0 0.01 0 0 l -0.01,0.01 v 0 0 0 0.01 0 0 0.01 0 0 0 l -0.01,0.01 v 0 0.01 h -0.01 v 0.01 0 l -0.01,0.01 v 0 0.01 c -0.46,0.48 -1.14,1.29 -1.56,2.91 -0.23,0.9 -0.32,1.93 -0.32,2.85 0,2.61 0.63,4.44 1.83,5.73 0.09,0.09 0.09,0.11 0.09,0.13 0,0.1 -0.08,0.1 -0.12,0.1 -0.15,0 -0.69,-0.6 -0.82,-0.75 -1.02,-1.2 -1.67,-2.99 -1.67,-5.2 0,-1.41 0.25,-3.41 1.56,-5.09 0.1,-0.12 0.75,-0.87 0.93,-0.87 0.04,0 0.12,0 0.12,0.1 z"
         font-size-adjust="none"
         font-stretch="normal"
         font-style="normal"
         font-variant="normal"
         font-weight="normal"
         letter-spacing="normal"
         stroke-miterlimit="10.433"
         word-spacing="normal"
         style="font-style:normal;font-variant:normal;font-weight:normal;font-stretch:normal;letter-spacing:normal;word-spacing:normal;text-anchor:start;fill:#000000;fill-opacity:1;fill-rule:evenodd;stroke:#000000;stroke-width:0;stroke-linecap:butt;stroke-linejoin:miter;stroke-miterlimit:10.43299961;stroke-dasharray:none;stroke-dashoffset:0;stroke-opacity:1"
         id="path5268" /><path
         d="m 280.68,663.9 v 0.01 0.01 0.01 0.01 0.01 0.01 0.01 0.01 0.01 0.01 h -0.01 v 0.01 0.01 0.01 0 0.01 0.01 0 0.02 0.01 l -0.01,0.01 v 0.01 0 l -0.01,0.01 v 0.01 h -0.01 v 0.01 h -0.01 l -0.01,0.01 h -0.01 v 0 l -0.01,0.01 v 0 h -0.01 -0.01 v 0 h -0.01 v 0 h -0.01 -0.01 v 0.01 h -0.01 -0.01 -0.01 -0.01 -0.01 v 0 h -0.01 -0.01 -0.01 -0.01 -0.01 c -0.62,-0.64 -1.5,-0.64 -1.82,-0.64 v -0.31 c 0.2,0 0.79,0 1.31,0.26 v -5.14 c 0,-0.36 -0.03,-0.48 -0.93,-0.48 h -0.32 v -0.31 c 0.35,0.03 1.22,0.03 1.62,0.03 0.4,0 1.26,0 1.61,-0.03 v 0.31 h -0.32 c -0.89,0 -0.92,0.11 -0.92,0.48 z"
         font-size-adjust="none"
         font-stretch="normal"
         font-style="normal"
         font-variant="normal"
         font-weight="normal"
         letter-spacing="normal"
         stroke-miterlimit="10.433"
         word-spacing="normal"
         style="font-style:normal;font-variant:normal;font-weight:normal;font-stretch:normal;letter-spacing:normal;word-spacing:normal;text-anchor:start;fill:#000000;fill-opacity:1;fill-rule:evenodd;stroke:#000000;stroke-width:0;stroke-linecap:butt;stroke-linejoin:miter;stroke-miterlimit:10.43299961;stroke-dasharray:none;stroke-dashoffset:0;stroke-opacity:1"
         id="path5270" /><path
         d="m 291.51,659.83 h 0.03 0.03 0.04 0.01 0.02 0.01 0.02 l 0.01,0.01 h 0.02 0.01 0.01 l 0.02,0.01 h 0.01 l 0.01,0.01 h 0.01 l 0.01,0.01 0.01,0.01 h 0.01 l 0.01,0.01 0.01,0.01 0.01,0.01 v 0.01 h 0.01 v 0.01 0 l 0.01,0.01 v 0.01 0 0.01 0.01 h 0.01 v 0.01 0.01 0.01 0.01 0.01 0.01 c 0,0.19 -0.18,0.19 -0.35,0.19 h -5.39 c -0.17,0 -0.35,0 -0.35,-0.19 0,-0.2 0.18,-0.2 0.35,-0.2 z"
         font-size-adjust="none"
         font-stretch="normal"
         font-style="normal"
         font-variant="normal"
         font-weight="normal"
         letter-spacing="normal"
         stroke-miterlimit="10.433"
         word-spacing="normal"
         style="font-style:normal;font-variant:normal;font-weight:normal;font-stretch:normal;letter-spacing:normal;word-spacing:normal;text-anchor:start;fill:#000000;fill-opacity:1;fill-rule:evenodd;stroke:#000000;stroke-width:0;stroke-linecap:butt;stroke-linejoin:miter;stroke-miterlimit:10.43299961;stroke-dasharray:none;stroke-dashoffset:0;stroke-opacity:1"
         id="path5272" /><path
         d="m 298.44,665.89 v 0.01 0.01 0 0.01 0.01 0.01 0 0.01 0.01 0 0.01 0.01 0 0.01 0 l -0.01,0.01 v 0 0.01 0.01 0 0.01 l -0.01,0.01 v 0 l -0.01,0.01 v 0.01 h -0.01 v 0 l -0.01,0.01 h -0.01 -0.01 v 0 l -0.01,0.01 h -0.01 v 0 h -0.01 -0.01 v 0 h -0.01 v 0 h -0.01 -0.01 v 0 h -0.01 -0.01 -0.01 v 0 h -0.01 -0.01 -0.01 -0.01 c -0.45,-0.44 -1.08,-0.44 -1.37,-0.44 v -0.25 c 0.17,0 0.63,0 1.01,0.19 v -3.55 c 0,-0.22 0,-0.31 -0.7,-0.31 h -0.26 v -0.25 c 0.13,0 0.98,0.02 1.24,0.02 0.22,0 1.1,-0.02 1.25,-0.02 v 0.25 h -0.26 c -0.7,0 -0.7,0.09 -0.7,0.31 z"
         font-size-adjust="none"
         font-stretch="normal"
         font-style="normal"
         font-variant="normal"
         font-weight="normal"
         letter-spacing="normal"
         stroke-miterlimit="10.433"
         word-spacing="normal"
         style="font-style:normal;font-variant:normal;font-weight:normal;font-stretch:normal;letter-spacing:normal;word-spacing:normal;text-anchor:start;fill:#000000;fill-opacity:1;fill-rule:evenodd;stroke:#000000;stroke-width:0;stroke-linecap:butt;stroke-linejoin:miter;stroke-miterlimit:10.43299961;stroke-dasharray:none;stroke-dashoffset:0;stroke-opacity:1"
         id="path5274" /><path
         d="m 305.27,663.04 h 0.01 0.01 0.01 0.02 0.02 0.01 0.01 0.01 0.02 0.01 0.01 l 0.01,0.01 h 0.01 0.01 l 0.01,0.01 h 0.01 l 0.01,0.01 h 0.01 l 0.01,0.01 h 0.01 l 0.01,0.01 0.01,0.01 v 0 0.01 h 0.01 v 0.01 0 0.01 h 0.01 v 0.01 0 0.01 h 0.01 v 0.01 0.01 0 0.01 0.01 0.01 0 c 0,0.18 -0.16,0.18 -0.28,0.18 h -4.17 c -0.11,0 -0.28,0 -0.28,-0.17 0,-0.17 0.16,-0.17 0.28,-0.17 z"
         font-size-adjust="none"
         font-stretch="normal"
         font-style="normal"
         font-variant="normal"
         font-weight="normal"
         letter-spacing="normal"
         stroke-miterlimit="10.433"
         word-spacing="normal"
         style="font-style:normal;font-variant:normal;font-weight:normal;font-stretch:normal;letter-spacing:normal;word-spacing:normal;text-anchor:start;fill:#000000;fill-opacity:1;fill-rule:evenodd;stroke:#000000;stroke-width:0;stroke-linecap:butt;stroke-linejoin:miter;stroke-miterlimit:10.43299961;stroke-dasharray:none;stroke-dashoffset:0;stroke-opacity:1"
         id="path5276" /><path
         d="m 308.02,664.21 h 0.71 c 0.13,0 0.22,0 0.22,0.15 0,0.1 -0.09,0.1 -0.21,0.1 h -0.66 l 0.26,1.03 c 0.01,0.04 0.02,0.07 0.02,0.1 0,0.12 -0.1,0.22 -0.24,0.22 -0.17,0 -0.28,-0.12 -0.33,-0.3 -0.05,-0.17 0.04,0.16 -0.26,-1.05 h -0.72 c -0.13,0 -0.22,0 -0.22,-0.15 0,-0.1 0.08,-0.1 0.21,-0.1 h 0.66 l -0.41,-1.64 c -0.04,-0.17 -0.1,-0.42 -0.1,-0.51 0,-0.41 0.35,-0.66 0.74,-0.66 0.78,0 1.22,0.97 1.22,1.06 0,0.09 -0.09,0.09 -0.11,0.09 -0.09,0 -0.09,-0.01 -0.15,-0.13 -0.19,-0.44 -0.55,-0.83 -0.94,-0.83 -0.14,0 -0.24,0.09 -0.24,0.34 0,0.07 0.03,0.22 0.04,0.29 z"
         font-size-adjust="none"
         font-stretch="normal"
         font-style="normal"
         font-variant="normal"
         font-weight="normal"
         letter-spacing="normal"
         stroke-miterlimit="10.433"
         word-spacing="normal"
         style="font-style:normal;font-variant:normal;font-weight:normal;font-stretch:normal;letter-spacing:normal;word-spacing:normal;text-anchor:start;fill:#000000;fill-opacity:1;fill-rule:evenodd;stroke:#000000;stroke-width:0;stroke-linecap:butt;stroke-linejoin:miter;stroke-miterlimit:10.43299961;stroke-dasharray:none;stroke-dashoffset:0;stroke-opacity:1"
         id="path5278" /><line
         x1="296.10001"
         y1="660.03003"
         x2="309.29999"
         y2="660.03003"
         font-size-adjust="none"
         font-stretch="normal"
         font-style="normal"
         font-variant="normal"
         font-weight="normal"
         letter-spacing="normal"
         stroke-miterlimit="10.433"
         word-spacing="normal"
         style="font-style:normal;font-variant:normal;font-weight:normal;font-stretch:normal;letter-spacing:normal;word-spacing:normal;text-anchor:start;fill:#000000;fill-opacity:1;fill-rule:evenodd;stroke:#000000;stroke-width:0.398;stroke-linecap:butt;stroke-linejoin:miter;stroke-miterlimit:10.43299961;stroke-dasharray:none;stroke-dashoffset:0;stroke-opacity:1"
         id="line5280" /><path
         d="m 300.96,656.43 h 0.05 l 0.05,-0.01 h 0.05 l 0.04,-0.01 0.05,-0.01 0.05,-0.01 0.04,-0.01 0.04,-0.02 0.05,-0.02 0.04,-0.02 0.04,-0.02 0.03,-0.03 0.04,-0.03 0.03,-0.03 0.04,-0.03 0.03,-0.03 0.03,-0.04 0.03,-0.04 0.03,-0.04 0.02,-0.04 0.02,-0.04 0.03,-0.05 0.02,-0.05 0.01,-0.05 0.02,-0.06 0.01,-0.05 0.02,-0.06 0.01,-0.06 v -0.06 l 0.01,-0.07 v -0.06 -0.07 c 0,-0.86 -0.5,-1.12 -0.91,-1.12 -0.28,0 -0.89,0.08 -1.18,0.49 0.33,0.01 0.4,0.24 0.4,0.39 0,0.22 -0.17,0.38 -0.38,0.38 -0.2,0 -0.39,-0.12 -0.39,-0.41 0,-0.65 0.72,-1.07 1.57,-1.07 0.97,0 1.64,0.64 1.64,1.34 0,0.54 -0.45,1.08 -1.22,1.24 0.74,0.27 1,0.79 1,1.21 0,0.55 -0.63,0.96 -1.41,0.96 -0.77,0 -1.37,-0.37 -1.37,-0.93 0,-0.24 0.16,-0.37 0.37,-0.37 0.21,0 0.35,0.16 0.35,0.36 0,0.2 -0.14,0.35 -0.35,0.36 0.24,0.31 0.72,0.38 0.98,0.38 0.32,0 0.76,-0.15 0.76,-0.76 0,-0.29 -0.1,-0.61 -0.28,-0.82 -0.23,-0.27 -0.43,-0.28 -0.78,-0.3 -0.17,-0.02 -0.19,-0.02 -0.22,-0.02 -0.02,0 -0.07,-0.02 -0.07,-0.09 0,-0.1 0.06,-0.1 0.18,-0.1 z"
         font-size-adjust="none"
         font-stretch="normal"
         font-style="normal"
         font-variant="normal"
         font-weight="normal"
         letter-spacing="normal"
         stroke-miterlimit="10.433"
         word-spacing="normal"
         style="font-style:normal;font-variant:normal;font-weight:normal;font-stretch:normal;letter-spacing:normal;word-spacing:normal;text-anchor:start;fill:#000000;fill-opacity:1;fill-rule:evenodd;stroke:#000000;stroke-width:0;stroke-linecap:butt;stroke-linejoin:miter;stroke-miterlimit:10.43299961;stroke-dasharray:none;stroke-dashoffset:0;stroke-opacity:1"
         id="path5282" /><path
         d="m 303.85,655.06 0.01,-0.04 0.01,-0.05 0.01,-0.04 0.01,-0.05 0.01,-0.04 0.01,-0.04 0.01,-0.05 0.02,-0.04 0.01,-0.05 0.02,-0.04 0.02,-0.04 0.02,-0.05 0.02,-0.04 0.02,-0.04 0.03,-0.04 0.02,-0.04 0.03,-0.04 0.03,-0.03 0.03,-0.04 0.03,-0.03 0.03,-0.03 0.04,-0.03 0.04,-0.02 0.04,-0.03 0.04,-0.02 0.04,-0.02 0.04,-0.02 0.05,-0.01 0.05,-0.01 0.05,-0.01 0.05,-0.01 h 0.06 c 0.22,0 0.47,0.09 0.72,0.25 0.12,0.07 0.49,0.33 0.49,0.41 0,0.04 -0.05,0.14 -0.11,0.14 -0.04,0 -0.05,0 -0.16,-0.11 -0.3,-0.26 -0.62,-0.49 -0.94,-0.49 -0.47,0 -0.47,0.81 -0.47,0.94 0,0.09 0,0.11 0.01,0.24 0.01,0.07 0.01,0.08 0.09,0.16 0.39,0.36 1.71,1.63 1.71,2.84 0,0.1 0,0.6 -0.46,0.6 l -0.01,-0.19 c 0.16,0 0.25,-0.11 0.25,-0.36 0,-0.09 0,-0.71 -0.61,-1.56 -0.35,-0.5 -0.74,-0.88 -0.9,-1.04 v 0 c 0.12,0.71 0.67,2.96 1.26,2.96 l 0.01,0.19 c -0.58,0 -1.05,-0.9 -1.16,-1.1 -0.31,-0.6 -0.47,-1.17 -0.55,-1.51 -0.1,-0.47 -0.1,-0.71 -0.1,-1.05 -0.05,-0.05 -0.45,-0.41 -0.52,-0.46 -0.11,-0.1 -0.12,-0.11 -0.12,-0.15 0,-0.05 0.06,-0.12 0.12,-0.12 0.05,0 0.24,0.17 0.29,0.22 z"
         font-size-adjust="none"
         font-stretch="normal"
         font-style="normal"
         font-variant="normal"
         font-weight="normal"
         letter-spacing="normal"
         stroke-miterlimit="10.433"
         word-spacing="normal"
         style="font-style:normal;font-variant:normal;font-weight:normal;font-stretch:normal;letter-spacing:normal;word-spacing:normal;text-anchor:start;fill:#000000;fill-opacity:1;fill-rule:evenodd;stroke:#000000;stroke-width:0;stroke-linecap:butt;stroke-linejoin:miter;stroke-miterlimit:10.43299961;stroke-dasharray:none;stroke-dashoffset:0;stroke-opacity:1"
         id="path5284" /><path
         d="m 313.54,660.05 v 0.27 l -0.01,0.28 -0.02,0.3 -0.03,0.3 -0.04,0.32 -0.05,0.32 -0.06,0.32 -0.08,0.33 -0.04,0.17 -0.05,0.16 -0.05,0.17 -0.06,0.17 -0.06,0.17 -0.06,0.17 -0.07,0.16 -0.08,0.17 -0.08,0.17 -0.08,0.16 -0.1,0.17 -0.09,0.16 -0.1,0.17 -0.11,0.16 -0.11,0.16 -0.12,0.16 c -0.1,0.11 -0.75,0.87 -0.93,0.87 -0.05,0 -0.12,-0.02 -0.12,-0.1 0,-0.04 0.02,-0.07 0.06,-0.1 0.48,-0.52 1.13,-1.32 1.54,-2.9 0.23,-0.9 0.31,-1.93 0.31,-2.85 0,-1 -0.08,-2.02 -0.34,-2.99 -0.38,-1.39 -0.97,-2.19 -1.48,-2.74 -0.09,-0.09 -0.09,-0.11 -0.09,-0.13 0,-0.08 0.07,-0.1 0.12,-0.1 0.15,0 0.7,0.61 0.82,0.74 1.01,1.21 1.66,2.99 1.66,5.21 z"
         font-size-adjust="none"
         font-stretch="normal"
         font-style="normal"
         font-variant="normal"
         font-weight="normal"
         letter-spacing="normal"
         stroke-miterlimit="10.433"
         word-spacing="normal"
         style="font-style:normal;font-variant:normal;font-weight:normal;font-stretch:normal;letter-spacing:normal;word-spacing:normal;text-anchor:start;fill:#000000;fill-opacity:1;fill-rule:evenodd;stroke:#000000;stroke-width:0;stroke-linecap:butt;stroke-linejoin:miter;stroke-miterlimit:10.43299961;stroke-dasharray:none;stroke-dashoffset:0;stroke-opacity:1"
         id="path5286" /><path
         d="m 326.79,661.93 -1.39,-0.11 v -0.3 c 0.65,0 0.74,-0.06 0.74,-0.55 v -2.67 c 0,-0.45 -0.11,-0.45 -0.78,-0.45 v -0.31 c 0.32,0.01 0.86,0.03 1.09,0.03 0.35,0 0.7,-0.02 1.04,-0.03 v 0.31 c -0.66,0 -0.7,0.05 -0.7,0.44 z"
         font-size-adjust="none"
         font-stretch="normal"
         font-style="normal"
         font-variant="normal"
         font-weight="normal"
         letter-spacing="normal"
         stroke-miterlimit="10.433"
         word-spacing="normal"
         style="font-style:normal;font-variant:normal;font-weight:normal;font-stretch:normal;letter-spacing:normal;word-spacing:normal;text-anchor:start;fill:#000000;fill-opacity:1;fill-rule:evenodd;stroke:#000000;stroke-width:0;stroke-linecap:butt;stroke-linejoin:miter;stroke-miterlimit:10.43299961;stroke-dasharray:none;stroke-dashoffset:0;stroke-opacity:1"
         id="path5288" /><path
         d="m 326.83,663.66 v 0.03 0.03 0.03 l -0.01,0.02 v 0.03 l -0.01,0.03 -0.01,0.02 -0.01,0.03 -0.01,0.02 -0.01,0.02 -0.02,0.03 -0.01,0.02 -0.01,0.02 -0.02,0.02 -0.02,0.02 -0.02,0.01 -0.01,0.02 -0.02,0.02 -0.02,0.01 -0.02,0.02 -0.03,0.01 -0.02,0.01 -0.02,0.01 -0.02,0.01 -0.03,0.01 -0.02,0.01 h -0.03 l -0.02,0.01 h -0.03 l -0.02,0.01 h -0.03 -0.03 c -0.3,0 -0.52,-0.27 -0.52,-0.53 0,-0.27 0.22,-0.52 0.52,-0.52 0.28,0 0.53,0.2 0.53,0.52 z"
         font-size-adjust="none"
         font-stretch="normal"
         font-style="normal"
         font-variant="normal"
         font-weight="normal"
         letter-spacing="normal"
         stroke-miterlimit="10.433"
         word-spacing="normal"
         style="font-style:normal;font-variant:normal;font-weight:normal;font-stretch:normal;letter-spacing:normal;word-spacing:normal;text-anchor:start;fill:#000000;fill-opacity:1;fill-rule:evenodd;stroke:#000000;stroke-width:0;stroke-linecap:butt;stroke-linejoin:miter;stroke-miterlimit:10.43299961;stroke-dasharray:none;stroke-dashoffset:0;stroke-opacity:1"
         id="path5290" /><path
         d="m 329.54,661.82 v 1.16 c 0,0.87 0.48,1.35 0.92,1.35 0.03,0 0.18,0 0.33,-0.07 -0.12,-0.04 -0.3,-0.17 -0.3,-0.42 0,-0.23 0.16,-0.43 0.43,-0.43 0.29,0 0.44,0.2 0.44,0.44 0,0.37 -0.37,0.69 -0.9,0.69 -0.7,0 -1.55,-0.52 -1.55,-1.57 v -1.15 h -0.78 v -0.3 h 0.78 v -3.22 c 0,-0.45 -0.11,-0.45 -0.77,-0.45 v -0.31 c 0.38,0.01 0.85,0.03 1.13,0.03 0.4,0 0.87,0 1.27,-0.03 v 0.31 h -0.21 c -0.74,0 -0.76,0.11 -0.76,0.47 v 3.2 h 1.14 v 0.3 z"
         font-size-adjust="none"
         font-stretch="normal"
         font-style="normal"
         font-variant="normal"
         font-weight="normal"
         letter-spacing="normal"
         stroke-miterlimit="10.433"
         word-spacing="normal"
         style="font-style:normal;font-variant:normal;font-weight:normal;font-stretch:normal;letter-spacing:normal;word-spacing:normal;text-anchor:start;fill:#000000;fill-opacity:1;fill-rule:evenodd;stroke:#000000;stroke-width:0;stroke-linecap:butt;stroke-linejoin:miter;stroke-miterlimit:10.43299961;stroke-dasharray:none;stroke-dashoffset:0;stroke-opacity:1"
         id="path5292" /><path
         d="m 337.09,663.9 v 0.01 0.01 0.01 0.01 0.01 0.01 0.01 0.01 0.01 0.01 0 0.01 0.01 0.01 0 0.01 0.01 h -0.01 v 0.02 0.01 0.01 l -0.01,0.01 v 0 0.01 l -0.01,0.01 v 0 l -0.01,0.01 h -0.01 l -0.01,0.01 v 0 h -0.01 v 0.01 H 337.01 337 v 0 h -0.01 v 0 h -0.01 -0.01 v 0 l -0.01,0.01 h -0.01 -0.01 v 0 h -0.01 -0.01 -0.01 -0.01 -0.01 -0.01 -0.01 -0.01 c -0.62,-0.64 -1.5,-0.64 -1.81,-0.64 v -0.31 c 0.2,0 0.78,0 1.3,0.26 v -5.14 c 0,-0.36 -0.03,-0.48 -0.93,-0.48 h -0.31 v -0.31 c 0.34,0.03 1.21,0.03 1.61,0.03 0.4,0 1.27,0 1.62,-0.03 v 0.31 h -0.32 c -0.9,0 -0.93,0.11 -0.93,0.48 z"
         font-size-adjust="none"
         font-stretch="normal"
         font-style="normal"
         font-variant="normal"
         font-weight="normal"
         letter-spacing="normal"
         stroke-miterlimit="10.433"
         word-spacing="normal"
         style="font-style:normal;font-variant:normal;font-weight:normal;font-stretch:normal;letter-spacing:normal;word-spacing:normal;text-anchor:start;fill:#000000;fill-opacity:1;fill-rule:evenodd;stroke:#000000;stroke-width:0;stroke-linecap:butt;stroke-linejoin:miter;stroke-miterlimit:10.43299961;stroke-dasharray:none;stroke-dashoffset:0;stroke-opacity:1"
         id="path5294" /><path
         d="m 347.93,659.83 h 0.03 0.03 0.03 0.02 0.01 0.02 0.01 l 0.02,0.01 h 0.01 0.02 0.01 l 0.01,0.01 h 0.02 l 0.01,0.01 h 0.01 l 0.01,0.01 0.01,0.01 h 0.01 l 0.01,0.01 0.01,0.01 0.01,0.01 v 0.01 0 l 0.01,0.01 v 0 0.01 l 0.01,0.01 v 0 0.01 0.01 0 0.01 l 0.01,0.01 v 0.01 0.01 0.01 0.01 c 0,0.19 -0.18,0.19 -0.35,0.19 h -5.4 c -0.17,0 -0.35,0 -0.35,-0.19 0,-0.2 0.18,-0.2 0.35,-0.2 z"
         font-size-adjust="none"
         font-stretch="normal"
         font-style="normal"
         font-variant="normal"
         font-weight="normal"
         letter-spacing="normal"
         stroke-miterlimit="10.433"
         word-spacing="normal"
         style="font-style:normal;font-variant:normal;font-weight:normal;font-stretch:normal;letter-spacing:normal;word-spacing:normal;text-anchor:start;fill:#000000;fill-opacity:1;fill-rule:evenodd;stroke:#000000;stroke-width:0;stroke-linecap:butt;stroke-linejoin:miter;stroke-miterlimit:10.43299961;stroke-dasharray:none;stroke-dashoffset:0;stroke-opacity:1"
         id="path5296" /><path
         d="m 354.21,661.04 0.08,0.03 0.07,0.02 0.08,0.04 0.07,0.03 0.07,0.03 0.06,0.04 0.07,0.04 0.07,0.04 0.06,0.05 0.06,0.05 0.06,0.04 0.05,0.05 0.06,0.05 0.05,0.06 0.05,0.05 0.05,0.06 0.04,0.06 0.04,0.06 0.04,0.06 0.04,0.06 0.04,0.06 0.03,0.07 0.03,0.06 0.02,0.07 0.03,0.07 0.02,0.07 0.02,0.07 0.01,0.07 0.01,0.07 0.01,0.07 0.01,0.07 v 0.08 c 0,0.81 -0.88,1.37 -1.84,1.37 -1,0 -1.76,-0.6 -1.76,-1.35 0,-0.33 0.22,-0.52 0.51,-0.52 0.31,0 0.5,0.22 0.5,0.51 0,0.49 -0.46,0.49 -0.61,0.49 0.31,0.49 0.96,0.62 1.32,0.62 0.41,0 0.96,-0.22 0.96,-1.11 0,-0.12 -0.02,-0.7 -0.28,-1.14 -0.3,-0.47 -0.64,-0.5 -0.89,-0.51 -0.08,-0.01 -0.32,-0.03 -0.38,-0.03 -0.09,-0.01 -0.16,-0.02 -0.16,-0.12 0,-0.11 0.07,-0.11 0.25,-0.11 h 0.43 c 0.82,0 1.19,-0.68 1.19,-1.65 0,-1.35 -0.69,-1.64 -1.13,-1.64 -0.43,0 -1.17,0.17 -1.52,0.76 0.35,-0.05 0.66,0.17 0.66,0.54 0,0.36 -0.27,0.56 -0.56,0.56 -0.24,0 -0.56,-0.14 -0.56,-0.58 0,-0.9 0.93,-1.56 2.01,-1.56 1.22,0 2.13,0.91 2.13,1.92 0,0.81 -0.63,1.59 -1.67,1.8 z"
         font-size-adjust="none"
         font-stretch="normal"
         font-style="normal"
         font-variant="normal"
         font-weight="normal"
         letter-spacing="normal"
         stroke-miterlimit="10.433"
         word-spacing="normal"
         style="font-style:normal;font-variant:normal;font-weight:normal;font-stretch:normal;letter-spacing:normal;word-spacing:normal;text-anchor:start;fill:#000000;fill-opacity:1;fill-rule:evenodd;stroke:#000000;stroke-width:0;stroke-linecap:butt;stroke-linejoin:miter;stroke-miterlimit:10.43299961;stroke-dasharray:none;stroke-dashoffset:0;stroke-opacity:1"
         id="path5298" /><path
         d="m 356.46,658.53 v -0.01 l -0.01,-0.01 v 0 l -0.01,-0.01 v 0 -0.01 h -0.01 v -0.01 l -0.01,-0.01 v 0 0 -0.01 0 0 -0.01 h -0.01 v 0 -0.01 0 0 -0.01 0 0 c 0,-0.05 0.06,-0.13 0.12,-0.13 0.05,0 0.08,0.03 0.36,0.3 0.08,0.07 0.28,0.26 0.36,0.34 0.1,-0.78 0.39,-1.52 1.11,-1.52 0.4,0 0.75,0.23 0.96,0.38 0.14,0.1 0.61,0.49 0.61,0.59 0,0.03 -0.03,0.12 -0.12,0.12 -0.03,0 -0.04,-0.01 -0.13,-0.09 -0.64,-0.63 -1.01,-0.78 -1.29,-0.78 -0.45,0 -0.61,0.52 -0.61,1.29 0,0.06 0.02,0.52 0.05,0.57 0.02,0.03 0.02,0.05 0.22,0.25 0.8,0.8 2.22,2.48 2.22,4.02 0,0.17 0,0.77 -0.59,0.77 l 0.01,-0.21 c 0.34,0 0.34,-0.36 0.34,-0.52 0,-1.66 -1.67,-3.4 -2.15,-3.89 v 0 c 0.02,0.11 0.45,2.31 1.01,3.47 0.27,0.54 0.48,0.94 0.8,0.94 l -0.01,0.21 c -0.83,0 -1.56,-1.63 -1.66,-1.86 -0.48,-1.09 -0.79,-2.25 -0.79,-3.43 z"
         font-size-adjust="none"
         font-stretch="normal"
         font-style="normal"
         font-variant="normal"
         font-weight="normal"
         letter-spacing="normal"
         stroke-miterlimit="10.433"
         word-spacing="normal"
         style="font-style:normal;font-variant:normal;font-weight:normal;font-stretch:normal;letter-spacing:normal;word-spacing:normal;text-anchor:start;fill:#000000;fill-opacity:1;fill-rule:evenodd;stroke:#000000;stroke-width:0;stroke-linecap:butt;stroke-linejoin:miter;stroke-miterlimit:10.43299961;stroke-dasharray:none;stroke-dashoffset:0;stroke-opacity:1"
         id="path5300" /><path
         d="m 369.95,663.44 0.02,0.01 0.01,0.01 h 0.01 l 0.01,0.01 h 0.01 l 0.01,0.01 h 0.01 l 0.01,0.01 v 0 l 0.01,0.01 h 0.01 l 0.01,0.01 v 0 l 0.01,0.01 0.01,0.01 v 0 l 0.01,0.01 v 0.01 h 0.01 v 0.01 l 0.01,0.01 v 0.01 h 0.01 v 0.01 0.01 l 0.01,0.01 v 0.01 0.01 0.01 0.01 0.01 c 0,0.11 -0.08,0.2 -0.2,0.2 -0.05,0 -0.14,-0.04 -0.18,-0.06 l -5.51,-2.59 c -0.17,-0.08 -0.2,-0.15 -0.2,-0.23 0,-0.09 0.06,-0.16 0.2,-0.22 l 5.51,-2.58 c 0.13,-0.07 0.15,-0.07 0.18,-0.07 0.11,0 0.2,0.09 0.2,0.2 0,0.09 -0.04,0.15 -0.21,0.22 l -5.21,2.45 z"
         font-size-adjust="none"
         font-stretch="normal"
         font-style="normal"
         font-variant="normal"
         font-weight="normal"
         letter-spacing="normal"
         stroke-miterlimit="10.433"
         word-spacing="normal"
         style="font-style:normal;font-variant:normal;font-weight:normal;font-stretch:normal;letter-spacing:normal;word-spacing:normal;text-anchor:start;fill:#000000;fill-opacity:1;fill-rule:evenodd;stroke:#000000;stroke-width:0;stroke-linecap:butt;stroke-linejoin:miter;stroke-miterlimit:10.43299961;stroke-dasharray:none;stroke-dashoffset:0;stroke-opacity:1"
         id="path5302" /><path
         d="m 369.79,656.18 h 0.03 0.04 0.03 0.01 0.02 l 0.01,0.01 h 0.02 0.01 0.02 0.01 l 0.01,0.01 h 0.02 l 0.01,0.01 h 0.01 l 0.01,0.01 h 0.01 l 0.02,0.01 v 0.01 l 0.01,0.01 h 0.01 l 0.01,0.01 v 0.01 l 0.01,0.01 v 0 0.01 h 0.01 v 0.01 0.01 0 0.01 l 0.01,0.01 v 0.01 0 0.01 0.01 0.01 0.01 c 0,0.2 -0.21,0.2 -0.36,0.2 h -5.37 c -0.15,0 -0.36,0 -0.36,-0.2 0,-0.2 0.18,-0.2 0.35,-0.2 z"
         font-size-adjust="none"
         font-stretch="normal"
         font-style="normal"
         font-variant="normal"
         font-weight="normal"
         letter-spacing="normal"
         stroke-miterlimit="10.433"
         word-spacing="normal"
         style="font-style:normal;font-variant:normal;font-weight:normal;font-stretch:normal;letter-spacing:normal;word-spacing:normal;text-anchor:start;fill:#000000;fill-opacity:1;fill-rule:evenodd;stroke:#000000;stroke-width:0;stroke-linecap:butt;stroke-linejoin:miter;stroke-miterlimit:10.43299961;stroke-dasharray:none;stroke-dashoffset:0;stroke-opacity:1"
         id="path5304" /><path
         d="m 375.79,661.52 h 0.94 c 0.2,0 0.3,0 0.3,0.19 0,0.11 -0.1,0.11 -0.28,0.11 h -0.88 c 0.36,1.41 0.41,1.61 0.41,1.67 0,0.17 -0.12,0.27 -0.29,0.27 -0.03,0 -0.31,-0.01 -0.4,-0.36 l -0.39,-1.58 h -0.93 c -0.2,0 -0.31,0 -0.31,-0.18 0,-0.12 0.09,-0.12 0.28,-0.12 h 0.88 c -0.72,-2.83 -0.76,-2.99 -0.76,-3.17 0,-0.54 0.38,-0.92 0.92,-0.92 1.02,0 1.59,1.45 1.59,1.53 0,0.1 -0.08,0.1 -0.12,0.1 -0.09,0 -0.1,-0.03 -0.15,-0.14 -0.43,-1.03 -0.96,-1.27 -1.3,-1.27 -0.21,0 -0.31,0.13 -0.31,0.46 0,0.24 0.02,0.31 0.06,0.48 z"
         font-size-adjust="none"
         font-stretch="normal"
         font-style="normal"
         font-variant="normal"
         font-weight="normal"
         letter-spacing="normal"
         stroke-miterlimit="10.433"
         word-spacing="normal"
         style="font-style:normal;font-variant:normal;font-weight:normal;font-stretch:normal;letter-spacing:normal;word-spacing:normal;text-anchor:start;fill:#000000;fill-opacity:1;fill-rule:evenodd;stroke:#000000;stroke-width:0;stroke-linecap:butt;stroke-linejoin:miter;stroke-miterlimit:10.43299961;stroke-dasharray:none;stroke-dashoffset:0;stroke-opacity:1"
         id="path5306" /><path
         d="m 386.83,663.44 0.02,0.01 0.01,0.01 h 0.01 l 0.01,0.01 h 0.01 l 0.01,0.01 h 0.01 l 0.01,0.01 v 0 l 0.01,0.01 h 0.01 l 0.01,0.01 v 0 l 0.01,0.01 0.01,0.01 v 0 l 0.01,0.01 0.01,0.01 v 0 l 0.01,0.01 v 0.01 0.01 h 0.01 v 0.01 0.01 l 0.01,0.01 v 0.01 0.01 0.01 0.01 0.01 c 0,0.11 -0.08,0.2 -0.2,0.2 -0.05,0 -0.14,-0.04 -0.18,-0.06 l -5.51,-2.59 c -0.17,-0.08 -0.2,-0.15 -0.2,-0.23 0,-0.09 0.06,-0.16 0.2,-0.22 l 5.51,-2.58 c 0.13,-0.07 0.15,-0.07 0.18,-0.07 0.11,0 0.2,0.09 0.2,0.2 0,0.09 -0.04,0.15 -0.21,0.22 l -5.21,2.45 z"
         font-size-adjust="none"
         font-stretch="normal"
         font-style="normal"
         font-variant="normal"
         font-weight="normal"
         letter-spacing="normal"
         stroke-miterlimit="10.433"
         word-spacing="normal"
         style="font-style:normal;font-variant:normal;font-weight:normal;font-stretch:normal;letter-spacing:normal;word-spacing:normal;text-anchor:start;fill:#000000;fill-opacity:1;fill-rule:evenodd;stroke:#000000;stroke-width:0;stroke-linecap:butt;stroke-linejoin:miter;stroke-miterlimit:10.43299961;stroke-dasharray:none;stroke-dashoffset:0;stroke-opacity:1"
         id="path5308" /><path
         d="m 386.67,656.18 h 0.03 0.04 0.03 0.01 0.02 l 0.01,0.01 h 0.02 0.01 0.02 0.01 l 0.02,0.01 h 0.01 l 0.01,0.01 h 0.01 l 0.01,0.01 h 0.02 l 0.01,0.01 0.01,0.01 0.01,0.01 v 0 l 0.01,0.01 v 0.01 l 0.01,0.01 v 0 0.01 h 0.01 v 0.01 0.01 0 l 0.01,0.01 v 0.01 0.01 0 0.01 0.01 0.01 0.01 c 0,0.2 -0.21,0.2 -0.36,0.2 h -5.37 c -0.15,0 -0.36,0 -0.36,-0.2 0,-0.2 0.18,-0.2 0.35,-0.2 z"
         font-size-adjust="none"
         font-stretch="normal"
         font-style="normal"
         font-variant="normal"
         font-weight="normal"
         letter-spacing="normal"
         stroke-miterlimit="10.433"
         word-spacing="normal"
         style="font-style:normal;font-variant:normal;font-weight:normal;font-stretch:normal;letter-spacing:normal;word-spacing:normal;text-anchor:start;fill:#000000;fill-opacity:1;fill-rule:evenodd;stroke:#000000;stroke-width:0;stroke-linecap:butt;stroke-linejoin:miter;stroke-miterlimit:10.43299961;stroke-dasharray:none;stroke-dashoffset:0;stroke-opacity:1"
         id="path5310" /><path
         d="m 393.55,663.9 v 0.01 0.01 0.01 0.01 0.01 0.01 0.01 0.01 0.01 0.01 0 0.01 0.01 0.01 0 0.01 l -0.01,0.01 v 0 0.02 0.01 0.01 l -0.01,0.01 v 0 0.01 l -0.01,0.01 h -0.01 v 0.01 h -0.01 l -0.01,0.01 h -0.01 v 0 l -0.01,0.01 v 0 h -0.01 v 0 h -0.01 v 0 h -0.01 -0.01 v 0 l -0.01,0.01 h -0.01 -0.01 -0.01 v 0 h -0.01 -0.01 -0.01 -0.01 -0.01 -0.01 -0.01 c -0.62,-0.64 -1.5,-0.64 -1.82,-0.64 v -0.31 c 0.2,0 0.79,0 1.31,0.26 v -5.14 c 0,-0.36 -0.03,-0.48 -0.93,-0.48 h -0.32 v -0.31 c 0.35,0.03 1.22,0.03 1.62,0.03 0.4,0 1.27,0 1.62,-0.03 v 0.31 h -0.32 c -0.9,0 -0.93,0.11 -0.93,0.48 z"
         font-size-adjust="none"
         font-stretch="normal"
         font-style="normal"
         font-variant="normal"
         font-weight="normal"
         letter-spacing="normal"
         stroke-miterlimit="10.433"
         word-spacing="normal"
         style="font-style:normal;font-variant:normal;font-weight:normal;font-stretch:normal;letter-spacing:normal;word-spacing:normal;text-anchor:start;fill:#000000;fill-opacity:1;fill-rule:evenodd;stroke:#000000;stroke-width:0;stroke-linecap:butt;stroke-linejoin:miter;stroke-miterlimit:10.43299961;stroke-dasharray:none;stroke-dashoffset:0;stroke-opacity:1"
         id="path5312" /></g>  </g>
</svg>
