<svg width="452" height="116" version="1.1" viewBox="0 0 423.74999 108.33091" xmlns="http://www.w3.org/2000/svg" xmlns:ns0="http://www.iki.fi/pav/software/textext/">
<g transform="translate(-88.8 -25.8)">
<g id="content" transform="matrix(2.14 0 0 -2.14 -353 1.53e3)" fill-rule="evenodd" stroke="#000" stroke-miterlimit="10.4" ns0:preamble="C:\\Users\\Daniel\\AppData\\Roaming\\inkscape\\extensions\\default_packages.tex" ns0:text="\\begin{align*}\nu^*(t) = \\begin{cases}\n-\\frac{2}{3\\ell}\\left(1 - \\frac{t}{3\\ell} \\right) &amp; \\text{if } 0 \\leq t \\leq 3\\ell \\\\\n0 &amp; \\text{if } 3\\ell \\leq t \\leq 1 - 3\\ell  \\\\\n-\\frac{2}{3\\ell}\\left(1 - \\frac{1-t}{3\\ell} \\right) &amp; \\text{if } 1-3\\ell \\leq t \\leq 1\n\\end{cases}\n\\end{align*} " xml:space="preserve"><g stroke-width="0"><path d="m214 673 0.01-0.03 0.02-0.04 0.01-0.04 0.02-0.03 0.01-0.04 0.02-0.03 0.02-0.03 0.02-0.03 0.02-0.03 0.02-0.03 0.02-0.03 0.03-0.03 0.02-0.02 0.03-0.03 0.03-0.02 0.03-0.02 0.03-0.02 0.03-0.02 0.03-0.02 0.03-0.02 0.03-0.01 0.04-0.02 0.03-0.01 0.04-0.02 0.03-0.01 0.04-0.01h0.04l0.03-0.01 0.04-0.01h0.12c0.35 0 0.58 0.23 0.74 0.54 0.17 0.36 0.3 0.97 0.3 0.99 0 0.1-0.09 0.1-0.12 0.1-0.1 0-0.11-0.04-0.14-0.18-0.14-0.56-0.33-1.23-0.75-1.23-0.21 0-0.31 0.13-0.31 0.45 0 0.22 0.12 0.69 0.2 1.04l0.28 1.07c0.03 0.15 0.13 0.53 0.17 0.67 0.05 0.23 0.15 0.61 0.15 0.67 0 0.18-0.14 0.27-0.29 0.27-0.05 0-0.31-0.01-0.39-0.35-0.19-0.72-0.63-2.46-0.75-2.99-0.01-0.04-0.41-0.83-1.13-0.83-0.52 0-0.62 0.44-0.62 0.81 0 0.56 0.28 1.34 0.54 2.03 0.12 0.3 0.17 0.43 0.17 0.62 0 0.45-0.32 0.82-0.82 0.82-0.95 0-1.32-1.44-1.32-1.53 0-0.1 0.1-0.1 0.12-0.1 0.1 0 0.11 0.02 0.16 0.18 0.25 0.86 0.63 1.23 1.01 1.23 0.09 0 0.25-0.01 0.25-0.33 0-0.24-0.11-0.52-0.17-0.67-0.37-0.99-0.58-1.6-0.58-2.09 0-0.94 0.69-1.19 1.23-1.19 0.65 0 1.01 0.44 1.18 0.66z"/><path d="m218 678 0.06 0.02 0.05 0.03 0.05 0.02 0.04 0.02 0.05 0.02 0.05 0.02 0.04 0.02 0.04 0.01 0.04 0.02 0.04 0.02 0.03 0.01 0.04 0.02 0.03 0.01 0.04 0.01 0.03 0.02 0.03 0.01 0.03 0.01 0.02 0.01 0.03 0.01 0.03 0.02 0.02 0.01 0.03 0.01 0.02 0.01 0.02 0.01h0.02l0.02 0.01 0.04 0.02 0.04 0.02 0.03 0.01c0.13 0.06 0.2 0.09 0.2 0.22 0 0.12-0.09 0.22-0.22 0.22-0.05 0-0.06 0-0.15-0.06l-0.95-0.64 0.11 1.04c0.01 0.12 0 0.29-0.21 0.29-0.09 0-0.22-0.05-0.22-0.2 0-0.07 0.03-0.28 0.04-0.35 0.01-0.11 0.06-0.61 0.07-0.78l-0.94 0.64c-0.07 0.04-0.09 0.06-0.15 0.06-0.13 0-0.22-0.1-0.22-0.22 0-0.14 0.08-0.18 0.14-0.2l1.06-0.44c-0.57-0.25-0.83-0.35-1.01-0.43-0.13-0.06-0.19-0.09-0.19-0.22 0-0.12 0.09-0.22 0.22-0.22 0.04 0 0.06 0 0.14 0.06l0.95 0.64-0.11-1.12c0-0.16 0.13-0.21 0.22-0.21 0.08 0 0.21 0.05 0.21 0.21 0 0.06-0.02 0.27-0.03 0.34-0.02 0.11-0.06 0.61-0.08 0.78l0.84-0.56c0.18-0.14 0.2-0.14 0.26-0.14 0.13 0 0.22 0.1 0.22 0.22 0 0.14-0.09 0.18-0.15 0.2z"/><path d="m224 670v0.02l-0.01 0.01v0.01l-0.01 0.01v0.01l-0.01 0.01-0.01 0.01v0.01h-0.01v0.01h-0.01v0.01h-0.01v0.01h-0.01v0.01l-0.01 0.01-0.01 0.01h-0.01v0.01h-0.01v0.01l-0.01 0.01h-0.01v0.01l-0.01 0.01-0.01 0.01h-0.01v0.01c-1.25 1.25-1.57 3.13-1.57 4.65 0 1.73 0.38 3.46 1.61 4.7 0.13 0.12 0.13 0.14 0.13 0.17 0 0.07-0.04 0.1-0.1 0.1-0.1 0-1-0.68-1.59-1.94-0.51-1.09-0.63-2.19-0.63-3.03 0-0.77 0.11-1.98 0.66-3.1 0.6-1.22 1.46-1.87 1.56-1.87 0.06 0 0.1 0.03 0.1 0.1z"/><path d="m227 676h0.94c0.2 0 0.3 0 0.3 0.2 0 0.11-0.1 0.11-0.28 0.11h-0.87c0.35 1.41 0.4 1.61 0.4 1.67 0 0.17-0.12 0.27-0.29 0.27-0.03 0-0.3-0.01-0.39-0.36l-0.39-1.58h-0.94c-0.2 0-0.3 0-0.3-0.19 0-0.12 0.08-0.12 0.28-0.12h0.88c-0.72-2.82-0.76-2.99-0.76-3.17 0-0.54 0.38-0.91 0.92-0.91 1.01 0 1.58 1.45 1.58 1.53 0 0.1-0.08 0.1-0.12 0.1-0.09 0-0.1-0.03-0.15-0.14-0.43-1.04-0.95-1.27-1.29-1.27-0.21 0-0.31 0.13-0.31 0.45 0 0.24 0.02 0.31 0.06 0.48z"/><path d="m231 675v0.23l-0.01 0.08v0.17l-0.02 0.17-0.01 0.19-0.02 0.19-0.03 0.19-0.03 0.2-0.04 0.2-0.05 0.21-0.05 0.21-0.06 0.21-0.07 0.21-0.08 0.22-0.05 0.1-0.04 0.11-0.05 0.1-0.05 0.11c-0.6 1.22-1.45 1.87-1.55 1.87-0.06 0-0.1-0.04-0.1-0.1 0-0.03 0-0.05 0.19-0.23 0.97-0.98 1.54-2.56 1.54-4.64 0-1.7-0.37-3.45-1.6-4.7-0.13-0.12-0.13-0.14-0.13-0.17 0-0.06 0.04-0.1 0.1-0.1 0.1 0 0.99 0.68 1.58 1.94 0.51 1.09 0.63 2.2 0.63 3.03z"/><path d="m242 676h0.16l0.02 0.01h0.02l0.02 0.01h0.02l0.01 0.01 0.01 0.01h0.01l0.01 0.01 0.01 0.01 0.01 0.01 0.01 0.01 0.01 0.01v0.01l0.01 0.01v0.02l0.01 0.01v0.05c0 0.2-0.19 0.2-0.33 0.2h-5.97c-0.14 0-0.33 0-0.33-0.2 0-0.19 0.19-0.19 0.34-0.19z"/><path d="m242 674h0.14l0.02 0.01h0.03l0.02 0.01h0.01l0.01 0.01h0.01l0.01 0.01 0.01 0.01h0.01l0.01 0.01 0.01 0.01 0.01 0.01v0.01h0.01v0.01l0.01 0.01v0.02l0.01 0.01v0.06c0 0.2-0.19 0.2-0.34 0.2h-5.95c-0.15 0-0.34 0-0.34-0.2s0.19-0.2 0.33-0.2z"/><path d="m250 691v0.16l0.01 0.1v0.09l0.01 0.1 0.01 0.11 0.02 0.11 0.01 0.12 0.02 0.12 0.03 0.12 0.02 0.12 0.03 0.13 0.04 0.13 0.04 0.14 0.04 0.13 0.05 0.14 0.06 0.14 0.06 0.13 0.06 0.14 0.08 0.14 0.07 0.14 0.09 0.14 0.09 0.14 0.1 0.14 0.1 0.14 0.11 0.13 0.12 0.14 0.13 0.13 0.14 0.13 0.14 0.12 0.15 0.12 0.17 0.12c0.13 0.1 0.14 0.11 0.14 0.29 0 0.23-0.01 0.24-0.26 0.24h-0.16c-2.15-1.15-2.92-3.03-2.92-4.49v-4.27c0-0.26 0.01-0.27 0.28-0.27h0.64c0.27 0 0.28 0.01 0.28 0.27z"/><path d="m250 687v0.16l-0.01 0.01v0.02l-0.01 0.01v0.02l-0.01 0.01h-0.01v0.01l-0.01 0.01h-0.01l-0.01 0.01h-0.04v0.01h-0.81c-0.27 0-0.28-0.01-0.28-0.27v-2.64c0-0.26 0.01-0.27 0.28-0.27h0.64c0.27 0 0.28 0.01 0.28 0.27z"/><path d="m249 666 0.01-0.01v-0.15l0.01-0.01v-0.03l0.01-0.01 0.01-0.01v-0.01h0.01l0.01-0.01 0.01-0.01h0.02l0.01-0.01h0.09l0.01-0.01h0.72c0.27 0 0.28 0.01 0.28 0.27v4.19c0 1.21-0.51 3.23-2.74 4.58 2.25 1.36 2.74 3.41 2.74 4.58v4.19c0 0.26-0.01 0.27-0.28 0.27h-0.64c-0.27 0-0.28-0.01-0.28-0.27v-4.2c0-0.83-0.17-2.9-2.01-4.29-0.11-0.09-0.12-0.1-0.12-0.28s0.01-0.19 0.12-0.27c0.26-0.2 0.95-0.73 1.43-1.73 0.39-0.8 0.58-1.68 0.58-2.57z"/><path d="m250 666v0.16l-0.01 0.01v0.02l-0.01 0.01v0.02l-0.01 0.01h-0.01v0.01h-0.01l-0.01 0.01h-0.01l-0.01 0.01h-0.04l-0.01 0.01h-0.79c-0.27 0-0.28-0.01-0.28-0.27v-2.64c0-0.26 0.01-0.27 0.28-0.27h0.64c0.27 0 0.28 0.01 0.28 0.27z"/><path d="m252 654h0.12l0.01 0.01h0.05l0.01 0.01h0.02v0.01l0.01 0.01h0.01v0.01l0.01 0.01v0.01l0.01 0.01v0.08h0.01v0.08c0 0.18-0.01 0.19-0.05 0.22-0.31 0.23-1.03 0.73-1.5 1.65-0.39 0.75-0.59 1.52-0.59 2.38v4.27c0 0.26-0.01 0.27-0.28 0.27h-0.64c-0.27 0-0.28-0.01-0.28-0.27v-4.27c0-1.47 0.77-3.35 2.92-4.49z"/><path d="m261 689h0.14l0.02 0.01h0.04l0.02 0.01h0.02l0.01 0.01h0.02l0.01 0.01 0.01 0.01h0.01l0.01 0.01v0.01l0.01 0.01 0.01 0.01v0.01l0.01 0.01v0.02l0.01 0.01v0.06c0 0.2-0.18 0.2-0.35 0.2h-5.39c-0.17 0-0.35 0-0.35-0.2s0.18-0.2 0.35-0.2z"/><path d="m268 691h-0.23c-0.02-0.15-0.09-0.56-0.18-0.63-0.06-0.04-0.6-0.04-0.7-0.04h-1.28c0.73 0.65 0.98 0.84 1.39 1.17 0.52 0.41 1 0.84 1 1.5 0 0.84-0.74 1.35-1.63 1.35-0.87 0-1.45-0.6-1.45-1.24 0-0.36 0.29-0.39 0.36-0.39 0.17 0 0.38 0.12 0.38 0.37 0 0.12-0.05 0.37-0.42 0.37 0.22 0.49 0.69 0.64 1.02 0.64 0.7 0 1.07-0.54 1.07-1.1 0-0.61-0.44-1.09-0.66-1.34l-1.69-1.65c-0.06-0.06-0.06-0.08-0.06-0.27h2.88z"/></g><path d="m263 689h7.3" stroke="#000" stroke-width=".398"/><g stroke-width="0"><path d="m265 685h0.11l0.04-0.01 0.05-0.01 0.05-0.01 0.04-0.01 0.05-0.01 0.04-0.02 0.04-0.02 0.04-0.02 0.04-0.02 0.04-0.03 0.04-0.02 0.03-0.03 0.04-0.04 0.03-0.03 0.03-0.04 0.03-0.03 0.02-0.04 0.03-0.05 0.02-0.04 0.02-0.05 0.02-0.05 0.02-0.05 0.02-0.05 0.01-0.06 0.01-0.06 0.01-0.06 0.01-0.06 0.01-0.06v-0.14c0-0.86-0.5-1.12-0.91-1.12-0.28 0-0.89 0.08-1.19 0.49 0.33 0.01 0.41 0.24 0.41 0.39 0 0.22-0.17 0.38-0.38 0.38-0.2 0-0.4-0.12-0.4-0.4 0-0.66 0.73-1.08 1.58-1.08 0.97 0 1.64 0.65 1.64 1.34 0 0.54-0.45 1.09-1.22 1.25 0.74 0.26 1 0.78 1 1.21 0 0.55-0.63 0.96-1.41 0.96s-1.37-0.38-1.37-0.94c0-0.23 0.15-0.36 0.36-0.36 0.22 0 0.36 0.16 0.36 0.35 0 0.2-0.14 0.35-0.36 0.36 0.25 0.31 0.73 0.39 0.99 0.39 0.31 0 0.75-0.16 0.75-0.76 0-0.3-0.09-0.62-0.28-0.83-0.23-0.27-0.42-0.28-0.77-0.3-0.18-0.01-0.19-0.01-0.23-0.02-0.01 0-0.07-0.02-0.07-0.09 0-0.1 0.07-0.1 0.19-0.1z"/><path d="m268 684 0.01-0.04v-0.04l0.01-0.05 0.01-0.04 0.01-0.05 0.02-0.04 0.01-0.05 0.01-0.04 0.02-0.04 0.02-0.05 0.02-0.04 0.02-0.04 0.02-0.05 0.02-0.04 0.02-0.04 0.03-0.04 0.03-0.03 0.03-0.04 0.03-0.03 0.03-0.04 0.03-0.03 0.04-0.02 0.03-0.03 0.04-0.03 0.04-0.02 0.05-0.02 0.04-0.01 0.05-0.02 0.05-0.01 0.05-0.01h0.1c0.23 0 0.48 0.09 0.73 0.25 0.12 0.06 0.48 0.32 0.48 0.41 0 0.04-0.04 0.13-0.11 0.13-0.03 0-0.05 0-0.15-0.11-0.3-0.26-0.62-0.49-0.94-0.49-0.47 0-0.47 0.81-0.47 0.95 0 0.09 0 0.1 0.01 0.23 0.01 0.07 0.01 0.09 0.09 0.16 0.38 0.36 1.71 1.63 1.71 2.84 0 0.1 0 0.6-0.46 0.6l-0.01-0.19c0.16 0 0.24-0.11 0.24-0.36 0-0.09 0-0.7-0.6-1.56-0.35-0.5-0.74-0.88-0.91-1.04 0.13 0.71 0.68 2.96 1.27 2.96l0.01 0.19c-0.58 0-1.05-0.89-1.17-1.1-0.3-0.59-0.46-1.16-0.54-1.51-0.11-0.47-0.11-0.71-0.11-1.05-0.05-0.05-0.44-0.4-0.51-0.46-0.12-0.1-0.12-0.1-0.12-0.15 0-0.04 0.06-0.12 0.12-0.12 0.05 0 0.23 0.17 0.28 0.22z"/><path d="m277 683v0.01l-0.01 0.01v0.03h-0.01v0.01h-0.01v0.01l-0.01 0.01v0.01c-0.46 0.49-1.14 1.29-1.56 2.91-0.23 0.9-0.32 1.93-0.32 2.85 0 2.61 0.63 4.44 1.83 5.73 0.09 0.09 0.09 0.11 0.09 0.13 0 0.1-0.08 0.1-0.12 0.1-0.15 0-0.69-0.6-0.82-0.74-1.02-1.21-1.67-2.99-1.67-5.21 0-1.41 0.25-3.41 1.56-5.09 0.1-0.11 0.75-0.87 0.93-0.87 0.04 0 0.12 0 0.12 0.1z"/><path d="m281 693v0.1l-0.01 0.01v0.07l-0.01 0.01v0.02h-0.01v0.01l-0.01 0.01-0.01 0.01h-0.02v0.01h-0.04v0.01h-0.12c-0.62-0.64-1.5-0.64-1.82-0.64v-0.3c0.2 0 0.79 0 1.31 0.25v-5.14c0-0.36-0.03-0.48-0.93-0.48h-0.32v-0.31c0.35 0.03 1.22 0.03 1.62 0.03s1.26 0 1.61-0.03v0.31h-0.32c-0.89 0-0.92 0.11-0.92 0.48z"/><path d="m292 689h0.14l0.02 0.01h0.04l0.01 0.01h0.03l0.01 0.01h0.01l0.01 0.01 0.01 0.01h0.01l0.01 0.01 0.01 0.01 0.01 0.01v0.01h0.01v0.02h0.01v0.03l0.01 0.01v0.05c0 0.2-0.18 0.2-0.35 0.2h-5.39c-0.17 0-0.35 0-0.35-0.2s0.18-0.2 0.35-0.2z"/><path d="m300 693h0.71c0.13 0 0.22 0 0.22 0.16 0 0.09-0.09 0.09-0.21 0.09h-0.66l0.26 1.03c0.01 0.04 0.02 0.07 0.02 0.1 0 0.13-0.1 0.22-0.24 0.22-0.17 0-0.28-0.11-0.33-0.3-0.05-0.17 0.04 0.16-0.26-1.05h-0.72c-0.13 0-0.22 0-0.22-0.15 0-0.1 0.08-0.1 0.21-0.1h0.66l-0.41-1.64c-0.04-0.17-0.1-0.42-0.1-0.51 0-0.41 0.35-0.66 0.74-0.66 0.78 0 1.22 0.97 1.22 1.06s-0.09 0.09-0.11 0.09c-0.08 0-0.09-0.01-0.15-0.13-0.19-0.44-0.55-0.83-0.93-0.83-0.15 0-0.25 0.09-0.25 0.34 0 0.07 0.03 0.22 0.04 0.29z"/></g><path d="m296 689h7.3" stroke="#000" stroke-width=".398"/><g stroke-width="0"><path d="m298 685h0.1l0.05-0.01 0.04-0.01 0.05-0.01 0.05-0.01 0.04-0.01 0.04-0.02 0.05-0.02 0.04-0.02 0.04-0.02 0.03-0.03 0.04-0.02 0.03-0.03 0.04-0.04 0.03-0.03 0.03-0.04 0.03-0.03 0.03-0.04 0.02-0.05 0.02-0.04 0.03-0.05 0.02-0.05 0.01-0.05 0.02-0.05 0.01-0.06 0.02-0.06 0.01-0.06v-0.06l0.01-0.06v-0.14c0-0.86-0.5-1.12-0.9-1.12-0.28 0-0.9 0.08-1.19 0.49 0.32 0.01 0.4 0.24 0.4 0.39 0 0.22-0.17 0.38-0.38 0.38-0.2 0-0.39-0.12-0.39-0.4 0-0.66 0.72-1.08 1.57-1.08 0.97 0 1.64 0.65 1.64 1.34 0 0.54-0.45 1.09-1.21 1.25 0.73 0.26 1 0.78 1 1.21 0 0.55-0.64 0.96-1.42 0.96-0.77 0-1.37-0.38-1.37-0.94 0-0.23 0.16-0.36 0.37-0.36s0.35 0.16 0.35 0.35c0 0.2-0.14 0.35-0.35 0.36 0.24 0.31 0.72 0.39 0.98 0.39 0.32 0 0.76-0.16 0.76-0.76 0-0.3-0.1-0.62-0.28-0.83-0.23-0.27-0.43-0.28-0.78-0.3-0.17-0.01-0.19-0.01-0.22-0.02-0.02 0-0.07-0.02-0.07-0.09 0-0.1 0.06-0.1 0.18-0.1z"/><path d="m301 684 0.01-0.04 0.01-0.04 0.01-0.05 0.01-0.04 0.01-0.05 0.01-0.04 0.01-0.05 0.02-0.04 0.01-0.04 0.02-0.05 0.02-0.04 0.02-0.04 0.02-0.05 0.02-0.04 0.03-0.04 0.02-0.04 0.03-0.03 0.03-0.04 0.03-0.03 0.03-0.04 0.03-0.03 0.04-0.02 0.04-0.03 0.04-0.03 0.04-0.02 0.04-0.02 0.04-0.01 0.05-0.02 0.05-0.01 0.05-0.01h0.11c0.22 0 0.47 0.09 0.72 0.25 0.12 0.06 0.49 0.32 0.49 0.41 0 0.04-0.05 0.13-0.12 0.13-0.03 0-0.04 0-0.15-0.11-0.3-0.26-0.62-0.49-0.94-0.49-0.47 0-0.47 0.81-0.47 0.95 0 0.09 0 0.1 0.01 0.23 0.01 0.07 0.01 0.09 0.09 0.16 0.39 0.36 1.71 1.63 1.71 2.84 0 0.1 0 0.6-0.46 0.6l-0.01-0.19c0.16 0 0.25-0.11 0.25-0.36 0-0.09 0-0.7-0.61-1.56-0.35-0.5-0.74-0.88-0.91-1.04 0.13 0.71 0.68 2.96 1.27 2.96l0.01 0.19c-0.58 0-1.05-0.89-1.16-1.1-0.31-0.59-0.47-1.16-0.55-1.51-0.1-0.47-0.1-0.71-0.1-1.05-0.05-0.05-0.45-0.4-0.52-0.46-0.11-0.1-0.12-0.1-0.12-0.15 0-0.04 0.06-0.12 0.12-0.12 0.05 0 0.24 0.17 0.29 0.22z"/><path d="m308 689v0.27l-0.01 0.29-0.02 0.29-0.03 0.3-0.04 0.32-0.05 0.32-0.06 0.32-0.08 0.33-0.04 0.17-0.05 0.17-0.05 0.16-0.06 0.17-0.06 0.17-0.07 0.17-0.07 0.17-0.07 0.16-0.08 0.17-0.09 0.17-0.09 0.16-0.09 0.16-0.1 0.17-0.11 0.16-0.12 0.16-0.12 0.16c-0.1 0.12-0.74 0.87-0.92 0.87-0.05 0-0.12-0.02-0.12-0.1 0-0.04 0.02-0.07 0.06-0.1 0.48-0.51 1.12-1.32 1.53-2.9 0.23-0.9 0.32-1.93 0.32-2.85 0-1-0.09-2.02-0.35-2.99-0.38-1.39-0.96-2.18-1.47-2.74-0.09-0.09-0.09-0.11-0.09-0.13 0-0.08 0.07-0.1 0.12-0.1 0.15 0 0.7 0.61 0.82 0.75 1.01 1.2 1.66 2.99 1.66 5.2z"/><path d="m327 691-1.39-0.11v-0.31c0.65 0 0.74-0.06 0.74-0.55v-2.67c0-0.45-0.11-0.45-0.78-0.45v-0.31c0.32 0.01 0.86 0.03 1.09 0.03 0.35 0 0.7-0.02 1.04-0.03v0.31c-0.66 0-0.7 0.05-0.7 0.44z"/><path d="m327 692v0.09l-0.01 0.03v0.02l-0.01 0.03-0.01 0.03-0.01 0.02-0.01 0.02-0.01 0.03-0.02 0.02-0.01 0.02-0.01 0.02-0.02 0.02-0.02 0.02-0.02 0.02-0.01 0.01-0.02 0.02-0.02 0.01-0.02 0.02-0.03 0.01-0.02 0.01-0.02 0.01-0.02 0.01-0.03 0.01-0.02 0.01-0.03 0.01h-0.05l-0.02 0.01h-0.06c-0.3 0-0.52-0.27-0.52-0.53s0.22-0.52 0.52-0.52c0.28 0 0.53 0.2 0.53 0.52z"/><path d="m330 691v1.15c0 0.87 0.48 1.35 0.92 1.35 0.03 0 0.18 0 0.33-0.07-0.12-0.04-0.3-0.17-0.3-0.42 0-0.23 0.16-0.43 0.43-0.43 0.29 0 0.44 0.2 0.44 0.44 0 0.37-0.37 0.7-0.9 0.7-0.7 0-1.55-0.53-1.55-1.58v-1.14h-0.78v-0.31h0.78v-3.22c0-0.45-0.11-0.45-0.77-0.45v-0.31c0.38 0.01 0.85 0.03 1.13 0.03 0.4 0 0.87 0 1.27-0.03v0.31h-0.21c-0.74 0-0.76 0.11-0.76 0.47v3.2h1.14v0.31z"/><path d="m339 689v0.15l-0.01 0.15v0.15l-0.01 0.15-0.01 0.15-0.01 0.14-0.01 0.15-0.02 0.15-0.03 0.14-0.02 0.15-0.04 0.14-0.03 0.15-0.05 0.14-0.05 0.14-0.05 0.14-0.03 0.07-0.03 0.07c-0.46 0.95-1.28 1.11-1.7 1.11-0.6 0-1.32-0.26-1.73-1.18-0.32-0.69-0.37-1.46-0.37-2.26 0-0.74 0.04-1.64 0.45-2.39 0.42-0.81 1.15-1 1.64-1v0.21c-0.39 0-0.98 0.25-1.16 1.21-0.1 0.59-0.1 1.51-0.1 2.09 0 0.64 0 1.29 0.07 1.83 0.19 1.18 0.94 1.27 1.19 1.27 0.33 0 0.99-0.18 1.18-1.16 0.1-0.56 0.1-1.31 0.1-1.94 0-0.74 0-1.42-0.11-2.05-0.15-0.95-0.72-1.25-1.17-1.25v-0.21c0.54 0 1.3 0.2 1.74 1.15 0.32 0.68 0.37 1.46 0.37 2.24z"/><path d="m349 692h0.02l0.01 0.01h0.01l0.01 0.01h0.01l0.01 0.01h0.01l0.01 0.01 0.01 0.01h0.01l0.01 0.01v0.01h0.01l0.01 0.01 0.01 0.01 0.01 0.01 0.01 0.01v0.02l0.01 0.01v0.01l0.01 0.01v0.05c0 0.11-0.08 0.2-0.2 0.2-0.05 0-0.14-0.04-0.18-0.06l-5.51-2.59c-0.17-0.08-0.2-0.15-0.2-0.23 0-0.09 0.06-0.16 0.2-0.22l5.51-2.58c0.13-0.07 0.15-0.07 0.18-0.07 0.11 0 0.2 0.09 0.2 0.2 0 0.09-0.04 0.15-0.21 0.23l-5.21 2.44z"/><path d="m348 685h0.1l0.01 0.01h0.08l0.01 0.01h0.03l0.01 0.01h0.01l0.01 0.01h0.02l0.01 0.01 0.01 0.01 0.01 0.01v0.01l0.01 0.01 0.01 0.01v0.01l0.01 0.01v0.02h0.01v0.06c0 0.2-0.21 0.2-0.36 0.2h-5.37c-0.15 0-0.36 0-0.36-0.2s0.18-0.2 0.35-0.2z"/><path d="m354 690h0.94c0.2 0 0.3 0 0.3 0.2 0 0.11-0.1 0.11-0.28 0.11h-0.88c0.36 1.41 0.41 1.61 0.41 1.66 0 0.17-0.12 0.27-0.29 0.27-0.03 0-0.31-0.01-0.4-0.36l-0.39-1.57h-0.93c-0.2 0-0.3 0-0.3-0.19 0-0.12 0.08-0.12 0.28-0.12h0.87c-0.71-2.82-0.76-2.99-0.76-3.17 0-0.54 0.38-0.91 0.92-0.91 1.02 0 1.59 1.45 1.59 1.53 0 0.09-0.08 0.09-0.12 0.09-0.09 0-0.1-0.03-0.15-0.14-0.43-1.03-0.96-1.27-1.3-1.27-0.21 0-0.31 0.13-0.31 0.46 0 0.24 0.02 0.31 0.06 0.48z"/><path d="m366 692h0.02l0.01 0.01h0.01l0.01 0.01h0.01l0.01 0.01h0.01l0.01 0.01h0.01v0.01h0.01l0.01 0.01 0.01 0.01 0.01 0.01h0.01v0.01l0.01 0.01 0.01 0.01v0.01l0.01 0.01v0.02l0.01 0.01v0.05c0 0.11-0.08 0.2-0.2 0.2-0.05 0-0.14-0.04-0.18-0.06l-5.51-2.59c-0.17-0.08-0.2-0.15-0.2-0.23 0-0.09 0.06-0.16 0.2-0.22l5.51-2.58c0.13-0.07 0.15-0.07 0.18-0.07 0.11 0 0.2 0.09 0.2 0.2 0 0.09-0.04 0.15-0.21 0.23l-5.21 2.44z"/><path d="m365 685h0.1l0.01 0.01h0.08l0.01 0.01h0.03l0.01 0.01h0.01l0.02 0.01h0.01l0.01 0.01 0.01 0.01 0.01 0.01v0.01l0.01 0.01h0.01v0.01l0.01 0.01v0.03h0.01v0.06c0 0.2-0.21 0.2-0.36 0.2h-5.37c-0.15 0-0.36 0-0.36-0.2s0.18-0.2 0.35-0.2z"/><path d="m372 690 0.08 0.03 0.07 0.03 0.07 0.03 0.07 0.03 0.07 0.04 0.07 0.03 0.07 0.04 0.06 0.05 0.07 0.04 0.06 0.05 0.05 0.05 0.06 0.04 0.06 0.06 0.05 0.05 0.05 0.05 0.04 0.06 0.05 0.06 0.04 0.06 0.04 0.06 0.04 0.06 0.03 0.07 0.04 0.06 0.03 0.07 0.02 0.06 0.03 0.07 0.02 0.07 0.01 0.07 0.02 0.07 0.01 0.07 0.01 0.07v0.08l0.01 0.07c0 0.81-0.88 1.37-1.84 1.37-1.01 0-1.76-0.6-1.76-1.35 0-0.33 0.21-0.52 0.51-0.52s0.5 0.22 0.5 0.51c0 0.5-0.46 0.5-0.62 0.5 0.31 0.48 0.97 0.61 1.33 0.61 0.41 0 0.96-0.22 0.96-1.11 0-0.12-0.02-0.7-0.28-1.13-0.3-0.48-0.64-0.51-0.89-0.52-0.08-0.01-0.32-0.03-0.39-0.03-0.08-0.01-0.15-0.02-0.15-0.12 0-0.11 0.07-0.11 0.24-0.11h0.44c0.82 0 1.19-0.67 1.19-1.65 0-1.35-0.69-1.64-1.13-1.64-0.43 0-1.17 0.17-1.53 0.76 0.36-0.05 0.66 0.17 0.66 0.54 0 0.36-0.27 0.56-0.55 0.56-0.24 0-0.56-0.14-0.56-0.57 0-0.91 0.92-1.56 2.01-1.56 1.22 0 2.12 0.9 2.12 1.91 0 0.82-0.62 1.59-1.66 1.8z"/><path d="m374 687v-0.01h-0.01v-0.01l-0.01-0.01-0.01-0.01v-0.01h-0.01v-0.02h-0.01v-0.03c0-0.05 0.06-0.13 0.12-0.13 0.05 0 0.08 0.03 0.36 0.31 0.08 0.07 0.28 0.25 0.36 0.34 0.1-0.79 0.39-1.53 1.11-1.53 0.4 0 0.75 0.23 0.96 0.38 0.14 0.1 0.61 0.49 0.61 0.59 0 0.03-0.03 0.12-0.12 0.12-0.03 0-0.04-0.01-0.13-0.09-0.64-0.63-1.01-0.78-1.3-0.78-0.45 0-0.6 0.52-0.6 1.3 0 0.05 0.02 0.51 0.05 0.56 0.01 0.03 0.01 0.05 0.21 0.25 0.81 0.8 2.23 2.48 2.23 4.02 0 0.17 0 0.78-0.59 0.78l0.01-0.22c0.34 0 0.34-0.36 0.34-0.52 0-1.66-1.68-3.4-2.16-3.89 0.02 0.11 0.45 2.31 1.02 3.48 0.27 0.53 0.48 0.93 0.8 0.93l-0.01 0.22c-0.83 0-1.57-1.64-1.67-1.87-0.47-1.08-0.78-2.24-0.78-3.43z"/><path d="m259 675v0.29l-0.01 0.15v0.15l-0.01 0.15-0.02 0.15-0.01 0.15-0.02 0.14-0.02 0.15-0.03 0.14-0.03 0.15-0.04 0.14-0.04 0.14-0.05 0.14-0.06 0.14-0.03 0.07-0.03 0.07c-0.46 0.95-1.28 1.11-1.69 1.11-0.6 0-1.33-0.25-1.74-1.18-0.32-0.68-0.37-1.46-0.37-2.25 0-0.75 0.04-1.64 0.45-2.4 0.43-0.8 1.16-1 1.64-1v0.22c-0.38 0-0.97 0.25-1.15 1.2-0.11 0.6-0.11 1.51-0.11 2.1 0 0.63 0 1.29 0.08 1.82 0.19 1.19 0.94 1.27 1.18 1.27 0.33 0 0.99-0.17 1.18-1.16 0.1-0.55 0.1-1.31 0.1-1.93 0-0.75 0-1.42-0.11-2.06-0.15-0.94-0.72-1.24-1.17-1.24v-0.22c0.54 0 1.3 0.21 1.74 1.15 0.32 0.69 0.37 1.46 0.37 2.25z"/><path d="m327 676-1.4-0.11v-0.31c0.65 0 0.74-0.06 0.74-0.54v-2.68c0-0.44-0.11-0.44-0.77-0.44v-0.31c0.31 0.01 0.85 0.03 1.09 0.03 0.35 0 0.7-0.02 1.04-0.03v0.31c-0.66 0-0.7 0.05-0.7 0.43z"/><path d="m327 678v0.06l-0.01 0.02v0.03l-0.01 0.03v0.02l-0.01 0.03-0.01 0.02-0.01 0.03-0.02 0.02-0.01 0.02-0.01 0.02-0.02 0.02-0.01 0.02-0.02 0.02-0.02 0.02-0.02 0.02-0.02 0.01-0.02 0.02-0.02 0.01-0.02 0.01-0.02 0.02-0.02 0.01-0.03 0.01-0.02 0.01h-0.03l-0.02 0.01h-0.03l-0.02 0.01h-0.08c-0.31 0-0.53-0.26-0.53-0.52 0-0.27 0.22-0.53 0.53-0.53 0.28 0 0.53 0.21 0.53 0.53z"/><path d="m330 676v1.15c0 0.88 0.48 1.35 0.92 1.35 0.03 0 0.18 0 0.33-0.07-0.12-0.04-0.3-0.17-0.3-0.41 0-0.23 0.15-0.43 0.42-0.43 0.29 0 0.44 0.2 0.44 0.44 0 0.36-0.37 0.69-0.89 0.69-0.7 0-1.55-0.53-1.55-1.58v-1.14h-0.79v-0.31h0.79v-3.22c0-0.44-0.11-0.44-0.78-0.44v-0.31c0.39 0.01 0.86 0.03 1.14 0.03 0.4 0 0.87 0 1.27-0.03v0.31h-0.21c-0.74 0-0.76 0.1-0.76 0.46v3.2h1.13v0.31z"/><path d="m337 675 0.07 0.02 0.08 0.03 0.07 0.03 0.07 0.03 0.07 0.04 0.07 0.04 0.07 0.04 0.06 0.04 0.06 0.04 0.06 0.05 0.06 0.05 0.06 0.05 0.05 0.05 0.05 0.05 0.05 0.06 0.05 0.06 0.05 0.05 0.04 0.06 0.04 0.06 0.04 0.07 0.03 0.06 0.03 0.06 0.03 0.07 0.03 0.07 0.02 0.06 0.02 0.07 0.02 0.07 0.02 0.07 0.01 0.07 0.01 0.08v0.14c0 0.82-0.87 1.37-1.83 1.37-1.01 0-1.77-0.59-1.77-1.35 0-0.32 0.22-0.51 0.51-0.51 0.31 0 0.51 0.21 0.51 0.5 0 0.5-0.47 0.5-0.62 0.5 0.31 0.49 0.97 0.62 1.33 0.62 0.41 0 0.96-0.22 0.96-1.12 0-0.12-0.02-0.69-0.28-1.13-0.3-0.48-0.64-0.51-0.89-0.52-0.08-0.01-0.32-0.03-0.39-0.03-0.08-0.01-0.15-0.02-0.15-0.12s0.07-0.1 0.24-0.1h0.44c0.82 0 1.19-0.68 1.19-1.65 0-1.35-0.69-1.64-1.13-1.64-0.43 0-1.18 0.17-1.53 0.75 0.35-0.05 0.66 0.17 0.66 0.55 0 0.36-0.27 0.55-0.56 0.55-0.24 0-0.56-0.13-0.56-0.57 0-0.9 0.93-1.56 2.02-1.56 1.22 0 2.12 0.9 2.12 1.92 0 0.81-0.63 1.59-1.66 1.8z"/><path d="m339 673v-0.01l-0.01-0.01-0.01-0.01-0.01-0.01v-0.01l-0.01-0.01v-0.02h-0.01v-0.02c0-0.05 0.06-0.13 0.12-0.13 0.05 0 0.08 0.03 0.36 0.31 0.08 0.07 0.28 0.26 0.36 0.34 0.1-0.79 0.39-1.52 1.12-1.52 0.4 0 0.74 0.23 0.96 0.38 0.13 0.1 0.6 0.48 0.6 0.58 0 0.03-0.03 0.12-0.12 0.12-0.03 0-0.04-0.01-0.13-0.09-0.63-0.62-1-0.77-1.29-0.77-0.45 0-0.61 0.51-0.61 1.29 0 0.06 0.02 0.51 0.05 0.56 0.02 0.04 0.02 0.06 0.22 0.25 0.81 0.81 2.22 2.49 2.22 4.03 0 0.16 0 0.77-0.59 0.77l0.01-0.22c0.34 0 0.34-0.35 0.34-0.51 0-1.66-1.67-3.4-2.15-3.9 0.02 0.11 0.45 2.32 1.02 3.48 0.27 0.54 0.47 0.93 0.79 0.93l-0.01 0.22c-0.82 0-1.56-1.64-1.66-1.87-0.48-1.08-0.79-2.24-0.79-3.42z"/><path d="m353 678 0.02 0.01h0.01l0.01 0.01h0.01l0.01 0.01h0.01l0.01 0.01h0.01l0.01 0.01 0.01 0.01h0.01l0.01 0.01v0.01h0.01l0.01 0.01 0.01 0.01v0.01l0.01 0.01 0.01 0.01v0.03l0.01 0.01v0.05c0 0.11-0.08 0.2-0.2 0.2-0.05 0-0.14-0.04-0.18-0.06l-5.51-2.6c-0.17-0.08-0.2-0.14-0.2-0.22 0-0.09 0.06-0.16 0.2-0.22l5.51-2.59c0.13-0.07 0.15-0.07 0.18-0.07 0.11 0 0.2 0.09 0.2 0.2 0 0.09-0.04 0.15-0.21 0.23l-5.21 2.45z"/><path d="m353 671h0.16l0.01 0.01h0.05l0.01 0.01h0.01l0.01 0.01h0.02l0.01 0.01 0.01 0.01h0.01l0.01 0.01v0.01l0.01 0.01 0.01 0.01v0.01h0.01v0.03l0.01 0.01v0.06c0 0.19-0.21 0.19-0.36 0.19h-5.37c-0.15 0-0.36 0-0.36-0.19 0-0.2 0.18-0.2 0.35-0.2z"/><path d="m359 676h0.94c0.2 0 0.3 0 0.3 0.2 0 0.11-0.1 0.11-0.28 0.11h-0.88c0.36 1.41 0.41 1.61 0.41 1.67 0 0.17-0.12 0.27-0.29 0.27-0.03 0-0.31-0.01-0.4-0.36l-0.39-1.58h-0.93c-0.2 0-0.3 0-0.3-0.19 0-0.12 0.08-0.12 0.28-0.12h0.87c-0.71-2.82-0.75-2.99-0.75-3.17 0-0.53 0.37-0.91 0.91-0.91 1.02 0 1.59 1.45 1.59 1.53 0 0.1-0.08 0.1-0.12 0.1-0.09 0-0.1-0.03-0.15-0.14-0.43-1.03-0.96-1.27-1.3-1.27-0.21 0-0.31 0.13-0.31 0.45 0 0.24 0.02 0.31 0.06 0.48z"/><path d="m370 678 0.02 0.01h0.01l0.01 0.01h0.01l0.01 0.01h0.01l0.01 0.01h0.01l0.01 0.01 0.01 0.01h0.01l0.01 0.01v0.01h0.01l0.01 0.01 0.01 0.01v0.01l0.01 0.01 0.01 0.01v0.02l0.01 0.01v0.06c0 0.11-0.08 0.2-0.2 0.2-0.05 0-0.14-0.04-0.18-0.06l-5.51-2.6c-0.17-0.08-0.2-0.14-0.2-0.22 0-0.09 0.06-0.16 0.2-0.22l5.51-2.59c0.13-0.07 0.15-0.07 0.18-0.07 0.11 0 0.2 0.09 0.2 0.2 0 0.09-0.04 0.15-0.21 0.23l-5.21 2.45z"/><path d="m370 671h0.15l0.02 0.01h0.04l0.01 0.01h0.01l0.02 0.01h0.01l0.01 0.01 0.01 0.01h0.01l0.01 0.01 0.01 0.01v0.01l0.01 0.01v0.01h0.01v0.02l0.01 0.01v0.07c0 0.19-0.21 0.19-0.35 0.19h-5.38c-0.15 0-0.36 0-0.36-0.19 0-0.2 0.18-0.2 0.35-0.2z"/><path d="m376 678v0.15l-0.01 0.01v0.03l-0.01 0.01v0.01h-0.01v0.01l-0.01 0.01h-0.01l-0.01 0.01h-0.02l-0.01 0.01h-0.14c-0.62-0.63-1.49-0.63-1.81-0.63v-0.31c0.2 0 0.78 0 1.3 0.26v-5.15c0-0.35-0.03-0.47-0.92-0.47h-0.32v-0.31c0.35 0.03 1.21 0.03 1.61 0.03s1.27 0 1.62-0.03v0.31h-0.32c-0.9 0-0.93 0.1-0.93 0.47z"/><path d="m387 674h0.09l0.02 0.01h0.07l0.01 0.01h0.03l0.01 0.01h0.02l0.01 0.01h0.01l0.01 0.01 0.01 0.01 0.01 0.01 0.01 0.01v0.01h0.01v0.01l0.01 0.01v0.02l0.01 0.01v0.05l0.01 0.01c0 0.2-0.19 0.2-0.35 0.2h-5.4c-0.17 0-0.35 0-0.35-0.2s0.18-0.2 0.35-0.2z"/><path d="m394 675 0.07 0.02 0.08 0.03 0.07 0.03 0.07 0.03 0.07 0.04 0.07 0.04 0.07 0.04 0.06 0.04 0.06 0.04 0.07 0.05 0.05 0.05 0.06 0.05 0.05 0.05 0.06 0.05 0.05 0.06 0.04 0.06 0.05 0.05 0.04 0.06 0.04 0.06 0.04 0.07 0.03 0.06 0.04 0.06 0.03 0.07 0.02 0.07 0.03 0.06 0.02 0.07 0.01 0.07 0.02 0.07 0.01 0.07 0.01 0.08v0.14c0 0.82-0.87 1.37-1.83 1.37-1.01 0-1.77-0.59-1.77-1.35 0-0.32 0.22-0.51 0.51-0.51 0.31 0 0.51 0.21 0.51 0.5 0 0.5-0.47 0.5-0.62 0.5 0.31 0.49 0.97 0.62 1.33 0.62 0.41 0 0.96-0.22 0.96-1.12 0-0.12-0.02-0.69-0.28-1.13-0.3-0.48-0.64-0.51-0.89-0.52-0.08-0.01-0.32-0.03-0.39-0.03-0.08-0.01-0.15-0.02-0.15-0.12s0.07-0.1 0.24-0.1h0.44c0.82 0 1.19-0.68 1.19-1.65 0-1.35-0.69-1.64-1.13-1.64-0.43 0-1.18 0.17-1.53 0.75 0.35-0.05 0.66 0.17 0.66 0.55 0 0.36-0.27 0.55-0.56 0.55-0.23 0-0.55-0.13-0.55-0.57 0-0.9 0.92-1.56 2.01-1.56 1.22 0 2.12 0.9 2.12 1.92 0 0.81-0.62 1.59-1.66 1.8z"/><path d="m396 673h-0.01v-0.02h-0.01v-0.01h-0.01v-0.01l-0.01-0.01v-0.01l-0.01-0.01v-0.03c0-0.05 0.06-0.13 0.12-0.13 0.05 0 0.08 0.03 0.36 0.31 0.08 0.07 0.27 0.26 0.36 0.34 0.09-0.79 0.38-1.52 1.11-1.52 0.4 0 0.75 0.23 0.96 0.38 0.14 0.1 0.61 0.48 0.61 0.58 0 0.03-0.03 0.12-0.12 0.12-0.03 0-0.04-0.01-0.13-0.09-0.64-0.62-1.01-0.77-1.3-0.77-0.45 0-0.61 0.51-0.61 1.29 0 0.06 0.02 0.51 0.05 0.56 0.02 0.04 0.02 0.06 0.22 0.25 0.81 0.81 2.23 2.49 2.23 4.03 0 0.16 0 0.77-0.59 0.77l0.01-0.22c0.34 0 0.34-0.35 0.34-0.51 0-1.66-1.68-3.4-2.16-3.9 0.02 0.11 0.45 2.32 1.02 3.48 0.27 0.54 0.48 0.93 0.8 0.93l-0.01 0.22c-0.83 0-1.57-1.64-1.67-1.87-0.48-1.08-0.79-2.24-0.79-3.42z"/><path d="m261 660h0.16l0.01 0.01h0.05l0.01 0.01h0.01l0.01 0.01h0.02l0.01 0.01 0.01 0.01h0.01l0.01 0.01v0.01l0.01 0.01 0.01 0.01v0.01h0.01v0.03l0.01 0.01v0.06c0 0.19-0.18 0.19-0.35 0.19h-5.39c-0.17 0-0.35 0-0.35-0.19 0-0.2 0.18-0.2 0.35-0.2z"/><path d="m268 663h-0.23c-0.02-0.15-0.09-0.56-0.18-0.63-0.06-0.04-0.6-0.04-0.7-0.04h-1.28c0.73 0.64 0.98 0.84 1.39 1.16 0.52 0.42 1 0.85 1 1.51 0 0.84-0.74 1.35-1.63 1.35-0.87 0-1.46-0.6-1.46-1.24 0-0.36 0.3-0.39 0.37-0.39 0.17 0 0.38 0.12 0.38 0.37 0 0.12-0.05 0.36-0.42 0.36 0.22 0.5 0.69 0.65 1.02 0.65 0.7 0 1.07-0.54 1.07-1.1 0-0.61-0.44-1.09-0.66-1.34l-1.69-1.65c-0.07-0.07-0.07-0.08-0.07-0.27h2.89z"/></g><path d="m263 660h7.3" stroke="#000" stroke-width=".398"/><g stroke-width="0"><path d="m265 656h0.06l0.05-0.01h0.04l0.05-0.01 0.05-0.01 0.04-0.01 0.05-0.01 0.04-0.02 0.04-0.02 0.04-0.02 0.04-0.02 0.04-0.03 0.04-0.03 0.03-0.03 0.04-0.03 0.03-0.03 0.03-0.04 0.03-0.04 0.02-0.04 0.03-0.04 0.02-0.04 0.02-0.05 0.02-0.05 0.02-0.05 0.02-0.06 0.01-0.05 0.01-0.06 0.01-0.06 0.01-0.06 0.01-0.07v-0.13c0-0.86-0.5-1.12-0.91-1.12-0.28 0-0.89 0.08-1.19 0.49 0.33 0.01 0.41 0.24 0.41 0.39 0 0.22-0.17 0.38-0.38 0.38-0.2 0-0.4-0.12-0.4-0.41 0-0.65 0.73-1.07 1.58-1.07 0.97 0 1.64 0.64 1.64 1.34 0 0.54-0.45 1.08-1.22 1.24 0.74 0.27 1 0.79 1 1.21 0 0.55-0.63 0.96-1.41 0.96s-1.37-0.37-1.37-0.93c0-0.24 0.15-0.37 0.36-0.37 0.22 0 0.36 0.16 0.36 0.36s-0.14 0.35-0.36 0.36c0.25 0.31 0.73 0.38 0.99 0.38 0.31 0 0.75-0.15 0.75-0.76 0-0.29-0.09-0.61-0.28-0.82-0.23-0.27-0.42-0.28-0.77-0.3-0.18-0.02-0.19-0.02-0.23-0.02-0.01 0-0.07-0.02-0.07-0.09 0-0.1 0.07-0.1 0.19-0.1z"/><path d="m268 655 0.01-0.04v-0.05l0.01-0.04 0.01-0.05 0.01-0.04 0.02-0.04 0.01-0.05 0.01-0.04 0.02-0.05 0.02-0.04 0.02-0.04 0.02-0.05 0.02-0.04 0.02-0.04 0.02-0.04 0.03-0.04 0.03-0.04 0.03-0.03 0.03-0.04 0.03-0.03 0.03-0.03 0.04-0.03 0.03-0.02 0.04-0.03 0.04-0.02 0.05-0.02 0.04-0.02 0.05-0.01 0.05-0.01 0.05-0.01 0.05-0.01h0.05c0.23 0 0.48 0.09 0.73 0.25 0.12 0.07 0.48 0.33 0.48 0.41 0 0.04-0.04 0.14-0.11 0.14-0.03 0-0.05 0-0.15-0.11-0.3-0.26-0.62-0.49-0.94-0.49-0.47 0-0.47 0.81-0.47 0.94 0 0.09 0 0.11 0.01 0.24 0.01 0.07 0.01 0.08 0.09 0.16 0.38 0.36 1.71 1.63 1.71 2.84 0 0.1 0 0.6-0.46 0.6l-0.01-0.19c0.16 0 0.24-0.11 0.24-0.36 0-0.09 0-0.71-0.6-1.56-0.35-0.5-0.74-0.88-0.91-1.04 0.13 0.71 0.68 2.96 1.27 2.96l0.01 0.19c-0.58 0-1.05-0.9-1.17-1.1-0.3-0.6-0.46-1.17-0.54-1.51-0.11-0.47-0.11-0.71-0.11-1.05-0.05-0.05-0.44-0.41-0.51-0.46-0.12-0.1-0.12-0.11-0.12-0.15 0-0.05 0.06-0.12 0.12-0.12 0.05 0 0.23 0.17 0.28 0.22z"/><path d="m277 654v0.01l-0.01 0.01v0.02l-0.01 0.01v0.01h-0.01v0.01l-0.01 0.01v0.01c-0.46 0.48-1.14 1.29-1.56 2.91-0.23 0.9-0.32 1.93-0.32 2.85 0 2.61 0.63 4.44 1.83 5.73 0.09 0.09 0.09 0.11 0.09 0.13 0 0.1-0.08 0.1-0.12 0.1-0.15 0-0.69-0.6-0.82-0.75-1.02-1.2-1.67-2.99-1.67-5.2 0-1.41 0.25-3.41 1.56-5.09 0.1-0.12 0.75-0.87 0.93-0.87 0.04 0 0.12 0 0.12 0.1z"/><path d="m281 664v0.1h-0.01v0.08l-0.01 0.01v0.01l-0.01 0.01v0.01h-0.01v0.01h-0.01l-0.01 0.01h-0.01l-0.01 0.01h-0.05v0.01h-0.1c-0.62-0.64-1.5-0.64-1.82-0.64v-0.31c0.2 0 0.79 0 1.31 0.26v-5.14c0-0.36-0.03-0.48-0.93-0.48h-0.32v-0.31c0.35 0.03 1.22 0.03 1.62 0.03s1.26 0 1.61-0.03v0.31h-0.32c-0.89 0-0.92 0.11-0.92 0.48z"/><path d="m292 660h0.16l0.01 0.01h0.04l0.02 0.01h0.01l0.01 0.01h0.01l0.01 0.01 0.01 0.01h0.01l0.01 0.01 0.01 0.01 0.01 0.01v0.01h0.01v0.01l0.01 0.01v0.03h0.01v0.06c0 0.19-0.18 0.19-0.35 0.19h-5.39c-0.17 0-0.35 0-0.35-0.19 0-0.2 0.18-0.2 0.35-0.2z"/><path d="m298 666v0.1l-0.01 0.01v0.03l-0.01 0.01-0.01 0.01v0.01h-0.01l-0.01 0.01h-0.02l-0.01 0.01h-0.13c-0.45-0.44-1.08-0.44-1.37-0.44v-0.25c0.17 0 0.63 0 1.01 0.19v-3.55c0-0.22 0-0.31-0.7-0.31h-0.26v-0.25c0.13 0 0.98 0.02 1.24 0.02 0.22 0 1.1-0.02 1.25-0.02v0.25h-0.26c-0.7 0-0.7 0.09-0.7 0.31z"/><path d="m305 663h0.14l0.01 0.01h0.02l0.01 0.01h0.01l0.01 0.01h0.01l0.01 0.01h0.01l0.01 0.01 0.01 0.01v0.01h0.01v0.02h0.01v0.02h0.01v0.05c0 0.18-0.16 0.18-0.28 0.18h-4.17c-0.11 0-0.28 0-0.28-0.17s0.16-0.17 0.28-0.17z"/><path d="m308 664h0.71c0.13 0 0.22 0 0.22 0.15 0 0.1-0.09 0.1-0.21 0.1h-0.66l0.26 1.03c0.01 0.04 0.02 0.07 0.02 0.1 0 0.12-0.1 0.22-0.24 0.22-0.17 0-0.28-0.12-0.33-0.3-0.05-0.17 0.04 0.16-0.26-1.05h-0.72c-0.13 0-0.22 0-0.22-0.15 0-0.1 0.08-0.1 0.21-0.1h0.66l-0.41-1.64c-0.04-0.17-0.1-0.42-0.1-0.51 0-0.41 0.35-0.66 0.74-0.66 0.78 0 1.22 0.97 1.22 1.06s-0.09 0.09-0.11 0.09c-0.09 0-0.09-0.01-0.15-0.13-0.19-0.44-0.55-0.83-0.94-0.83-0.14 0-0.24 0.09-0.24 0.34 0 0.07 0.03 0.22 0.04 0.29z"/></g><path d="m296 660h13.2" stroke="#000" stroke-width=".398"/><g stroke-width="0"><path d="m301 656h0.05l0.05-0.01h0.05l0.04-0.01 0.05-0.01 0.05-0.01 0.04-0.01 0.04-0.02 0.05-0.02 0.04-0.02 0.04-0.02 0.03-0.03 0.04-0.03 0.03-0.03 0.04-0.03 0.03-0.03 0.03-0.04 0.03-0.04 0.03-0.04 0.02-0.04 0.02-0.04 0.03-0.05 0.02-0.05 0.01-0.05 0.02-0.06 0.01-0.05 0.02-0.06 0.01-0.06v-0.06l0.01-0.07v-0.13c0-0.86-0.5-1.12-0.91-1.12-0.28 0-0.89 0.08-1.18 0.49 0.33 0.01 0.4 0.24 0.4 0.39 0 0.22-0.17 0.38-0.38 0.38-0.2 0-0.39-0.12-0.39-0.41 0-0.65 0.72-1.07 1.57-1.07 0.97 0 1.64 0.64 1.64 1.34 0 0.54-0.45 1.08-1.22 1.24 0.74 0.27 1 0.79 1 1.21 0 0.55-0.63 0.96-1.41 0.96-0.77 0-1.37-0.37-1.37-0.93 0-0.24 0.16-0.37 0.37-0.37s0.35 0.16 0.35 0.36-0.14 0.35-0.35 0.36c0.24 0.31 0.72 0.38 0.98 0.38 0.32 0 0.76-0.15 0.76-0.76 0-0.29-0.1-0.61-0.28-0.82-0.23-0.27-0.43-0.28-0.78-0.3-0.17-0.02-0.19-0.02-0.22-0.02-0.02 0-0.07-0.02-0.07-0.09 0-0.1 0.06-0.1 0.18-0.1z"/><path d="m304 655 0.01-0.04 0.01-0.05 0.01-0.04 0.01-0.05 0.01-0.04 0.01-0.04 0.01-0.05 0.02-0.04 0.01-0.05 0.02-0.04 0.02-0.04 0.02-0.05 0.02-0.04 0.02-0.04 0.03-0.04 0.02-0.04 0.03-0.04 0.03-0.03 0.03-0.04 0.03-0.03 0.03-0.03 0.04-0.03 0.04-0.02 0.04-0.03 0.04-0.02 0.04-0.02 0.04-0.02 0.05-0.01 0.05-0.01 0.05-0.01 0.05-0.01h0.06c0.22 0 0.47 0.09 0.72 0.25 0.12 0.07 0.49 0.33 0.49 0.41 0 0.04-0.05 0.14-0.11 0.14-0.04 0-0.05 0-0.16-0.11-0.3-0.26-0.62-0.49-0.94-0.49-0.47 0-0.47 0.81-0.47 0.94 0 0.09 0 0.11 0.01 0.24 0.01 0.07 0.01 0.08 0.09 0.16 0.39 0.36 1.71 1.63 1.71 2.84 0 0.1 0 0.6-0.46 0.6l-0.01-0.19c0.16 0 0.25-0.11 0.25-0.36 0-0.09 0-0.71-0.61-1.56-0.35-0.5-0.74-0.88-0.9-1.04 0.12 0.71 0.67 2.96 1.26 2.96l0.01 0.19c-0.58 0-1.05-0.9-1.16-1.1-0.31-0.6-0.47-1.17-0.55-1.51-0.1-0.47-0.1-0.71-0.1-1.05-0.05-0.05-0.45-0.41-0.52-0.46-0.11-0.1-0.12-0.11-0.12-0.15 0-0.05 0.06-0.12 0.12-0.12 0.05 0 0.24 0.17 0.29 0.22z"/><path d="m314 660v0.27l-0.01 0.28-0.02 0.3-0.03 0.3-0.04 0.32-0.05 0.32-0.06 0.32-0.08 0.33-0.04 0.17-0.05 0.16-0.05 0.17-0.06 0.17-0.06 0.17-0.06 0.17-0.07 0.16-0.08 0.17-0.08 0.17-0.08 0.16-0.1 0.17-0.09 0.16-0.1 0.17-0.11 0.16-0.11 0.16-0.12 0.16c-0.1 0.11-0.75 0.87-0.93 0.87-0.05 0-0.12-0.02-0.12-0.1 0-0.04 0.02-0.07 0.06-0.1 0.48-0.52 1.13-1.32 1.54-2.9 0.23-0.9 0.31-1.93 0.31-2.85 0-1-0.08-2.02-0.34-2.99-0.38-1.39-0.97-2.19-1.48-2.74-0.09-0.09-0.09-0.11-0.09-0.13 0-0.08 0.07-0.1 0.12-0.1 0.15 0 0.7 0.61 0.82 0.74 1.01 1.21 1.66 2.99 1.66 5.21z"/><path d="m327 662-1.39-0.11v-0.3c0.65 0 0.74-0.06 0.74-0.55v-2.67c0-0.45-0.11-0.45-0.78-0.45v-0.31c0.32 0.01 0.86 0.03 1.09 0.03 0.35 0 0.7-0.02 1.04-0.03v0.31c-0.66 0-0.7 0.05-0.7 0.44z"/><path d="m327 664v0.09l-0.01 0.02v0.03l-0.01 0.03-0.01 0.02-0.01 0.03-0.01 0.02-0.01 0.02-0.02 0.03-0.01 0.02-0.01 0.02-0.02 0.02-0.02 0.02-0.02 0.01-0.01 0.02-0.02 0.02-0.02 0.01-0.02 0.02-0.03 0.01-0.02 0.01-0.02 0.01-0.02 0.01-0.03 0.01-0.02 0.01h-0.03l-0.02 0.01h-0.03l-0.02 0.01h-0.06c-0.3 0-0.52-0.27-0.52-0.53 0-0.27 0.22-0.52 0.52-0.52 0.28 0 0.53 0.2 0.53 0.52z"/><path d="m330 662v1.16c0 0.87 0.48 1.35 0.92 1.35 0.03 0 0.18 0 0.33-0.07-0.12-0.04-0.3-0.17-0.3-0.42 0-0.23 0.16-0.43 0.43-0.43 0.29 0 0.44 0.2 0.44 0.44 0 0.37-0.37 0.69-0.9 0.69-0.7 0-1.55-0.52-1.55-1.57v-1.15h-0.78v-0.3h0.78v-3.22c0-0.45-0.11-0.45-0.77-0.45v-0.31c0.38 0.01 0.85 0.03 1.13 0.03 0.4 0 0.87 0 1.27-0.03v0.31h-0.21c-0.74 0-0.76 0.11-0.76 0.47v3.2h1.14v0.3z"/><path d="m337 664v0.15h-0.01v0.04l-0.01 0.01v0.01l-0.01 0.01-0.01 0.01h-0.01l-0.01 0.01h-0.01v0.01h-0.05l-0.01 0.01h-0.1c-0.62-0.64-1.5-0.64-1.81-0.64v-0.31c0.2 0 0.78 0 1.3 0.26v-5.14c0-0.36-0.03-0.48-0.93-0.48h-0.31v-0.31c0.34 0.03 1.21 0.03 1.61 0.03s1.27 0 1.62-0.03v0.31h-0.32c-0.9 0-0.93 0.11-0.93 0.48z"/><path d="m348 660h0.15l0.02 0.01h0.04l0.01 0.01h0.02l0.01 0.01h0.01l0.01 0.01 0.01 0.01h0.01l0.01 0.01 0.01 0.01 0.01 0.01v0.01l0.01 0.01v0.01l0.01 0.01v0.03l0.01 0.01v0.04c0 0.19-0.18 0.19-0.35 0.19h-5.4c-0.17 0-0.35 0-0.35-0.19 0-0.2 0.18-0.2 0.35-0.2z"/><path d="m354 661 0.08 0.03 0.07 0.02 0.08 0.04 0.07 0.03 0.07 0.03 0.06 0.04 0.07 0.04 0.07 0.04 0.06 0.05 0.06 0.05 0.06 0.04 0.05 0.05 0.06 0.05 0.05 0.06 0.05 0.05 0.05 0.06 0.04 0.06 0.04 0.06 0.04 0.06 0.04 0.06 0.04 0.06 0.03 0.07 0.03 0.06 0.02 0.07 0.03 0.07 0.02 0.07 0.02 0.07 0.01 0.07 0.01 0.07 0.01 0.07 0.01 0.07v0.08c0 0.81-0.88 1.37-1.84 1.37-1 0-1.76-0.6-1.76-1.35 0-0.33 0.22-0.52 0.51-0.52 0.31 0 0.5 0.22 0.5 0.51 0 0.49-0.46 0.49-0.61 0.49 0.31 0.49 0.96 0.62 1.32 0.62 0.41 0 0.96-0.22 0.96-1.11 0-0.12-0.02-0.7-0.28-1.14-0.3-0.47-0.64-0.5-0.89-0.51-0.08-0.01-0.32-0.03-0.38-0.03-0.09-0.01-0.16-0.02-0.16-0.12 0-0.11 0.07-0.11 0.25-0.11h0.43c0.82 0 1.19-0.68 1.19-1.65 0-1.35-0.69-1.64-1.13-1.64-0.43 0-1.17 0.17-1.52 0.76 0.35-0.05 0.66 0.17 0.66 0.54 0 0.36-0.27 0.56-0.56 0.56-0.24 0-0.56-0.14-0.56-0.58 0-0.9 0.93-1.56 2.01-1.56 1.22 0 2.13 0.91 2.13 1.92 0 0.81-0.63 1.59-1.67 1.8z"/><path d="m356 659v-0.01l-0.01-0.01-0.01-0.01v-0.01h-0.01v-0.01l-0.01-0.01v-0.02h-0.01v-0.02c0-0.05 0.06-0.13 0.12-0.13 0.05 0 0.08 0.03 0.36 0.3 0.08 0.07 0.28 0.26 0.36 0.34 0.1-0.78 0.39-1.52 1.11-1.52 0.4 0 0.75 0.23 0.96 0.38 0.14 0.1 0.61 0.49 0.61 0.59 0 0.03-0.03 0.12-0.12 0.12-0.03 0-0.04-0.01-0.13-0.09-0.64-0.63-1.01-0.78-1.29-0.78-0.45 0-0.61 0.52-0.61 1.29 0 0.06 0.02 0.52 0.05 0.57 0.02 0.03 0.02 0.05 0.22 0.25 0.8 0.8 2.22 2.48 2.22 4.02 0 0.17 0 0.77-0.59 0.77l0.01-0.21c0.34 0 0.34-0.36 0.34-0.52 0-1.66-1.67-3.4-2.15-3.89 0.02 0.11 0.45 2.31 1.01 3.47 0.27 0.54 0.48 0.94 0.8 0.94l-0.01 0.21c-0.83 0-1.56-1.63-1.66-1.86-0.48-1.09-0.79-2.25-0.79-3.43z"/><path d="m370 663 0.02 0.01 0.01 0.01h0.01l0.01 0.01h0.01l0.01 0.01h0.01l0.01 0.01 0.01 0.01h0.01l0.01 0.01 0.01 0.01 0.01 0.01 0.01 0.01v0.01h0.01v0.01l0.01 0.01v0.01h0.01v0.02l0.01 0.01v0.05c0 0.11-0.08 0.2-0.2 0.2-0.05 0-0.14-0.04-0.18-0.06l-5.51-2.59c-0.17-0.08-0.2-0.15-0.2-0.23 0-0.09 0.06-0.16 0.2-0.22l5.51-2.58c0.13-0.07 0.15-0.07 0.18-0.07 0.11 0 0.2 0.09 0.2 0.2 0 0.09-0.04 0.15-0.21 0.22l-5.21 2.45z"/><path d="m370 656h0.13l0.01 0.01h0.06l0.01 0.01h0.02l0.01 0.01h0.01l0.01 0.01h0.01l0.02 0.01v0.01l0.01 0.01h0.01l0.01 0.01v0.01l0.01 0.01v0.01h0.01v0.03l0.01 0.01v0.05c0 0.2-0.21 0.2-0.36 0.2h-5.37c-0.15 0-0.36 0-0.36-0.2s0.18-0.2 0.35-0.2z"/><path d="m376 662h0.94c0.2 0 0.3 0 0.3 0.19 0 0.11-0.1 0.11-0.28 0.11h-0.88c0.36 1.41 0.41 1.61 0.41 1.67 0 0.17-0.12 0.27-0.29 0.27-0.03 0-0.31-0.01-0.4-0.36l-0.39-1.58h-0.93c-0.2 0-0.31 0-0.31-0.18 0-0.12 0.09-0.12 0.28-0.12h0.88c-0.72-2.83-0.76-2.99-0.76-3.17 0-0.54 0.38-0.92 0.92-0.92 1.02 0 1.59 1.45 1.59 1.53 0 0.1-0.08 0.1-0.12 0.1-0.09 0-0.1-0.03-0.15-0.14-0.43-1.03-0.96-1.27-1.3-1.27-0.21 0-0.31 0.13-0.31 0.46 0 0.24 0.02 0.31 0.06 0.48z"/><path d="m387 663 0.02 0.01 0.01 0.01h0.01l0.01 0.01h0.01l0.01 0.01h0.01l0.01 0.01 0.01 0.01h0.01l0.01 0.01 0.01 0.01 0.01 0.01 0.01 0.01 0.01 0.01 0.01 0.01v0.02h0.01v0.02l0.01 0.01v0.05c0 0.11-0.08 0.2-0.2 0.2-0.05 0-0.14-0.04-0.18-0.06l-5.51-2.59c-0.17-0.08-0.2-0.15-0.2-0.23 0-0.09 0.06-0.16 0.2-0.22l5.51-2.58c0.13-0.07 0.15-0.07 0.18-0.07 0.11 0 0.2 0.09 0.2 0.2 0 0.09-0.04 0.15-0.21 0.22l-5.21 2.45z"/><path d="m387 656h0.13l0.01 0.01h0.06l0.02 0.01h0.01l0.01 0.01h0.01l0.01 0.01h0.02l0.01 0.01 0.01 0.01 0.01 0.01 0.01 0.01v0.01l0.01 0.01v0.01h0.01v0.02l0.01 0.01v0.06c0 0.2-0.21 0.2-0.36 0.2h-5.37c-0.15 0-0.36 0-0.36-0.2s0.18-0.2 0.35-0.2z"/><path d="m394 664v0.14l-0.01 0.01v0.04l-0.01 0.01v0.01l-0.01 0.01h-0.01v0.01h-0.01l-0.01 0.01h-0.01l-0.01 0.01h-0.04l-0.01 0.01h-0.1c-0.62-0.64-1.5-0.64-1.82-0.64v-0.31c0.2 0 0.79 0 1.31 0.26v-5.14c0-0.36-0.03-0.48-0.93-0.48h-0.32v-0.31c0.35 0.03 1.22 0.03 1.62 0.03s1.27 0 1.62-0.03v0.31h-0.32c-0.9 0-0.93 0.11-0.93 0.48z"/></g></g>
</g>
</svg>
