<svg width="600" height="400" version="1.1" viewBox="0 0 562.49999 375" xmlns="http://www.w3.org/2000/svg" xmlns:ns0="http://www.iki.fi/pav/software/textext/">
<defs>
<marker id="d" overflow="visible" orient="auto">
<path transform="scale(.3) translate(-2.3)" d="m8.72 4.03l-10.9-4.02 10.9-4.02c-1.75 2.37-1.74 5.62-6e-7 8.04z" fill-rule="evenodd" stroke="#000" stroke-linejoin="round" stroke-width=".625"/>
</marker>
<marker id="Arrow2Sstart" overflow="visible" orient="auto">
<path transform="scale(.3) translate(-2.3)" d="m8.72 4.03l-10.9-4.02 10.9-4.02c-1.75 2.37-1.74 5.62-6e-7 8.04z" fill-rule="evenodd" stroke="#000" stroke-linejoin="round" stroke-width=".625"/>
</marker>
<marker id="Arrow2Send" overflow="visible" orient="auto">
<path transform="scale(.3) rotate(180) translate(-2.3)" d="m8.72 4.03l-10.9-4.02 10.9-4.02c-1.75 2.37-1.74 5.62-6e-7 8.04z" fill-rule="evenodd" stroke="#000" stroke-linejoin="round" stroke-width=".625"/>
</marker>
<marker id="f" overflow="visible" orient="auto">
<path transform="matrix(.3 0 0 .3 -.69 0)" d="m8.72 4.03-10.9-4.02 10.9-4.02c-1.75 2.37-1.74 5.62-6e-7 8.04z" fill-rule="evenodd" stroke="#000" stroke-linejoin="round" stroke-width=".625"/>
</marker>
<marker id="h" overflow="visible" orient="auto">
<path transform="matrix(-.3 0 0 -.3 .69 0)" d="m8.72 4.03-10.9-4.02 10.9-4.02c-1.75 2.37-1.74 5.62-6e-7 8.04z" fill-rule="evenodd" stroke="#000" stroke-linejoin="round" stroke-width=".625"/>
</marker>
<marker id="e" overflow="visible" orient="auto">
<path transform="matrix(.3 0 0 .3 -.69 0)" d="m8.72 4.03-10.9-4.02 10.9-4.02c-1.75 2.37-1.74 5.62-6e-7 8.04z" fill-rule="evenodd" stroke="#000" stroke-linejoin="round" stroke-width=".625"/>
</marker>
<marker id="g" overflow="visible" orient="auto">
<path transform="matrix(-.3 0 0 -.3 .69 0)" d="m8.72 4.03-10.9-4.02 10.9-4.02c-1.75 2.37-1.74 5.62-6e-7 8.04z" fill-rule="evenodd" stroke="#000" stroke-linejoin="round" stroke-width=".625"/>
</marker>
<marker id="b" overflow="visible" orient="auto">
<path transform="matrix(.3 0 0 .3 -.69 0)" d="m8.72 4.03-10.9-4.02 10.9-4.02c-1.75 2.37-1.74 5.62-6e-7 8.04z" fill-rule="evenodd" stroke="#000" stroke-linejoin="round" stroke-width=".625"/>
</marker>
<marker id="a" overflow="visible" orient="auto">
<path transform="matrix(.3 0 0 .3 -.69 0)" d="m8.72 4.03-10.9-4.02 10.9-4.02c-1.75 2.37-1.74 5.62-6e-7 8.04z" fill-rule="evenodd" stroke="#000" stroke-linejoin="round" stroke-width=".625"/>
</marker>
<marker id="c" overflow="visible" orient="auto">
<path transform="matrix(.3 0 0 .3 -.69 0)" d="m8.72 4.03-10.9-4.02 10.9-4.02c-1.75 2.37-1.74 5.62-6e-7 8.04z" fill-rule="evenodd" stroke="#000" stroke-linejoin="round" stroke-width=".625"/>
</marker>
</defs>
<g transform="translate(-25.5 90.2)">
<g stroke-width="1.44px" style="font-feature-settings:normal;font-variant-caps:normal;font-variant-ligatures:normal;font-variant-numeric:normal" aria-label="Optimal Control Direct Method Examples">
<path d="m98.4-51.5q-6.7 0-10.7-4.42-4.02-4.42-4.02-11.5 0-7.6 4.11-12.1 4.11-4.53 11.2-4.53 6.53 0 10.5 4.39 4 4.39 4 11.5 0 7.71-4.09 12.2-4.09 4.48-10.9 4.48zm0.264-29.2q-4.97 0-8.06 3.58-3.1 3.58-3.1 9.4t3.01 9.38q3.03 3.54 7.89 3.54 5.19 0 8.17-3.38t2.99-9.47q0-6.24-2.9-9.65t-8-3.41z" style=""/>
<path d="m123-55.3h-0.0879v13.6h-3.6v-32.8h3.6v3.96h0.0879q2.66-4.48 7.78-4.48 4.35 0 6.79 3.03 2.44 3.01 2.44 8.09 0 5.65-2.75 9.05-2.75 3.38-7.51 3.38-4.37 0-6.75-3.78zm-0.0879-9.07v3.14q0 2.79 1.8 4.75 1.82 1.93 4.61 1.93 3.27 0 5.12-2.5 1.87-2.5 1.87-6.97 0-3.76-1.74-5.89t-4.7-2.13q-3.14 0-5.05 2.2-1.91 2.18-1.91 5.47z" style=""/>
<path d="m156-52.2q-1.27 0.703-3.36 0.703-5.91 0-5.91-6.59v-13.3h-3.87v-3.08h3.87v-5.49l3.6-1.16v6.66h5.67v3.08h-5.67v12.7q0 2.26 0.769 3.23 0.769 0.967 2.55 0.967 1.36 0 2.35-0.747z" style=""/>
<path d="m163-80.2q-0.967 0-1.65-0.659t-0.681-1.67 0.681-1.67q0.681-0.681 1.65-0.681 0.989 0 1.67 0.681 0.703 0.659 0.703 1.67 0 0.967-0.703 1.65-0.681 0.681-1.67 0.681zm1.76 28.2h-3.6v-22.5h3.6z" style=""/>
<path d="m204-52h-3.6v-12.9q0-3.74-1.16-5.41-1.14-1.67-3.87-1.67-2.31 0-3.93 2.11-1.6 2.11-1.6 5.05v12.8h-3.6v-13.4q0-6.64-5.12-6.64-2.37 0-3.91 2-1.54 1.98-1.54 5.16v12.8h-3.6v-22.5h3.6v3.56h0.0879q2.4-4.09 6.99-4.09 2.31 0 4.02 1.3 1.71 1.27 2.35 3.36 2.5-4.66 7.47-4.66 7.43 0 7.43 9.16z" style=""/>
<path d="m227-52h-3.6v-3.52h-0.0879q-2.35 4.04-6.92 4.04-3.36 0-5.27-1.78-1.89-1.78-1.89-4.72 0-6.31 7.43-7.34l6.75-0.945q0-5.73-4.64-5.73-4.06 0-7.34 2.77v-3.69q3.32-2.11 7.65-2.11 7.93 0 7.93 8.39zm-3.6-11.4-5.43 0.747q-2.5 0.352-3.78 1.25-1.27 0.879-1.27 3.14 0 1.65 1.16 2.7 1.19 1.03 3.14 1.03 2.68 0 4.42-1.87 1.76-1.89 1.76-4.77z" style=""/>
<path d="m237-52h-3.6v-33.3h3.6z" style=""/>
<path d="m279-53.3q-3.49 1.85-8.7 1.85-6.72 0-10.8-4.33t-4.04-11.4q0-7.56 4.55-12.2t11.5-4.66q4.48 0 7.43 1.3v3.93q-3.38-1.89-7.47-1.89-5.43 0-8.81 3.63-3.36 3.63-3.36 9.69 0 5.76 3.14 9.18 3.16 3.41 8.28 3.41 4.75 0 8.22-2.11z" style=""/>
<path d="m294-51.5q-4.99 0-7.98-3.14-2.97-3.16-2.97-8.37 0-5.67 3.1-8.85 3.1-3.19 8.37-3.19 5.03 0 7.84 3.1 2.83 3.1 2.83 8.59 0 5.38-3.05 8.64-3.03 3.23-8.15 3.23zm0.264-20.5q-3.47 0-5.49 2.37-2.02 2.35-2.02 6.5 0 4 2.04 6.31 2.04 2.31 5.47 2.31 3.49 0 5.36-2.26 1.89-2.26 1.89-6.44 0-4.22-1.89-6.5-1.87-2.29-5.36-2.29z" style=""/>
<path d="m330-52h-3.6v-12.8q0-7.16-5.23-7.16-2.7 0-4.48 2.04-1.76 2.02-1.76 5.12v12.8h-3.6v-22.5h3.6v3.74h0.0879q2.55-4.26 7.38-4.26 3.69 0 5.65 2.4 1.96 2.37 1.96 6.88z" style=""/>
<path d="m347-52.2q-1.27 0.703-3.36 0.703-5.91 0-5.91-6.59v-13.3h-3.87v-3.08h3.87v-5.49l3.6-1.16v6.66h5.67v3.08h-5.67v12.7q0 2.26 0.769 3.23 0.769 0.967 2.55 0.967 1.36 0 2.35-0.747z" style=""/>
<path d="m363-70.9q-0.945-0.725-2.72-0.725-2.31 0-3.87 2.18-1.54 2.18-1.54 5.93v11.5h-3.6v-22.5h3.6v4.64h0.0879q0.769-2.37 2.35-3.69 1.58-1.34 3.54-1.34 1.41 0 2.15 0.308z" style=""/>
<path d="m377-51.5q-4.99 0-7.98-3.14-2.97-3.16-2.97-8.37 0-5.67 3.1-8.85 3.1-3.19 8.37-3.19 5.03 0 7.84 3.1 2.83 3.1 2.83 8.59 0 5.38-3.05 8.64-3.03 3.23-8.15 3.23zm0.264-20.5q-3.47 0-5.49 2.37-2.02 2.35-2.02 6.5 0 4 2.04 6.31 2.04 2.31 5.47 2.31 3.49 0 5.36-2.26 1.89-2.26 1.89-6.44 0-4.22-1.89-6.5-1.87-2.29-5.36-2.29z" style=""/>
<path d="m397-52h-3.6v-33.3h3.6z" style=""/>
<path d="m417-52v-31.5h8.7q16.7 0 16.7 15.4 0 7.29-4.64 11.7-4.61 4.42-12.4 4.42zm3.69-28.2v24.8h4.7q6.2 0 9.65-3.32 3.45-3.32 3.45-9.4 0-12.1-12.9-12.1z" style=""/>
<path d="m450-80.2q-0.967 0-1.65-0.659-0.681-0.659-0.681-1.67t0.681-1.67q0.681-0.681 1.65-0.681 0.989 0 1.67 0.681 0.703 0.659 0.703 1.67 0 0.967-0.703 1.65-0.681 0.681-1.67 0.681zm1.76 28.2h-3.6v-22.5h3.6z" style=""/>
<path d="m471-70.9q-0.945-0.725-2.72-0.725-2.31 0-3.87 2.18-1.54 2.18-1.54 5.93v11.5h-3.6v-22.5h3.6v4.64h0.0879q0.769-2.37 2.35-3.69 1.58-1.34 3.54-1.34 1.41 0 2.15 0.308z" style=""/>
<path d="m493-62.3h-15.9q0.0879 3.76 2.02 5.8 1.93 2.04 5.32 2.04 3.8 0 6.99-2.5v3.38q-2.97 2.15-7.84 2.15-4.77 0-7.49-3.05-2.72-3.08-2.72-8.64 0-5.25 2.97-8.55 2.99-3.32 7.4-3.32t6.83 2.86q2.42 2.86 2.42 7.93zm-3.69-3.05q-0.022-3.12-1.52-4.86-1.47-1.74-4.11-1.74-2.55 0-4.33 1.82-1.78 1.82-2.2 4.77z" style=""/>
<path d="m514-53q-2.59 1.56-6.15 1.56-4.81 0-7.78-3.12-2.94-3.14-2.94-8.13 0-5.56 3.19-8.92 3.19-3.38 8.5-3.38 2.97 0 5.23 1.1v3.69q-2.5-1.76-5.36-1.76-3.45 0-5.67 2.48-2.2 2.46-2.2 6.48 0 3.96 2.07 6.24 2.09 2.29 5.58 2.29 2.94 0 5.54-1.96z" style=""/>
<path d="m530-52.2q-1.27 0.703-3.36 0.703-5.91 0-5.91-6.59v-13.3h-3.87v-3.08h3.87v-5.49l3.6-1.16v6.66h5.67v3.08h-5.67v12.7q0 2.26 0.769 3.23 0.769 0.967 2.55 0.967 1.36 0 2.35-0.747z" style=""/>
<path d="m165 4.25h-3.67v-21.1q0-2.5 0.308-6.13h-0.0879q-0.527 2.13-0.945 3.05l-10.8 24.2h-1.8l-10.7-24q-0.461-1.05-0.945-3.23h-0.0879q0.176 1.89 0.176 6.17v21.1h-3.56v-31.5h4.88l9.67 22q1.12 2.53 1.45 3.78h0.132q0.945-2.59 1.52-3.87l9.87-21.9h4.61z" style=""/>
<path d="m191-6.1h-15.9q0.0879 3.76 2.02 5.8 1.93 2.04 5.32 2.04 3.8 0 6.99-2.5v3.38q-2.97 2.15-7.84 2.15-4.77 0-7.49-3.05-2.72-3.08-2.72-8.64 0-5.25 2.97-8.55 2.99-3.32 7.4-3.32t6.83 2.86q2.42 2.86 2.42 7.93zm-3.69-3.05q-0.022-3.12-1.52-4.86-1.47-1.74-4.11-1.74-2.55 0-4.33 1.82-1.78 1.82-2.2 4.77z" style=""/>
<path d="m207 4.03q-1.27 0.703-3.36 0.703-5.91 0-5.91-6.59v-13.3h-3.87v-3.08h3.87v-5.49l3.6-1.16v6.66h5.67v3.08h-5.67v12.7q0 2.26 0.769 3.23 0.769 0.967 2.55 0.967 1.36 0 2.35-0.747z" style=""/>
<path d="m230 4.25h-3.6v-13q0-7.03-5.23-7.03-2.64 0-4.44 2.04-1.8 2.02-1.8 5.21v12.7h-3.6v-33.3h3.6v14.5h0.0879q2.59-4.26 7.38-4.26 7.6 0 7.6 9.16z" style=""/>
<path d="m247 4.78q-4.99 0-7.98-3.14-2.97-3.16-2.97-8.37 0-5.67 3.1-8.85 3.1-3.19 8.37-3.19 5.03 0 7.84 3.1 2.83 3.1 2.83 8.59 0 5.38-3.05 8.64-3.03 3.23-8.15 3.23zm0.264-20.5q-3.47 0-5.49 2.37-2.02 2.35-2.02 6.5 0 4 2.04 6.31 2.04 2.31 5.47 2.31 3.49 0 5.36-2.26 1.89-2.26 1.89-6.44 0-4.22-1.89-6.5-1.87-2.29-5.36-2.29z" style=""/>
<path d="m283 4.25h-3.6v-3.82h-0.0879q-2.5 4.35-7.73 4.35-4.24 0-6.79-3.01-2.53-3.03-2.53-8.24 0-5.58 2.81-8.94 2.81-3.36 7.49-3.36 4.64 0 6.75 3.65h0.0879v-13.9h3.6zm-3.6-10.2v-3.32q0-2.72-1.8-4.61-1.8-1.89-4.57-1.89-3.3 0-5.19 2.42-1.89 2.42-1.89 6.68 0 3.89 1.8 6.15 1.82 2.24 4.88 2.24 3.01 0 4.88-2.18 1.89-2.18 1.89-5.49z" style=""/>
<path d="m320 4.25h-16.7v-31.5h16v3.34h-12.3v10.5h11.4v3.32h-11.4v11h13z" style=""/>
<path d="m342-18.2-7.56 11.4 7.43 11.1h-4.2l-4.42-7.29q-0.417-0.681-0.989-1.71h-0.0879q-0.11 0.198-1.03 1.71l-4.5 7.29h-4.15l7.67-11-7.34-11.5h4.2l4.35 7.69q0.483 0.857 0.945 1.76h0.0879l5.62-9.45z" style=""/>
<path d="m362 4.25h-3.6v-3.52h-0.0879q-2.35 4.04-6.92 4.04-3.36 0-5.27-1.78-1.89-1.78-1.89-4.72 0-6.31 7.43-7.34l6.75-0.945q0-5.73-4.64-5.73-4.06 0-7.34 2.77v-3.69q3.32-2.11 7.65-2.11 7.93 0 7.93 8.39zm-3.6-11.4-5.43 0.747q-2.5 0.352-3.78 1.25-1.27 0.879-1.27 3.14 0 1.65 1.16 2.7 1.19 1.03 3.14 1.03 2.68 0 4.42-1.87 1.76-1.89 1.76-4.77z" style=""/>
<path d="m401 4.25h-3.6v-12.9q0-3.74-1.16-5.41-1.14-1.67-3.87-1.67-2.31 0-3.93 2.11-1.6 2.11-1.6 5.05v12.8h-3.6v-13.4q0-6.64-5.12-6.64-2.37 0-3.91 2-1.54 1.98-1.54 5.16v12.8h-3.6v-22.5h3.6v3.56h0.0879q2.4-4.09 6.99-4.09 2.31 0 4.02 1.3 1.71 1.27 2.35 3.36 2.5-4.66 7.47-4.66 7.43 0 7.43 9.16z" style=""/>
<path d="m411 0.999h-0.0879v13.6h-3.6v-32.8h3.6v3.96h0.0879q2.66-4.48 7.78-4.48 4.35 0 6.79 3.03 2.44 3.01 2.44 8.09 0 5.65-2.75 9.05-2.75 3.38-7.51 3.38-4.37 0-6.75-3.78zm-0.0879-9.07v3.14q0 2.79 1.8 4.75 1.82 1.93 4.61 1.93 3.27 0 5.12-2.5 1.87-2.5 1.87-6.97 0-3.76-1.74-5.89t-4.7-2.13q-3.14 0-5.05 2.2-1.91 2.18-1.91 5.47z" style=""/>
<path d="m438 4.25h-3.6v-33.3h3.6z" style=""/>
<path d="m463-6.1h-15.9q0.0879 3.76 2.02 5.8t5.32 2.04q3.8 0 6.99-2.5v3.38q-2.97 2.15-7.84 2.15-4.77 0-7.49-3.05-2.72-3.08-2.72-8.64 0-5.25 2.97-8.55 2.99-3.32 7.4-3.32 4.42 0 6.83 2.86t2.42 7.93zm-3.69-3.05q-0.022-3.12-1.52-4.86-1.47-1.74-4.11-1.74-2.55 0-4.33 1.82-1.78 1.82-2.2 4.77z" style=""/>
<path d="m467 3.44v-3.87q2.94 2.18 6.48 2.18 4.75 0 4.75-3.16 0-0.901-0.417-1.52-0.396-0.637-1.1-1.12-0.681-0.483-1.63-0.857-0.923-0.396-2-0.813-1.49-0.593-2.64-1.19-1.12-0.615-1.89-1.36-0.747-0.769-1.14-1.74-0.374-0.967-0.374-2.26 0-1.58 0.725-2.79 0.725-1.23 1.93-2.04 1.21-0.835 2.75-1.25 1.56-0.417 3.21-0.417 2.92 0 5.23 1.01v3.65q-2.48-1.63-5.71-1.63-1.01 0-1.82 0.242-0.813 0.22-1.41 0.637-0.571 0.417-0.901 1.01-0.308 0.571-0.308 1.27 0 0.879 0.308 1.47 0.33 0.593 0.945 1.05 0.615 0.461 1.49 0.835 0.879 0.374 2 0.813 1.49 0.571 2.68 1.19 1.19 0.593 2.02 1.36 0.835 0.747 1.27 1.74 0.461 0.989 0.461 2.35 0 1.67-0.747 2.9-0.725 1.23-1.96 2.04t-2.83 1.21q-1.6 0.396-3.36 0.396-3.47 0-6.02-1.34z" style=""/>
</g>
<g transform="translate(1.31)">
<g transform="matrix(1.17 0 0 1.17 -22.3 -173)">
<g fill="none" stroke="#000" stroke-width="1.41">
<path d="m51.4 182v154h139" marker-end="url(#Arrow2Send)" marker-start="url(#Arrow2Sstart)"/>
<path d="m72.4 330v11.9"/>
<path d="m93.3 330v11.9"/>
<path d="m114 330v11.9"/>
<path d="m135 330v11.9"/>
<path d="m156 330v11.9"/>
<path d="m177 330v11.9"/>
</g>
<g fill-rule="evenodd" stroke="#000" stroke-miterlimit="10.4" stroke-width="0">
<g id="content" transform="matrix(1.5 0 0 -1.5 -177 1.41e3)" ns0:preamble="C:\\Users\\Daniel\\AppData\\Roaming\\inkscape\\extensions\\default_packages.tex" ns0:text="$t_0$" xml:space="preserve"><path d="m151 711h0.93c0.2 0 0.3 0 0.3 0.2 0 0.11-0.1 0.11-0.28 0.11h-0.87c0.36 1.41 0.41 1.61 0.41 1.66 0 0.17-0.13 0.27-0.29 0.27-0.03 0-0.31-0.01-0.4-0.35l-0.39-1.58h-0.94c-0.2 0-0.3 0-0.3-0.19 0-0.12 0.08-0.12 0.28-0.12h0.88c-0.72-2.82-0.76-2.99-0.76-3.17 0-0.54 0.38-0.91 0.92-0.91 1.01 0 1.58 1.45 1.58 1.53 0 0.1-0.08 0.1-0.12 0.1-0.09 0-0.1-0.04-0.15-0.14-0.42-1.04-0.95-1.28-1.29-1.28-0.21 0-0.31 0.13-0.31 0.46 0 0.24 0.02 0.31 0.06 0.48z"/><path d="m156 708v0.14l-0.01 0.14v0.13l-0.01 0.12-0.01 0.13-0.02 0.12-0.02 0.11-0.02 0.11-0.02 0.11-0.03 0.11-0.04 0.1-0.03 0.1-0.05 0.1-0.04 0.09-0.06 0.1-0.03 0.04-0.02 0.05c-0.22 0.32-0.66 0.6-1.21 0.6v-0.2c0.37 0 0.74-0.23 0.86-0.63 0.11-0.37 0.12-0.87 0.12-1.48 0-0.52 0-1.03-0.09-1.47-0.14-0.63-0.62-0.78-0.89-0.78-0.33 0-0.75 0.18-0.89 0.75-0.1 0.42-0.1 0.98-0.1 1.5 0 0.51 0 1.04 0.1 1.42 0.15 0.55 0.6 0.69 0.89 0.69v0.2c-1.63 0-1.63-1.9-1.63-2.4s0-2.36 1.63-2.36c1.62 0 1.62 1.86 1.62 2.36z"/></g>
<g transform="matrix(1.5 0 0 -1.5 -156 1.41e3)" ns0:preamble="C:\\Users\\Daniel\\AppData\\Roaming\\inkscape\\extensions\\default_packages.tex" ns0:text="$t_1$" xml:space="preserve"><path d="m151 711h0.93c0.2 0 0.3 0 0.3 0.2 0 0.11-0.1 0.11-0.28 0.11h-0.87c0.36 1.41 0.41 1.61 0.41 1.66 0 0.17-0.13 0.27-0.29 0.27-0.03 0-0.31-0.01-0.4-0.35l-0.39-1.58h-0.94c-0.2 0-0.3 0-0.3-0.19 0-0.12 0.08-0.12 0.28-0.12h0.88c-0.72-2.82-0.76-2.99-0.76-3.17 0-0.54 0.38-0.91 0.92-0.91 1.01 0 1.58 1.45 1.58 1.53 0 0.1-0.08 0.1-0.12 0.1-0.09 0-0.1-0.04-0.15-0.14-0.42-1.04-0.95-1.28-1.29-1.28-0.21 0-0.31 0.13-0.31 0.46 0 0.24 0.02 0.31 0.06 0.48z"/><path d="m155 710v0.12h-0.01v0.03h-0.01v0.02h-0.01v0.01h-0.02l-0.01 0.01h-0.04v0.01h-0.11c-0.45-0.44-1.08-0.45-1.37-0.45v-0.25c0.17 0 0.63 0 1.02 0.2v-3.55c0-0.23 0-0.32-0.7-0.32h-0.27v-0.25c0.13 0.01 0.99 0.03 1.25 0.03 0.21 0 1.09-0.02 1.25-0.03v0.25h-0.27c-0.7 0-0.7 0.09-0.7 0.32z"/></g>
<g transform="matrix(1.5 0 0 -1.5 -135 1.41e3)" ns0:preamble="C:\\Users\\Daniel\\AppData\\Roaming\\inkscape\\extensions\\default_packages.tex" ns0:text="$t_2$" xml:space="preserve"><path d="m151 711h0.93c0.2 0 0.3 0 0.3 0.2 0 0.11-0.1 0.11-0.28 0.11h-0.87c0.36 1.41 0.41 1.61 0.41 1.66 0 0.17-0.13 0.27-0.29 0.27-0.03 0-0.31-0.01-0.4-0.35l-0.39-1.58h-0.94c-0.2 0-0.3 0-0.3-0.19 0-0.12 0.08-0.12 0.28-0.12h0.88c-0.72-2.82-0.76-2.99-0.76-3.17 0-0.54 0.38-0.91 0.92-0.91 1.01 0 1.58 1.45 1.58 1.53 0 0.1-0.08 0.1-0.12 0.1-0.09 0-0.1-0.04-0.15-0.14-0.42-1.04-0.95-1.28-1.29-1.28-0.21 0-0.31 0.13-0.31 0.46 0 0.24 0.02 0.31 0.06 0.48z"/><path d="m156 707h-0.24c-0.02-0.16-0.09-0.57-0.18-0.64-0.05-0.04-0.59-0.04-0.69-0.04h-1.29c0.74 0.65 0.98 0.84 1.4 1.17 0.52 0.41 1 0.84 1 1.5 0 0.84-0.74 1.36-1.63 1.36-0.87 0-1.46-0.61-1.46-1.25 0-0.35 0.3-0.39 0.37-0.39 0.17 0 0.37 0.12 0.37 0.37 0 0.13-0.05 0.37-0.41 0.37 0.22 0.5 0.69 0.65 1.02 0.65 0.7 0 1.06-0.54 1.06-1.11 0-0.6-0.43-1.08-0.65-1.33l-1.69-1.66c-0.07-0.06-0.07-0.07-0.07-0.27h2.88z"/></g>
<g transform="matrix(1.5 0 0 -1.5 -114 1.41e3)" ns0:preamble="C:\\Users\\Daniel\\AppData\\Roaming\\inkscape\\extensions\\default_packages.tex" ns0:text="$t_3$" xml:space="preserve"><path d="m151 711h0.93c0.2 0 0.3 0 0.3 0.2 0 0.11-0.1 0.11-0.28 0.11h-0.87c0.36 1.41 0.41 1.61 0.41 1.66 0 0.17-0.13 0.27-0.29 0.27-0.03 0-0.31-0.01-0.4-0.35l-0.39-1.58h-0.94c-0.2 0-0.3 0-0.3-0.19 0-0.12 0.08-0.12 0.28-0.12h0.88c-0.72-2.82-0.76-2.99-0.76-3.17 0-0.54 0.38-0.91 0.92-0.91 1.01 0 1.58 1.45 1.58 1.53 0 0.1-0.08 0.1-0.12 0.1-0.09 0-0.1-0.04-0.15-0.14-0.42-1.04-0.95-1.28-1.29-1.28-0.21 0-0.31 0.13-0.31 0.46 0 0.24 0.02 0.31 0.06 0.48z"/><path d="m154 708h0.1l0.05-0.01h0.05l0.04-0.01 0.05-0.02 0.04-0.01 0.05-0.02 0.04-0.02 0.04-0.02 0.04-0.02 0.03-0.02 0.04-0.03 0.04-0.03 0.03-0.03 0.03-0.04 0.03-0.03 0.03-0.04 0.03-0.04 0.02-0.05 0.03-0.04 0.02-0.05 0.02-0.05 0.02-0.05 0.01-0.05 0.02-0.06 0.01-0.05 0.01-0.06 0.01-0.07v-0.13l0.01-0.07c0-0.86-0.51-1.12-0.91-1.12-0.28 0-0.9 0.08-1.19 0.49 0.33 0.02 0.4 0.24 0.4 0.39 0 0.22-0.16 0.38-0.38 0.38-0.2 0-0.39-0.11-0.39-0.4 0-0.65 0.72-1.08 1.57-1.08 0.97 0 1.64 0.65 1.64 1.34 0 0.55-0.44 1.09-1.21 1.25 0.73 0.26 1 0.78 1 1.21 0 0.55-0.64 0.96-1.42 0.96-0.77 0-1.37-0.38-1.37-0.93 0-0.24 0.16-0.37 0.37-0.37 0.22 0 0.35 0.16 0.35 0.35 0 0.2-0.13 0.35-0.35 0.36 0.24 0.31 0.72 0.39 0.98 0.39 0.32 0 0.76-0.16 0.76-0.76 0-0.29-0.1-0.61-0.28-0.83-0.23-0.26-0.43-0.28-0.78-0.3-0.17-0.01-0.19-0.01-0.22-0.02-0.02 0-0.07-0.01-0.07-0.09 0-0.1 0.06-0.1 0.18-0.1z"/></g>
<g transform="matrix(1.5 0 0 -1.5 -93.4 1.41e3)" ns0:preamble="C:\\Users\\Daniel\\AppData\\Roaming\\inkscape\\extensions\\default_packages.tex" ns0:text="$t_4$" xml:space="preserve"><path d="m151 711h0.93c0.2 0 0.3 0 0.3 0.2 0 0.11-0.1 0.11-0.28 0.11h-0.87c0.36 1.41 0.41 1.61 0.41 1.66 0 0.17-0.13 0.27-0.29 0.27-0.03 0-0.31-0.01-0.4-0.35l-0.39-1.58h-0.94c-0.2 0-0.3 0-0.3-0.19 0-0.12 0.08-0.12 0.28-0.12h0.88c-0.72-2.82-0.76-2.99-0.76-3.17 0-0.54 0.38-0.91 0.92-0.91 1.01 0 1.58 1.45 1.58 1.53 0 0.1-0.08 0.1-0.12 0.1-0.09 0-0.1-0.04-0.15-0.14-0.42-1.04-0.95-1.28-1.29-1.28-0.21 0-0.31 0.13-0.31 0.46 0 0.24 0.02 0.31 0.06 0.48z"/><path d="m156 707v0.25h-0.78v3.1c0 0.15 0 0.2-0.15 0.2-0.09 0-0.11 0-0.18-0.1l-2.32-3.2v-0.25h2.06l0.05 0.25h-1.85l1.85 2.55v-2.55l-0.05-0.25v-0.57c0-0.23 0-0.32-0.57-0.32h-0.19v-0.25c0.35 0.02 0.8 0.03 1.05 0.03 0.26 0 0.71-0.01 1.06-0.03v0.25h-0.19c-0.57 0-0.57 0.09-0.57 0.32v0.57z"/></g>
<g transform="matrix(1.5 0 0 -1.5 -72.3 1.41e3)" ns0:preamble="C:\\Users\\Daniel\\AppData\\Roaming\\inkscape\\extensions\\default_packages.tex" ns0:text="$t_5$" xml:space="preserve"><path d="m151 711h0.93c0.2 0 0.3 0 0.3 0.2 0 0.11-0.1 0.11-0.28 0.11h-0.87c0.36 1.41 0.41 1.61 0.41 1.66 0 0.17-0.13 0.27-0.29 0.27-0.03 0-0.31-0.01-0.4-0.35l-0.39-1.58h-0.94c-0.2 0-0.3 0-0.3-0.19 0-0.12 0.08-0.12 0.28-0.12h0.88c-0.72-2.82-0.76-2.99-0.76-3.17 0-0.54 0.38-0.91 0.92-0.91 1.01 0 1.58 1.45 1.58 1.53 0 0.1-0.08 0.1-0.12 0.1-0.09 0-0.1-0.04-0.15-0.14-0.42-1.04-0.95-1.28-1.29-1.28-0.21 0-0.31 0.13-0.31 0.46 0 0.24 0.02 0.31 0.06 0.48z"/><path d="m153 710 0.04-0.01h0.03l0.03-0.01 0.03-0.01h0.03l0.03-0.01 0.03-0.01h0.02l0.03-0.01h0.05l0.03-0.01h0.04l0.02-0.01h0.1l0.02-0.01h0.15c0.92 0 1.47 0.63 1.47 0.73 0 0.08-0.05 0.1-0.08 0.1-0.02 0-0.03 0-0.06-0.02-0.17-0.06-0.54-0.2-1.05-0.2-0.2 0-0.57 0.01-1.03 0.18-0.07 0.04-0.08 0.04-0.09 0.04-0.09 0-0.09-0.08-0.09-0.19v-2.05c0-0.12 0-0.2 0.11-0.2 0.07 0 0.07 0.01 0.14 0.1 0.3 0.38 0.73 0.43 0.98 0.43 0.42 0 0.6-0.33 0.64-0.39 0.12-0.23 0.17-0.49 0.17-0.89 0-0.21 0-0.62-0.21-0.93-0.18-0.25-0.48-0.42-0.82-0.42-0.46 0-0.92 0.26-1.1 0.71 0.27-0.02 0.4 0.16 0.4 0.34 0 0.3-0.26 0.36-0.35 0.36-0.01 0-0.35 0-0.35-0.38 0-0.62 0.57-1.25 1.41-1.25 0.9 0 1.68 0.66 1.68 1.54 0 0.78-0.6 1.51-1.47 1.51-0.3 0-0.67-0.08-0.98-0.34z"/></g>
<g transform="matrix(1.5 0 0 -1.5 -51.3 1.41e3)" ns0:preamble="C:\\Users\\Daniel\\AppData\\Roaming\\inkscape\\extensions\\default_packages.tex" ns0:text="$t_6$" xml:space="preserve"><path d="m151 711h0.93c0.2 0 0.3 0 0.3 0.2 0 0.11-0.1 0.11-0.28 0.11h-0.87c0.36 1.41 0.41 1.61 0.41 1.66 0 0.17-0.13 0.27-0.29 0.27-0.03 0-0.31-0.01-0.4-0.35l-0.39-1.58h-0.94c-0.2 0-0.3 0-0.3-0.19 0-0.12 0.08-0.12 0.28-0.12h0.88c-0.72-2.82-0.76-2.99-0.76-3.17 0-0.54 0.38-0.91 0.92-0.91 1.01 0 1.58 1.45 1.58 1.53 0 0.1-0.08 0.1-0.12 0.1-0.09 0-0.1-0.04-0.15-0.14-0.42-1.04-0.95-1.28-1.29-1.28-0.21 0-0.31 0.13-0.31 0.46 0 0.24 0.02 0.31 0.06 0.48z"/><path d="m153 708v0.21l0.01 0.1v0.1l0.01 0.1 0.01 0.1 0.01 0.1 0.02 0.09 0.02 0.1 0.02 0.09 0.02 0.09 0.03 0.09 0.02 0.04 0.02 0.05 0.01 0.04 0.02 0.04 0.02 0.04 0.03 0.04 0.02 0.04 0.02 0.04c0.24 0.38 0.62 0.64 1.07 0.64 0.21 0 0.49-0.06 0.63-0.25-0.18-0.01-0.33-0.13-0.33-0.33 0-0.17 0.12-0.33 0.33-0.33s0.34 0.14 0.34 0.34c0 0.41-0.3 0.77-0.99 0.77-1.01 0-2.03-0.92-2.03-2.41 0-1.81 0.85-2.35 1.62-2.35 0.85 0 1.59 0.65 1.59 1.56 0 0.88-0.7 1.54-1.52 1.54l-0.03-0.2c0.32 0 0.53-0.12 0.71-0.38 0.17-0.27 0.17-0.56 0.17-0.96s0-0.69-0.19-0.96c-0.16-0.24-0.39-0.38-0.73-0.38-0.35 0-0.62 0.21-0.77 0.51-0.1 0.21-0.16 0.56-0.16 0.98 0 0.67 0.41 1.19 0.97 1.19l0.03 0.2c-0.56 0-0.87-0.37-1.02-0.68z"/></g>
</g>
<path d="m51.5 318 20.8-25.8 21-37.5 21-20.6 21-22.5 21 33.8 21 11.2" fill="none" stroke="#2581bd" stroke-width="1.41"/>
<g>
<path d="m138 212a2.81 2.81 0 0 1 -2.81 2.81 2.81 2.81 0 0 1 -2.81 -2.81 2.81 2.81 0 0 1 2.81 -2.81 2.81 2.81 0 0 1 2.81 2.81z"/>
<path d="m159 246a2.81 2.81 0 0 1 -2.81 2.81 2.81 2.81 0 0 1 -2.81 -2.81 2.81 2.81 0 0 1 2.81 -2.81 2.81 2.81 0 0 1 2.81 2.81z"/>
<path d="m180 257a2.81 2.81 0 0 1 -2.81 2.81 2.81 2.81 0 0 1 -2.81 -2.81 2.81 2.81 0 0 1 2.81 -2.81 2.81 2.81 0 0 1 2.81 2.81z"/>
<path d="m54.2 318a2.81 2.81 0 0 1 -2.81 2.81 2.81 2.81 0 0 1 -2.81 -2.81 2.81 2.81 0 0 1 2.81 -2.81 2.81 2.81 0 0 1 2.81 2.81z"/>
<path d="m75.2 293a2.81 2.81 0 0 1 -2.81 2.81 2.81 2.81 0 0 1 -2.81 -2.81 2.81 2.81 0 0 1 2.81 -2.81 2.81 2.81 0 0 1 2.81 2.81z"/>
<path d="m96.2 255a2.81 2.81 0 0 1 -2.81 2.81 2.81 2.81 0 0 1 -2.81 -2.81 2.81 2.81 0 0 1 2.81 -2.81 2.81 2.81 0 0 1 2.81 2.81z"/>
<path d="m117 235a2.81 2.81 0 0 1 -2.81 2.81 2.81 2.81 0 0 1 -2.81 -2.81 2.81 2.81 0 0 1 2.81 -2.81 2.81 2.81 0 0 1 2.81 2.81z"/>
<g transform="matrix(1.5 0 0 -1.5 -176 1.16e3)" fill-rule="evenodd" stroke="#000" stroke-miterlimit="10.4" stroke-width="0" ns0:preamble="C:\\Users\\Daniel\\AppData\\Roaming\\inkscape\\extensions\\default_packages.tex" ns0:text="$\\bm{\\xi}(t)$" xml:space="preserve"><path d="m151 661-0.01 0.03-0.02 0.03v0.03l-0.01 0.04-0.01 0.03-0.01 0.03-0.01 0.03v0.03l-0.01 0.03v0.04l-0.01 0.03v0.16c0 0.53 0.29 1.28 0.83 1.66 0.22-0.3 0.51-0.3 0.75-0.3 0.27 0 1.08 0 1.08 0.54 0 0.4-0.54 0.41-0.96 0.41l-0.01-0.35c0.31 0 0.34-0.01 0.5-0.07-0.01-0.01 0-0.02-0.03-0.06-0.1-0.11-0.48-0.11-0.58-0.11-0.16 0-0.32 0-0.41 0.15 0.2 0.09 0.38 0.09 0.52 0.09l0.01 0.35c-0.1 0-0.35 0-0.63-0.04 0.01 0.31 0.07 0.54 0.07 0.56 0.02 0.08 0.02 0.09 0.02 0.12 0 0.2-0.2 0.21-0.21 0.21-0.33 0-0.33-0.59-0.33-0.77 0-0.07 0-0.16 0.01-0.23-1.24-0.36-1.86-1.26-1.86-2.01 0-0.47 0.26-0.85 0.53-1.04-1.05-0.7-1.3-1.62-1.3-2 0-0.82 0.73-1.21 1.32-1.42l1.14-0.39c0.25-0.08 0.68-0.23 0.75-0.27 0.08-0.04 0.13-0.13 0.13-0.21 0-0.03-0.02-0.29-0.31-0.29-0.06 0-0.55 0.01-0.99 0.24-0.07 0.04-0.09 0.05-0.13 0.05-0.14 0-0.2-0.11-0.2-0.17 0-0.24 0.83-0.48 1.33-0.48 0.78 0 1.2 0.71 1.2 1.18 0 0.43-0.3 0.67-0.5 0.75-0.13 0.05-1.07 0.36-1.31 0.45l-0.66 0.22c-0.35 0.12-0.93 0.32-0.93 0.8 0 0.58 0.75 1.29 0.88 1.29 0.01 0 0.02 0 0.07-0.02 0.49-0.17 0.8-0.17 1.07-0.17l0.03 0.36c-0.16 0-0.38 0-0.55 0.13 0.27 0.1 0.49 0.1 0.66 0.1 0.32 0 0.35-0.01 0.51-0.06-0.01-0.02-0.02-0.05-0.03-0.06-0.1-0.11-0.47-0.11-0.59-0.11l-0.03-0.36c0.31 0 1.13 0 1.13 0.54 0 0.41-0.62 0.41-0.95 0.41-0.19 0-0.5 0-0.95-0.13z"/><path d="m157 655v0.03h-0.01v0.01l-0.01 0.01v0.01h-0.01v0.01l-0.01 0.01-0.01 0.01v0.01h-0.01v0.01h-0.01v0.01h-0.01v0.01h-0.01v0.01h-0.01v0.01l-0.01 0.01-0.01 0.01-0.01 0.01-0.01 0.01-0.01 0.01h-0.01v0.01l-0.01 0.01c-1.25 1.25-1.57 3.13-1.57 4.65 0 1.73 0.38 3.45 1.61 4.7 0.13 0.12 0.13 0.14 0.13 0.17 0 0.07-0.04 0.09-0.1 0.09-0.1 0-1-0.67-1.59-1.93-0.51-1.09-0.62-2.2-0.62-3.03 0-0.78 0.11-1.98 0.65-3.1 0.6-1.22 1.46-1.87 1.56-1.87 0.06 0 0.1 0.03 0.1 0.1z"/><path d="m160 661h0.93c0.2 0 0.3 0 0.3 0.2 0 0.11-0.1 0.11-0.28 0.11h-0.87c0.36 1.41 0.4 1.61 0.4 1.66 0 0.17-0.11 0.27-0.28 0.27-0.03 0-0.31-0.01-0.4-0.35l-0.39-1.58h-0.94c-0.2 0-0.3 0-0.3-0.19 0-0.12 0.08-0.12 0.28-0.12h0.88c-0.72-2.82-0.76-2.99-0.76-3.17 0-0.54 0.38-0.91 0.92-0.91 1.01 0 1.58 1.45 1.58 1.53 0 0.1-0.08 0.1-0.12 0.1-0.09 0-0.1-0.04-0.15-0.14-0.43-1.04-0.95-1.28-1.29-1.28-0.21 0-0.31 0.13-0.31 0.46 0 0.24 0.02 0.31 0.06 0.48z"/><path d="m164 660v0.31l-0.01 0.17-0.01 0.17-0.02 0.18-0.02 0.19-0.03 0.2-0.03 0.2-0.04 0.2-0.05 0.21-0.05 0.21-0.06 0.21-0.07 0.21-0.08 0.21-0.04 0.11-0.05 0.11-0.05 0.1-0.05 0.11c-0.59 1.22-1.45 1.86-1.55 1.86-0.06 0-0.1-0.03-0.1-0.09 0-0.03 0-0.05 0.19-0.23 0.98-0.99 1.54-2.57 1.54-4.64 0-1.7-0.36-3.45-1.6-4.7-0.13-0.12-0.13-0.14-0.13-0.17 0-0.06 0.04-0.1 0.1-0.1 0.1 0 0.99 0.68 1.58 1.94 0.51 1.09 0.63 2.19 0.63 3.03z"/></g>
</g>
<path d="m51.4 330v11.9" fill="none" stroke="#000" stroke-width="1.41"/>
</g>
<g fill="#2581bd" stroke-width="1.44px" style="font-feature-settings:normal;font-variant-caps:normal;font-variant-ligatures:normal;font-variant-numeric:normal" aria-label=" Single Shooting">
<path d="m44 269v-2.18q0.374 0.33 0.89 0.593 0.527 0.264 1.1 0.45 0.582 0.176 1.16 0.275 0.582 0.0989 1.08 0.0989 1.7 0 2.54-0.626 0.846-0.637 0.846-1.82 0-0.637-0.286-1.11-0.275-0.472-0.769-0.857-0.494-0.396-1.18-0.747-0.67-0.363-1.45-0.758-0.824-0.417-1.54-0.846-0.714-0.428-1.24-0.945t-0.835-1.16q-0.297-0.659-0.297-1.54 0-1.08 0.472-1.87 0.472-0.802 1.24-1.32t1.75-0.769q0.989-0.253 2.01-0.253 2.33 0 3.39 0.56v2.08q-1.4-0.967-3.58-0.967-0.604 0-1.21 0.132-0.604 0.121-1.08 0.406-0.472 0.286-0.769 0.736t-0.297 1.1q0 0.604 0.22 1.04 0.231 0.439 0.67 0.802 0.439 0.363 1.07 0.703 0.637 0.341 1.46 0.747 0.846 0.417 1.6 0.879 0.758 0.461 1.33 1.02 0.571 0.56 0.901 1.24 0.341 0.681 0.341 1.56 0 1.16-0.461 1.98-0.45 0.802-1.23 1.31-0.769 0.505-1.78 0.725-1.01 0.231-2.13 0.231-0.374 0-0.923-0.0659-0.549-0.0549-1.12-0.176-0.571-0.11-1.09-0.275-0.505-0.176-0.813-0.385z" style="font-feature-settings:normal;font-variant-caps:normal;font-variant-ligatures:normal;font-variant-numeric:normal"/>
<path d="m57.4 256q-0.483 0-0.824-0.33t-0.341-0.835 0.341-0.835q0.341-0.341 0.824-0.341 0.494 0 0.835 0.341 0.352 0.33 0.352 0.835 0 0.483-0.352 0.824-0.341 0.341-0.835 0.341zm0.879 14.1h-1.8v-11.2h1.8z" style="font-feature-settings:normal;font-variant-caps:normal;font-variant-ligatures:normal;font-variant-numeric:normal"/>
<path d="m71.2 270h-1.8v-6.42q0-3.58-2.61-3.58-1.35 0-2.24 1.02-0.879 1.01-0.879 2.56v6.42h-1.8v-11.2h1.8v1.87h0.044q1.27-2.13 3.69-2.13 1.85 0 2.82 1.2 0.978 1.19 0.978 3.44z" style="font-feature-settings:normal;font-variant-caps:normal;font-variant-ligatures:normal;font-variant-numeric:normal"/>
<path d="m84.2 269q0 6.2-5.93 6.2-2.09 0-3.65-0.791v-1.8q1.9 1.05 3.63 1.05 4.15 0 4.15-4.42v-1.23h-0.044q-1.29 2.15-3.87 2.15-2.1 0-3.38-1.49-1.27-1.51-1.27-4.03 0-2.87 1.37-4.56 1.38-1.69 3.78-1.69 2.27 0 3.37 1.82h0.044v-1.56h1.8zm-1.8-4.19v-1.66q0-1.34-0.912-2.3-0.901-0.956-2.25-0.956-1.67 0-2.61 1.22-0.945 1.21-0.945 3.39 0 1.88 0.901 3.01 0.912 1.12 2.41 1.12 1.52 0 2.46-1.08 0.956-1.08 0.956-2.76z" style="font-feature-settings:normal;font-variant-caps:normal;font-variant-ligatures:normal;font-variant-numeric:normal"/>
<path d="m89.7 270h-1.8v-16.7h1.8z" style="font-feature-settings:normal;font-variant-caps:normal;font-variant-ligatures:normal;font-variant-numeric:normal"/>
<path d="m102 265h-7.94q0.044 1.88 1.01 2.9 0.967 1.02 2.66 1.02 1.9 0 3.49-1.25v1.69q-1.48 1.08-3.92 1.08-2.38 0-3.75-1.53-1.36-1.54-1.36-4.32 0-2.63 1.48-4.27 1.49-1.66 3.7-1.66t3.42 1.43q1.21 1.43 1.21 3.97zm-1.85-1.53q-0.011-1.56-0.758-2.43-0.736-0.868-2.05-0.868-1.27 0-2.16 0.912-0.89 0.912-1.1 2.38z" style="font-feature-settings:normal;font-variant-caps:normal;font-variant-ligatures:normal;font-variant-numeric:normal"/>
<path d="m111 269v-2.18q0.374 0.33 0.89 0.593 0.527 0.264 1.1 0.45 0.582 0.176 1.16 0.275 0.582 0.0989 1.08 0.0989 1.7 0 2.54-0.626 0.846-0.637 0.846-1.82 0-0.637-0.286-1.11-0.275-0.472-0.769-0.857-0.494-0.396-1.18-0.747-0.67-0.363-1.45-0.758-0.824-0.417-1.54-0.846-0.714-0.428-1.24-0.945-0.527-0.516-0.835-1.16-0.297-0.659-0.297-1.54 0-1.08 0.472-1.87 0.472-0.802 1.24-1.32 0.769-0.516 1.75-0.769 0.989-0.253 2.01-0.253 2.33 0 3.39 0.56v2.08q-1.4-0.967-3.58-0.967-0.604 0-1.21 0.132-0.604 0.121-1.08 0.406-0.472 0.286-0.769 0.736-0.297 0.45-0.297 1.1 0 0.604 0.22 1.04 0.231 0.439 0.67 0.802 0.439 0.363 1.07 0.703 0.637 0.341 1.46 0.747 0.846 0.417 1.6 0.879 0.758 0.461 1.33 1.02 0.571 0.56 0.901 1.24 0.341 0.681 0.341 1.56 0 1.16-0.461 1.98-0.45 0.802-1.23 1.31-0.769 0.505-1.78 0.725-1.01 0.231-2.13 0.231-0.374 0-0.923-0.0659-0.549-0.0549-1.12-0.176-0.571-0.11-1.09-0.275-0.505-0.176-0.813-0.385z" style="font-feature-settings:normal;font-variant-caps:normal;font-variant-ligatures:normal;font-variant-numeric:normal"/>
<path d="m133 270h-1.8v-6.48q0-3.52-2.61-3.52-1.32 0-2.22 1.02-0.901 1.01-0.901 2.6v6.37h-1.8v-16.7h1.8v7.27h0.0439q1.3-2.13 3.69-2.13 3.8 0 3.8 4.58z" style="font-feature-settings:normal;font-variant-caps:normal;font-variant-ligatures:normal;font-variant-numeric:normal"/>
<path d="m141 270q-2.49 0-3.99-1.57-1.48-1.58-1.48-4.19 0-2.83 1.55-4.43 1.55-1.59 4.19-1.59 2.52 0 3.92 1.55 1.42 1.55 1.42 4.3 0 2.69-1.53 4.32-1.52 1.61-4.08 1.61zm0.132-10.3q-1.74 0-2.75 1.19-1.01 1.18-1.01 3.25 0 2 1.02 3.15 1.02 1.15 2.74 1.15 1.75 0 2.68-1.13 0.945-1.13 0.945-3.22 0-2.11-0.945-3.25-0.934-1.14-2.68-1.14z" style="font-feature-settings:normal;font-variant-caps:normal;font-variant-ligatures:normal;font-variant-numeric:normal"/>
<path d="m154 270q-2.49 0-3.99-1.57-1.48-1.58-1.48-4.19 0-2.83 1.55-4.43 1.55-1.59 4.19-1.59 2.52 0 3.92 1.55 1.42 1.55 1.42 4.3 0 2.69-1.53 4.32-1.52 1.61-4.08 1.61zm0.132-10.3q-1.74 0-2.75 1.19-1.01 1.18-1.01 3.25 0 2 1.02 3.15 1.02 1.15 2.74 1.15 1.75 0 2.68-1.13 0.945-1.13 0.945-3.22 0-2.11-0.945-3.25-0.934-1.14-2.68-1.14z" style="font-feature-settings:normal;font-variant-caps:normal;font-variant-ligatures:normal;font-variant-numeric:normal"/>
<path d="m168 270q-0.637 0.352-1.68 0.352-2.96 0-2.96-3.3v-6.66h-1.93v-1.54h1.93v-2.75l1.8-0.582v3.33h2.83v1.54h-2.83v6.34q0 1.13 0.385 1.61 0.385 0.483 1.27 0.483 0.681 0 1.18-0.374z" style="font-feature-settings:normal;font-variant-caps:normal;font-variant-ligatures:normal;font-variant-numeric:normal"/>
<path d="m171 256q-0.483 0-0.824-0.33-0.341-0.33-0.341-0.835t0.341-0.835q0.341-0.341 0.824-0.341 0.494 0 0.835 0.341 0.352 0.33 0.352 0.835 0 0.483-0.352 0.824-0.341 0.341-0.835 0.341zm0.879 14.1h-1.8v-11.2h1.8z" style="font-feature-settings:normal;font-variant-caps:normal;font-variant-ligatures:normal;font-variant-numeric:normal"/>
<path d="m185 270h-1.8v-6.42q0-3.58-2.61-3.58-1.35 0-2.24 1.02-0.879 1.01-0.879 2.56v6.42h-1.8v-11.2h1.8v1.87h0.0439q1.27-2.13 3.69-2.13 1.85 0 2.82 1.2 0.978 1.19 0.978 3.44z" style="font-feature-settings:normal;font-variant-caps:normal;font-variant-ligatures:normal;font-variant-numeric:normal"/>
<path d="m198 269q0 6.2-5.93 6.2-2.09 0-3.65-0.791v-1.8q1.9 1.05 3.63 1.05 4.15 0 4.15-4.42v-1.23h-0.0439q-1.29 2.15-3.87 2.15-2.1 0-3.38-1.49-1.27-1.51-1.27-4.03 0-2.87 1.37-4.56 1.38-1.69 3.78-1.69 2.27 0 3.37 1.82h0.0439v-1.56h1.8zm-1.8-4.19v-1.66q0-1.34-0.912-2.3-0.901-0.956-2.25-0.956-1.67 0-2.61 1.22-0.945 1.21-0.945 3.39 0 1.88 0.901 3.01 0.912 1.12 2.41 1.12 1.52 0 2.46-1.08 0.956-1.08 0.956-2.76z" style="font-feature-settings:normal;font-variant-caps:normal;font-variant-ligatures:normal;font-variant-numeric:normal"/>
</g>
</g>
<g transform="translate(1.26)">
<g transform="matrix(1.17 0 0 1.17 -55.5 -70.4)">
<g fill="none" stroke-width="1.41">
<g stroke="#2581bd">
<path d="m261 205 21-27.5"/>
<path d="m282 167 20.9-32.4"/>
<path d="m303 144 20.7-12.6"/>
<path d="m324 122 21 25.9"/>
<path d="m345 157 21 22.4"/>
<path d="m240 230 21.4-15.4"/>
</g>
<g stroke="#000">
<path d="m240 94.5v154h139" marker-end="url(#h)" marker-start="url(#f)"/>
<path d="m261 243v11.9"/>
<path d="m282 243v11.9"/>
<path d="m303 243v11.9"/>
<path d="m324 243v11.9"/>
<path d="m345 243v11.9"/>
<path d="m366 243v11.9"/>
</g>
</g>
<g>
<g fill-rule="evenodd" stroke="#000" stroke-miterlimit="10.4" stroke-width="0">
<g transform="matrix(1.5 0 0 -1.5 11.2 1.33e3)" ns0:preamble="C:\\Users\\Daniel\\AppData\\Roaming\\inkscape\\extensions\\default_packages.tex" ns0:text="$t_0$" xml:space="preserve"><path d="m151 711h0.93c0.2 0 0.3 0 0.3 0.2 0 0.11-0.1 0.11-0.28 0.11h-0.87c0.36 1.41 0.41 1.61 0.41 1.66 0 0.17-0.13 0.27-0.29 0.27-0.03 0-0.31-0.01-0.4-0.35l-0.39-1.58h-0.94c-0.2 0-0.3 0-0.3-0.19 0-0.12 0.08-0.12 0.28-0.12h0.88c-0.72-2.82-0.76-2.99-0.76-3.17 0-0.54 0.38-0.91 0.92-0.91 1.01 0 1.58 1.45 1.58 1.53 0 0.1-0.08 0.1-0.12 0.1-0.09 0-0.1-0.04-0.15-0.14-0.42-1.04-0.95-1.28-1.29-1.28-0.21 0-0.31 0.13-0.31 0.46 0 0.24 0.02 0.31 0.06 0.48z"/><path d="m156 708v0.14l-0.01 0.14v0.13l-0.01 0.12-0.01 0.13-0.02 0.12-0.02 0.11-0.02 0.11-0.02 0.11-0.03 0.11-0.04 0.1-0.03 0.1-0.05 0.1-0.04 0.09-0.06 0.1-0.03 0.04-0.02 0.05c-0.22 0.32-0.66 0.6-1.21 0.6v-0.2c0.37 0 0.74-0.23 0.86-0.63 0.11-0.37 0.12-0.87 0.12-1.48 0-0.52 0-1.03-0.09-1.47-0.14-0.63-0.62-0.78-0.89-0.78-0.33 0-0.75 0.18-0.89 0.75-0.1 0.42-0.1 0.98-0.1 1.5 0 0.51 0 1.04 0.1 1.42 0.15 0.55 0.6 0.69 0.89 0.69v0.2c-1.63 0-1.63-1.9-1.63-2.4s0-2.36 1.63-2.36c1.62 0 1.62 1.86 1.62 2.36z"/></g>
<g transform="matrix(1.5 0 0 -1.5 32.4 1.33e3)" ns0:preamble="C:\\Users\\Daniel\\AppData\\Roaming\\inkscape\\extensions\\default_packages.tex" ns0:text="$t_1$" xml:space="preserve"><path d="m151 711h0.93c0.2 0 0.3 0 0.3 0.2 0 0.11-0.1 0.11-0.28 0.11h-0.87c0.36 1.41 0.41 1.61 0.41 1.66 0 0.17-0.13 0.27-0.29 0.27-0.03 0-0.31-0.01-0.4-0.35l-0.39-1.58h-0.94c-0.2 0-0.3 0-0.3-0.19 0-0.12 0.08-0.12 0.28-0.12h0.88c-0.72-2.82-0.76-2.99-0.76-3.17 0-0.54 0.38-0.91 0.92-0.91 1.01 0 1.58 1.45 1.58 1.53 0 0.1-0.08 0.1-0.12 0.1-0.09 0-0.1-0.04-0.15-0.14-0.42-1.04-0.95-1.28-1.29-1.28-0.21 0-0.31 0.13-0.31 0.46 0 0.24 0.02 0.31 0.06 0.48z"/><path d="m155 710v0.12h-0.01v0.03h-0.01v0.02h-0.01v0.01h-0.02l-0.01 0.01h-0.04v0.01h-0.11c-0.45-0.44-1.08-0.45-1.37-0.45v-0.25c0.17 0 0.63 0 1.02 0.2v-3.55c0-0.23 0-0.32-0.7-0.32h-0.27v-0.25c0.13 0.01 0.99 0.03 1.25 0.03 0.21 0 1.09-0.02 1.25-0.03v0.25h-0.27c-0.7 0-0.7 0.09-0.7 0.32z"/></g>
<g transform="matrix(1.5 0 0 -1.5 53.2 1.33e3)" ns0:preamble="C:\\Users\\Daniel\\AppData\\Roaming\\inkscape\\extensions\\default_packages.tex" ns0:text="$t_2$" xml:space="preserve"><path d="m151 711h0.93c0.2 0 0.3 0 0.3 0.2 0 0.11-0.1 0.11-0.28 0.11h-0.87c0.36 1.41 0.41 1.61 0.41 1.66 0 0.17-0.13 0.27-0.29 0.27-0.03 0-0.31-0.01-0.4-0.35l-0.39-1.58h-0.94c-0.2 0-0.3 0-0.3-0.19 0-0.12 0.08-0.12 0.28-0.12h0.88c-0.72-2.82-0.76-2.99-0.76-3.17 0-0.54 0.38-0.91 0.92-0.91 1.01 0 1.58 1.45 1.58 1.53 0 0.1-0.08 0.1-0.12 0.1-0.09 0-0.1-0.04-0.15-0.14-0.42-1.04-0.95-1.28-1.29-1.28-0.21 0-0.31 0.13-0.31 0.46 0 0.24 0.02 0.31 0.06 0.48z"/><path d="m156 707h-0.24c-0.02-0.16-0.09-0.57-0.18-0.64-0.05-0.04-0.59-0.04-0.69-0.04h-1.29c0.74 0.65 0.98 0.84 1.4 1.17 0.52 0.41 1 0.84 1 1.5 0 0.84-0.74 1.36-1.63 1.36-0.87 0-1.46-0.61-1.46-1.25 0-0.35 0.3-0.39 0.37-0.39 0.17 0 0.37 0.12 0.37 0.37 0 0.13-0.05 0.37-0.41 0.37 0.22 0.5 0.69 0.65 1.02 0.65 0.7 0 1.06-0.54 1.06-1.11 0-0.6-0.43-1.08-0.65-1.33l-1.69-1.66c-0.07-0.06-0.07-0.07-0.07-0.27h2.88z"/></g>
<g transform="matrix(1.5 0 0 -1.5 74.2 1.33e3)" ns0:preamble="C:\\Users\\Daniel\\AppData\\Roaming\\inkscape\\extensions\\default_packages.tex" ns0:text="$t_3$" xml:space="preserve"><path d="m151 711h0.93c0.2 0 0.3 0 0.3 0.2 0 0.11-0.1 0.11-0.28 0.11h-0.87c0.36 1.41 0.41 1.61 0.41 1.66 0 0.17-0.13 0.27-0.29 0.27-0.03 0-0.31-0.01-0.4-0.35l-0.39-1.58h-0.94c-0.2 0-0.3 0-0.3-0.19 0-0.12 0.08-0.12 0.28-0.12h0.88c-0.72-2.82-0.76-2.99-0.76-3.17 0-0.54 0.38-0.91 0.92-0.91 1.01 0 1.58 1.45 1.58 1.53 0 0.1-0.08 0.1-0.12 0.1-0.09 0-0.1-0.04-0.15-0.14-0.42-1.04-0.95-1.28-1.29-1.28-0.21 0-0.31 0.13-0.31 0.46 0 0.24 0.02 0.31 0.06 0.48z"/><path d="m154 708h0.1l0.05-0.01h0.05l0.04-0.01 0.05-0.02 0.04-0.01 0.05-0.02 0.04-0.02 0.04-0.02 0.04-0.02 0.03-0.02 0.04-0.03 0.04-0.03 0.03-0.03 0.03-0.04 0.03-0.03 0.03-0.04 0.03-0.04 0.02-0.05 0.03-0.04 0.02-0.05 0.02-0.05 0.02-0.05 0.01-0.05 0.02-0.06 0.01-0.05 0.01-0.06 0.01-0.07v-0.13l0.01-0.07c0-0.86-0.51-1.12-0.91-1.12-0.28 0-0.9 0.08-1.19 0.49 0.33 0.02 0.4 0.24 0.4 0.39 0 0.22-0.16 0.38-0.38 0.38-0.2 0-0.39-0.11-0.39-0.4 0-0.65 0.72-1.08 1.57-1.08 0.97 0 1.64 0.65 1.64 1.34 0 0.55-0.44 1.09-1.21 1.25 0.73 0.26 1 0.78 1 1.21 0 0.55-0.64 0.96-1.42 0.96-0.77 0-1.37-0.38-1.37-0.93 0-0.24 0.16-0.37 0.37-0.37 0.22 0 0.35 0.16 0.35 0.35 0 0.2-0.13 0.35-0.35 0.36 0.24 0.31 0.72 0.39 0.98 0.39 0.32 0 0.76-0.16 0.76-0.76 0-0.29-0.1-0.61-0.28-0.83-0.23-0.26-0.43-0.28-0.78-0.3-0.17-0.01-0.19-0.01-0.22-0.02-0.02 0-0.07-0.01-0.07-0.09 0-0.1 0.06-0.1 0.18-0.1z"/></g>
<g transform="matrix(1.5 0 0 -1.5 95.1 1.33e3)" ns0:preamble="C:\\Users\\Daniel\\AppData\\Roaming\\inkscape\\extensions\\default_packages.tex" ns0:text="$t_4$" xml:space="preserve"><path d="m151 711h0.93c0.2 0 0.3 0 0.3 0.2 0 0.11-0.1 0.11-0.28 0.11h-0.87c0.36 1.41 0.41 1.61 0.41 1.66 0 0.17-0.13 0.27-0.29 0.27-0.03 0-0.31-0.01-0.4-0.35l-0.39-1.58h-0.94c-0.2 0-0.3 0-0.3-0.19 0-0.12 0.08-0.12 0.28-0.12h0.88c-0.72-2.82-0.76-2.99-0.76-3.17 0-0.54 0.38-0.91 0.92-0.91 1.01 0 1.58 1.45 1.58 1.53 0 0.1-0.08 0.1-0.12 0.1-0.09 0-0.1-0.04-0.15-0.14-0.42-1.04-0.95-1.28-1.29-1.28-0.21 0-0.31 0.13-0.31 0.46 0 0.24 0.02 0.31 0.06 0.48z"/><path d="m156 707v0.25h-0.78v3.1c0 0.15 0 0.2-0.15 0.2-0.09 0-0.11 0-0.18-0.1l-2.32-3.2v-0.25h2.06l0.05 0.25h-1.85l1.85 2.55v-2.55l-0.05-0.25v-0.57c0-0.23 0-0.32-0.57-0.32h-0.19v-0.25c0.35 0.02 0.8 0.03 1.05 0.03 0.26 0 0.71-0.01 1.06-0.03v0.25h-0.19c-0.57 0-0.57 0.09-0.57 0.32v0.57z"/></g>
<g transform="matrix(1.5 0 0 -1.5 116 1.33e3)" ns0:preamble="C:\\Users\\Daniel\\AppData\\Roaming\\inkscape\\extensions\\default_packages.tex" ns0:text="$t_5$" xml:space="preserve"><path d="m151 711h0.93c0.2 0 0.3 0 0.3 0.2 0 0.11-0.1 0.11-0.28 0.11h-0.87c0.36 1.41 0.41 1.61 0.41 1.66 0 0.17-0.13 0.27-0.29 0.27-0.03 0-0.31-0.01-0.4-0.35l-0.39-1.58h-0.94c-0.2 0-0.3 0-0.3-0.19 0-0.12 0.08-0.12 0.28-0.12h0.88c-0.72-2.82-0.76-2.99-0.76-3.17 0-0.54 0.38-0.91 0.92-0.91 1.01 0 1.58 1.45 1.58 1.53 0 0.1-0.08 0.1-0.12 0.1-0.09 0-0.1-0.04-0.15-0.14-0.42-1.04-0.95-1.28-1.29-1.28-0.21 0-0.31 0.13-0.31 0.46 0 0.24 0.02 0.31 0.06 0.48z"/><path d="m153 710 0.04-0.01h0.03l0.03-0.01 0.03-0.01h0.03l0.03-0.01 0.03-0.01h0.02l0.03-0.01h0.05l0.03-0.01h0.04l0.02-0.01h0.1l0.02-0.01h0.15c0.92 0 1.47 0.63 1.47 0.73 0 0.08-0.05 0.1-0.08 0.1-0.02 0-0.03 0-0.06-0.02-0.17-0.06-0.54-0.2-1.05-0.2-0.2 0-0.57 0.01-1.03 0.18-0.07 0.04-0.08 0.04-0.09 0.04-0.09 0-0.09-0.08-0.09-0.19v-2.05c0-0.12 0-0.2 0.11-0.2 0.07 0 0.07 0.01 0.14 0.1 0.3 0.38 0.73 0.43 0.98 0.43 0.42 0 0.6-0.33 0.64-0.39 0.12-0.23 0.17-0.49 0.17-0.89 0-0.21 0-0.62-0.21-0.93-0.18-0.25-0.48-0.42-0.82-0.42-0.46 0-0.92 0.26-1.1 0.71 0.27-0.02 0.4 0.16 0.4 0.34 0 0.3-0.26 0.36-0.35 0.36-0.01 0-0.35 0-0.35-0.38 0-0.62 0.57-1.25 1.41-1.25 0.9 0 1.68 0.66 1.68 1.54 0 0.78-0.6 1.51-1.47 1.51-0.3 0-0.67-0.08-0.98-0.34z"/></g>
<g transform="matrix(1.5 0 0 -1.5 137 1.33e3)" ns0:preamble="C:\\Users\\Daniel\\AppData\\Roaming\\inkscape\\extensions\\default_packages.tex" ns0:text="$t_6$" xml:space="preserve"><path d="m151 711h0.93c0.2 0 0.3 0 0.3 0.2 0 0.11-0.1 0.11-0.28 0.11h-0.87c0.36 1.41 0.41 1.61 0.41 1.66 0 0.17-0.13 0.27-0.29 0.27-0.03 0-0.31-0.01-0.4-0.35l-0.39-1.58h-0.94c-0.2 0-0.3 0-0.3-0.19 0-0.12 0.08-0.12 0.28-0.12h0.88c-0.72-2.82-0.76-2.99-0.76-3.17 0-0.54 0.38-0.91 0.92-0.91 1.01 0 1.58 1.45 1.58 1.53 0 0.1-0.08 0.1-0.12 0.1-0.09 0-0.1-0.04-0.15-0.14-0.42-1.04-0.95-1.28-1.29-1.28-0.21 0-0.31 0.13-0.31 0.46 0 0.24 0.02 0.31 0.06 0.48z"/><path d="m153 708v0.21l0.01 0.1v0.1l0.01 0.1 0.01 0.1 0.01 0.1 0.02 0.09 0.02 0.1 0.02 0.09 0.02 0.09 0.03 0.09 0.02 0.04 0.02 0.05 0.01 0.04 0.02 0.04 0.02 0.04 0.03 0.04 0.02 0.04 0.02 0.04c0.24 0.38 0.62 0.64 1.07 0.64 0.21 0 0.49-0.06 0.63-0.25-0.18-0.01-0.33-0.13-0.33-0.33 0-0.17 0.12-0.33 0.33-0.33s0.34 0.14 0.34 0.34c0 0.41-0.3 0.77-0.99 0.77-1.01 0-2.03-0.92-2.03-2.41 0-1.81 0.85-2.35 1.62-2.35 0.85 0 1.59 0.65 1.59 1.56 0 0.88-0.7 1.54-1.52 1.54l-0.03-0.2c0.32 0 0.53-0.12 0.71-0.38 0.17-0.27 0.17-0.56 0.17-0.96s0-0.69-0.19-0.96c-0.16-0.24-0.39-0.38-0.73-0.38-0.35 0-0.62 0.21-0.77 0.51-0.1 0.21-0.16 0.56-0.16 0.98 0 0.67 0.41 1.19 0.97 1.19l0.03 0.2c-0.56 0-0.87-0.37-1.02-0.68z"/></g>
</g>
<path d="m243 230a2.81 2.81 0 0 1 -2.81 2.81 2.81 2.81 0 0 1 -2.81 -2.81 2.81 2.81 0 0 1 2.81 -2.81 2.81 2.81 0 0 1 2.81 2.81z"/>
<path d="m285 167a2.81 2.81 0 0 1 -2.81 2.81 2.81 2.81 0 0 1 -2.81 -2.81 2.81 2.81 0 0 1 2.81 -2.81 2.81 2.81 0 0 1 2.81 2.81z"/>
<g transform="matrix(1.5 0 0 -1.5 12.3 1.07e3)" fill-rule="evenodd" stroke="#000" stroke-miterlimit="10.4" stroke-width="0" ns0:preamble="C:\\Users\\Daniel\\AppData\\Roaming\\inkscape\\extensions\\default_packages.tex" ns0:text="$\\bm{\\xi}(t)$" xml:space="preserve"><path d="m151 661-0.01 0.03-0.02 0.03v0.03l-0.01 0.04-0.01 0.03-0.01 0.03-0.01 0.03v0.03l-0.01 0.03v0.04l-0.01 0.03v0.16c0 0.53 0.29 1.28 0.83 1.66 0.22-0.3 0.51-0.3 0.75-0.3 0.27 0 1.08 0 1.08 0.54 0 0.4-0.54 0.41-0.96 0.41l-0.01-0.35c0.31 0 0.34-0.01 0.5-0.07-0.01-0.01 0-0.02-0.03-0.06-0.1-0.11-0.48-0.11-0.58-0.11-0.16 0-0.32 0-0.41 0.15 0.2 0.09 0.38 0.09 0.52 0.09l0.01 0.35c-0.1 0-0.35 0-0.63-0.04 0.01 0.31 0.07 0.54 0.07 0.56 0.02 0.08 0.02 0.09 0.02 0.12 0 0.2-0.2 0.21-0.21 0.21-0.33 0-0.33-0.59-0.33-0.77 0-0.07 0-0.16 0.01-0.23-1.24-0.36-1.86-1.26-1.86-2.01 0-0.47 0.26-0.85 0.53-1.04-1.05-0.7-1.3-1.62-1.3-2 0-0.82 0.73-1.21 1.32-1.42l1.14-0.39c0.25-0.08 0.68-0.23 0.75-0.27 0.08-0.04 0.13-0.13 0.13-0.21 0-0.03-0.02-0.29-0.31-0.29-0.06 0-0.55 0.01-0.99 0.24-0.07 0.04-0.09 0.05-0.13 0.05-0.14 0-0.2-0.11-0.2-0.17 0-0.24 0.83-0.48 1.33-0.48 0.78 0 1.2 0.71 1.2 1.18 0 0.43-0.3 0.67-0.5 0.75-0.13 0.05-1.07 0.36-1.31 0.45l-0.66 0.22c-0.35 0.12-0.93 0.32-0.93 0.8 0 0.58 0.75 1.29 0.88 1.29 0.01 0 0.02 0 0.07-0.02 0.49-0.17 0.8-0.17 1.07-0.17l0.03 0.36c-0.16 0-0.38 0-0.55 0.13 0.27 0.1 0.49 0.1 0.66 0.1 0.32 0 0.35-0.01 0.51-0.06-0.01-0.02-0.02-0.05-0.03-0.06-0.1-0.11-0.47-0.11-0.59-0.11l-0.03-0.36c0.31 0 1.13 0 1.13 0.54 0 0.41-0.62 0.41-0.95 0.41-0.19 0-0.5 0-0.95-0.13z"/><path d="m157 655v0.03h-0.01v0.01l-0.01 0.01v0.01h-0.01v0.01l-0.01 0.01-0.01 0.01v0.01h-0.01v0.01h-0.01v0.01h-0.01v0.01h-0.01v0.01h-0.01v0.01l-0.01 0.01-0.01 0.01-0.01 0.01-0.01 0.01-0.01 0.01h-0.01v0.01l-0.01 0.01c-1.25 1.25-1.57 3.13-1.57 4.65 0 1.73 0.38 3.45 1.61 4.7 0.13 0.12 0.13 0.14 0.13 0.17 0 0.07-0.04 0.09-0.1 0.09-0.1 0-1-0.67-1.59-1.93-0.51-1.09-0.62-2.2-0.62-3.03 0-0.78 0.11-1.98 0.65-3.1 0.6-1.22 1.46-1.87 1.56-1.87 0.06 0 0.1 0.03 0.1 0.1z"/><path d="m160 661h0.93c0.2 0 0.3 0 0.3 0.2 0 0.11-0.1 0.11-0.28 0.11h-0.87c0.36 1.41 0.4 1.61 0.4 1.66 0 0.17-0.11 0.27-0.28 0.27-0.03 0-0.31-0.01-0.4-0.35l-0.39-1.58h-0.94c-0.2 0-0.3 0-0.3-0.19 0-0.12 0.08-0.12 0.28-0.12h0.88c-0.72-2.82-0.76-2.99-0.76-3.17 0-0.54 0.38-0.91 0.92-0.91 1.01 0 1.58 1.45 1.58 1.53 0 0.1-0.08 0.1-0.12 0.1-0.09 0-0.1-0.04-0.15-0.14-0.43-1.04-0.95-1.28-1.29-1.28-0.21 0-0.31 0.13-0.31 0.46 0 0.24 0.02 0.31 0.06 0.48z"/><path d="m164 660v0.31l-0.01 0.17-0.01 0.17-0.02 0.18-0.02 0.19-0.03 0.2-0.03 0.2-0.04 0.2-0.05 0.21-0.05 0.21-0.06 0.21-0.07 0.21-0.08 0.21-0.04 0.11-0.05 0.11-0.05 0.1-0.05 0.11c-0.59 1.22-1.45 1.86-1.55 1.86-0.06 0-0.1-0.03-0.1-0.09 0-0.03 0-0.05 0.19-0.23 0.98-0.99 1.54-2.57 1.54-4.64 0-1.7-0.36-3.45-1.6-4.7-0.13-0.12-0.13-0.14-0.13-0.17 0-0.06 0.04-0.1 0.1-0.1 0.1 0 0.99 0.68 1.58 1.94 0.51 1.09 0.63 2.19 0.63 3.03z"/></g>
</g>
<g>
<path d="m264 205a2.81 2.81 0 0 1 -2.81 2.81 2.81 2.81 0 0 1 -2.81 -2.81 2.81 2.81 0 0 1 2.81 -2.81 2.81 2.81 0 0 1 2.81 2.81z"/>
<path d="m264 215a2.81 2.81 0 0 1 -2.81 2.81 2.81 2.81 0 0 1 -2.81 -2.81 2.81 2.81 0 0 1 2.81 -2.81 2.81 2.81 0 0 1 2.81 2.81z" fill="#fff" stroke="#000" stroke-width=".938"/>
</g>
<path d="m285 177a2.81 2.81 0 0 1 -2.81 2.81 2.81 2.81 0 0 1 -2.81 -2.81 2.81 2.81 0 0 1 2.81 -2.81 2.81 2.81 0 0 1 2.81 2.81z" fill="#fff" stroke="#000" stroke-width=".938"/>
<g>
<path d="m306 144a2.81 2.81 0 0 1 -2.81 2.81 2.81 2.81 0 0 1 -2.81 -2.81 2.81 2.81 0 0 1 2.81 -2.81 2.81 2.81 0 0 1 2.81 2.81z"/>
<path d="m306 135a2.81 2.81 0 0 1 -2.81 2.81 2.81 2.81 0 0 1 -2.81 -2.81 2.81 2.81 0 0 1 2.81 -2.81 2.81 2.81 0 0 1 2.81 2.81z" fill="#fff" stroke="#000" stroke-width=".938"/>
</g>
<path d="m327 122a2.81 2.81 0 0 1 -2.81 2.81 2.81 2.81 0 0 1 -2.81 -2.81 2.81 2.81 0 0 1 2.81 -2.81 2.81 2.81 0 0 1 2.81 2.81z"/>
<path d="m327 131a2.81 2.81 0 0 1 -2.81 2.81 2.81 2.81 0 0 1 -2.81 -2.81 2.81 2.81 0 0 1 2.81 -2.81 2.81 2.81 0 0 1 2.81 2.81z" fill="#fff" stroke="#000" stroke-width=".938"/>
<g>
<path d="m348 157a2.81 2.81 0 0 1 -2.81 2.81 2.81 2.81 0 0 1 -2.81 -2.81 2.81 2.81 0 0 1 2.81 -2.81 2.81 2.81 0 0 1 2.81 2.81z"/>
<path d="m348 148a2.81 2.81 0 0 1 -2.81 2.81 2.81 2.81 0 0 1 -2.81 -2.81 2.81 2.81 0 0 1 2.81 -2.81 2.81 2.81 0 0 1 2.81 2.81z" fill="#fff" stroke="#000" stroke-width=".938"/>
</g>
<path d="m369 165a2.81 2.81 0 0 1 -2.81 2.81 2.81 2.81 0 0 1 -2.81 -2.81 2.81 2.81 0 0 1 2.81 -2.81 2.81 2.81 0 0 1 2.81 2.81z"/>
<path d="m369 179a2.81 2.81 0 0 1 -2.81 2.81 2.81 2.81 0 0 1 -2.81 -2.81 2.81 2.81 0 0 1 2.81 -2.81 2.81 2.81 0 0 1 2.81 2.81z" fill="#fff" stroke="#000" stroke-width=".938"/>
<g fill-rule="evenodd" stroke="#000" stroke-miterlimit="10.4" stroke-width="0">
<g transform="matrix(1.5 0 0 -1.5 47.3 1.2e3)" ns0:preamble="C:\\Users\\Daniel\\AppData\\Roaming\\inkscape\\extensions\\default_packages.tex" ns0:text="$\\zeta_1$" xml:space="preserve"><path d="m152 663 0.02-0.02 0.02-0.01 0.01-0.02 0.02-0.01 0.02-0.01 0.02-0.02 0.02-0.01 0.02-0.01 0.01-0.01h0.02l0.02-0.01 0.02-0.01h0.02l0.02-0.01 0.02-0.01h0.04l0.02-0.01h0.04l0.04-0.01h0.19l0.01 0.22c-0.21 0-0.28 0-0.39 0.07 0.15 0.06 0.33 0.06 0.46 0.06 0.33 0 0.37 0 0.55-0.05-0.08-0.03-0.18-0.08-0.62-0.08l-0.01-0.22c0.25 0 0.89 0 0.89 0.31 0 0.24-0.4 0.26-0.8 0.26-0.11 0-0.38 0-0.64-0.1-0.05 0.12-0.07 0.17-0.07 0.38 0 0.14 0.05 0.35 0.05 0.37 0 0.08-0.05 0.13-0.12 0.13-0.18 0-0.18-0.46-0.18-0.49 0-0.17 0.03-0.35 0.11-0.5-1.04-0.52-2.62-2.35-2.62-4.28 0-1.4 0.91-1.69 1.63-1.93 0.3-0.11 0.32-0.11 0.6-0.21 0.21-0.07 0.62-0.21 0.62-0.68 0-0.27-0.19-0.65-0.56-0.65-0.25 0-0.52 0.12-0.73 0.3-0.07 0.06-0.08 0.06-0.12 0.06-0.05 0-0.1-0.04-0.1-0.11 0-0.09 0.43-0.47 0.95-0.47 0.62 0 1.09 0.63 1.09 1.2 0 0.38-0.19 0.59-0.27 0.67-0.17 0.19-0.36 0.24-0.94 0.44-0.8 0.27-0.96 0.32-1.2 0.53-0.42 0.38-0.42 0.94-0.42 1.13 0 1.54 1.22 3.28 2.22 3.82z"/><path d="m155 660v0.12l-0.01 0.01v0.02h-0.01v0.02h-0.01v0.01h-0.02v0.01h-0.05v0.01h-0.11c-0.44-0.44-1.08-0.45-1.37-0.45v-0.25c0.17 0 0.63 0 1.02 0.2v-3.55c0-0.23 0-0.32-0.7-0.32h-0.27v-0.25c0.13 0.01 0.99 0.03 1.25 0.03 0.21 0 1.09-0.02 1.25-0.03v0.25h-0.27c-0.7 0-0.7 0.09-0.7 0.32z"/></g>
<g transform="matrix(1.5 0 0 -1.5 29.6 1.16e3)" ns0:preamble="C:\\Users\\Daniel\\AppData\\Roaming\\inkscape\\extensions\\default_packages.tex" ns0:text="$\\zeta_2$" xml:space="preserve"><path d="m152 663 0.02-0.02 0.02-0.01 0.01-0.02 0.02-0.01 0.02-0.01 0.02-0.02 0.02-0.01 0.02-0.01 0.01-0.01h0.02l0.02-0.01 0.02-0.01h0.02l0.02-0.01 0.02-0.01h0.04l0.02-0.01h0.04l0.04-0.01h0.19l0.01 0.22c-0.21 0-0.28 0-0.39 0.07 0.15 0.06 0.33 0.06 0.46 0.06 0.33 0 0.37 0 0.55-0.05-0.08-0.03-0.18-0.08-0.62-0.08l-0.01-0.22c0.25 0 0.89 0 0.89 0.31 0 0.24-0.4 0.26-0.8 0.26-0.11 0-0.38 0-0.64-0.1-0.05 0.12-0.07 0.17-0.07 0.38 0 0.14 0.05 0.35 0.05 0.37 0 0.08-0.05 0.13-0.12 0.13-0.18 0-0.18-0.46-0.18-0.49 0-0.17 0.03-0.35 0.11-0.5-1.04-0.52-2.62-2.35-2.62-4.28 0-1.4 0.91-1.69 1.63-1.93 0.3-0.11 0.32-0.11 0.6-0.21 0.21-0.07 0.62-0.21 0.62-0.68 0-0.27-0.19-0.65-0.56-0.65-0.25 0-0.52 0.12-0.73 0.3-0.07 0.06-0.08 0.06-0.12 0.06-0.05 0-0.1-0.04-0.1-0.11 0-0.09 0.43-0.47 0.95-0.47 0.62 0 1.09 0.63 1.09 1.2 0 0.38-0.19 0.59-0.27 0.67-0.17 0.19-0.36 0.24-0.94 0.44-0.8 0.27-0.96 0.32-1.2 0.53-0.42 0.38-0.42 0.94-0.42 1.13 0 1.54 1.22 3.28 2.22 3.82z"/><path d="m157 657h-0.24c-0.02-0.16-0.09-0.57-0.18-0.64-0.05-0.04-0.59-0.04-0.69-0.04h-1.29c0.74 0.65 0.98 0.84 1.4 1.17 0.52 0.41 1 0.84 1 1.5 0 0.84-0.74 1.36-1.63 1.36-0.87 0-1.46-0.61-1.46-1.25 0-0.35 0.3-0.39 0.37-0.39 0.17 0 0.37 0.12 0.37 0.37 0 0.13-0.05 0.37-0.41 0.37 0.22 0.5 0.69 0.65 1.02 0.65 0.7 0 1.06-0.54 1.06-1.11 0-0.6-0.43-1.08-0.65-1.33l-1.69-1.66c-0.07-0.06-0.07-0.07-0.07-0.27h2.88z"/></g>
<g transform="matrix(1.5 0 0 -1.5 51.6 1.13e3)" ns0:preamble="C:\\Users\\Daniel\\AppData\\Roaming\\inkscape\\extensions\\default_packages.tex" ns0:text="$\\zeta_3$" xml:space="preserve"><path d="m152 663 0.02-0.02 0.02-0.01 0.01-0.02 0.02-0.01 0.02-0.01 0.02-0.02 0.02-0.01 0.02-0.01 0.01-0.01h0.02l0.02-0.01 0.02-0.01h0.02l0.02-0.01 0.02-0.01h0.04l0.02-0.01h0.04l0.04-0.01h0.19l0.01 0.22c-0.21 0-0.28 0-0.39 0.07 0.15 0.06 0.33 0.06 0.46 0.06 0.33 0 0.37 0 0.55-0.05-0.08-0.03-0.18-0.08-0.62-0.08l-0.01-0.22c0.25 0 0.89 0 0.89 0.31 0 0.24-0.4 0.26-0.8 0.26-0.11 0-0.38 0-0.64-0.1-0.05 0.12-0.07 0.17-0.07 0.38 0 0.14 0.05 0.35 0.05 0.37 0 0.08-0.05 0.13-0.12 0.13-0.18 0-0.18-0.46-0.18-0.49 0-0.17 0.03-0.35 0.11-0.5-1.04-0.52-2.62-2.35-2.62-4.28 0-1.4 0.91-1.69 1.63-1.93 0.3-0.11 0.32-0.11 0.6-0.21 0.21-0.07 0.62-0.21 0.62-0.68 0-0.27-0.19-0.65-0.56-0.65-0.25 0-0.52 0.12-0.73 0.3-0.07 0.06-0.08 0.06-0.12 0.06-0.05 0-0.1-0.04-0.1-0.11 0-0.09 0.43-0.47 0.95-0.47 0.62 0 1.09 0.63 1.09 1.2 0 0.38-0.19 0.59-0.27 0.67-0.17 0.19-0.36 0.24-0.94 0.44-0.8 0.27-0.96 0.32-1.2 0.53-0.42 0.38-0.42 0.94-0.42 1.13 0 1.54 1.22 3.28 2.22 3.82z"/><path d="m155 658h0.1l0.05-0.01h0.05l0.04-0.01 0.05-0.02 0.04-0.01 0.05-0.02 0.04-0.02 0.04-0.02 0.04-0.02 0.04-0.02 0.03-0.03 0.04-0.03 0.03-0.03 0.03-0.04 0.03-0.03 0.03-0.04 0.03-0.04 0.02-0.05 0.03-0.04 0.02-0.05 0.02-0.05 0.02-0.05 0.01-0.05 0.02-0.06 0.01-0.05 0.01-0.06 0.01-0.07v-0.06l0.01-0.07v-0.07c0-0.86-0.51-1.12-0.91-1.12-0.28 0-0.9 0.08-1.19 0.49 0.33 0.02 0.41 0.24 0.41 0.39 0 0.22-0.17 0.38-0.39 0.38-0.2 0-0.39-0.11-0.39-0.4 0-0.65 0.73-1.08 1.57-1.08 0.97 0 1.64 0.65 1.64 1.34 0 0.55-0.44 1.09-1.21 1.25 0.73 0.26 1 0.78 1 1.21 0 0.55-0.64 0.96-1.41 0.96-0.78 0-1.38-0.38-1.38-0.93 0-0.24 0.16-0.37 0.37-0.37 0.22 0 0.35 0.16 0.35 0.35 0 0.2-0.13 0.35-0.35 0.36 0.24 0.31 0.73 0.39 0.98 0.39 0.32 0 0.76-0.16 0.76-0.76 0-0.29-0.1-0.61-0.28-0.83-0.23-0.26-0.43-0.28-0.78-0.3-0.17-0.01-0.19-0.01-0.22-0.02-0.01 0-0.07-0.01-0.07-0.09 0-0.1 0.06-0.1 0.18-0.1z"/></g>
<g transform="matrix(1.5 0 0 -1.5 81.3 1.11e3)" ns0:preamble="C:\\Users\\Daniel\\AppData\\Roaming\\inkscape\\extensions\\default_packages.tex" ns0:text="$\\zeta_4$" xml:space="preserve"><path d="m152 663 0.02-0.02 0.02-0.01 0.01-0.02 0.02-0.01 0.02-0.01 0.02-0.02 0.02-0.01 0.02-0.01 0.01-0.01h0.02l0.02-0.01 0.02-0.01h0.02l0.02-0.01 0.02-0.01h0.04l0.02-0.01h0.04l0.04-0.01h0.19l0.01 0.22c-0.21 0-0.28 0-0.39 0.07 0.15 0.06 0.33 0.06 0.46 0.06 0.33 0 0.37 0 0.55-0.05-0.08-0.03-0.18-0.08-0.62-0.08l-0.01-0.22c0.25 0 0.89 0 0.89 0.31 0 0.24-0.4 0.26-0.8 0.26-0.11 0-0.38 0-0.64-0.1-0.05 0.12-0.07 0.17-0.07 0.38 0 0.14 0.05 0.35 0.05 0.37 0 0.08-0.05 0.13-0.12 0.13-0.18 0-0.18-0.46-0.18-0.49 0-0.17 0.03-0.35 0.11-0.5-1.04-0.52-2.62-2.35-2.62-4.28 0-1.4 0.91-1.69 1.63-1.93 0.3-0.11 0.32-0.11 0.6-0.21 0.21-0.07 0.62-0.21 0.62-0.68 0-0.27-0.19-0.65-0.56-0.65-0.25 0-0.52 0.12-0.73 0.3-0.07 0.06-0.08 0.06-0.12 0.06-0.05 0-0.1-0.04-0.1-0.11 0-0.09 0.43-0.47 0.95-0.47 0.62 0 1.09 0.63 1.09 1.2 0 0.38-0.19 0.59-0.27 0.67-0.17 0.19-0.36 0.24-0.94 0.44-0.8 0.27-0.96 0.32-1.2 0.53-0.42 0.38-0.42 0.94-0.42 1.13 0 1.54 1.22 3.28 2.22 3.82z"/><path d="m157 657v0.25h-0.78v3.1c0 0.15 0 0.2-0.15 0.2-0.08 0-0.11 0-0.18-0.1l-2.32-3.2v-0.25h2.06l0.05 0.25h-1.85l1.85 2.55v-2.55l-0.05-0.25v-0.57c0-0.23 0-0.32-0.57-0.32h-0.19v-0.25c0.35 0.02 0.8 0.03 1.05 0.03 0.26 0 0.71-0.01 1.06-0.03v0.25h-0.19c-0.57 0-0.57 0.09-0.57 0.32v0.57z"/></g>
<g transform="matrix(1.5 0 0 -1.5 100 1.14e3)" ns0:preamble="C:\\Users\\Daniel\\AppData\\Roaming\\inkscape\\extensions\\default_packages.tex" ns0:text="$\\zeta_5$" xml:space="preserve"><path d="m152 663 0.02-0.02 0.02-0.01 0.01-0.02 0.02-0.01 0.02-0.01 0.02-0.02 0.02-0.01 0.02-0.01 0.01-0.01h0.02l0.02-0.01 0.02-0.01h0.02l0.02-0.01 0.02-0.01h0.04l0.02-0.01h0.04l0.04-0.01h0.19l0.01 0.22c-0.21 0-0.28 0-0.39 0.07 0.15 0.06 0.33 0.06 0.46 0.06 0.33 0 0.37 0 0.55-0.05-0.08-0.03-0.18-0.08-0.62-0.08l-0.01-0.22c0.25 0 0.89 0 0.89 0.31 0 0.24-0.4 0.26-0.8 0.26-0.11 0-0.38 0-0.64-0.1-0.05 0.12-0.07 0.17-0.07 0.38 0 0.14 0.05 0.35 0.05 0.37 0 0.08-0.05 0.13-0.12 0.13-0.18 0-0.18-0.46-0.18-0.49 0-0.17 0.03-0.35 0.11-0.5-1.04-0.52-2.62-2.35-2.62-4.28 0-1.4 0.91-1.69 1.63-1.93 0.3-0.11 0.32-0.11 0.6-0.21 0.21-0.07 0.62-0.21 0.62-0.68 0-0.27-0.19-0.65-0.56-0.65-0.25 0-0.52 0.12-0.73 0.3-0.07 0.06-0.08 0.06-0.12 0.06-0.05 0-0.1-0.04-0.1-0.11 0-0.09 0.43-0.47 0.95-0.47 0.62 0 1.09 0.63 1.09 1.2 0 0.38-0.19 0.59-0.27 0.67-0.17 0.19-0.36 0.24-0.94 0.44-0.8 0.27-0.96 0.32-1.2 0.53-0.42 0.38-0.42 0.94-0.42 1.13 0 1.54 1.22 3.28 2.22 3.82z"/><path d="m154 660 0.04-0.01h0.03l0.03-0.01 0.03-0.01h0.03l0.03-0.01 0.03-0.01h0.03l0.02-0.01h0.05l0.03-0.01h0.04l0.02-0.01h0.1l0.02-0.01h0.15c0.93 0 1.47 0.63 1.47 0.73 0 0.08-0.05 0.1-0.08 0.1-0.02 0-0.03 0-0.06-0.02-0.17-0.06-0.54-0.2-1.05-0.2-0.2 0-0.57 0.01-1.02 0.18-0.08 0.04-0.09 0.04-0.1 0.04-0.09 0-0.09-0.08-0.09-0.19v-2.05c0-0.12 0-0.2 0.11-0.2 0.07 0 0.08 0.01 0.14 0.1 0.31 0.38 0.73 0.43 0.98 0.43 0.42 0 0.61-0.33 0.64-0.39 0.13-0.23 0.17-0.49 0.17-0.89 0-0.21 0-0.62-0.21-0.93-0.18-0.25-0.48-0.42-0.82-0.42-0.45 0-0.92 0.26-1.1 0.71 0.27-0.02 0.4 0.16 0.4 0.34 0 0.3-0.26 0.36-0.35 0.36-0.01 0-0.35 0-0.35-0.38 0-0.62 0.58-1.25 1.41-1.25 0.9 0 1.68 0.66 1.68 1.54 0 0.78-0.6 1.51-1.47 1.51-0.3 0-0.67-0.08-0.98-0.34z"/></g>
<g transform="matrix(1.5 0 0 -1.5 150 1.16e3)" ns0:preamble="C:\\Users\\Daniel\\AppData\\Roaming\\inkscape\\extensions\\default_packages.tex" ns0:text="$\\zeta_6$" xml:space="preserve"><path d="m152 663 0.02-0.02 0.02-0.01 0.01-0.02 0.02-0.01 0.02-0.01 0.02-0.02 0.02-0.01 0.02-0.01 0.01-0.01h0.02l0.02-0.01 0.02-0.01h0.02l0.02-0.01 0.02-0.01h0.04l0.02-0.01h0.04l0.04-0.01h0.19l0.01 0.22c-0.21 0-0.28 0-0.39 0.07 0.15 0.06 0.33 0.06 0.46 0.06 0.33 0 0.37 0 0.55-0.05-0.08-0.03-0.18-0.08-0.62-0.08l-0.01-0.22c0.25 0 0.89 0 0.89 0.31 0 0.24-0.4 0.26-0.8 0.26-0.11 0-0.38 0-0.64-0.1-0.05 0.12-0.07 0.17-0.07 0.38 0 0.14 0.05 0.35 0.05 0.37 0 0.08-0.05 0.13-0.12 0.13-0.18 0-0.18-0.46-0.18-0.49 0-0.17 0.03-0.35 0.11-0.5-1.04-0.52-2.62-2.35-2.62-4.28 0-1.4 0.91-1.69 1.63-1.93 0.3-0.11 0.32-0.11 0.6-0.21 0.21-0.07 0.62-0.21 0.62-0.68 0-0.27-0.19-0.65-0.56-0.65-0.25 0-0.52 0.12-0.73 0.3-0.07 0.06-0.08 0.06-0.12 0.06-0.05 0-0.1-0.04-0.1-0.11 0-0.09 0.43-0.47 0.95-0.47 0.62 0 1.09 0.63 1.09 1.2 0 0.38-0.19 0.59-0.27 0.67-0.17 0.19-0.36 0.24-0.94 0.44-0.8 0.27-0.96 0.32-1.2 0.53-0.42 0.38-0.42 0.94-0.42 1.13 0 1.54 1.22 3.28 2.22 3.82z"/><path d="m154 658v0.21l0.01 0.1v0.1l0.01 0.1 0.01 0.1 0.01 0.1 0.02 0.09 0.02 0.1 0.02 0.09 0.02 0.09 0.03 0.09 0.02 0.04 0.02 0.05 0.01 0.04 0.02 0.04 0.03 0.04 0.02 0.04 0.02 0.04 0.02 0.04c0.24 0.38 0.62 0.64 1.07 0.64 0.21 0 0.49-0.06 0.63-0.25-0.18-0.01-0.33-0.13-0.33-0.33 0-0.17 0.12-0.33 0.33-0.33s0.34 0.14 0.34 0.34c0 0.41-0.29 0.77-0.99 0.77-1 0-2.03-0.92-2.03-2.41 0-1.81 0.85-2.35 1.62-2.35 0.85 0 1.59 0.65 1.59 1.56 0 0.88-0.7 1.54-1.52 1.54l-0.03-0.2c0.32 0 0.53-0.12 0.71-0.38 0.17-0.27 0.17-0.56 0.17-0.96s0-0.69-0.19-0.96c-0.16-0.24-0.39-0.38-0.73-0.38-0.35 0-0.62 0.21-0.77 0.51-0.1 0.21-0.16 0.56-0.16 0.98 0 0.67 0.41 1.19 0.97 1.19l0.03 0.2c-0.56 0-0.87-0.37-1.02-0.68z"/></g>
</g>
<g fill="none" stroke="#000" stroke-width=".938">
<path d="m279 177h-8.29"/>
<path d="m279 168h-8.29"/>
</g>
<g fill="none" stroke="#000">
<path d="m275 166v-11.4" marker-start="url(#d)" stroke-width=".938"/>
<path d="m275 179v11.4" marker-start="url(#b)" stroke-width=".938"/>
<path d="m240 243v11.9" stroke-width="1.41"/>
</g>
</g>
<g fill="#2581bd" stroke-width="1.44px" style="font-feature-settings:normal;font-variant-caps:normal;font-variant-ligatures:normal;font-variant-numeric:normal" aria-label="Single Step">
<path d="m252 269v-2.18q0.374 0.33 0.89 0.593 0.527 0.264 1.1 0.45 0.582 0.176 1.16 0.275 0.582 0.0989 1.08 0.0989 1.7 0 2.54-0.626 0.846-0.637 0.846-1.82 0-0.637-0.286-1.11-0.275-0.472-0.769-0.857-0.494-0.396-1.18-0.747-0.67-0.363-1.45-0.758-0.824-0.417-1.54-0.846-0.714-0.428-1.24-0.945-0.527-0.516-0.835-1.16-0.297-0.659-0.297-1.54 0-1.08 0.472-1.87 0.472-0.802 1.24-1.32t1.75-0.769q0.989-0.253 2.01-0.253 2.33 0 3.39 0.56v2.08q-1.4-0.967-3.58-0.967-0.604 0-1.21 0.132-0.604 0.121-1.08 0.406-0.472 0.286-0.769 0.736t-0.297 1.1q0 0.604 0.22 1.04 0.231 0.439 0.67 0.802t1.07 0.703q0.637 0.341 1.46 0.747 0.846 0.417 1.6 0.879 0.758 0.461 1.33 1.02 0.571 0.56 0.901 1.24 0.341 0.681 0.341 1.56 0 1.16-0.461 1.98-0.45 0.802-1.23 1.31-0.769 0.505-1.78 0.725-1.01 0.231-2.13 0.231-0.374 0-0.923-0.0659-0.549-0.0549-1.12-0.176-0.571-0.11-1.09-0.275-0.505-0.176-0.813-0.385z" style="font-feature-settings:normal;font-variant-caps:normal;font-variant-ligatures:normal;font-variant-numeric:normal"/>
<path d="m265 256q-0.483 0-0.824-0.33-0.341-0.33-0.341-0.835t0.341-0.835q0.341-0.341 0.824-0.341 0.494 0 0.835 0.341 0.352 0.33 0.352 0.835 0 0.483-0.352 0.824-0.341 0.341-0.835 0.341zm0.879 14.1h-1.8v-11.2h1.8z" style="font-feature-settings:normal;font-variant-caps:normal;font-variant-ligatures:normal;font-variant-numeric:normal"/>
<path d="m279 270h-1.8v-6.42q0-3.58-2.61-3.58-1.35 0-2.24 1.02-0.879 1.01-0.879 2.56v6.42h-1.8v-11.2h1.8v1.87h0.0439q1.27-2.13 3.69-2.13 1.85 0 2.82 1.2 0.978 1.19 0.978 3.44z" style="font-feature-settings:normal;font-variant-caps:normal;font-variant-ligatures:normal;font-variant-numeric:normal"/>
<path d="m292 269q0 6.2-5.93 6.2-2.09 0-3.65-0.791v-1.8q1.9 1.05 3.63 1.05 4.15 0 4.15-4.42v-1.23h-0.0439q-1.29 2.15-3.87 2.15-2.1 0-3.38-1.49-1.27-1.51-1.27-4.03 0-2.87 1.37-4.56 1.38-1.69 3.78-1.69 2.27 0 3.37 1.82h0.0439v-1.56h1.8zm-1.8-4.19v-1.66q0-1.34-0.912-2.3-0.901-0.956-2.25-0.956-1.67 0-2.61 1.22-0.945 1.21-0.945 3.39 0 1.88 0.901 3.01 0.912 1.12 2.41 1.12 1.52 0 2.46-1.08 0.956-1.08 0.956-2.76z" style="font-feature-settings:normal;font-variant-caps:normal;font-variant-ligatures:normal;font-variant-numeric:normal"/>
<path d="m298 270h-1.8v-16.7h1.8z" style="font-feature-settings:normal;font-variant-caps:normal;font-variant-ligatures:normal;font-variant-numeric:normal"/>
<path d="m310 265h-7.94q0.0439 1.88 1.01 2.9 0.967 1.02 2.66 1.02 1.9 0 3.49-1.25v1.69q-1.48 1.08-3.92 1.08-2.38 0-3.75-1.53-1.36-1.54-1.36-4.32 0-2.63 1.48-4.27 1.49-1.66 3.7-1.66 2.21 0 3.42 1.43 1.21 1.43 1.21 3.97zm-1.85-1.53q-0.011-1.56-0.758-2.43-0.736-0.868-2.05-0.868-1.27 0-2.16 0.912-0.89 0.912-1.1 2.38z" style="font-feature-settings:normal;font-variant-caps:normal;font-variant-ligatures:normal;font-variant-numeric:normal"/>
<path d="m319 269v-2.18q0.374 0.33 0.89 0.593 0.527 0.264 1.1 0.45 0.582 0.176 1.16 0.275 0.582 0.0989 1.08 0.0989 1.7 0 2.54-0.626 0.846-0.637 0.846-1.82 0-0.637-0.286-1.11-0.275-0.472-0.769-0.857-0.494-0.396-1.18-0.747-0.67-0.363-1.45-0.758-0.824-0.417-1.54-0.846-0.714-0.428-1.24-0.945t-0.835-1.16q-0.297-0.659-0.297-1.54 0-1.08 0.472-1.87 0.472-0.802 1.24-1.32 0.769-0.516 1.75-0.769 0.989-0.253 2.01-0.253 2.33 0 3.39 0.56v2.08q-1.4-0.967-3.58-0.967-0.604 0-1.21 0.132-0.604 0.121-1.08 0.406-0.472 0.286-0.769 0.736t-0.297 1.1q0 0.604 0.22 1.04 0.231 0.439 0.67 0.802 0.439 0.363 1.07 0.703 0.637 0.341 1.46 0.747 0.846 0.417 1.6 0.879 0.758 0.461 1.33 1.02 0.571 0.56 0.901 1.24 0.341 0.681 0.341 1.56 0 1.16-0.461 1.98-0.45 0.802-1.23 1.31-0.769 0.505-1.78 0.725-1.01 0.231-2.13 0.231-0.374 0-0.923-0.0659-0.549-0.0549-1.12-0.176-0.571-0.11-1.09-0.275-0.505-0.176-0.813-0.385z" style="font-feature-settings:normal;font-variant-caps:normal;font-variant-ligatures:normal;font-variant-numeric:normal"/>
<path d="m336 270q-0.637 0.352-1.68 0.352-2.96 0-2.96-3.3v-6.66h-1.93v-1.54h1.93v-2.75l1.8-0.582v3.33h2.83v1.54h-2.83v6.34q0 1.13 0.385 1.61 0.385 0.483 1.27 0.483 0.681 0 1.18-0.374z" style="font-feature-settings:normal;font-variant-caps:normal;font-variant-ligatures:normal;font-variant-numeric:normal"/>
<path d="m347 265h-7.94q0.0439 1.88 1.01 2.9 0.967 1.02 2.66 1.02 1.9 0 3.49-1.25v1.69q-1.48 1.08-3.92 1.08-2.38 0-3.75-1.53-1.36-1.54-1.36-4.32 0-2.63 1.48-4.27 1.49-1.66 3.7-1.66t3.42 1.43q1.21 1.43 1.21 3.97zm-1.85-1.53q-0.011-1.56-0.758-2.43-0.736-0.868-2.05-0.868-1.27 0-2.16 0.912-0.89 0.912-1.1 2.38z" style="font-feature-settings:normal;font-variant-caps:normal;font-variant-ligatures:normal;font-variant-numeric:normal"/>
<path d="m352 268h-0.0439v6.8h-1.8v-16.4h1.8v1.98h0.0439q1.33-2.24 3.89-2.24 2.18 0 3.39 1.52 1.22 1.51 1.22 4.04 0 2.82-1.37 4.53-1.37 1.69-3.76 1.69-2.19 0-3.37-1.89zm-0.0439-4.54v1.57q0 1.4 0.901 2.37 0.912 0.967 2.31 0.967 1.64 0 2.56-1.25 0.934-1.25 0.934-3.48 0-1.88-0.868-2.94-0.868-1.07-2.35-1.07-1.57 0-2.53 1.1-0.956 1.09-0.956 2.74z" style="font-feature-settings:normal;font-variant-caps:normal;font-variant-ligatures:normal;font-variant-numeric:normal"/>
</g>
</g>
<g transform="translate(1.31)">
<g transform="matrix(1.14 0 0 1.14 -55.9 -50.7)">
<g fill="none">
<path d="m414 219c5.86-2.27 11.7-4.53 16.5-8.63 4.76-4.11 8.47-8.81 12.1-16 3.57-7.19 5.7-11.6 9.39-27.2 3.7-15.5 10.1-56.8 12.8-66.1 2.69-9.23 5.47-10.1 7.63-4.57 2.15 5.5 7.21 40.7 10.6 55.9 3.42 15.1 5.91 25.6 9.93 35.1 4.02 9.44 9.25 16.5 14.2 21.6 9.29 9.4 22.7 11 33 11.7" stroke="#2581bd" stroke-linejoin="round" stroke-miterlimit="10" stroke-width="1.6"/>
<g stroke="#000" stroke-width="1.41">
<path d="m414 83.1v154h139" marker-end="url(#g)" marker-start="url(#e)"/>
<path d="m435 231v11.9"/>
<path d="m456 231v11.9"/>
<path d="m477 231v11.9"/>
<path d="m498 231v11.9"/>
<path d="m519 231v11.9"/>
<path d="m540 231v11.9"/>
</g>
</g>
<g>
<g fill-rule="evenodd" stroke="#000" stroke-miterlimit="10.4" stroke-width="0">
<g transform="matrix(1.5 0 0 -1.5 186 1.31e3)" ns0:preamble="C:\\Users\\Daniel\\AppData\\Roaming\\inkscape\\extensions\\default_packages.tex" ns0:text="$t_0$" xml:space="preserve"><path d="m151 711h0.93c0.2 0 0.3 0 0.3 0.2 0 0.11-0.1 0.11-0.28 0.11h-0.87c0.36 1.41 0.41 1.61 0.41 1.66 0 0.17-0.13 0.27-0.29 0.27-0.03 0-0.31-0.01-0.4-0.35l-0.39-1.58h-0.94c-0.2 0-0.3 0-0.3-0.19 0-0.12 0.08-0.12 0.28-0.12h0.88c-0.72-2.82-0.76-2.99-0.76-3.17 0-0.54 0.38-0.91 0.92-0.91 1.01 0 1.58 1.45 1.58 1.53 0 0.1-0.08 0.1-0.12 0.1-0.09 0-0.1-0.04-0.15-0.14-0.42-1.04-0.95-1.28-1.29-1.28-0.21 0-0.31 0.13-0.31 0.46 0 0.24 0.02 0.31 0.06 0.48z"/><path d="m156 708v0.14l-0.01 0.14v0.13l-0.01 0.12-0.01 0.13-0.02 0.12-0.02 0.11-0.02 0.11-0.02 0.11-0.03 0.11-0.04 0.1-0.03 0.1-0.05 0.1-0.04 0.09-0.06 0.1-0.03 0.04-0.02 0.05c-0.22 0.32-0.66 0.6-1.21 0.6v-0.2c0.37 0 0.74-0.23 0.86-0.63 0.11-0.37 0.12-0.87 0.12-1.48 0-0.52 0-1.03-0.09-1.47-0.14-0.63-0.62-0.78-0.89-0.78-0.33 0-0.75 0.18-0.89 0.75-0.1 0.42-0.1 0.98-0.1 1.5 0 0.51 0 1.04 0.1 1.42 0.15 0.55 0.6 0.69 0.89 0.69v0.2c-1.63 0-1.63-1.9-1.63-2.4s0-2.36 1.63-2.36c1.62 0 1.62 1.86 1.62 2.36z"/></g>
<g transform="matrix(1.5 0 0 -1.5 207 1.31e3)" ns0:preamble="C:\\Users\\Daniel\\AppData\\Roaming\\inkscape\\extensions\\default_packages.tex" ns0:text="$t_1$" xml:space="preserve"><path d="m151 711h0.93c0.2 0 0.3 0 0.3 0.2 0 0.11-0.1 0.11-0.28 0.11h-0.87c0.36 1.41 0.41 1.61 0.41 1.66 0 0.17-0.13 0.27-0.29 0.27-0.03 0-0.31-0.01-0.4-0.35l-0.39-1.58h-0.94c-0.2 0-0.3 0-0.3-0.19 0-0.12 0.08-0.12 0.28-0.12h0.88c-0.72-2.82-0.76-2.99-0.76-3.17 0-0.54 0.38-0.91 0.92-0.91 1.01 0 1.58 1.45 1.58 1.53 0 0.1-0.08 0.1-0.12 0.1-0.09 0-0.1-0.04-0.15-0.14-0.42-1.04-0.95-1.28-1.29-1.28-0.21 0-0.31 0.13-0.31 0.46 0 0.24 0.02 0.31 0.06 0.48z"/><path d="m155 710v0.12h-0.01v0.03h-0.01v0.02h-0.01v0.01h-0.02l-0.01 0.01h-0.04v0.01h-0.11c-0.45-0.44-1.08-0.45-1.37-0.45v-0.25c0.17 0 0.63 0 1.02 0.2v-3.55c0-0.23 0-0.32-0.7-0.32h-0.27v-0.25c0.13 0.01 0.99 0.03 1.25 0.03 0.21 0 1.09-0.02 1.25-0.03v0.25h-0.27c-0.7 0-0.7 0.09-0.7 0.32z"/></g>
<g transform="matrix(1.5 0 0 -1.5 228 1.31e3)" ns0:preamble="C:\\Users\\Daniel\\AppData\\Roaming\\inkscape\\extensions\\default_packages.tex" ns0:text="$t_2$" xml:space="preserve"><path d="m151 711h0.93c0.2 0 0.3 0 0.3 0.2 0 0.11-0.1 0.11-0.28 0.11h-0.87c0.36 1.41 0.41 1.61 0.41 1.66 0 0.17-0.13 0.27-0.29 0.27-0.03 0-0.31-0.01-0.4-0.35l-0.39-1.58h-0.94c-0.2 0-0.3 0-0.3-0.19 0-0.12 0.08-0.12 0.28-0.12h0.88c-0.72-2.82-0.76-2.99-0.76-3.17 0-0.54 0.38-0.91 0.92-0.91 1.01 0 1.58 1.45 1.58 1.53 0 0.1-0.08 0.1-0.12 0.1-0.09 0-0.1-0.04-0.15-0.14-0.42-1.04-0.95-1.28-1.29-1.28-0.21 0-0.31 0.13-0.31 0.46 0 0.24 0.02 0.31 0.06 0.48z"/><path d="m156 707h-0.24c-0.02-0.16-0.09-0.57-0.18-0.64-0.05-0.04-0.59-0.04-0.69-0.04h-1.29c0.74 0.65 0.98 0.84 1.4 1.17 0.52 0.41 1 0.84 1 1.5 0 0.84-0.74 1.36-1.63 1.36-0.87 0-1.46-0.61-1.46-1.25 0-0.35 0.3-0.39 0.37-0.39 0.17 0 0.37 0.12 0.37 0.37 0 0.13-0.05 0.37-0.41 0.37 0.22 0.5 0.69 0.65 1.02 0.65 0.7 0 1.06-0.54 1.06-1.11 0-0.6-0.43-1.08-0.65-1.33l-1.69-1.66c-0.07-0.06-0.07-0.07-0.07-0.27h2.88z"/></g>
<g transform="matrix(1.5 0 0 -1.5 249 1.31e3)" ns0:preamble="C:\\Users\\Daniel\\AppData\\Roaming\\inkscape\\extensions\\default_packages.tex" ns0:text="$t_3$" xml:space="preserve"><path d="m151 711h0.93c0.2 0 0.3 0 0.3 0.2 0 0.11-0.1 0.11-0.28 0.11h-0.87c0.36 1.41 0.41 1.61 0.41 1.66 0 0.17-0.13 0.27-0.29 0.27-0.03 0-0.31-0.01-0.4-0.35l-0.39-1.58h-0.94c-0.2 0-0.3 0-0.3-0.19 0-0.12 0.08-0.12 0.28-0.12h0.88c-0.72-2.82-0.76-2.99-0.76-3.17 0-0.54 0.38-0.91 0.92-0.91 1.01 0 1.58 1.45 1.58 1.53 0 0.1-0.08 0.1-0.12 0.1-0.09 0-0.1-0.04-0.15-0.14-0.42-1.04-0.95-1.28-1.29-1.28-0.21 0-0.31 0.13-0.31 0.46 0 0.24 0.02 0.31 0.06 0.48z"/><path d="m154 708h0.1l0.05-0.01h0.05l0.04-0.01 0.05-0.02 0.04-0.01 0.05-0.02 0.04-0.02 0.04-0.02 0.04-0.02 0.03-0.02 0.04-0.03 0.04-0.03 0.03-0.03 0.03-0.04 0.03-0.03 0.03-0.04 0.03-0.04 0.02-0.05 0.03-0.04 0.02-0.05 0.02-0.05 0.02-0.05 0.01-0.05 0.02-0.06 0.01-0.05 0.01-0.06 0.01-0.07v-0.13l0.01-0.07c0-0.86-0.51-1.12-0.91-1.12-0.28 0-0.9 0.08-1.19 0.49 0.33 0.02 0.4 0.24 0.4 0.39 0 0.22-0.16 0.38-0.38 0.38-0.2 0-0.39-0.11-0.39-0.4 0-0.65 0.72-1.08 1.57-1.08 0.97 0 1.64 0.65 1.64 1.34 0 0.55-0.44 1.09-1.21 1.25 0.73 0.26 1 0.78 1 1.21 0 0.55-0.64 0.96-1.42 0.96-0.77 0-1.37-0.38-1.37-0.93 0-0.24 0.16-0.37 0.37-0.37 0.22 0 0.35 0.16 0.35 0.35 0 0.2-0.13 0.35-0.35 0.36 0.24 0.31 0.72 0.39 0.98 0.39 0.32 0 0.76-0.16 0.76-0.76 0-0.29-0.1-0.61-0.28-0.83-0.23-0.26-0.43-0.28-0.78-0.3-0.17-0.01-0.19-0.01-0.22-0.02-0.02 0-0.07-0.01-0.07-0.09 0-0.1 0.06-0.1 0.18-0.1z"/></g>
<g transform="matrix(1.5 0 0 -1.5 270 1.31e3)" ns0:preamble="C:\\Users\\Daniel\\AppData\\Roaming\\inkscape\\extensions\\default_packages.tex" ns0:text="$t_4$" xml:space="preserve"><path d="m151 711h0.93c0.2 0 0.3 0 0.3 0.2 0 0.11-0.1 0.11-0.28 0.11h-0.87c0.36 1.41 0.41 1.61 0.41 1.66 0 0.17-0.13 0.27-0.29 0.27-0.03 0-0.31-0.01-0.4-0.35l-0.39-1.58h-0.94c-0.2 0-0.3 0-0.3-0.19 0-0.12 0.08-0.12 0.28-0.12h0.88c-0.72-2.82-0.76-2.99-0.76-3.17 0-0.54 0.38-0.91 0.92-0.91 1.01 0 1.58 1.45 1.58 1.53 0 0.1-0.08 0.1-0.12 0.1-0.09 0-0.1-0.04-0.15-0.14-0.42-1.04-0.95-1.28-1.29-1.28-0.21 0-0.31 0.13-0.31 0.46 0 0.24 0.02 0.31 0.06 0.48z"/><path d="m156 707v0.25h-0.78v3.1c0 0.15 0 0.2-0.15 0.2-0.09 0-0.11 0-0.18-0.1l-2.32-3.2v-0.25h2.06l0.05 0.25h-1.85l1.85 2.55v-2.55l-0.05-0.25v-0.57c0-0.23 0-0.32-0.57-0.32h-0.19v-0.25c0.35 0.02 0.8 0.03 1.05 0.03 0.26 0 0.71-0.01 1.06-0.03v0.25h-0.19c-0.57 0-0.57 0.09-0.57 0.32v0.57z"/></g>
<g transform="matrix(1.5 0 0 -1.5 291 1.31e3)" ns0:preamble="C:\\Users\\Daniel\\AppData\\Roaming\\inkscape\\extensions\\default_packages.tex" ns0:text="$t_5$" xml:space="preserve"><path d="m151 711h0.93c0.2 0 0.3 0 0.3 0.2 0 0.11-0.1 0.11-0.28 0.11h-0.87c0.36 1.41 0.41 1.61 0.41 1.66 0 0.17-0.13 0.27-0.29 0.27-0.03 0-0.31-0.01-0.4-0.35l-0.39-1.58h-0.94c-0.2 0-0.3 0-0.3-0.19 0-0.12 0.08-0.12 0.28-0.12h0.88c-0.72-2.82-0.76-2.99-0.76-3.17 0-0.54 0.38-0.91 0.92-0.91 1.01 0 1.58 1.45 1.58 1.53 0 0.1-0.08 0.1-0.12 0.1-0.09 0-0.1-0.04-0.15-0.14-0.42-1.04-0.95-1.28-1.29-1.28-0.21 0-0.31 0.13-0.31 0.46 0 0.24 0.02 0.31 0.06 0.48z"/><path d="m153 710 0.04-0.01h0.03l0.03-0.01 0.03-0.01h0.03l0.03-0.01 0.03-0.01h0.02l0.03-0.01h0.05l0.03-0.01h0.04l0.02-0.01h0.1l0.02-0.01h0.15c0.92 0 1.47 0.63 1.47 0.73 0 0.08-0.05 0.1-0.08 0.1-0.02 0-0.03 0-0.06-0.02-0.17-0.06-0.54-0.2-1.05-0.2-0.2 0-0.57 0.01-1.03 0.18-0.07 0.04-0.08 0.04-0.09 0.04-0.09 0-0.09-0.08-0.09-0.19v-2.05c0-0.12 0-0.2 0.11-0.2 0.07 0 0.07 0.01 0.14 0.1 0.3 0.38 0.73 0.43 0.98 0.43 0.42 0 0.6-0.33 0.64-0.39 0.12-0.23 0.17-0.49 0.17-0.89 0-0.21 0-0.62-0.21-0.93-0.18-0.25-0.48-0.42-0.82-0.42-0.46 0-0.92 0.26-1.1 0.71 0.27-0.02 0.4 0.16 0.4 0.34 0 0.3-0.26 0.36-0.35 0.36-0.01 0-0.35 0-0.35-0.38 0-0.62 0.57-1.25 1.41-1.25 0.9 0 1.68 0.66 1.68 1.54 0 0.78-0.6 1.51-1.47 1.51-0.3 0-0.67-0.08-0.98-0.34z"/></g>
<g transform="matrix(1.5 0 0 -1.5 312 1.31e3)" ns0:preamble="C:\\Users\\Daniel\\AppData\\Roaming\\inkscape\\extensions\\default_packages.tex" ns0:text="$t_6$" xml:space="preserve"><path d="m151 711h0.93c0.2 0 0.3 0 0.3 0.2 0 0.11-0.1 0.11-0.28 0.11h-0.87c0.36 1.41 0.41 1.61 0.41 1.66 0 0.17-0.13 0.27-0.29 0.27-0.03 0-0.31-0.01-0.4-0.35l-0.39-1.58h-0.94c-0.2 0-0.3 0-0.3-0.19 0-0.12 0.08-0.12 0.28-0.12h0.88c-0.72-2.82-0.76-2.99-0.76-3.17 0-0.54 0.38-0.91 0.92-0.91 1.01 0 1.58 1.45 1.58 1.53 0 0.1-0.08 0.1-0.12 0.1-0.09 0-0.1-0.04-0.15-0.14-0.42-1.04-0.95-1.28-1.29-1.28-0.21 0-0.31 0.13-0.31 0.46 0 0.24 0.02 0.31 0.06 0.48z"/><path d="m153 708v0.21l0.01 0.1v0.1l0.01 0.1 0.01 0.1 0.01 0.1 0.02 0.09 0.02 0.1 0.02 0.09 0.02 0.09 0.03 0.09 0.02 0.04 0.02 0.05 0.01 0.04 0.02 0.04 0.02 0.04 0.03 0.04 0.02 0.04 0.02 0.04c0.24 0.38 0.62 0.64 1.07 0.64 0.21 0 0.49-0.06 0.63-0.25-0.18-0.01-0.33-0.13-0.33-0.33 0-0.17 0.12-0.33 0.33-0.33s0.34 0.14 0.34 0.34c0 0.41-0.3 0.77-0.99 0.77-1.01 0-2.03-0.92-2.03-2.41 0-1.81 0.85-2.35 1.62-2.35 0.85 0 1.59 0.65 1.59 1.56 0 0.88-0.7 1.54-1.52 1.54l-0.03-0.2c0.32 0 0.53-0.12 0.71-0.38 0.17-0.27 0.17-0.56 0.17-0.96s0-0.69-0.19-0.96c-0.16-0.24-0.39-0.38-0.73-0.38-0.35 0-0.62 0.21-0.77 0.51-0.1 0.21-0.16 0.56-0.16 0.98 0 0.67 0.41 1.19 0.97 1.19l0.03 0.2c-0.56 0-0.87-0.37-1.02-0.68z"/></g>
</g>
<path d="m501 197a2.81 2.81 0 0 1 -2.81 2.81 2.81 2.81 0 0 1 -2.81 -2.81 2.81 2.81 0 0 1 2.81 -2.81 2.81 2.81 0 0 1 2.81 2.81z"/>
<path d="m522 216a2.81 2.81 0 0 1 -2.81 2.81 2.81 2.81 0 0 1 -2.81 -2.81 2.81 2.81 0 0 1 2.81 -2.81 2.81 2.81 0 0 1 2.81 2.81z"/>
<path d="m543 221a2.81 2.81 0 0 1 -2.81 2.81 2.81 2.81 0 0 1 -2.81 -2.81 2.81 2.81 0 0 1 2.81 -2.81 2.81 2.81 0 0 1 2.81 2.81z"/>
<path d="m417 219a2.81 2.81 0 0 1 -2.81 2.81 2.81 2.81 0 0 1 -2.81 -2.81 2.81 2.81 0 0 1 2.81 -2.81 2.81 2.81 0 0 1 2.81 2.81z"/>
<path d="m438 206a2.81 2.81 0 0 1 -2.81 2.81 2.81 2.81 0 0 1 -2.81 -2.81 2.81 2.81 0 0 1 2.81 -2.81 2.81 2.81 0 0 1 2.81 2.81z"/>
<path d="m459 149a2.81 2.81 0 0 1 -2.81 2.81 2.81 2.81 0 0 1 -2.81 -2.81 2.81 2.81 0 0 1 2.81 -2.81 2.81 2.81 0 0 1 2.81 2.81z"/>
<path d="m480 119a2.81 2.81 0 0 1 -2.81 2.81 2.81 2.81 0 0 1 -2.81 -2.81 2.81 2.81 0 0 1 2.81 -2.81 2.81 2.81 0 0 1 2.81 2.81z"/>
</g>
<g fill="none" stroke="#000">
<g transform="translate(-2.9 -9.12)">
<path d="m457 139h-8.29" stroke-width=".938"/>
<path d="m452 137v-11.4" marker-start="url(#c)" stroke-width=".938"/>
</g>
<g transform="translate(-2.9 -.0829)">
<path d="m457 149h-8.29" stroke-width=".938"/>
<path d="m452 150v11.4" marker-start="url(#a)" stroke-width=".938"/>
</g>
</g>
<g fill-rule="evenodd" stroke="#000" stroke-miterlimit="10.4" stroke-width="0">
<g transform="matrix(1.5 0 0 -1.5 193 1.19e3)" ns0:preamble="C:\\Users\\Daniel\\AppData\\Roaming\\inkscape\\extensions\\default_packages.tex" ns0:text="$\\zeta_1$" xml:space="preserve"><path d="m152 663 0.02-0.02 0.02-0.01 0.01-0.02 0.02-0.01 0.02-0.01 0.02-0.02 0.02-0.01 0.02-0.01 0.01-0.01h0.02l0.02-0.01 0.02-0.01h0.02l0.02-0.01 0.02-0.01h0.04l0.02-0.01h0.04l0.04-0.01h0.19l0.01 0.22c-0.21 0-0.28 0-0.39 0.07 0.15 0.06 0.33 0.06 0.46 0.06 0.33 0 0.37 0 0.55-0.05-0.08-0.03-0.18-0.08-0.62-0.08l-0.01-0.22c0.25 0 0.89 0 0.89 0.31 0 0.24-0.4 0.26-0.8 0.26-0.11 0-0.38 0-0.64-0.1-0.05 0.12-0.07 0.17-0.07 0.38 0 0.14 0.05 0.35 0.05 0.37 0 0.08-0.05 0.13-0.12 0.13-0.18 0-0.18-0.46-0.18-0.49 0-0.17 0.03-0.35 0.11-0.5-1.04-0.52-2.62-2.35-2.62-4.28 0-1.4 0.91-1.69 1.63-1.93 0.3-0.11 0.32-0.11 0.6-0.21 0.21-0.07 0.62-0.21 0.62-0.68 0-0.27-0.19-0.65-0.56-0.65-0.25 0-0.52 0.12-0.73 0.3-0.07 0.06-0.08 0.06-0.12 0.06-0.05 0-0.1-0.04-0.1-0.11 0-0.09 0.43-0.47 0.95-0.47 0.62 0 1.09 0.63 1.09 1.2 0 0.38-0.19 0.59-0.27 0.67-0.17 0.19-0.36 0.24-0.94 0.44-0.8 0.27-0.96 0.32-1.2 0.53-0.42 0.38-0.42 0.94-0.42 1.13 0 1.54 1.22 3.28 2.22 3.82z"/><path d="m155 660v0.12l-0.01 0.01v0.02h-0.01v0.02h-0.01v0.01h-0.02v0.01h-0.05v0.01h-0.11c-0.44-0.44-1.08-0.45-1.37-0.45v-0.25c0.17 0 0.63 0 1.02 0.2v-3.55c0-0.23 0-0.32-0.7-0.32h-0.27v-0.25c0.13 0.01 0.99 0.03 1.25 0.03 0.21 0 1.09-0.02 1.25-0.03v0.25h-0.27c-0.7 0-0.7 0.09-0.7 0.32z"/></g>
<g transform="matrix(1.5 0 0 -1.5 206 1.18e3)" ns0:preamble="C:\\Users\\Daniel\\AppData\\Roaming\\inkscape\\extensions\\default_packages.tex" ns0:text="$\\zeta_2$" xml:space="preserve"><path d="m152 663 0.02-0.02 0.02-0.01 0.01-0.02 0.02-0.01 0.02-0.01 0.02-0.02 0.02-0.01 0.02-0.01 0.01-0.01h0.02l0.02-0.01 0.02-0.01h0.02l0.02-0.01 0.02-0.01h0.04l0.02-0.01h0.04l0.04-0.01h0.19l0.01 0.22c-0.21 0-0.28 0-0.39 0.07 0.15 0.06 0.33 0.06 0.46 0.06 0.33 0 0.37 0 0.55-0.05-0.08-0.03-0.18-0.08-0.62-0.08l-0.01-0.22c0.25 0 0.89 0 0.89 0.31 0 0.24-0.4 0.26-0.8 0.26-0.11 0-0.38 0-0.64-0.1-0.05 0.12-0.07 0.17-0.07 0.38 0 0.14 0.05 0.35 0.05 0.37 0 0.08-0.05 0.13-0.12 0.13-0.18 0-0.18-0.46-0.18-0.49 0-0.17 0.03-0.35 0.11-0.5-1.04-0.52-2.62-2.35-2.62-4.28 0-1.4 0.91-1.69 1.63-1.93 0.3-0.11 0.32-0.11 0.6-0.21 0.21-0.07 0.62-0.21 0.62-0.68 0-0.27-0.19-0.65-0.56-0.65-0.25 0-0.52 0.12-0.73 0.3-0.07 0.06-0.08 0.06-0.12 0.06-0.05 0-0.1-0.04-0.1-0.11 0-0.09 0.43-0.47 0.95-0.47 0.62 0 1.09 0.63 1.09 1.2 0 0.38-0.19 0.59-0.27 0.67-0.17 0.19-0.36 0.24-0.94 0.44-0.8 0.27-0.96 0.32-1.2 0.53-0.42 0.38-0.42 0.94-0.42 1.13 0 1.54 1.22 3.28 2.22 3.82z"/><path d="m157 657h-0.24c-0.02-0.16-0.09-0.57-0.18-0.64-0.05-0.04-0.59-0.04-0.69-0.04h-1.29c0.74 0.65 0.98 0.84 1.4 1.17 0.52 0.41 1 0.84 1 1.5 0 0.84-0.74 1.36-1.63 1.36-0.87 0-1.46-0.61-1.46-1.25 0-0.35 0.3-0.39 0.37-0.39 0.17 0 0.37 0.12 0.37 0.37 0 0.13-0.05 0.37-0.41 0.37 0.22 0.5 0.69 0.65 1.02 0.65 0.7 0 1.06-0.54 1.06-1.11 0-0.6-0.43-1.08-0.65-1.33l-1.69-1.66c-0.07-0.06-0.07-0.07-0.07-0.27h2.88z"/></g>
<g transform="matrix(1.5 0 0 -1.5 207 1.13e3)" ns0:preamble="C:\\Users\\Daniel\\AppData\\Roaming\\inkscape\\extensions\\default_packages.tex" ns0:text="$\\zeta_3$" xml:space="preserve"><path d="m152 663 0.02-0.02 0.02-0.01 0.01-0.02 0.02-0.01 0.02-0.01 0.02-0.02 0.02-0.01 0.02-0.01 0.01-0.01h0.02l0.02-0.01 0.02-0.01h0.02l0.02-0.01 0.02-0.01h0.04l0.02-0.01h0.04l0.04-0.01h0.19l0.01 0.22c-0.21 0-0.28 0-0.39 0.07 0.15 0.06 0.33 0.06 0.46 0.06 0.33 0 0.37 0 0.55-0.05-0.08-0.03-0.18-0.08-0.62-0.08l-0.01-0.22c0.25 0 0.89 0 0.89 0.31 0 0.24-0.4 0.26-0.8 0.26-0.11 0-0.38 0-0.64-0.1-0.05 0.12-0.07 0.17-0.07 0.38 0 0.14 0.05 0.35 0.05 0.37 0 0.08-0.05 0.13-0.12 0.13-0.18 0-0.18-0.46-0.18-0.49 0-0.17 0.03-0.35 0.11-0.5-1.04-0.52-2.62-2.35-2.62-4.28 0-1.4 0.91-1.69 1.63-1.93 0.3-0.11 0.32-0.11 0.6-0.21 0.21-0.07 0.62-0.21 0.62-0.68 0-0.27-0.19-0.65-0.56-0.65-0.25 0-0.52 0.12-0.73 0.3-0.07 0.06-0.08 0.06-0.12 0.06-0.05 0-0.1-0.04-0.1-0.11 0-0.09 0.43-0.47 0.95-0.47 0.62 0 1.09 0.63 1.09 1.2 0 0.38-0.19 0.59-0.27 0.67-0.17 0.19-0.36 0.24-0.94 0.44-0.8 0.27-0.96 0.32-1.2 0.53-0.42 0.38-0.42 0.94-0.42 1.13 0 1.54 1.22 3.28 2.22 3.82z"/><path d="m155 658h0.1l0.05-0.01h0.05l0.04-0.01 0.05-0.02 0.04-0.01 0.05-0.02 0.04-0.02 0.04-0.02 0.04-0.02 0.04-0.02 0.03-0.03 0.04-0.03 0.03-0.03 0.03-0.04 0.03-0.03 0.03-0.04 0.03-0.04 0.02-0.05 0.03-0.04 0.02-0.05 0.02-0.05 0.02-0.05 0.01-0.05 0.02-0.06 0.01-0.05 0.01-0.06 0.01-0.07v-0.06l0.01-0.07v-0.07c0-0.86-0.51-1.12-0.91-1.12-0.28 0-0.9 0.08-1.19 0.49 0.33 0.02 0.41 0.24 0.41 0.39 0 0.22-0.17 0.38-0.39 0.38-0.2 0-0.39-0.11-0.39-0.4 0-0.65 0.73-1.08 1.57-1.08 0.97 0 1.64 0.65 1.64 1.34 0 0.55-0.44 1.09-1.21 1.25 0.73 0.26 1 0.78 1 1.21 0 0.55-0.64 0.96-1.41 0.96-0.78 0-1.38-0.38-1.38-0.93 0-0.24 0.16-0.37 0.37-0.37 0.22 0 0.35 0.16 0.35 0.35 0 0.2-0.13 0.35-0.35 0.36 0.24 0.31 0.73 0.39 0.98 0.39 0.32 0 0.76-0.16 0.76-0.76 0-0.29-0.1-0.61-0.28-0.83-0.23-0.26-0.43-0.28-0.78-0.3-0.17-0.01-0.19-0.01-0.22-0.02-0.01 0-0.07-0.01-0.07-0.09 0-0.1 0.06-0.1 0.18-0.1z"/></g>
<g transform="matrix(1.5 0 0 -1.5 250 1.08e3)" ns0:preamble="C:\\Users\\Daniel\\AppData\\Roaming\\inkscape\\extensions\\default_packages.tex" ns0:text="$\\zeta_4$" xml:space="preserve"><path d="m152 663 0.02-0.02 0.02-0.01 0.01-0.02 0.02-0.01 0.02-0.01 0.02-0.02 0.02-0.01 0.02-0.01 0.01-0.01h0.02l0.02-0.01 0.02-0.01h0.02l0.02-0.01 0.02-0.01h0.04l0.02-0.01h0.04l0.04-0.01h0.19l0.01 0.22c-0.21 0-0.28 0-0.39 0.07 0.15 0.06 0.33 0.06 0.46 0.06 0.33 0 0.37 0 0.55-0.05-0.08-0.03-0.18-0.08-0.62-0.08l-0.01-0.22c0.25 0 0.89 0 0.89 0.31 0 0.24-0.4 0.26-0.8 0.26-0.11 0-0.38 0-0.64-0.1-0.05 0.12-0.07 0.17-0.07 0.38 0 0.14 0.05 0.35 0.05 0.37 0 0.08-0.05 0.13-0.12 0.13-0.18 0-0.18-0.46-0.18-0.49 0-0.17 0.03-0.35 0.11-0.5-1.04-0.52-2.62-2.35-2.62-4.28 0-1.4 0.91-1.69 1.63-1.93 0.3-0.11 0.32-0.11 0.6-0.21 0.21-0.07 0.62-0.21 0.62-0.68 0-0.27-0.19-0.65-0.56-0.65-0.25 0-0.52 0.12-0.73 0.3-0.07 0.06-0.08 0.06-0.12 0.06-0.05 0-0.1-0.04-0.1-0.11 0-0.09 0.43-0.47 0.95-0.47 0.62 0 1.09 0.63 1.09 1.2 0 0.38-0.19 0.59-0.27 0.67-0.17 0.19-0.36 0.24-0.94 0.44-0.8 0.27-0.96 0.32-1.2 0.53-0.42 0.38-0.42 0.94-0.42 1.13 0 1.54 1.22 3.28 2.22 3.82z"/><path d="m157 657v0.25h-0.78v3.1c0 0.15 0 0.2-0.15 0.2-0.08 0-0.11 0-0.18-0.1l-2.32-3.2v-0.25h2.06l0.05 0.25h-1.85l1.85 2.55v-2.55l-0.05-0.25v-0.57c0-0.23 0-0.32-0.57-0.32h-0.19v-0.25c0.35 0.02 0.8 0.03 1.05 0.03 0.26 0 0.71-0.01 1.06-0.03v0.25h-0.19c-0.57 0-0.57 0.09-0.57 0.32v0.57z"/></g>
<g transform="matrix(1.5 0 0 -1.5 269 1.17e3)" ns0:preamble="C:\\Users\\Daniel\\AppData\\Roaming\\inkscape\\extensions\\default_packages.tex" ns0:text="$\\zeta_5$" xml:space="preserve"><path d="m152 663 0.02-0.02 0.02-0.01 0.01-0.02 0.02-0.01 0.02-0.01 0.02-0.02 0.02-0.01 0.02-0.01 0.01-0.01h0.02l0.02-0.01 0.02-0.01h0.02l0.02-0.01 0.02-0.01h0.04l0.02-0.01h0.04l0.04-0.01h0.19l0.01 0.22c-0.21 0-0.28 0-0.39 0.07 0.15 0.06 0.33 0.06 0.46 0.06 0.33 0 0.37 0 0.55-0.05-0.08-0.03-0.18-0.08-0.62-0.08l-0.01-0.22c0.25 0 0.89 0 0.89 0.31 0 0.24-0.4 0.26-0.8 0.26-0.11 0-0.38 0-0.64-0.1-0.05 0.12-0.07 0.17-0.07 0.38 0 0.14 0.05 0.35 0.05 0.37 0 0.08-0.05 0.13-0.12 0.13-0.18 0-0.18-0.46-0.18-0.49 0-0.17 0.03-0.35 0.11-0.5-1.04-0.52-2.62-2.35-2.62-4.28 0-1.4 0.91-1.69 1.63-1.93 0.3-0.11 0.32-0.11 0.6-0.21 0.21-0.07 0.62-0.21 0.62-0.68 0-0.27-0.19-0.65-0.56-0.65-0.25 0-0.52 0.12-0.73 0.3-0.07 0.06-0.08 0.06-0.12 0.06-0.05 0-0.1-0.04-0.1-0.11 0-0.09 0.43-0.47 0.95-0.47 0.62 0 1.09 0.63 1.09 1.2 0 0.38-0.19 0.59-0.27 0.67-0.17 0.19-0.36 0.24-0.94 0.44-0.8 0.27-0.96 0.32-1.2 0.53-0.42 0.38-0.42 0.94-0.42 1.13 0 1.54 1.22 3.28 2.22 3.82z"/><path d="m154 660 0.04-0.01h0.03l0.03-0.01 0.03-0.01h0.03l0.03-0.01 0.03-0.01h0.03l0.02-0.01h0.05l0.03-0.01h0.04l0.02-0.01h0.1l0.02-0.01h0.15c0.93 0 1.47 0.63 1.47 0.73 0 0.08-0.05 0.1-0.08 0.1-0.02 0-0.03 0-0.06-0.02-0.17-0.06-0.54-0.2-1.05-0.2-0.2 0-0.57 0.01-1.02 0.18-0.08 0.04-0.09 0.04-0.1 0.04-0.09 0-0.09-0.08-0.09-0.19v-2.05c0-0.12 0-0.2 0.11-0.2 0.07 0 0.08 0.01 0.14 0.1 0.31 0.38 0.73 0.43 0.98 0.43 0.42 0 0.61-0.33 0.64-0.39 0.13-0.23 0.17-0.49 0.17-0.89 0-0.21 0-0.62-0.21-0.93-0.18-0.25-0.48-0.42-0.82-0.42-0.45 0-0.92 0.26-1.1 0.71 0.27-0.02 0.4 0.16 0.4 0.34 0 0.3-0.26 0.36-0.35 0.36-0.01 0-0.35 0-0.35-0.38 0-0.62 0.58-1.25 1.41-1.25 0.9 0 1.68 0.66 1.68 1.54 0 0.78-0.6 1.51-1.47 1.51-0.3 0-0.67-0.08-0.98-0.34z"/></g>
<g transform="matrix(1.5 0 0 -1.5 290 1.19e3)" ns0:preamble="C:\\Users\\Daniel\\AppData\\Roaming\\inkscape\\extensions\\default_packages.tex" ns0:text="$\\zeta_6$" xml:space="preserve"><path d="m152 663 0.02-0.02 0.02-0.01 0.01-0.02 0.02-0.01 0.02-0.01 0.02-0.02 0.02-0.01 0.02-0.01 0.01-0.01h0.02l0.02-0.01 0.02-0.01h0.02l0.02-0.01 0.02-0.01h0.04l0.02-0.01h0.04l0.04-0.01h0.19l0.01 0.22c-0.21 0-0.28 0-0.39 0.07 0.15 0.06 0.33 0.06 0.46 0.06 0.33 0 0.37 0 0.55-0.05-0.08-0.03-0.18-0.08-0.62-0.08l-0.01-0.22c0.25 0 0.89 0 0.89 0.31 0 0.24-0.4 0.26-0.8 0.26-0.11 0-0.38 0-0.64-0.1-0.05 0.12-0.07 0.17-0.07 0.38 0 0.14 0.05 0.35 0.05 0.37 0 0.08-0.05 0.13-0.12 0.13-0.18 0-0.18-0.46-0.18-0.49 0-0.17 0.03-0.35 0.11-0.5-1.04-0.52-2.62-2.35-2.62-4.28 0-1.4 0.91-1.69 1.63-1.93 0.3-0.11 0.32-0.11 0.6-0.21 0.21-0.07 0.62-0.21 0.62-0.68 0-0.27-0.19-0.65-0.56-0.65-0.25 0-0.52 0.12-0.73 0.3-0.07 0.06-0.08 0.06-0.12 0.06-0.05 0-0.1-0.04-0.1-0.11 0-0.09 0.43-0.47 0.95-0.47 0.62 0 1.09 0.63 1.09 1.2 0 0.38-0.19 0.59-0.27 0.67-0.17 0.19-0.36 0.24-0.94 0.44-0.8 0.27-0.96 0.32-1.2 0.53-0.42 0.38-0.42 0.94-0.42 1.13 0 1.54 1.22 3.28 2.22 3.82z"/><path d="m154 658v0.21l0.01 0.1v0.1l0.01 0.1 0.01 0.1 0.01 0.1 0.02 0.09 0.02 0.1 0.02 0.09 0.02 0.09 0.03 0.09 0.02 0.04 0.02 0.05 0.01 0.04 0.02 0.04 0.03 0.04 0.02 0.04 0.02 0.04 0.02 0.04c0.24 0.38 0.62 0.64 1.07 0.64 0.21 0 0.49-0.06 0.63-0.25-0.18-0.01-0.33-0.13-0.33-0.33 0-0.17 0.12-0.33 0.33-0.33s0.34 0.14 0.34 0.34c0 0.41-0.29 0.77-0.99 0.77-1 0-2.03-0.92-2.03-2.41 0-1.81 0.85-2.35 1.62-2.35 0.85 0 1.59 0.65 1.59 1.56 0 0.88-0.7 1.54-1.52 1.54l-0.03-0.2c0.32 0 0.53-0.12 0.71-0.38 0.17-0.27 0.17-0.56 0.17-0.96s0-0.69-0.19-0.96c-0.16-0.24-0.39-0.38-0.73-0.38-0.35 0-0.62 0.21-0.77 0.51-0.1 0.21-0.16 0.56-0.16 0.98 0 0.67 0.41 1.19 0.97 1.19l0.03 0.2c-0.56 0-0.87-0.37-1.02-0.68z"/></g>
</g>
<g fill="#fff" stroke="#000" stroke-width=".938">
<path d="m417 210a2.81 2.81 0 0 1 -2.81 2.81 2.81 2.81 0 0 1 -2.81 -2.81 2.81 2.81 0 0 1 2.81 -2.81 2.81 2.81 0 0 1 2.81 2.81z"/>
<path d="m438 214a2.81 2.81 0 0 1 -2.81 2.81 2.81 2.81 0 0 1 -2.81 -2.81 2.81 2.81 0 0 1 2.81 -2.81 2.81 2.81 0 0 1 2.81 2.81z"/>
<path d="m459 130a2.81 2.81 0 0 1 -2.81 2.81 2.81 2.81 0 0 1 -2.81 -2.81 2.81 2.81 0 0 1 2.81 -2.81 2.81 2.81 0 0 1 2.81 2.81z"/>
<path d="m480 115a2.81 2.81 0 0 1 -2.81 2.81 2.81 2.81 0 0 1 -2.81 -2.81 2.81 2.81 0 0 1 2.81 -2.81 2.81 2.81 0 0 1 2.81 2.81z"/>
<path d="m501 206a2.81 2.81 0 0 1 -2.81 2.81 2.81 2.81 0 0 1 -2.81 -2.81 2.81 2.81 0 0 1 2.81 -2.81 2.81 2.81 0 0 1 2.81 2.81z"/>
<path d="m543 214a2.81 2.81 0 0 1 -2.81 2.81 2.81 2.81 0 0 1 -2.81 -2.81 2.81 2.81 0 0 1 2.81 -2.81 2.81 2.81 0 0 1 2.81 2.81z"/>
<path d="m522 223a2.81 2.81 0 0 1 -2.81 2.81 2.81 2.81 0 0 1 -2.81 -2.81 2.81 2.81 0 0 1 2.81 -2.81 2.81 2.81 0 0 1 2.81 2.81z"/>
</g>
<g stroke="#000">
<g transform="matrix(1.5 0 0 -1.5 311 1.19e3)" fill-rule="evenodd" stroke-miterlimit="10.4" stroke-width="0" ns0:preamble="C:\\Users\\Daniel\\AppData\\Roaming\\inkscape\\extensions\\default_packages.tex" ns0:text="$\\zeta_7$" xml:space="preserve"><path d="m152 663 0.02-0.02 0.02-0.01 0.01-0.02 0.02-0.01 0.02-0.01 0.02-0.02 0.02-0.01 0.02-0.01 0.01-0.01h0.02l0.02-0.01 0.02-0.01h0.02l0.02-0.01 0.02-0.01h0.04l0.02-0.01h0.04l0.04-0.01h0.19l0.01 0.22c-0.21 0-0.28 0-0.39 0.07 0.15 0.06 0.33 0.06 0.46 0.06 0.33 0 0.37 0 0.55-0.05-0.08-0.03-0.18-0.08-0.62-0.08l-0.01-0.22c0.25 0 0.89 0 0.89 0.31 0 0.24-0.4 0.26-0.8 0.26-0.11 0-0.38 0-0.64-0.1-0.05 0.12-0.07 0.17-0.07 0.38 0 0.14 0.05 0.35 0.05 0.37 0 0.08-0.05 0.13-0.12 0.13-0.18 0-0.18-0.46-0.18-0.49 0-0.17 0.03-0.35 0.11-0.5-1.04-0.52-2.62-2.35-2.62-4.28 0-1.4 0.91-1.69 1.63-1.93 0.3-0.11 0.32-0.11 0.6-0.21 0.21-0.07 0.62-0.21 0.62-0.68 0-0.27-0.19-0.65-0.56-0.65-0.25 0-0.52 0.12-0.73 0.3-0.07 0.06-0.08 0.06-0.12 0.06-0.05 0-0.1-0.04-0.1-0.11 0-0.09 0.43-0.47 0.95-0.47 0.62 0 1.09 0.63 1.09 1.2 0 0.38-0.19 0.59-0.27 0.67-0.17 0.19-0.36 0.24-0.94 0.44-0.8 0.27-0.96 0.32-1.2 0.53-0.42 0.38-0.42 0.94-0.42 1.13 0 1.54 1.22 3.28 2.22 3.82z"/><path d="m157 660 0.01 0.01v0.01h0.01l0.01 0.01v0.01l0.01 0.01 0.01 0.01v0.02h0.01v0.03l0.01 0.01v0.16h-1.83c-0.28 0-0.36 0.01-0.61 0.03-0.36 0.03-0.38 0.07-0.4 0.19h-0.24l-0.24-1.49h0.24c0.01 0.11 0.08 0.57 0.19 0.64 0.06 0.04 0.63 0.04 0.73 0.04h1.52c-0.22-0.29-0.58-0.72-0.72-0.92-0.92-1.2-1-2.3-1-2.71 0-0.08 0-0.4 0.33-0.4s0.33 0.31 0.33 0.41v0.27c0 1.35 0.28 1.97 0.58 2.35z"/></g>
<g transform="matrix(1.5 0 0 -1.5 185 1.06e3)" fill-rule="evenodd" stroke-miterlimit="10.4" stroke-width="0" ns0:preamble="C:\\Users\\Daniel\\AppData\\Roaming\\inkscape\\extensions\\default_packages.tex" ns0:text="$\\dot{\\bm{\\xi}}(t)$" xml:space="preserve"><path d="m153 666v0.05l-0.01 0.03v0.02l-0.01 0.03v0.02l-0.01 0.02-0.01 0.03-0.01 0.02-0.01 0.02-0.02 0.03-0.01 0.02-0.01 0.02-0.02 0.02-0.02 0.02-0.01 0.02-0.02 0.02-0.02 0.01-0.02 0.02-0.02 0.01-0.02 0.02-0.02 0.01-0.03 0.01-0.02 0.02-0.03 0.01h-0.02l-0.03 0.01-0.02 0.01h-0.03l-0.02 0.01h-0.06c-0.34 0-0.54-0.28-0.54-0.53 0-0.26 0.23-0.52 0.53-0.52 0.34 0 0.54 0.27 0.54 0.52z"/><path d="m151 661-0.02 0.03-0.01 0.03-0.01 0.03v0.04l-0.01 0.03-0.01 0.03-0.01 0.03v0.03l-0.01 0.03v0.04l-0.01 0.03v0.16c0 0.53 0.29 1.28 0.83 1.66 0.22-0.3 0.51-0.3 0.75-0.3 0.27 0 1.08 0 1.08 0.54 0 0.4-0.54 0.41-0.96 0.41l-0.01-0.35c0.31 0 0.34-0.01 0.5-0.07-0.01-0.01 0-0.02-0.03-0.06-0.1-0.11-0.48-0.11-0.58-0.11-0.16 0-0.32 0-0.41 0.15 0.2 0.09 0.38 0.09 0.52 0.09l0.01 0.35c-0.1 0-0.35 0-0.63-0.04 0.01 0.31 0.07 0.54 0.07 0.56 0.02 0.08 0.02 0.09 0.02 0.12 0 0.2-0.2 0.21-0.21 0.21-0.33 0-0.33-0.59-0.33-0.77 0-0.07 0-0.16 0.01-0.23-1.24-0.36-1.86-1.26-1.86-2.01 0-0.47 0.26-0.85 0.53-1.04-1.05-0.7-1.3-1.62-1.3-2 0-0.82 0.73-1.21 1.32-1.42l1.14-0.39c0.25-0.08 0.68-0.23 0.75-0.27 0.08-0.04 0.13-0.13 0.13-0.21 0-0.03-0.02-0.29-0.31-0.29-0.06 0-0.55 0.01-0.99 0.24-0.07 0.04-0.09 0.05-0.13 0.05-0.14 0-0.2-0.11-0.2-0.17 0-0.24 0.83-0.48 1.33-0.48 0.78 0 1.2 0.71 1.2 1.18 0 0.43-0.3 0.67-0.5 0.75-0.13 0.05-1.07 0.36-1.32 0.45l-0.65 0.22c-0.35 0.12-0.93 0.32-0.93 0.8 0 0.58 0.75 1.29 0.88 1.29 0.01 0 0.02 0 0.07-0.02 0.49-0.17 0.8-0.17 1.07-0.17l0.03 0.36c-0.16 0-0.38 0-0.55 0.13 0.27 0.1 0.49 0.1 0.66 0.1 0.32 0 0.35-0.01 0.51-0.06-0.01-0.02-0.02-0.05-0.03-0.06-0.1-0.11-0.47-0.11-0.59-0.11l-0.03-0.36c0.31 0 1.13 0 1.13 0.54 0 0.41-0.62 0.41-0.95 0.41-0.19 0-0.5 0-0.95-0.13z"/><path d="m157 655v0.03h-0.01v0.01l-0.01 0.01v0.01h-0.01v0.01l-0.01 0.01-0.01 0.01v0.01h-0.01v0.01h-0.01v0.01h-0.01v0.01h-0.01v0.01h-0.01v0.01l-0.01 0.01-0.01 0.01-0.01 0.01-0.01 0.01-0.01 0.01h-0.01v0.01l-0.01 0.01c-1.25 1.25-1.57 3.13-1.57 4.65 0 1.73 0.38 3.45 1.61 4.7 0.13 0.12 0.13 0.14 0.13 0.17 0 0.07-0.04 0.09-0.1 0.09-0.1 0-1-0.67-1.59-1.93-0.51-1.09-0.62-2.2-0.62-3.03 0-0.78 0.11-1.98 0.65-3.1 0.6-1.22 1.46-1.87 1.56-1.87 0.06 0 0.1 0.03 0.1 0.1z"/><path d="m160 661h0.93c0.2 0 0.3 0 0.3 0.2 0 0.11-0.1 0.11-0.28 0.11h-0.87c0.36 1.41 0.4 1.61 0.4 1.66 0 0.17-0.11 0.27-0.28 0.27-0.03 0-0.31-0.01-0.4-0.35l-0.39-1.58h-0.94c-0.2 0-0.3 0-0.3-0.19 0-0.12 0.08-0.12 0.28-0.12h0.88c-0.72-2.82-0.76-2.99-0.76-3.17 0-0.54 0.38-0.91 0.92-0.91 1.01 0 1.58 1.45 1.58 1.53 0 0.1-0.08 0.1-0.12 0.1-0.09 0-0.1-0.04-0.15-0.14-0.43-1.04-0.95-1.28-1.29-1.28-0.21 0-0.31 0.13-0.31 0.46 0 0.24 0.02 0.31 0.06 0.48z"/><path d="m164 660v0.31l-0.01 0.17-0.01 0.17-0.02 0.18-0.02 0.19-0.03 0.2-0.03 0.2-0.04 0.2-0.05 0.21-0.05 0.21-0.06 0.21-0.07 0.21-0.08 0.21-0.04 0.11-0.05 0.11-0.05 0.1-0.05 0.11c-0.59 1.22-1.45 1.86-1.55 1.86-0.06 0-0.1-0.03-0.1-0.09 0-0.03 0-0.05 0.19-0.23 0.98-0.99 1.54-2.57 1.54-4.64 0-1.7-0.36-3.45-1.6-4.7-0.13-0.12-0.13-0.14-0.13-0.17 0-0.06 0.04-0.1 0.1-0.1 0.1 0 0.99 0.68 1.58 1.94 0.51 1.09 0.63 2.19 0.63 3.03z"/></g>
<path d="m414 231v11.9" fill="none" stroke-width="1.41"/>
</g>
</g>
<g fill="#2581bd" stroke-width="1.44px" style="font-feature-settings:normal;font-variant-caps:normal;font-variant-ligatures:normal;font-variant-numeric:normal" aria-label="Pseudospectral">
<path d="m424 264v5.95h-1.85v-15.8h4.33q2.53 0 3.91 1.23 1.4 1.23 1.4 3.47t-1.55 3.67q-1.54 1.43-4.16 1.43zm0-8.13v6.46h1.93q1.91 0 2.91-0.868 1.01-0.879 1.01-2.47 0-3.12-3.69-3.12z" style=""/>
<path d="m434 270v-1.93q1.47 1.09 3.24 1.09 2.37 0 2.37-1.58 0-0.45-0.209-0.758-0.198-0.319-0.549-0.56-0.341-0.242-0.813-0.428-0.461-0.198-1-0.406-0.747-0.297-1.32-0.593-0.56-0.308-0.945-0.681-0.374-0.385-0.571-0.868-0.187-0.483-0.187-1.13 0-0.791 0.363-1.4 0.363-0.615 0.967-1.02 0.604-0.417 1.37-0.626 0.78-0.209 1.6-0.209 1.46 0 2.61 0.505v1.82q-1.24-0.813-2.86-0.813-0.505 0-0.912 0.121-0.406 0.11-0.703 0.319-0.286 0.209-0.45 0.505-0.154 0.286-0.154 0.637 0 0.439 0.154 0.736 0.165 0.297 0.472 0.527 0.308 0.231 0.747 0.417 0.439 0.187 1 0.406 0.747 0.286 1.34 0.593 0.593 0.297 1.01 0.681 0.417 0.374 0.637 0.868 0.231 0.494 0.231 1.18 0 0.835-0.374 1.45-0.363 0.615-0.978 1.02-0.615 0.406-1.42 0.604-0.802 0.198-1.68 0.198-1.74 0-3.01-0.67z" style=""/>
<path d="m453 265h-7.94q0.0439 1.88 1.01 2.9 0.967 1.02 2.66 1.02 1.9 0 3.49-1.25v1.69q-1.48 1.08-3.92 1.08-2.38 0-3.75-1.53-1.36-1.54-1.36-4.32 0-2.63 1.48-4.27 1.49-1.66 3.7-1.66 2.21 0 3.42 1.43 1.21 1.43 1.21 3.97zm-1.85-1.53q-0.011-1.56-0.758-2.43-0.736-0.868-2.05-0.868-1.27 0-2.16 0.912-0.89 0.912-1.1 2.38z" style=""/>
<path d="m465 270h-1.8v-1.78h-0.0439q-1.12 2.04-3.47 2.04-4.02 0-4.02-4.79v-6.72h1.79v6.44q0 3.56 2.72 3.56 1.32 0 2.16-0.967 0.857-0.978 0.857-2.55v-6.48h1.8z" style=""/>
<path d="m478 270h-1.8v-1.91h-0.0439q-1.25 2.18-3.87 2.18-2.12 0-3.39-1.51-1.26-1.52-1.26-4.12 0-2.79 1.41-4.47 1.41-1.68 3.75-1.68 2.32 0 3.37 1.82h0.0439v-6.97h1.8zm-1.8-5.09v-1.66q0-1.36-0.901-2.31-0.901-0.945-2.29-0.945-1.65 0-2.59 1.21-0.945 1.21-0.945 3.34 0 1.94 0.901 3.08 0.912 1.12 2.44 1.12 1.51 0 2.44-1.09 0.945-1.09 0.945-2.75z" style=""/>
<path d="m486 270q-2.49 0-3.99-1.57-1.48-1.58-1.48-4.19 0-2.83 1.55-4.43 1.55-1.59 4.19-1.59 2.52 0 3.92 1.55 1.42 1.55 1.42 4.3 0 2.69-1.53 4.32-1.52 1.61-4.08 1.61zm0.132-10.3q-1.74 0-2.75 1.19-1.01 1.18-1.01 3.25 0 2 1.02 3.15 1.02 1.15 2.74 1.15 1.75 0 2.68-1.13 0.945-1.13 0.945-3.22 0-2.11-0.945-3.25-0.934-1.14-2.68-1.14z" style=""/>
<path d="m494 270v-1.93q1.47 1.09 3.24 1.09 2.37 0 2.37-1.58 0-0.45-0.209-0.758-0.198-0.319-0.549-0.56-0.341-0.242-0.813-0.428-0.461-0.198-1-0.406-0.747-0.297-1.32-0.593-0.56-0.308-0.945-0.681-0.374-0.385-0.571-0.868-0.187-0.483-0.187-1.13 0-0.791 0.363-1.4 0.363-0.615 0.967-1.02 0.604-0.417 1.37-0.626 0.78-0.209 1.6-0.209 1.46 0 2.61 0.505v1.82q-1.24-0.813-2.86-0.813-0.505 0-0.912 0.121-0.406 0.11-0.703 0.319-0.286 0.209-0.45 0.505-0.154 0.286-0.154 0.637 0 0.439 0.154 0.736 0.165 0.297 0.472 0.527 0.308 0.231 0.747 0.417t1 0.406q0.747 0.286 1.34 0.593 0.593 0.297 1.01 0.681 0.417 0.374 0.637 0.868 0.231 0.494 0.231 1.18 0 0.835-0.374 1.45-0.363 0.615-0.978 1.02-0.615 0.406-1.42 0.604-0.802 0.198-1.68 0.198-1.74 0-3.01-0.67z" style=""/>
<path d="m506 268h-0.0439v6.8h-1.8v-16.4h1.8v1.98h0.0439q1.33-2.24 3.89-2.24 2.18 0 3.39 1.52 1.22 1.51 1.22 4.04 0 2.82-1.37 4.53-1.37 1.69-3.76 1.69-2.19 0-3.37-1.89zm-0.0439-4.54v1.57q0 1.4 0.901 2.37 0.912 0.967 2.31 0.967 1.64 0 2.56-1.25 0.934-1.25 0.934-3.48 0-1.88-0.868-2.94-0.868-1.07-2.35-1.07-1.57 0-2.53 1.1-0.956 1.09-0.956 2.74z" style=""/>
<path d="m527 265h-7.94q0.0439 1.88 1.01 2.9 0.967 1.02 2.66 1.02 1.9 0 3.49-1.25v1.69q-1.48 1.08-3.92 1.08-2.38 0-3.75-1.53-1.36-1.54-1.36-4.32 0-2.63 1.48-4.27 1.49-1.66 3.7-1.66t3.42 1.43q1.21 1.43 1.21 3.97zm-1.85-1.53q-0.011-1.56-0.758-2.43-0.736-0.868-2.05-0.868-1.27 0-2.16 0.912-0.89 0.912-1.1 2.38z" style=""/>
<path d="m537 270q-1.3 0.78-3.08 0.78-2.41 0-3.89-1.56-1.47-1.57-1.47-4.06 0-2.78 1.59-4.46 1.59-1.69 4.25-1.69 1.48 0 2.61 0.549v1.85q-1.25-0.879-2.68-0.879-1.72 0-2.83 1.24-1.1 1.23-1.1 3.24 0 1.98 1.03 3.12 1.04 1.14 2.79 1.14 1.47 0 2.77-0.978z" style=""/>
<path d="m545 270q-0.637 0.352-1.68 0.352-2.96 0-2.96-3.3v-6.66h-1.93v-1.54h1.93v-2.75l1.8-0.582v3.33h2.83v1.54h-2.83v6.34q0 1.13 0.385 1.61 0.385 0.483 1.27 0.483 0.681 0 1.18-0.374z" style=""/>
<path d="m553 261q-0.472-0.363-1.36-0.363-1.15 0-1.93 1.09-0.769 1.09-0.769 2.97v5.73h-1.8v-11.2h1.8v2.32h0.0439q0.385-1.19 1.18-1.85 0.791-0.67 1.77-0.67 0.703 0 1.08 0.154z" style=""/>
<path d="m563 270h-1.8v-1.76h-0.0439q-1.18 2.02-3.46 2.02-1.68 0-2.64-0.89-0.945-0.89-0.945-2.36 0-3.15 3.71-3.67l3.37-0.472q0-2.87-2.32-2.87-2.03 0-3.67 1.38v-1.85q1.66-1.05 3.82-1.05 3.97 0 3.97 4.2zm-1.8-5.69-2.71 0.374q-1.25 0.176-1.89 0.626-0.637 0.439-0.637 1.57 0 0.824 0.582 1.35 0.593 0.516 1.57 0.516 1.34 0 2.21-0.934 0.879-0.945 0.879-2.38z" style=""/>
<path d="m568 270h-1.8v-16.7h1.8z" style=""/>
</g>
</g>
</g>
</svg>
